%TF.GenerationSoftware,KiCad,Pcbnew,7.0.1*%
%TF.CreationDate,2024-01-20T13:41:32+00:00*%
%TF.ProjectId,Control_Board,436f6e74-726f-46c5-9f42-6f6172642e6b,rev?*%
%TF.SameCoordinates,Original*%
%TF.FileFunction,Drillmap*%
%TF.FilePolarity,Positive*%
%FSLAX45Y45*%
G04 Gerber Fmt 4.5, Leading zero omitted, Abs format (unit mm)*
G04 Created by KiCad (PCBNEW 7.0.1) date 2024-01-20 13:41:32*
%MOMM*%
%LPD*%
G01*
G04 APERTURE LIST*
%ADD10C,0.200000*%
%ADD11C,0.100000*%
%ADD12C,0.040000*%
%ADD13C,0.065000*%
%ADD14C,0.080000*%
G04 APERTURE END LIST*
D10*
X17448541Y-8236000D02*
G75*
G03*
X17448541Y-8236000I-150541J0D01*
G01*
D11*
X16180000Y-8037000D02*
X16360000Y-8037000D01*
X16360000Y-9277000D01*
X16180000Y-9277000D01*
X16180000Y-8037000D01*
X16832500Y-8047000D02*
G75*
G03*
X16832500Y-8047000I-141532J0D01*
G01*
X10029032Y-8047000D02*
G75*
G03*
X10029032Y-8047000I-141532J0D01*
G01*
D10*
X9557541Y-12227000D02*
G75*
G03*
X9557541Y-12227000I-150541J0D01*
G01*
X9546541Y-8235000D02*
G75*
G03*
X9546541Y-8235000I-150541J0D01*
G01*
X17447541Y-12227000D02*
G75*
G03*
X17447541Y-12227000I-150541J0D01*
G01*
D11*
X10075000Y-11957000D02*
G75*
G03*
X10075000Y-11957000I-141532J0D01*
G01*
X16833000Y-11969500D02*
G75*
G03*
X16833000Y-11969500I-141532J0D01*
G01*
X9056000Y-7769500D02*
X17653000Y-7769500D01*
X17653000Y-12719500D01*
X9056000Y-12719500D01*
X9056000Y-7769500D01*
D10*
D12*
X9133000Y-10515000D02*
X9173000Y-10555000D01*
X9173000Y-10515000D02*
X9133000Y-10555000D01*
X9133000Y-11259000D02*
X9173000Y-11299000D01*
X9173000Y-11259000D02*
X9133000Y-11299000D01*
X9134000Y-11488000D02*
X9174000Y-11528000D01*
X9174000Y-11488000D02*
X9134000Y-11528000D01*
X9134000Y-12232000D02*
X9174000Y-12272000D01*
X9174000Y-12232000D02*
X9134000Y-12272000D01*
X9134000Y-12498000D02*
X9174000Y-12538000D01*
X9174000Y-12498000D02*
X9134000Y-12538000D01*
X9136000Y-10273000D02*
X9176000Y-10313000D01*
X9176000Y-10273000D02*
X9136000Y-10313000D01*
X9136000Y-10761000D02*
X9176000Y-10801000D01*
X9176000Y-10761000D02*
X9136000Y-10801000D01*
X9137000Y-9286000D02*
X9177000Y-9326000D01*
X9177000Y-9286000D02*
X9137000Y-9326000D01*
X9137000Y-10030000D02*
X9177000Y-10070000D01*
X9177000Y-10030000D02*
X9137000Y-10070000D01*
X9137000Y-11734000D02*
X9177000Y-11774000D01*
X9177000Y-11734000D02*
X9137000Y-11774000D01*
X9138000Y-11019000D02*
X9178000Y-11059000D01*
X9178000Y-11019000D02*
X9138000Y-11059000D01*
X9139000Y-11992000D02*
X9179000Y-12032000D01*
X9179000Y-11992000D02*
X9139000Y-12032000D01*
X9140000Y-7811000D02*
X9180000Y-7851000D01*
X9180000Y-7811000D02*
X9140000Y-7851000D01*
X9140000Y-8034000D02*
X9180000Y-8074000D01*
X9180000Y-8034000D02*
X9140000Y-8074000D01*
X9140000Y-8778000D02*
X9180000Y-8818000D01*
X9180000Y-8778000D02*
X9140000Y-8818000D01*
X9140000Y-9044000D02*
X9180000Y-9084000D01*
X9180000Y-9044000D02*
X9140000Y-9084000D01*
X9140000Y-9532000D02*
X9180000Y-9572000D01*
X9180000Y-9532000D02*
X9140000Y-9572000D01*
X9142000Y-9790000D02*
X9182000Y-9830000D01*
X9182000Y-9790000D02*
X9142000Y-9830000D01*
X9143000Y-8280000D02*
X9183000Y-8320000D01*
X9183000Y-8280000D02*
X9143000Y-8320000D01*
X9145000Y-8538000D02*
X9185000Y-8578000D01*
X9185000Y-8538000D02*
X9145000Y-8578000D01*
X9313000Y-12606000D02*
X9353000Y-12646000D01*
X9353000Y-12606000D02*
X9313000Y-12646000D01*
X9380000Y-7816000D02*
X9420000Y-7856000D01*
X9420000Y-7816000D02*
X9380000Y-7856000D01*
X9553000Y-12611000D02*
X9593000Y-12651000D01*
X9593000Y-12611000D02*
X9553000Y-12651000D01*
X9638000Y-7814000D02*
X9678000Y-7854000D01*
X9678000Y-7814000D02*
X9638000Y-7854000D01*
X9811000Y-12609000D02*
X9851000Y-12649000D01*
X9851000Y-12609000D02*
X9811000Y-12649000D01*
X9884000Y-7811000D02*
X9924000Y-7851000D01*
X9924000Y-7811000D02*
X9884000Y-7851000D01*
X10057000Y-12606000D02*
X10097000Y-12646000D01*
X10097000Y-12606000D02*
X10057000Y-12646000D01*
X10105000Y-11177000D02*
X10145000Y-11217000D01*
X10145000Y-11177000D02*
X10105000Y-11217000D01*
X10106000Y-10902000D02*
X10146000Y-10942000D01*
X10146000Y-10902000D02*
X10106000Y-10942000D01*
X10126000Y-7814000D02*
X10166000Y-7854000D01*
X10166000Y-7814000D02*
X10126000Y-7854000D01*
X10299000Y-12609000D02*
X10339000Y-12649000D01*
X10339000Y-12609000D02*
X10299000Y-12649000D01*
X10369000Y-7815000D02*
X10409000Y-7855000D01*
X10409000Y-7815000D02*
X10369000Y-7855000D01*
X10542000Y-12610000D02*
X10582000Y-12650000D01*
X10582000Y-12610000D02*
X10542000Y-12650000D01*
X10609000Y-7820000D02*
X10649000Y-7860000D01*
X10649000Y-7820000D02*
X10609000Y-7860000D01*
X10782000Y-12615000D02*
X10822000Y-12655000D01*
X10822000Y-12615000D02*
X10782000Y-12655000D01*
X10867000Y-7818000D02*
X10907000Y-7858000D01*
X10907000Y-7818000D02*
X10867000Y-7858000D01*
X11040000Y-12613000D02*
X11080000Y-12653000D01*
X11080000Y-12613000D02*
X11040000Y-12653000D01*
X11113000Y-7815000D02*
X11153000Y-7855000D01*
X11153000Y-7815000D02*
X11113000Y-7855000D01*
X11171000Y-9400000D02*
X11211000Y-9440000D01*
X11211000Y-9400000D02*
X11171000Y-9440000D01*
X11188000Y-10135000D02*
X11228000Y-10175000D01*
X11228000Y-10135000D02*
X11188000Y-10175000D01*
X11190000Y-11146000D02*
X11230000Y-11186000D01*
X11230000Y-11146000D02*
X11190000Y-11186000D01*
X11193000Y-10667000D02*
X11233000Y-10707000D01*
X11233000Y-10667000D02*
X11193000Y-10707000D01*
X11286000Y-12610000D02*
X11326000Y-12650000D01*
X11326000Y-12610000D02*
X11286000Y-12650000D01*
X11355000Y-7818000D02*
X11395000Y-7858000D01*
X11395000Y-7818000D02*
X11355000Y-7858000D01*
X11381000Y-11287000D02*
X11421000Y-11327000D01*
X11421000Y-11287000D02*
X11381000Y-11327000D01*
X11528000Y-12613000D02*
X11568000Y-12653000D01*
X11568000Y-12613000D02*
X11528000Y-12653000D01*
X11621000Y-7818000D02*
X11661000Y-7858000D01*
X11661000Y-7818000D02*
X11621000Y-7858000D01*
X11794000Y-12613000D02*
X11834000Y-12653000D01*
X11834000Y-12613000D02*
X11794000Y-12653000D01*
X11798000Y-11287000D02*
X11838000Y-11327000D01*
X11838000Y-11287000D02*
X11798000Y-11327000D01*
X11861000Y-7823000D02*
X11901000Y-7863000D01*
X11901000Y-7823000D02*
X11861000Y-7863000D01*
X12034000Y-12618000D02*
X12074000Y-12658000D01*
X12074000Y-12618000D02*
X12034000Y-12658000D01*
X12119000Y-7821000D02*
X12159000Y-7861000D01*
X12159000Y-7821000D02*
X12119000Y-7861000D01*
X12231000Y-11292000D02*
X12271000Y-11332000D01*
X12271000Y-11292000D02*
X12231000Y-11332000D01*
X12292000Y-12616000D02*
X12332000Y-12656000D01*
X12332000Y-12616000D02*
X12292000Y-12656000D01*
X12365000Y-7818000D02*
X12405000Y-7858000D01*
X12405000Y-7818000D02*
X12365000Y-7858000D01*
X12538000Y-12613000D02*
X12578000Y-12653000D01*
X12578000Y-12613000D02*
X12538000Y-12653000D01*
X12607000Y-7821000D02*
X12647000Y-7861000D01*
X12647000Y-7821000D02*
X12607000Y-7861000D01*
X12745000Y-12611000D02*
X12785000Y-12651000D01*
X12785000Y-12611000D02*
X12745000Y-12651000D01*
X12826000Y-9128500D02*
X12866000Y-9168500D01*
X12866000Y-9128500D02*
X12826000Y-9168500D01*
X12902000Y-7822000D02*
X12942000Y-7862000D01*
X12942000Y-7822000D02*
X12902000Y-7862000D01*
X12985000Y-12616000D02*
X13025000Y-12656000D01*
X13025000Y-12616000D02*
X12985000Y-12656000D01*
X13079968Y-9215500D02*
X13119968Y-9255500D01*
X13119968Y-9215500D02*
X13079968Y-9255500D01*
X13142000Y-7827000D02*
X13182000Y-7867000D01*
X13182000Y-7827000D02*
X13142000Y-7867000D01*
X13235000Y-9208500D02*
X13275000Y-9248500D01*
X13275000Y-9208500D02*
X13235000Y-9248500D01*
X13243000Y-12614000D02*
X13283000Y-12654000D01*
X13283000Y-12614000D02*
X13243000Y-12654000D01*
X13333968Y-9403450D02*
X13373968Y-9443450D01*
X13373968Y-9403450D02*
X13333968Y-9443450D01*
X13400000Y-7825000D02*
X13440000Y-7865000D01*
X13440000Y-7825000D02*
X13400000Y-7865000D01*
X13460000Y-9208500D02*
X13500000Y-9248500D01*
X13500000Y-9208500D02*
X13460000Y-9248500D01*
X13489000Y-12611000D02*
X13529000Y-12651000D01*
X13529000Y-12611000D02*
X13489000Y-12651000D01*
X13584000Y-9358500D02*
X13624000Y-9398500D01*
X13624000Y-9358500D02*
X13584000Y-9398500D01*
X13646000Y-7822000D02*
X13686000Y-7862000D01*
X13686000Y-7822000D02*
X13646000Y-7862000D01*
X13691500Y-9209500D02*
X13731500Y-9249500D01*
X13731500Y-9209500D02*
X13691500Y-9249500D01*
X13731000Y-12614000D02*
X13771000Y-12654000D01*
X13771000Y-12614000D02*
X13731000Y-12654000D01*
X13888000Y-7825000D02*
X13928000Y-7865000D01*
X13928000Y-7825000D02*
X13888000Y-7865000D01*
X13974000Y-12615000D02*
X14014000Y-12655000D01*
X14014000Y-12615000D02*
X13974000Y-12655000D01*
X14152000Y-7824000D02*
X14192000Y-7864000D01*
X14192000Y-7824000D02*
X14152000Y-7864000D01*
X14167000Y-10982000D02*
X14207000Y-11022000D01*
X14207000Y-10982000D02*
X14167000Y-11022000D01*
X14167000Y-11292000D02*
X14207000Y-11332000D01*
X14207000Y-11292000D02*
X14167000Y-11332000D01*
X14214000Y-12620000D02*
X14254000Y-12660000D01*
X14254000Y-12620000D02*
X14214000Y-12660000D01*
X14392000Y-7829000D02*
X14432000Y-7869000D01*
X14432000Y-7829000D02*
X14392000Y-7869000D01*
X14433000Y-10983000D02*
X14473000Y-11023000D01*
X14473000Y-10983000D02*
X14433000Y-11023000D01*
X14433000Y-11293000D02*
X14473000Y-11333000D01*
X14473000Y-11293000D02*
X14433000Y-11333000D01*
X14472000Y-12618000D02*
X14512000Y-12658000D01*
X14512000Y-12618000D02*
X14472000Y-12658000D01*
X14650000Y-7827000D02*
X14690000Y-7867000D01*
X14690000Y-7827000D02*
X14650000Y-7867000D01*
X14698000Y-10980000D02*
X14738000Y-11020000D01*
X14738000Y-10980000D02*
X14698000Y-11020000D01*
X14698000Y-11290000D02*
X14738000Y-11330000D01*
X14738000Y-11290000D02*
X14698000Y-11330000D01*
X14718000Y-12615000D02*
X14758000Y-12655000D01*
X14758000Y-12615000D02*
X14718000Y-12655000D01*
X14896000Y-7824000D02*
X14936000Y-7864000D01*
X14936000Y-7824000D02*
X14896000Y-7864000D01*
X14922000Y-10985000D02*
X14962000Y-11025000D01*
X14962000Y-10985000D02*
X14922000Y-11025000D01*
X14922000Y-11295000D02*
X14962000Y-11335000D01*
X14962000Y-11295000D02*
X14922000Y-11335000D01*
X14970000Y-9261000D02*
X15010000Y-9301000D01*
X15010000Y-9261000D02*
X14970000Y-9301000D01*
X14981000Y-12614000D02*
X15021000Y-12654000D01*
X15021000Y-12614000D02*
X14981000Y-12654000D01*
X15138000Y-7827000D02*
X15178000Y-7867000D01*
X15178000Y-7827000D02*
X15138000Y-7867000D01*
X15188000Y-10986000D02*
X15228000Y-11026000D01*
X15228000Y-10986000D02*
X15188000Y-11026000D01*
X15188000Y-11296000D02*
X15228000Y-11336000D01*
X15228000Y-11296000D02*
X15188000Y-11336000D01*
X15221000Y-8159000D02*
X15261000Y-8199000D01*
X15261000Y-8159000D02*
X15221000Y-8199000D01*
X15239000Y-12612000D02*
X15279000Y-12652000D01*
X15279000Y-12612000D02*
X15239000Y-12652000D01*
X15413000Y-7827000D02*
X15453000Y-7867000D01*
X15453000Y-7827000D02*
X15413000Y-7867000D01*
X15437000Y-12611000D02*
X15477000Y-12651000D01*
X15477000Y-12611000D02*
X15437000Y-12651000D01*
X15481000Y-10989000D02*
X15521000Y-11029000D01*
X15521000Y-10989000D02*
X15481000Y-11029000D01*
X15481000Y-11299000D02*
X15521000Y-11339000D01*
X15521000Y-11299000D02*
X15481000Y-11339000D01*
X15482000Y-11655000D02*
X15522000Y-11695000D01*
X15522000Y-11655000D02*
X15482000Y-11695000D01*
X15653000Y-7832000D02*
X15693000Y-7872000D01*
X15693000Y-7832000D02*
X15653000Y-7872000D01*
X15727000Y-12612000D02*
X15767000Y-12652000D01*
X15767000Y-12612000D02*
X15727000Y-12652000D01*
X15883000Y-10989000D02*
X15923000Y-11029000D01*
X15923000Y-10989000D02*
X15883000Y-11029000D01*
X15886000Y-10031000D02*
X15926000Y-10071000D01*
X15926000Y-10031000D02*
X15886000Y-10071000D01*
X15886000Y-10527000D02*
X15926000Y-10567000D01*
X15926000Y-10527000D02*
X15886000Y-10567000D01*
X15888000Y-9708000D02*
X15928000Y-9748000D01*
X15928000Y-9708000D02*
X15888000Y-9748000D01*
X15911000Y-7830000D02*
X15951000Y-7870000D01*
X15951000Y-7830000D02*
X15911000Y-7870000D01*
X15970000Y-12613000D02*
X16010000Y-12653000D01*
X16010000Y-12613000D02*
X15970000Y-12653000D01*
X16157000Y-7827000D02*
X16197000Y-7867000D01*
X16197000Y-7827000D02*
X16157000Y-7867000D01*
X16210000Y-12618000D02*
X16250000Y-12658000D01*
X16250000Y-12618000D02*
X16210000Y-12658000D01*
X16369000Y-10221000D02*
X16409000Y-10261000D01*
X16409000Y-10221000D02*
X16369000Y-10261000D01*
X16399000Y-7830000D02*
X16439000Y-7870000D01*
X16439000Y-7830000D02*
X16399000Y-7870000D01*
X16468000Y-12616000D02*
X16508000Y-12656000D01*
X16508000Y-12616000D02*
X16468000Y-12656000D01*
X16514000Y-11257000D02*
X16554000Y-11297000D01*
X16554000Y-11257000D02*
X16514000Y-11297000D01*
X16554000Y-10990000D02*
X16594000Y-11030000D01*
X16594000Y-10990000D02*
X16554000Y-11030000D01*
X16653000Y-7828000D02*
X16693000Y-7868000D01*
X16693000Y-7828000D02*
X16653000Y-7868000D01*
X16709000Y-12621000D02*
X16749000Y-12661000D01*
X16749000Y-12621000D02*
X16709000Y-12661000D01*
X16714000Y-12613000D02*
X16754000Y-12653000D01*
X16754000Y-12613000D02*
X16714000Y-12653000D01*
X16794000Y-10989000D02*
X16834000Y-11029000D01*
X16834000Y-10989000D02*
X16794000Y-11029000D01*
X16893000Y-7833000D02*
X16933000Y-7873000D01*
X16933000Y-7833000D02*
X16893000Y-7873000D01*
X16955000Y-12618000D02*
X16995000Y-12658000D01*
X16995000Y-12618000D02*
X16955000Y-12658000D01*
X17151000Y-7831000D02*
X17191000Y-7871000D01*
X17191000Y-7831000D02*
X17151000Y-7871000D01*
X17197000Y-12621000D02*
X17237000Y-12661000D01*
X17237000Y-12621000D02*
X17197000Y-12661000D01*
X17397000Y-7828000D02*
X17437000Y-7868000D01*
X17437000Y-7828000D02*
X17397000Y-7868000D01*
X17521000Y-12617000D02*
X17561000Y-12657000D01*
X17561000Y-12617000D02*
X17521000Y-12657000D01*
X17526000Y-12371000D02*
X17566000Y-12411000D01*
X17566000Y-12371000D02*
X17526000Y-12411000D01*
X17531000Y-12131000D02*
X17571000Y-12171000D01*
X17571000Y-12131000D02*
X17531000Y-12171000D01*
X17534000Y-11889000D02*
X17574000Y-11929000D01*
X17574000Y-11889000D02*
X17534000Y-11929000D01*
X17537000Y-11647000D02*
X17577000Y-11687000D01*
X17577000Y-11647000D02*
X17537000Y-11687000D01*
X17538000Y-11404000D02*
X17578000Y-11444000D01*
X17578000Y-11404000D02*
X17538000Y-11444000D01*
X17543000Y-11164000D02*
X17583000Y-11204000D01*
X17583000Y-11164000D02*
X17543000Y-11204000D01*
X17544000Y-9894000D02*
X17584000Y-9934000D01*
X17584000Y-9894000D02*
X17544000Y-9934000D01*
X17546000Y-9649000D02*
X17586000Y-9689000D01*
X17586000Y-9649000D02*
X17546000Y-9689000D01*
X17546000Y-10152000D02*
X17586000Y-10192000D01*
X17586000Y-10152000D02*
X17546000Y-10192000D01*
X17547000Y-10910000D02*
X17587000Y-10950000D01*
X17587000Y-10910000D02*
X17547000Y-10950000D01*
X17549000Y-9407000D02*
X17589000Y-9447000D01*
X17589000Y-9407000D02*
X17549000Y-9447000D01*
X17549000Y-10384000D02*
X17589000Y-10424000D01*
X17589000Y-10384000D02*
X17549000Y-10424000D01*
X17552000Y-10630000D02*
X17592000Y-10670000D01*
X17592000Y-10630000D02*
X17552000Y-10670000D01*
X17560000Y-8886000D02*
X17600000Y-8926000D01*
X17600000Y-8886000D02*
X17560000Y-8926000D01*
X17562000Y-8641000D02*
X17602000Y-8681000D01*
X17602000Y-8641000D02*
X17562000Y-8681000D01*
X17562000Y-9144000D02*
X17602000Y-9184000D01*
X17602000Y-9144000D02*
X17562000Y-9184000D01*
X17565000Y-8168000D02*
X17605000Y-8208000D01*
X17605000Y-8168000D02*
X17565000Y-8208000D01*
X17565000Y-8399000D02*
X17605000Y-8439000D01*
X17605000Y-8399000D02*
X17565000Y-8439000D01*
X17566000Y-7935000D02*
X17606000Y-7975000D01*
X17606000Y-7935000D02*
X17566000Y-7975000D01*
D13*
X10700000Y-9238000D02*
G75*
G03*
X10700000Y-9238000I-32500J0D01*
G01*
X10700000Y-9365000D02*
G75*
G03*
X10700000Y-9365000I-32500J0D01*
G01*
D14*
X10413468Y-8334000D02*
X10413468Y-8414000D01*
X10373468Y-8374000D02*
X10453468Y-8374000D01*
X10413468Y-8588000D02*
X10413468Y-8668000D01*
X10373468Y-8628000D02*
X10453468Y-8628000D01*
X10413468Y-9604000D02*
X10413468Y-9684000D01*
X10373468Y-9644000D02*
X10453468Y-9644000D01*
X10413468Y-9858000D02*
X10413468Y-9938000D01*
X10373468Y-9898000D02*
X10453468Y-9898000D01*
X10413468Y-10112000D02*
X10413468Y-10192000D01*
X10373468Y-10152000D02*
X10453468Y-10152000D01*
X10413468Y-10874000D02*
X10413468Y-10954000D01*
X10373468Y-10914000D02*
X10453468Y-10914000D01*
X10413468Y-11128000D02*
X10413468Y-11208000D01*
X10373468Y-11168000D02*
X10453468Y-11168000D01*
X10413468Y-11382000D02*
X10413468Y-11462000D01*
X10373468Y-11422000D02*
X10453468Y-11422000D01*
X10413468Y-11636000D02*
X10413468Y-11716000D01*
X10373468Y-11676000D02*
X10453468Y-11676000D01*
X10413468Y-11890000D02*
X10413468Y-11970000D01*
X10373468Y-11930000D02*
X10453468Y-11930000D01*
X10667468Y-8334000D02*
X10667468Y-8414000D01*
X10627468Y-8374000D02*
X10707468Y-8374000D01*
X10667468Y-8588000D02*
X10667468Y-8668000D01*
X10627468Y-8628000D02*
X10707468Y-8628000D01*
X10667468Y-9604000D02*
X10667468Y-9684000D01*
X10627468Y-9644000D02*
X10707468Y-9644000D01*
X10667468Y-9858000D02*
X10667468Y-9938000D01*
X10627468Y-9898000D02*
X10707468Y-9898000D01*
X10667468Y-10112000D02*
X10667468Y-10192000D01*
X10627468Y-10152000D02*
X10707468Y-10152000D01*
X10667468Y-10874000D02*
X10667468Y-10954000D01*
X10627468Y-10914000D02*
X10707468Y-10914000D01*
X10667468Y-11128000D02*
X10667468Y-11208000D01*
X10627468Y-11168000D02*
X10707468Y-11168000D01*
X10667468Y-11382000D02*
X10667468Y-11462000D01*
X10627468Y-11422000D02*
X10707468Y-11422000D01*
X10667468Y-11636000D02*
X10667468Y-11716000D01*
X10627468Y-11676000D02*
X10707468Y-11676000D01*
X10667468Y-11890000D02*
X10667468Y-11970000D01*
X10627468Y-11930000D02*
X10707468Y-11930000D01*
X10921468Y-8334000D02*
X10921468Y-8414000D01*
X10881468Y-8374000D02*
X10961468Y-8374000D01*
X10921468Y-8588000D02*
X10921468Y-8668000D01*
X10881468Y-8628000D02*
X10961468Y-8628000D01*
X10921468Y-11636000D02*
X10921468Y-11716000D01*
X10881468Y-11676000D02*
X10961468Y-11676000D01*
X10921468Y-11890000D02*
X10921468Y-11970000D01*
X10881468Y-11930000D02*
X10961468Y-11930000D01*
X11175468Y-8334000D02*
X11175468Y-8414000D01*
X11135468Y-8374000D02*
X11215468Y-8374000D01*
X11175468Y-8588000D02*
X11175468Y-8668000D01*
X11135468Y-8628000D02*
X11215468Y-8628000D01*
X11175468Y-11636000D02*
X11175468Y-11716000D01*
X11135468Y-11676000D02*
X11215468Y-11676000D01*
X11175468Y-11890000D02*
X11175468Y-11970000D01*
X11135468Y-11930000D02*
X11215468Y-11930000D01*
X11429468Y-8334000D02*
X11429468Y-8414000D01*
X11389468Y-8374000D02*
X11469468Y-8374000D01*
X11429468Y-8588000D02*
X11429468Y-8668000D01*
X11389468Y-8628000D02*
X11469468Y-8628000D01*
X11429468Y-11636000D02*
X11429468Y-11716000D01*
X11389468Y-11676000D02*
X11469468Y-11676000D01*
X11429468Y-11890000D02*
X11429468Y-11970000D01*
X11389468Y-11930000D02*
X11469468Y-11930000D01*
X11683468Y-8334000D02*
X11683468Y-8414000D01*
X11643468Y-8374000D02*
X11723468Y-8374000D01*
X11683468Y-8588000D02*
X11683468Y-8668000D01*
X11643468Y-8628000D02*
X11723468Y-8628000D01*
X11683468Y-11636000D02*
X11683468Y-11716000D01*
X11643468Y-11676000D02*
X11723468Y-11676000D01*
X11683468Y-11890000D02*
X11683468Y-11970000D01*
X11643468Y-11930000D02*
X11723468Y-11930000D01*
X11937468Y-8334000D02*
X11937468Y-8414000D01*
X11897468Y-8374000D02*
X11977468Y-8374000D01*
X11937468Y-8588000D02*
X11937468Y-8668000D01*
X11897468Y-8628000D02*
X11977468Y-8628000D01*
X11937468Y-11636000D02*
X11937468Y-11716000D01*
X11897468Y-11676000D02*
X11977468Y-11676000D01*
X11937468Y-11890000D02*
X11937468Y-11970000D01*
X11897468Y-11930000D02*
X11977468Y-11930000D01*
X12191468Y-8334000D02*
X12191468Y-8414000D01*
X12151468Y-8374000D02*
X12231468Y-8374000D01*
X12191468Y-8588000D02*
X12191468Y-8668000D01*
X12151468Y-8628000D02*
X12231468Y-8628000D01*
X12191468Y-11636000D02*
X12191468Y-11716000D01*
X12151468Y-11676000D02*
X12231468Y-11676000D01*
X12191468Y-11890000D02*
X12191468Y-11970000D01*
X12151468Y-11930000D02*
X12231468Y-11930000D01*
X12445468Y-8334000D02*
X12445468Y-8414000D01*
X12405468Y-8374000D02*
X12485468Y-8374000D01*
X12445468Y-8588000D02*
X12445468Y-8668000D01*
X12405468Y-8628000D02*
X12485468Y-8628000D01*
X12445468Y-11636000D02*
X12445468Y-11716000D01*
X12405468Y-11676000D02*
X12485468Y-11676000D01*
X12445468Y-11890000D02*
X12445468Y-11970000D01*
X12405468Y-11930000D02*
X12485468Y-11930000D01*
X12699468Y-8334000D02*
X12699468Y-8414000D01*
X12659468Y-8374000D02*
X12739468Y-8374000D01*
X12699468Y-8588000D02*
X12699468Y-8668000D01*
X12659468Y-8628000D02*
X12739468Y-8628000D01*
X12699468Y-11636000D02*
X12699468Y-11716000D01*
X12659468Y-11676000D02*
X12739468Y-11676000D01*
X12699468Y-11890000D02*
X12699468Y-11970000D01*
X12659468Y-11930000D02*
X12739468Y-11930000D01*
X12953468Y-8334000D02*
X12953468Y-8414000D01*
X12913468Y-8374000D02*
X12993468Y-8374000D01*
X12953468Y-8588000D02*
X12953468Y-8668000D01*
X12913468Y-8628000D02*
X12993468Y-8628000D01*
X12953468Y-11636000D02*
X12953468Y-11716000D01*
X12913468Y-11676000D02*
X12993468Y-11676000D01*
X12953468Y-11890000D02*
X12953468Y-11970000D01*
X12913468Y-11930000D02*
X12993468Y-11930000D01*
X13207468Y-8334000D02*
X13207468Y-8414000D01*
X13167468Y-8374000D02*
X13247468Y-8374000D01*
X13207468Y-8588000D02*
X13207468Y-8668000D01*
X13167468Y-8628000D02*
X13247468Y-8628000D01*
X13207468Y-11636000D02*
X13207468Y-11716000D01*
X13167468Y-11676000D02*
X13247468Y-11676000D01*
X13207468Y-11890000D02*
X13207468Y-11970000D01*
X13167468Y-11930000D02*
X13247468Y-11930000D01*
X13461468Y-8334000D02*
X13461468Y-8414000D01*
X13421468Y-8374000D02*
X13501468Y-8374000D01*
X13461468Y-8588000D02*
X13461468Y-8668000D01*
X13421468Y-8628000D02*
X13501468Y-8628000D01*
X13461468Y-11636000D02*
X13461468Y-11716000D01*
X13421468Y-11676000D02*
X13501468Y-11676000D01*
X13461468Y-11890000D02*
X13461468Y-11970000D01*
X13421468Y-11930000D02*
X13501468Y-11930000D01*
X13715468Y-8334000D02*
X13715468Y-8414000D01*
X13675468Y-8374000D02*
X13755468Y-8374000D01*
X13715468Y-8588000D02*
X13715468Y-8668000D01*
X13675468Y-8628000D02*
X13755468Y-8628000D01*
X13715468Y-11636000D02*
X13715468Y-11716000D01*
X13675468Y-11676000D02*
X13755468Y-11676000D01*
X13715468Y-11890000D02*
X13715468Y-11970000D01*
X13675468Y-11930000D02*
X13755468Y-11930000D01*
X13969468Y-8334000D02*
X13969468Y-8414000D01*
X13929468Y-8374000D02*
X14009468Y-8374000D01*
X13969468Y-8588000D02*
X13969468Y-8668000D01*
X13929468Y-8628000D02*
X14009468Y-8628000D01*
X13969468Y-11636000D02*
X13969468Y-11716000D01*
X13929468Y-11676000D02*
X14009468Y-11676000D01*
X13969468Y-11890000D02*
X13969468Y-11970000D01*
X13929468Y-11930000D02*
X14009468Y-11930000D01*
X14223468Y-8334000D02*
X14223468Y-8414000D01*
X14183468Y-8374000D02*
X14263468Y-8374000D01*
X14223468Y-8588000D02*
X14223468Y-8668000D01*
X14183468Y-8628000D02*
X14263468Y-8628000D01*
X14223468Y-11636000D02*
X14223468Y-11716000D01*
X14183468Y-11676000D02*
X14263468Y-11676000D01*
X14223468Y-11890000D02*
X14223468Y-11970000D01*
X14183468Y-11930000D02*
X14263468Y-11930000D01*
X14477468Y-8334000D02*
X14477468Y-8414000D01*
X14437468Y-8374000D02*
X14517468Y-8374000D01*
X14477468Y-8588000D02*
X14477468Y-8668000D01*
X14437468Y-8628000D02*
X14517468Y-8628000D01*
X14731468Y-8334000D02*
X14731468Y-8414000D01*
X14691468Y-8374000D02*
X14771468Y-8374000D01*
X14731468Y-8588000D02*
X14731468Y-8668000D01*
X14691468Y-8628000D02*
X14771468Y-8628000D01*
X14985468Y-8334000D02*
X14985468Y-8414000D01*
X14945468Y-8374000D02*
X15025468Y-8374000D01*
X14985468Y-8588000D02*
X14985468Y-8668000D01*
X14945468Y-8628000D02*
X15025468Y-8628000D01*
X15239468Y-8334000D02*
X15239468Y-8414000D01*
X15199468Y-8374000D02*
X15279468Y-8374000D01*
X15239468Y-8588000D02*
X15239468Y-8668000D01*
X15199468Y-8628000D02*
X15279468Y-8628000D01*
X15493468Y-8334000D02*
X15493468Y-8414000D01*
X15453468Y-8374000D02*
X15533468Y-8374000D01*
X15493468Y-8588000D02*
X15493468Y-8668000D01*
X15453468Y-8628000D02*
X15533468Y-8628000D01*
D11*
X9973824Y-9274856D02*
X9973824Y-9204144D01*
X9903113Y-9204144D01*
X9903113Y-9274856D01*
X9973824Y-9274856D01*
X9973824Y-9528856D02*
X9973824Y-9458144D01*
X9903113Y-9458144D01*
X9903113Y-9528856D01*
X9973824Y-9528856D01*
X9973824Y-9782856D02*
X9973824Y-9712144D01*
X9903113Y-9712144D01*
X9903113Y-9782856D01*
X9973824Y-9782856D01*
X9973824Y-10036856D02*
X9973824Y-9966144D01*
X9903113Y-9966144D01*
X9903113Y-10036856D01*
X9973824Y-10036856D01*
X9973824Y-10290856D02*
X9973824Y-10220144D01*
X9903113Y-10220144D01*
X9903113Y-10290856D01*
X9973824Y-10290856D01*
X9973824Y-10544856D02*
X9973824Y-10474144D01*
X9903113Y-10474144D01*
X9903113Y-10544856D01*
X9973824Y-10544856D01*
X9973824Y-10798856D02*
X9973824Y-10728144D01*
X9903113Y-10728144D01*
X9903113Y-10798856D01*
X9973824Y-10798856D01*
X9989356Y-12472356D02*
X9989356Y-12401644D01*
X9918644Y-12401644D01*
X9918644Y-12472356D01*
X9989356Y-12472356D01*
X10243356Y-12472356D02*
X10243356Y-12401644D01*
X10172644Y-12401644D01*
X10172644Y-12472356D01*
X10243356Y-12472356D01*
X10497356Y-12472356D02*
X10497356Y-12401644D01*
X10426644Y-12401644D01*
X10426644Y-12472356D01*
X10497356Y-12472356D01*
X10751356Y-12472356D02*
X10751356Y-12401644D01*
X10680644Y-12401644D01*
X10680644Y-12472356D01*
X10751356Y-12472356D01*
X10955356Y-8070356D02*
X10955356Y-7999644D01*
X10884644Y-7999644D01*
X10884644Y-8070356D01*
X10955356Y-8070356D01*
X11005356Y-12472356D02*
X11005356Y-12401644D01*
X10934644Y-12401644D01*
X10934644Y-12472356D01*
X11005356Y-12472356D01*
X11209356Y-8070356D02*
X11209356Y-7999644D01*
X11138644Y-7999644D01*
X11138644Y-8070356D01*
X11209356Y-8070356D01*
X11259356Y-12472356D02*
X11259356Y-12401644D01*
X11188644Y-12401644D01*
X11188644Y-12472356D01*
X11259356Y-12472356D01*
X11463356Y-8070356D02*
X11463356Y-7999644D01*
X11392644Y-7999644D01*
X11392644Y-8070356D01*
X11463356Y-8070356D01*
X11513356Y-12472356D02*
X11513356Y-12401644D01*
X11442644Y-12401644D01*
X11442644Y-12472356D01*
X11513356Y-12472356D01*
X11717356Y-8070356D02*
X11717356Y-7999644D01*
X11646644Y-7999644D01*
X11646644Y-8070356D01*
X11717356Y-8070356D01*
X11767356Y-12472356D02*
X11767356Y-12401644D01*
X11696644Y-12401644D01*
X11696644Y-12472356D01*
X11767356Y-12472356D01*
X11861356Y-9689356D02*
X11861356Y-9618644D01*
X11790644Y-9618644D01*
X11790644Y-9689356D01*
X11861356Y-9689356D01*
X11971356Y-8070356D02*
X11971356Y-7999644D01*
X11900644Y-7999644D01*
X11900644Y-8070356D01*
X11971356Y-8070356D01*
X12021356Y-12472356D02*
X12021356Y-12401644D01*
X11950644Y-12401644D01*
X11950644Y-12472356D01*
X12021356Y-12472356D01*
X12115356Y-9689356D02*
X12115356Y-9618644D01*
X12044644Y-9618644D01*
X12044644Y-9689356D01*
X12115356Y-9689356D01*
X12225356Y-8070356D02*
X12225356Y-7999644D01*
X12154644Y-7999644D01*
X12154644Y-8070356D01*
X12225356Y-8070356D01*
X12275356Y-12472356D02*
X12275356Y-12401644D01*
X12204644Y-12401644D01*
X12204644Y-12472356D01*
X12275356Y-12472356D01*
X12369356Y-9689356D02*
X12369356Y-9618644D01*
X12298644Y-9618644D01*
X12298644Y-9689356D01*
X12369356Y-9689356D01*
X12479356Y-8070356D02*
X12479356Y-7999644D01*
X12408644Y-7999644D01*
X12408644Y-8070356D01*
X12479356Y-8070356D01*
X12529356Y-12472356D02*
X12529356Y-12401644D01*
X12458644Y-12401644D01*
X12458644Y-12472356D01*
X12529356Y-12472356D01*
X12623356Y-9689356D02*
X12623356Y-9618644D01*
X12552644Y-9618644D01*
X12552644Y-9689356D01*
X12623356Y-9689356D01*
X12628356Y-11140356D02*
X12628356Y-11069644D01*
X12557644Y-11069644D01*
X12557644Y-11140356D01*
X12628356Y-11140356D01*
X12733356Y-8070356D02*
X12733356Y-7999644D01*
X12662644Y-7999644D01*
X12662644Y-8070356D01*
X12733356Y-8070356D01*
X12783356Y-12472356D02*
X12783356Y-12401644D01*
X12712644Y-12401644D01*
X12712644Y-12472356D01*
X12783356Y-12472356D01*
X12877356Y-9689356D02*
X12877356Y-9618644D01*
X12806644Y-9618644D01*
X12806644Y-9689356D01*
X12877356Y-9689356D01*
X12882356Y-11140356D02*
X12882356Y-11069644D01*
X12811644Y-11069644D01*
X12811644Y-11140356D01*
X12882356Y-11140356D01*
X12987356Y-8070356D02*
X12987356Y-7999644D01*
X12916644Y-7999644D01*
X12916644Y-8070356D01*
X12987356Y-8070356D01*
X13037356Y-12472356D02*
X13037356Y-12401644D01*
X12966644Y-12401644D01*
X12966644Y-12472356D01*
X13037356Y-12472356D01*
X13131356Y-9689356D02*
X13131356Y-9618644D01*
X13060644Y-9618644D01*
X13060644Y-9689356D01*
X13131356Y-9689356D01*
X13136356Y-11140356D02*
X13136356Y-11069644D01*
X13065644Y-11069644D01*
X13065644Y-11140356D01*
X13136356Y-11140356D01*
X13241356Y-8070356D02*
X13241356Y-7999644D01*
X13170644Y-7999644D01*
X13170644Y-8070356D01*
X13241356Y-8070356D01*
X13291356Y-12472356D02*
X13291356Y-12401644D01*
X13220644Y-12401644D01*
X13220644Y-12472356D01*
X13291356Y-12472356D01*
X13385356Y-9689356D02*
X13385356Y-9618644D01*
X13314644Y-9618644D01*
X13314644Y-9689356D01*
X13385356Y-9689356D01*
X13390356Y-11140356D02*
X13390356Y-11069644D01*
X13319644Y-11069644D01*
X13319644Y-11140356D01*
X13390356Y-11140356D01*
X13495356Y-8070356D02*
X13495356Y-7999644D01*
X13424644Y-7999644D01*
X13424644Y-8070356D01*
X13495356Y-8070356D01*
X13545356Y-12472356D02*
X13545356Y-12401644D01*
X13474644Y-12401644D01*
X13474644Y-12472356D01*
X13545356Y-12472356D01*
X13639356Y-9689356D02*
X13639356Y-9618644D01*
X13568644Y-9618644D01*
X13568644Y-9689356D01*
X13639356Y-9689356D01*
X13749356Y-8070356D02*
X13749356Y-7999644D01*
X13678644Y-7999644D01*
X13678644Y-8070356D01*
X13749356Y-8070356D01*
X13799356Y-12472356D02*
X13799356Y-12401644D01*
X13728644Y-12401644D01*
X13728644Y-12472356D01*
X13799356Y-12472356D01*
X13893356Y-9689356D02*
X13893356Y-9618644D01*
X13822644Y-9618644D01*
X13822644Y-9689356D01*
X13893356Y-9689356D01*
X14003356Y-8070356D02*
X14003356Y-7999644D01*
X13932644Y-7999644D01*
X13932644Y-8070356D01*
X14003356Y-8070356D01*
X14053356Y-12472356D02*
X14053356Y-12401644D01*
X13982644Y-12401644D01*
X13982644Y-12472356D01*
X14053356Y-12472356D01*
X14147356Y-9689356D02*
X14147356Y-9618644D01*
X14076644Y-9618644D01*
X14076644Y-9689356D01*
X14147356Y-9689356D01*
X14257356Y-8070356D02*
X14257356Y-7999644D01*
X14186644Y-7999644D01*
X14186644Y-8070356D01*
X14257356Y-8070356D01*
X14401356Y-9689356D02*
X14401356Y-9618644D01*
X14330644Y-9618644D01*
X14330644Y-9689356D01*
X14401356Y-9689356D01*
X14511356Y-8070356D02*
X14511356Y-7999644D01*
X14440644Y-7999644D01*
X14440644Y-8070356D01*
X14511356Y-8070356D01*
X14655356Y-9689356D02*
X14655356Y-9618644D01*
X14584644Y-9618644D01*
X14584644Y-9689356D01*
X14655356Y-9689356D01*
X14765356Y-8070356D02*
X14765356Y-7999644D01*
X14694644Y-7999644D01*
X14694644Y-8070356D01*
X14765356Y-8070356D01*
X15019356Y-8070356D02*
X15019356Y-7999644D01*
X14948644Y-7999644D01*
X14948644Y-8070356D01*
X15019356Y-8070356D01*
X15249356Y-12381856D02*
X15249356Y-12311144D01*
X15178644Y-12311144D01*
X15178644Y-12381856D01*
X15249356Y-12381856D01*
X15503356Y-12381856D02*
X15503356Y-12311144D01*
X15432644Y-12311144D01*
X15432644Y-12381856D01*
X15503356Y-12381856D01*
X16008356Y-12390356D02*
X16008356Y-12319644D01*
X15937644Y-12319644D01*
X15937644Y-12390356D01*
X16008356Y-12390356D01*
X16022356Y-11914856D02*
X16022356Y-11844144D01*
X15951644Y-11844144D01*
X15951644Y-11914856D01*
X16022356Y-11914856D01*
X16031356Y-8181356D02*
X16031356Y-8110644D01*
X15960644Y-8110644D01*
X15960644Y-8181356D01*
X16031356Y-8181356D01*
X16031356Y-8435356D02*
X16031356Y-8364644D01*
X15960644Y-8364644D01*
X15960644Y-8435356D01*
X16031356Y-8435356D01*
X16031356Y-8689356D02*
X16031356Y-8618644D01*
X15960644Y-8618644D01*
X15960644Y-8689356D01*
X16031356Y-8689356D01*
X16031356Y-8943356D02*
X16031356Y-8872644D01*
X15960644Y-8872644D01*
X15960644Y-8943356D01*
X16031356Y-8943356D01*
X16031356Y-9197356D02*
X16031356Y-9126644D01*
X15960644Y-9126644D01*
X15960644Y-9197356D01*
X16031356Y-9197356D01*
X16262356Y-12390356D02*
X16262356Y-12319644D01*
X16191644Y-12319644D01*
X16191644Y-12390356D01*
X16262356Y-12390356D01*
X16276356Y-11914856D02*
X16276356Y-11844144D01*
X16205644Y-11844144D01*
X16205644Y-11914856D01*
X16276356Y-11914856D01*
D10*
X9298619Y-13037024D02*
X9298619Y-12837024D01*
X9298619Y-12837024D02*
X9346238Y-12837024D01*
X9346238Y-12837024D02*
X9374810Y-12846548D01*
X9374810Y-12846548D02*
X9393857Y-12865595D01*
X9393857Y-12865595D02*
X9403381Y-12884643D01*
X9403381Y-12884643D02*
X9412905Y-12922738D01*
X9412905Y-12922738D02*
X9412905Y-12951309D01*
X9412905Y-12951309D02*
X9403381Y-12989405D01*
X9403381Y-12989405D02*
X9393857Y-13008452D01*
X9393857Y-13008452D02*
X9374810Y-13027500D01*
X9374810Y-13027500D02*
X9346238Y-13037024D01*
X9346238Y-13037024D02*
X9298619Y-13037024D01*
X9498619Y-13037024D02*
X9498619Y-12903690D01*
X9498619Y-12941786D02*
X9508143Y-12922738D01*
X9508143Y-12922738D02*
X9517667Y-12913214D01*
X9517667Y-12913214D02*
X9536714Y-12903690D01*
X9536714Y-12903690D02*
X9555762Y-12903690D01*
X9622429Y-13037024D02*
X9622429Y-12903690D01*
X9622429Y-12837024D02*
X9612905Y-12846548D01*
X9612905Y-12846548D02*
X9622429Y-12856071D01*
X9622429Y-12856071D02*
X9631952Y-12846548D01*
X9631952Y-12846548D02*
X9622429Y-12837024D01*
X9622429Y-12837024D02*
X9622429Y-12856071D01*
X9746238Y-13037024D02*
X9727190Y-13027500D01*
X9727190Y-13027500D02*
X9717667Y-13008452D01*
X9717667Y-13008452D02*
X9717667Y-12837024D01*
X9851000Y-13037024D02*
X9831952Y-13027500D01*
X9831952Y-13027500D02*
X9822429Y-13008452D01*
X9822429Y-13008452D02*
X9822429Y-12837024D01*
X10079571Y-13037024D02*
X10079571Y-12837024D01*
X10079571Y-12837024D02*
X10146238Y-12979881D01*
X10146238Y-12979881D02*
X10212905Y-12837024D01*
X10212905Y-12837024D02*
X10212905Y-13037024D01*
X10393857Y-13037024D02*
X10393857Y-12932262D01*
X10393857Y-12932262D02*
X10384333Y-12913214D01*
X10384333Y-12913214D02*
X10365286Y-12903690D01*
X10365286Y-12903690D02*
X10327190Y-12903690D01*
X10327190Y-12903690D02*
X10308143Y-12913214D01*
X10393857Y-13027500D02*
X10374810Y-13037024D01*
X10374810Y-13037024D02*
X10327190Y-13037024D01*
X10327190Y-13037024D02*
X10308143Y-13027500D01*
X10308143Y-13027500D02*
X10298619Y-13008452D01*
X10298619Y-13008452D02*
X10298619Y-12989405D01*
X10298619Y-12989405D02*
X10308143Y-12970357D01*
X10308143Y-12970357D02*
X10327190Y-12960833D01*
X10327190Y-12960833D02*
X10374810Y-12960833D01*
X10374810Y-12960833D02*
X10393857Y-12951309D01*
X10489095Y-12903690D02*
X10489095Y-13103690D01*
X10489095Y-12913214D02*
X10508143Y-12903690D01*
X10508143Y-12903690D02*
X10546238Y-12903690D01*
X10546238Y-12903690D02*
X10565286Y-12913214D01*
X10565286Y-12913214D02*
X10574810Y-12922738D01*
X10574810Y-12922738D02*
X10584333Y-12941786D01*
X10584333Y-12941786D02*
X10584333Y-12998928D01*
X10584333Y-12998928D02*
X10574810Y-13017976D01*
X10574810Y-13017976D02*
X10565286Y-13027500D01*
X10565286Y-13027500D02*
X10546238Y-13037024D01*
X10546238Y-13037024D02*
X10508143Y-13037024D01*
X10508143Y-13037024D02*
X10489095Y-13027500D01*
X10670048Y-13017976D02*
X10679571Y-13027500D01*
X10679571Y-13027500D02*
X10670048Y-13037024D01*
X10670048Y-13037024D02*
X10660524Y-13027500D01*
X10660524Y-13027500D02*
X10670048Y-13017976D01*
X10670048Y-13017976D02*
X10670048Y-13037024D01*
X10670048Y-12913214D02*
X10679571Y-12922738D01*
X10679571Y-12922738D02*
X10670048Y-12932262D01*
X10670048Y-12932262D02*
X10660524Y-12922738D01*
X10660524Y-12922738D02*
X10670048Y-12913214D01*
X10670048Y-12913214D02*
X10670048Y-12932262D01*
D12*
X9011000Y-13344500D02*
X9051000Y-13384500D01*
X9051000Y-13344500D02*
X9011000Y-13384500D01*
D10*
X9336714Y-13257024D02*
X9355762Y-13257024D01*
X9355762Y-13257024D02*
X9374810Y-13266548D01*
X9374810Y-13266548D02*
X9384333Y-13276071D01*
X9384333Y-13276071D02*
X9393857Y-13295119D01*
X9393857Y-13295119D02*
X9403381Y-13333214D01*
X9403381Y-13333214D02*
X9403381Y-13380833D01*
X9403381Y-13380833D02*
X9393857Y-13418928D01*
X9393857Y-13418928D02*
X9384333Y-13437976D01*
X9384333Y-13437976D02*
X9374810Y-13447500D01*
X9374810Y-13447500D02*
X9355762Y-13457024D01*
X9355762Y-13457024D02*
X9336714Y-13457024D01*
X9336714Y-13457024D02*
X9317667Y-13447500D01*
X9317667Y-13447500D02*
X9308143Y-13437976D01*
X9308143Y-13437976D02*
X9298619Y-13418928D01*
X9298619Y-13418928D02*
X9289095Y-13380833D01*
X9289095Y-13380833D02*
X9289095Y-13333214D01*
X9289095Y-13333214D02*
X9298619Y-13295119D01*
X9298619Y-13295119D02*
X9308143Y-13276071D01*
X9308143Y-13276071D02*
X9317667Y-13266548D01*
X9317667Y-13266548D02*
X9336714Y-13257024D01*
X9489095Y-13437976D02*
X9498619Y-13447500D01*
X9498619Y-13447500D02*
X9489095Y-13457024D01*
X9489095Y-13457024D02*
X9479571Y-13447500D01*
X9479571Y-13447500D02*
X9489095Y-13437976D01*
X9489095Y-13437976D02*
X9489095Y-13457024D01*
X9670048Y-13323690D02*
X9670048Y-13457024D01*
X9622429Y-13247500D02*
X9574810Y-13390357D01*
X9574810Y-13390357D02*
X9698619Y-13390357D01*
X9812905Y-13257024D02*
X9831952Y-13257024D01*
X9831952Y-13257024D02*
X9851000Y-13266548D01*
X9851000Y-13266548D02*
X9860524Y-13276071D01*
X9860524Y-13276071D02*
X9870048Y-13295119D01*
X9870048Y-13295119D02*
X9879571Y-13333214D01*
X9879571Y-13333214D02*
X9879571Y-13380833D01*
X9879571Y-13380833D02*
X9870048Y-13418928D01*
X9870048Y-13418928D02*
X9860524Y-13437976D01*
X9860524Y-13437976D02*
X9851000Y-13447500D01*
X9851000Y-13447500D02*
X9831952Y-13457024D01*
X9831952Y-13457024D02*
X9812905Y-13457024D01*
X9812905Y-13457024D02*
X9793857Y-13447500D01*
X9793857Y-13447500D02*
X9784333Y-13437976D01*
X9784333Y-13437976D02*
X9774810Y-13418928D01*
X9774810Y-13418928D02*
X9765286Y-13380833D01*
X9765286Y-13380833D02*
X9765286Y-13333214D01*
X9765286Y-13333214D02*
X9774810Y-13295119D01*
X9774810Y-13295119D02*
X9784333Y-13276071D01*
X9784333Y-13276071D02*
X9793857Y-13266548D01*
X9793857Y-13266548D02*
X9812905Y-13257024D01*
X10003381Y-13257024D02*
X10022429Y-13257024D01*
X10022429Y-13257024D02*
X10041476Y-13266548D01*
X10041476Y-13266548D02*
X10051000Y-13276071D01*
X10051000Y-13276071D02*
X10060524Y-13295119D01*
X10060524Y-13295119D02*
X10070048Y-13333214D01*
X10070048Y-13333214D02*
X10070048Y-13380833D01*
X10070048Y-13380833D02*
X10060524Y-13418928D01*
X10060524Y-13418928D02*
X10051000Y-13437976D01*
X10051000Y-13437976D02*
X10041476Y-13447500D01*
X10041476Y-13447500D02*
X10022429Y-13457024D01*
X10022429Y-13457024D02*
X10003381Y-13457024D01*
X10003381Y-13457024D02*
X9984333Y-13447500D01*
X9984333Y-13447500D02*
X9974810Y-13437976D01*
X9974810Y-13437976D02*
X9965286Y-13418928D01*
X9965286Y-13418928D02*
X9955762Y-13380833D01*
X9955762Y-13380833D02*
X9955762Y-13333214D01*
X9955762Y-13333214D02*
X9965286Y-13295119D01*
X9965286Y-13295119D02*
X9974810Y-13276071D01*
X9974810Y-13276071D02*
X9984333Y-13266548D01*
X9984333Y-13266548D02*
X10003381Y-13257024D01*
X10155762Y-13457024D02*
X10155762Y-13323690D01*
X10155762Y-13342738D02*
X10165286Y-13333214D01*
X10165286Y-13333214D02*
X10184333Y-13323690D01*
X10184333Y-13323690D02*
X10212905Y-13323690D01*
X10212905Y-13323690D02*
X10231952Y-13333214D01*
X10231952Y-13333214D02*
X10241476Y-13352262D01*
X10241476Y-13352262D02*
X10241476Y-13457024D01*
X10241476Y-13352262D02*
X10251000Y-13333214D01*
X10251000Y-13333214D02*
X10270048Y-13323690D01*
X10270048Y-13323690D02*
X10298619Y-13323690D01*
X10298619Y-13323690D02*
X10317667Y-13333214D01*
X10317667Y-13333214D02*
X10327191Y-13352262D01*
X10327191Y-13352262D02*
X10327191Y-13457024D01*
X10422429Y-13457024D02*
X10422429Y-13323690D01*
X10422429Y-13342738D02*
X10431952Y-13333214D01*
X10431952Y-13333214D02*
X10451000Y-13323690D01*
X10451000Y-13323690D02*
X10479572Y-13323690D01*
X10479572Y-13323690D02*
X10498619Y-13333214D01*
X10498619Y-13333214D02*
X10508143Y-13352262D01*
X10508143Y-13352262D02*
X10508143Y-13457024D01*
X10508143Y-13352262D02*
X10517667Y-13333214D01*
X10517667Y-13333214D02*
X10536714Y-13323690D01*
X10536714Y-13323690D02*
X10565286Y-13323690D01*
X10565286Y-13323690D02*
X10584333Y-13333214D01*
X10584333Y-13333214D02*
X10593857Y-13352262D01*
X10593857Y-13352262D02*
X10593857Y-13457024D01*
X10984333Y-13247500D02*
X10812905Y-13504643D01*
X11241476Y-13257024D02*
X11260524Y-13257024D01*
X11260524Y-13257024D02*
X11279572Y-13266548D01*
X11279572Y-13266548D02*
X11289095Y-13276071D01*
X11289095Y-13276071D02*
X11298619Y-13295119D01*
X11298619Y-13295119D02*
X11308143Y-13333214D01*
X11308143Y-13333214D02*
X11308143Y-13380833D01*
X11308143Y-13380833D02*
X11298619Y-13418928D01*
X11298619Y-13418928D02*
X11289095Y-13437976D01*
X11289095Y-13437976D02*
X11279572Y-13447500D01*
X11279572Y-13447500D02*
X11260524Y-13457024D01*
X11260524Y-13457024D02*
X11241476Y-13457024D01*
X11241476Y-13457024D02*
X11222429Y-13447500D01*
X11222429Y-13447500D02*
X11212905Y-13437976D01*
X11212905Y-13437976D02*
X11203381Y-13418928D01*
X11203381Y-13418928D02*
X11193857Y-13380833D01*
X11193857Y-13380833D02*
X11193857Y-13333214D01*
X11193857Y-13333214D02*
X11203381Y-13295119D01*
X11203381Y-13295119D02*
X11212905Y-13276071D01*
X11212905Y-13276071D02*
X11222429Y-13266548D01*
X11222429Y-13266548D02*
X11241476Y-13257024D01*
X11393857Y-13437976D02*
X11403381Y-13447500D01*
X11403381Y-13447500D02*
X11393857Y-13457024D01*
X11393857Y-13457024D02*
X11384333Y-13447500D01*
X11384333Y-13447500D02*
X11393857Y-13437976D01*
X11393857Y-13437976D02*
X11393857Y-13457024D01*
X11527191Y-13257024D02*
X11546238Y-13257024D01*
X11546238Y-13257024D02*
X11565286Y-13266548D01*
X11565286Y-13266548D02*
X11574810Y-13276071D01*
X11574810Y-13276071D02*
X11584333Y-13295119D01*
X11584333Y-13295119D02*
X11593857Y-13333214D01*
X11593857Y-13333214D02*
X11593857Y-13380833D01*
X11593857Y-13380833D02*
X11584333Y-13418928D01*
X11584333Y-13418928D02*
X11574810Y-13437976D01*
X11574810Y-13437976D02*
X11565286Y-13447500D01*
X11565286Y-13447500D02*
X11546238Y-13457024D01*
X11546238Y-13457024D02*
X11527191Y-13457024D01*
X11527191Y-13457024D02*
X11508143Y-13447500D01*
X11508143Y-13447500D02*
X11498619Y-13437976D01*
X11498619Y-13437976D02*
X11489095Y-13418928D01*
X11489095Y-13418928D02*
X11479572Y-13380833D01*
X11479572Y-13380833D02*
X11479572Y-13333214D01*
X11479572Y-13333214D02*
X11489095Y-13295119D01*
X11489095Y-13295119D02*
X11498619Y-13276071D01*
X11498619Y-13276071D02*
X11508143Y-13266548D01*
X11508143Y-13266548D02*
X11527191Y-13257024D01*
X11784333Y-13457024D02*
X11670048Y-13457024D01*
X11727191Y-13457024D02*
X11727191Y-13257024D01*
X11727191Y-13257024D02*
X11708143Y-13285595D01*
X11708143Y-13285595D02*
X11689095Y-13304643D01*
X11689095Y-13304643D02*
X11670048Y-13314167D01*
X11965286Y-13257024D02*
X11870048Y-13257024D01*
X11870048Y-13257024D02*
X11860524Y-13352262D01*
X11860524Y-13352262D02*
X11870048Y-13342738D01*
X11870048Y-13342738D02*
X11889095Y-13333214D01*
X11889095Y-13333214D02*
X11936714Y-13333214D01*
X11936714Y-13333214D02*
X11955762Y-13342738D01*
X11955762Y-13342738D02*
X11965286Y-13352262D01*
X11965286Y-13352262D02*
X11974810Y-13371309D01*
X11974810Y-13371309D02*
X11974810Y-13418928D01*
X11974810Y-13418928D02*
X11965286Y-13437976D01*
X11965286Y-13437976D02*
X11955762Y-13447500D01*
X11955762Y-13447500D02*
X11936714Y-13457024D01*
X11936714Y-13457024D02*
X11889095Y-13457024D01*
X11889095Y-13457024D02*
X11870048Y-13447500D01*
X11870048Y-13447500D02*
X11860524Y-13437976D01*
X12041476Y-13257024D02*
X12174810Y-13257024D01*
X12174810Y-13257024D02*
X12089095Y-13457024D01*
X12241476Y-13257024D02*
X12241476Y-13295119D01*
X12317667Y-13257024D02*
X12317667Y-13295119D01*
X12612905Y-13533214D02*
X12603381Y-13523690D01*
X12603381Y-13523690D02*
X12584334Y-13495119D01*
X12584334Y-13495119D02*
X12574810Y-13476071D01*
X12574810Y-13476071D02*
X12565286Y-13447500D01*
X12565286Y-13447500D02*
X12555762Y-13399881D01*
X12555762Y-13399881D02*
X12555762Y-13361786D01*
X12555762Y-13361786D02*
X12565286Y-13314167D01*
X12565286Y-13314167D02*
X12574810Y-13285595D01*
X12574810Y-13285595D02*
X12584334Y-13266548D01*
X12584334Y-13266548D02*
X12603381Y-13237976D01*
X12603381Y-13237976D02*
X12612905Y-13228452D01*
X12793857Y-13457024D02*
X12679572Y-13457024D01*
X12736714Y-13457024D02*
X12736714Y-13257024D01*
X12736714Y-13257024D02*
X12717667Y-13285595D01*
X12717667Y-13285595D02*
X12698619Y-13304643D01*
X12698619Y-13304643D02*
X12679572Y-13314167D01*
X12965286Y-13323690D02*
X12965286Y-13457024D01*
X12917667Y-13247500D02*
X12870048Y-13390357D01*
X12870048Y-13390357D02*
X12993857Y-13390357D01*
X13155762Y-13257024D02*
X13117667Y-13257024D01*
X13117667Y-13257024D02*
X13098619Y-13266548D01*
X13098619Y-13266548D02*
X13089095Y-13276071D01*
X13089095Y-13276071D02*
X13070048Y-13304643D01*
X13070048Y-13304643D02*
X13060524Y-13342738D01*
X13060524Y-13342738D02*
X13060524Y-13418928D01*
X13060524Y-13418928D02*
X13070048Y-13437976D01*
X13070048Y-13437976D02*
X13079572Y-13447500D01*
X13079572Y-13447500D02*
X13098619Y-13457024D01*
X13098619Y-13457024D02*
X13136715Y-13457024D01*
X13136715Y-13457024D02*
X13155762Y-13447500D01*
X13155762Y-13447500D02*
X13165286Y-13437976D01*
X13165286Y-13437976D02*
X13174810Y-13418928D01*
X13174810Y-13418928D02*
X13174810Y-13371309D01*
X13174810Y-13371309D02*
X13165286Y-13352262D01*
X13165286Y-13352262D02*
X13155762Y-13342738D01*
X13155762Y-13342738D02*
X13136715Y-13333214D01*
X13136715Y-13333214D02*
X13098619Y-13333214D01*
X13098619Y-13333214D02*
X13079572Y-13342738D01*
X13079572Y-13342738D02*
X13070048Y-13352262D01*
X13070048Y-13352262D02*
X13060524Y-13371309D01*
X13412905Y-13457024D02*
X13412905Y-13257024D01*
X13498619Y-13457024D02*
X13498619Y-13352262D01*
X13498619Y-13352262D02*
X13489096Y-13333214D01*
X13489096Y-13333214D02*
X13470048Y-13323690D01*
X13470048Y-13323690D02*
X13441476Y-13323690D01*
X13441476Y-13323690D02*
X13422429Y-13333214D01*
X13422429Y-13333214D02*
X13412905Y-13342738D01*
X13622429Y-13457024D02*
X13603381Y-13447500D01*
X13603381Y-13447500D02*
X13593857Y-13437976D01*
X13593857Y-13437976D02*
X13584334Y-13418928D01*
X13584334Y-13418928D02*
X13584334Y-13361786D01*
X13584334Y-13361786D02*
X13593857Y-13342738D01*
X13593857Y-13342738D02*
X13603381Y-13333214D01*
X13603381Y-13333214D02*
X13622429Y-13323690D01*
X13622429Y-13323690D02*
X13651000Y-13323690D01*
X13651000Y-13323690D02*
X13670048Y-13333214D01*
X13670048Y-13333214D02*
X13679572Y-13342738D01*
X13679572Y-13342738D02*
X13689096Y-13361786D01*
X13689096Y-13361786D02*
X13689096Y-13418928D01*
X13689096Y-13418928D02*
X13679572Y-13437976D01*
X13679572Y-13437976D02*
X13670048Y-13447500D01*
X13670048Y-13447500D02*
X13651000Y-13457024D01*
X13651000Y-13457024D02*
X13622429Y-13457024D01*
X13803381Y-13457024D02*
X13784334Y-13447500D01*
X13784334Y-13447500D02*
X13774810Y-13428452D01*
X13774810Y-13428452D02*
X13774810Y-13257024D01*
X13955762Y-13447500D02*
X13936715Y-13457024D01*
X13936715Y-13457024D02*
X13898619Y-13457024D01*
X13898619Y-13457024D02*
X13879572Y-13447500D01*
X13879572Y-13447500D02*
X13870048Y-13428452D01*
X13870048Y-13428452D02*
X13870048Y-13352262D01*
X13870048Y-13352262D02*
X13879572Y-13333214D01*
X13879572Y-13333214D02*
X13898619Y-13323690D01*
X13898619Y-13323690D02*
X13936715Y-13323690D01*
X13936715Y-13323690D02*
X13955762Y-13333214D01*
X13955762Y-13333214D02*
X13965286Y-13352262D01*
X13965286Y-13352262D02*
X13965286Y-13371309D01*
X13965286Y-13371309D02*
X13870048Y-13390357D01*
X14041477Y-13447500D02*
X14060524Y-13457024D01*
X14060524Y-13457024D02*
X14098619Y-13457024D01*
X14098619Y-13457024D02*
X14117667Y-13447500D01*
X14117667Y-13447500D02*
X14127191Y-13428452D01*
X14127191Y-13428452D02*
X14127191Y-13418928D01*
X14127191Y-13418928D02*
X14117667Y-13399881D01*
X14117667Y-13399881D02*
X14098619Y-13390357D01*
X14098619Y-13390357D02*
X14070048Y-13390357D01*
X14070048Y-13390357D02*
X14051000Y-13380833D01*
X14051000Y-13380833D02*
X14041477Y-13361786D01*
X14041477Y-13361786D02*
X14041477Y-13352262D01*
X14041477Y-13352262D02*
X14051000Y-13333214D01*
X14051000Y-13333214D02*
X14070048Y-13323690D01*
X14070048Y-13323690D02*
X14098619Y-13323690D01*
X14098619Y-13323690D02*
X14117667Y-13333214D01*
X14193858Y-13533214D02*
X14203381Y-13523690D01*
X14203381Y-13523690D02*
X14222429Y-13495119D01*
X14222429Y-13495119D02*
X14231953Y-13476071D01*
X14231953Y-13476071D02*
X14241477Y-13447500D01*
X14241477Y-13447500D02*
X14251000Y-13399881D01*
X14251000Y-13399881D02*
X14251000Y-13361786D01*
X14251000Y-13361786D02*
X14241477Y-13314167D01*
X14241477Y-13314167D02*
X14231953Y-13285595D01*
X14231953Y-13285595D02*
X14222429Y-13266548D01*
X14222429Y-13266548D02*
X14203381Y-13237976D01*
X14203381Y-13237976D02*
X14193858Y-13228452D01*
D13*
X9051000Y-13628500D02*
G75*
G03*
X9051000Y-13628500I-32500J0D01*
G01*
D10*
X9336714Y-13521024D02*
X9355762Y-13521024D01*
X9355762Y-13521024D02*
X9374810Y-13530548D01*
X9374810Y-13530548D02*
X9384333Y-13540071D01*
X9384333Y-13540071D02*
X9393857Y-13559119D01*
X9393857Y-13559119D02*
X9403381Y-13597214D01*
X9403381Y-13597214D02*
X9403381Y-13644833D01*
X9403381Y-13644833D02*
X9393857Y-13682928D01*
X9393857Y-13682928D02*
X9384333Y-13701976D01*
X9384333Y-13701976D02*
X9374810Y-13711500D01*
X9374810Y-13711500D02*
X9355762Y-13721024D01*
X9355762Y-13721024D02*
X9336714Y-13721024D01*
X9336714Y-13721024D02*
X9317667Y-13711500D01*
X9317667Y-13711500D02*
X9308143Y-13701976D01*
X9308143Y-13701976D02*
X9298619Y-13682928D01*
X9298619Y-13682928D02*
X9289095Y-13644833D01*
X9289095Y-13644833D02*
X9289095Y-13597214D01*
X9289095Y-13597214D02*
X9298619Y-13559119D01*
X9298619Y-13559119D02*
X9308143Y-13540071D01*
X9308143Y-13540071D02*
X9317667Y-13530548D01*
X9317667Y-13530548D02*
X9336714Y-13521024D01*
X9489095Y-13701976D02*
X9498619Y-13711500D01*
X9498619Y-13711500D02*
X9489095Y-13721024D01*
X9489095Y-13721024D02*
X9479571Y-13711500D01*
X9479571Y-13711500D02*
X9489095Y-13701976D01*
X9489095Y-13701976D02*
X9489095Y-13721024D01*
X9670048Y-13521024D02*
X9631952Y-13521024D01*
X9631952Y-13521024D02*
X9612905Y-13530548D01*
X9612905Y-13530548D02*
X9603381Y-13540071D01*
X9603381Y-13540071D02*
X9584333Y-13568643D01*
X9584333Y-13568643D02*
X9574810Y-13606738D01*
X9574810Y-13606738D02*
X9574810Y-13682928D01*
X9574810Y-13682928D02*
X9584333Y-13701976D01*
X9584333Y-13701976D02*
X9593857Y-13711500D01*
X9593857Y-13711500D02*
X9612905Y-13721024D01*
X9612905Y-13721024D02*
X9651000Y-13721024D01*
X9651000Y-13721024D02*
X9670048Y-13711500D01*
X9670048Y-13711500D02*
X9679571Y-13701976D01*
X9679571Y-13701976D02*
X9689095Y-13682928D01*
X9689095Y-13682928D02*
X9689095Y-13635309D01*
X9689095Y-13635309D02*
X9679571Y-13616262D01*
X9679571Y-13616262D02*
X9670048Y-13606738D01*
X9670048Y-13606738D02*
X9651000Y-13597214D01*
X9651000Y-13597214D02*
X9612905Y-13597214D01*
X9612905Y-13597214D02*
X9593857Y-13606738D01*
X9593857Y-13606738D02*
X9584333Y-13616262D01*
X9584333Y-13616262D02*
X9574810Y-13635309D01*
X9870048Y-13521024D02*
X9774810Y-13521024D01*
X9774810Y-13521024D02*
X9765286Y-13616262D01*
X9765286Y-13616262D02*
X9774810Y-13606738D01*
X9774810Y-13606738D02*
X9793857Y-13597214D01*
X9793857Y-13597214D02*
X9841476Y-13597214D01*
X9841476Y-13597214D02*
X9860524Y-13606738D01*
X9860524Y-13606738D02*
X9870048Y-13616262D01*
X9870048Y-13616262D02*
X9879571Y-13635309D01*
X9879571Y-13635309D02*
X9879571Y-13682928D01*
X9879571Y-13682928D02*
X9870048Y-13701976D01*
X9870048Y-13701976D02*
X9860524Y-13711500D01*
X9860524Y-13711500D02*
X9841476Y-13721024D01*
X9841476Y-13721024D02*
X9793857Y-13721024D01*
X9793857Y-13721024D02*
X9774810Y-13711500D01*
X9774810Y-13711500D02*
X9765286Y-13701976D01*
X10003381Y-13521024D02*
X10022429Y-13521024D01*
X10022429Y-13521024D02*
X10041476Y-13530548D01*
X10041476Y-13530548D02*
X10051000Y-13540071D01*
X10051000Y-13540071D02*
X10060524Y-13559119D01*
X10060524Y-13559119D02*
X10070048Y-13597214D01*
X10070048Y-13597214D02*
X10070048Y-13644833D01*
X10070048Y-13644833D02*
X10060524Y-13682928D01*
X10060524Y-13682928D02*
X10051000Y-13701976D01*
X10051000Y-13701976D02*
X10041476Y-13711500D01*
X10041476Y-13711500D02*
X10022429Y-13721024D01*
X10022429Y-13721024D02*
X10003381Y-13721024D01*
X10003381Y-13721024D02*
X9984333Y-13711500D01*
X9984333Y-13711500D02*
X9974810Y-13701976D01*
X9974810Y-13701976D02*
X9965286Y-13682928D01*
X9965286Y-13682928D02*
X9955762Y-13644833D01*
X9955762Y-13644833D02*
X9955762Y-13597214D01*
X9955762Y-13597214D02*
X9965286Y-13559119D01*
X9965286Y-13559119D02*
X9974810Y-13540071D01*
X9974810Y-13540071D02*
X9984333Y-13530548D01*
X9984333Y-13530548D02*
X10003381Y-13521024D01*
X10155762Y-13721024D02*
X10155762Y-13587690D01*
X10155762Y-13606738D02*
X10165286Y-13597214D01*
X10165286Y-13597214D02*
X10184333Y-13587690D01*
X10184333Y-13587690D02*
X10212905Y-13587690D01*
X10212905Y-13587690D02*
X10231952Y-13597214D01*
X10231952Y-13597214D02*
X10241476Y-13616262D01*
X10241476Y-13616262D02*
X10241476Y-13721024D01*
X10241476Y-13616262D02*
X10251000Y-13597214D01*
X10251000Y-13597214D02*
X10270048Y-13587690D01*
X10270048Y-13587690D02*
X10298619Y-13587690D01*
X10298619Y-13587690D02*
X10317667Y-13597214D01*
X10317667Y-13597214D02*
X10327191Y-13616262D01*
X10327191Y-13616262D02*
X10327191Y-13721024D01*
X10422429Y-13721024D02*
X10422429Y-13587690D01*
X10422429Y-13606738D02*
X10431952Y-13597214D01*
X10431952Y-13597214D02*
X10451000Y-13587690D01*
X10451000Y-13587690D02*
X10479572Y-13587690D01*
X10479572Y-13587690D02*
X10498619Y-13597214D01*
X10498619Y-13597214D02*
X10508143Y-13616262D01*
X10508143Y-13616262D02*
X10508143Y-13721024D01*
X10508143Y-13616262D02*
X10517667Y-13597214D01*
X10517667Y-13597214D02*
X10536714Y-13587690D01*
X10536714Y-13587690D02*
X10565286Y-13587690D01*
X10565286Y-13587690D02*
X10584333Y-13597214D01*
X10584333Y-13597214D02*
X10593857Y-13616262D01*
X10593857Y-13616262D02*
X10593857Y-13721024D01*
X10984333Y-13511500D02*
X10812905Y-13768643D01*
X11241476Y-13521024D02*
X11260524Y-13521024D01*
X11260524Y-13521024D02*
X11279572Y-13530548D01*
X11279572Y-13530548D02*
X11289095Y-13540071D01*
X11289095Y-13540071D02*
X11298619Y-13559119D01*
X11298619Y-13559119D02*
X11308143Y-13597214D01*
X11308143Y-13597214D02*
X11308143Y-13644833D01*
X11308143Y-13644833D02*
X11298619Y-13682928D01*
X11298619Y-13682928D02*
X11289095Y-13701976D01*
X11289095Y-13701976D02*
X11279572Y-13711500D01*
X11279572Y-13711500D02*
X11260524Y-13721024D01*
X11260524Y-13721024D02*
X11241476Y-13721024D01*
X11241476Y-13721024D02*
X11222429Y-13711500D01*
X11222429Y-13711500D02*
X11212905Y-13701976D01*
X11212905Y-13701976D02*
X11203381Y-13682928D01*
X11203381Y-13682928D02*
X11193857Y-13644833D01*
X11193857Y-13644833D02*
X11193857Y-13597214D01*
X11193857Y-13597214D02*
X11203381Y-13559119D01*
X11203381Y-13559119D02*
X11212905Y-13540071D01*
X11212905Y-13540071D02*
X11222429Y-13530548D01*
X11222429Y-13530548D02*
X11241476Y-13521024D01*
X11393857Y-13701976D02*
X11403381Y-13711500D01*
X11403381Y-13711500D02*
X11393857Y-13721024D01*
X11393857Y-13721024D02*
X11384333Y-13711500D01*
X11384333Y-13711500D02*
X11393857Y-13701976D01*
X11393857Y-13701976D02*
X11393857Y-13721024D01*
X11527191Y-13521024D02*
X11546238Y-13521024D01*
X11546238Y-13521024D02*
X11565286Y-13530548D01*
X11565286Y-13530548D02*
X11574810Y-13540071D01*
X11574810Y-13540071D02*
X11584333Y-13559119D01*
X11584333Y-13559119D02*
X11593857Y-13597214D01*
X11593857Y-13597214D02*
X11593857Y-13644833D01*
X11593857Y-13644833D02*
X11584333Y-13682928D01*
X11584333Y-13682928D02*
X11574810Y-13701976D01*
X11574810Y-13701976D02*
X11565286Y-13711500D01*
X11565286Y-13711500D02*
X11546238Y-13721024D01*
X11546238Y-13721024D02*
X11527191Y-13721024D01*
X11527191Y-13721024D02*
X11508143Y-13711500D01*
X11508143Y-13711500D02*
X11498619Y-13701976D01*
X11498619Y-13701976D02*
X11489095Y-13682928D01*
X11489095Y-13682928D02*
X11479572Y-13644833D01*
X11479572Y-13644833D02*
X11479572Y-13597214D01*
X11479572Y-13597214D02*
X11489095Y-13559119D01*
X11489095Y-13559119D02*
X11498619Y-13540071D01*
X11498619Y-13540071D02*
X11508143Y-13530548D01*
X11508143Y-13530548D02*
X11527191Y-13521024D01*
X11670048Y-13540071D02*
X11679572Y-13530548D01*
X11679572Y-13530548D02*
X11698619Y-13521024D01*
X11698619Y-13521024D02*
X11746238Y-13521024D01*
X11746238Y-13521024D02*
X11765286Y-13530548D01*
X11765286Y-13530548D02*
X11774810Y-13540071D01*
X11774810Y-13540071D02*
X11784333Y-13559119D01*
X11784333Y-13559119D02*
X11784333Y-13578167D01*
X11784333Y-13578167D02*
X11774810Y-13606738D01*
X11774810Y-13606738D02*
X11660524Y-13721024D01*
X11660524Y-13721024D02*
X11784333Y-13721024D01*
X11965286Y-13521024D02*
X11870048Y-13521024D01*
X11870048Y-13521024D02*
X11860524Y-13616262D01*
X11860524Y-13616262D02*
X11870048Y-13606738D01*
X11870048Y-13606738D02*
X11889095Y-13597214D01*
X11889095Y-13597214D02*
X11936714Y-13597214D01*
X11936714Y-13597214D02*
X11955762Y-13606738D01*
X11955762Y-13606738D02*
X11965286Y-13616262D01*
X11965286Y-13616262D02*
X11974810Y-13635309D01*
X11974810Y-13635309D02*
X11974810Y-13682928D01*
X11974810Y-13682928D02*
X11965286Y-13701976D01*
X11965286Y-13701976D02*
X11955762Y-13711500D01*
X11955762Y-13711500D02*
X11936714Y-13721024D01*
X11936714Y-13721024D02*
X11889095Y-13721024D01*
X11889095Y-13721024D02*
X11870048Y-13711500D01*
X11870048Y-13711500D02*
X11860524Y-13701976D01*
X12146238Y-13521024D02*
X12108143Y-13521024D01*
X12108143Y-13521024D02*
X12089095Y-13530548D01*
X12089095Y-13530548D02*
X12079572Y-13540071D01*
X12079572Y-13540071D02*
X12060524Y-13568643D01*
X12060524Y-13568643D02*
X12051000Y-13606738D01*
X12051000Y-13606738D02*
X12051000Y-13682928D01*
X12051000Y-13682928D02*
X12060524Y-13701976D01*
X12060524Y-13701976D02*
X12070048Y-13711500D01*
X12070048Y-13711500D02*
X12089095Y-13721024D01*
X12089095Y-13721024D02*
X12127191Y-13721024D01*
X12127191Y-13721024D02*
X12146238Y-13711500D01*
X12146238Y-13711500D02*
X12155762Y-13701976D01*
X12155762Y-13701976D02*
X12165286Y-13682928D01*
X12165286Y-13682928D02*
X12165286Y-13635309D01*
X12165286Y-13635309D02*
X12155762Y-13616262D01*
X12155762Y-13616262D02*
X12146238Y-13606738D01*
X12146238Y-13606738D02*
X12127191Y-13597214D01*
X12127191Y-13597214D02*
X12089095Y-13597214D01*
X12089095Y-13597214D02*
X12070048Y-13606738D01*
X12070048Y-13606738D02*
X12060524Y-13616262D01*
X12060524Y-13616262D02*
X12051000Y-13635309D01*
X12241476Y-13521024D02*
X12241476Y-13559119D01*
X12317667Y-13521024D02*
X12317667Y-13559119D01*
X12612905Y-13797214D02*
X12603381Y-13787690D01*
X12603381Y-13787690D02*
X12584334Y-13759119D01*
X12584334Y-13759119D02*
X12574810Y-13740071D01*
X12574810Y-13740071D02*
X12565286Y-13711500D01*
X12565286Y-13711500D02*
X12555762Y-13663881D01*
X12555762Y-13663881D02*
X12555762Y-13625786D01*
X12555762Y-13625786D02*
X12565286Y-13578167D01*
X12565286Y-13578167D02*
X12574810Y-13549595D01*
X12574810Y-13549595D02*
X12584334Y-13530548D01*
X12584334Y-13530548D02*
X12603381Y-13501976D01*
X12603381Y-13501976D02*
X12612905Y-13492452D01*
X12679572Y-13540071D02*
X12689095Y-13530548D01*
X12689095Y-13530548D02*
X12708143Y-13521024D01*
X12708143Y-13521024D02*
X12755762Y-13521024D01*
X12755762Y-13521024D02*
X12774810Y-13530548D01*
X12774810Y-13530548D02*
X12784334Y-13540071D01*
X12784334Y-13540071D02*
X12793857Y-13559119D01*
X12793857Y-13559119D02*
X12793857Y-13578167D01*
X12793857Y-13578167D02*
X12784334Y-13606738D01*
X12784334Y-13606738D02*
X12670048Y-13721024D01*
X12670048Y-13721024D02*
X12793857Y-13721024D01*
X13031953Y-13721024D02*
X13031953Y-13521024D01*
X13117667Y-13721024D02*
X13117667Y-13616262D01*
X13117667Y-13616262D02*
X13108143Y-13597214D01*
X13108143Y-13597214D02*
X13089096Y-13587690D01*
X13089096Y-13587690D02*
X13060524Y-13587690D01*
X13060524Y-13587690D02*
X13041476Y-13597214D01*
X13041476Y-13597214D02*
X13031953Y-13606738D01*
X13241476Y-13721024D02*
X13222429Y-13711500D01*
X13222429Y-13711500D02*
X13212905Y-13701976D01*
X13212905Y-13701976D02*
X13203381Y-13682928D01*
X13203381Y-13682928D02*
X13203381Y-13625786D01*
X13203381Y-13625786D02*
X13212905Y-13606738D01*
X13212905Y-13606738D02*
X13222429Y-13597214D01*
X13222429Y-13597214D02*
X13241476Y-13587690D01*
X13241476Y-13587690D02*
X13270048Y-13587690D01*
X13270048Y-13587690D02*
X13289096Y-13597214D01*
X13289096Y-13597214D02*
X13298619Y-13606738D01*
X13298619Y-13606738D02*
X13308143Y-13625786D01*
X13308143Y-13625786D02*
X13308143Y-13682928D01*
X13308143Y-13682928D02*
X13298619Y-13701976D01*
X13298619Y-13701976D02*
X13289096Y-13711500D01*
X13289096Y-13711500D02*
X13270048Y-13721024D01*
X13270048Y-13721024D02*
X13241476Y-13721024D01*
X13422429Y-13721024D02*
X13403381Y-13711500D01*
X13403381Y-13711500D02*
X13393857Y-13692452D01*
X13393857Y-13692452D02*
X13393857Y-13521024D01*
X13574810Y-13711500D02*
X13555762Y-13721024D01*
X13555762Y-13721024D02*
X13517667Y-13721024D01*
X13517667Y-13721024D02*
X13498619Y-13711500D01*
X13498619Y-13711500D02*
X13489096Y-13692452D01*
X13489096Y-13692452D02*
X13489096Y-13616262D01*
X13489096Y-13616262D02*
X13498619Y-13597214D01*
X13498619Y-13597214D02*
X13517667Y-13587690D01*
X13517667Y-13587690D02*
X13555762Y-13587690D01*
X13555762Y-13587690D02*
X13574810Y-13597214D01*
X13574810Y-13597214D02*
X13584334Y-13616262D01*
X13584334Y-13616262D02*
X13584334Y-13635309D01*
X13584334Y-13635309D02*
X13489096Y-13654357D01*
X13660524Y-13711500D02*
X13679572Y-13721024D01*
X13679572Y-13721024D02*
X13717667Y-13721024D01*
X13717667Y-13721024D02*
X13736715Y-13711500D01*
X13736715Y-13711500D02*
X13746238Y-13692452D01*
X13746238Y-13692452D02*
X13746238Y-13682928D01*
X13746238Y-13682928D02*
X13736715Y-13663881D01*
X13736715Y-13663881D02*
X13717667Y-13654357D01*
X13717667Y-13654357D02*
X13689096Y-13654357D01*
X13689096Y-13654357D02*
X13670048Y-13644833D01*
X13670048Y-13644833D02*
X13660524Y-13625786D01*
X13660524Y-13625786D02*
X13660524Y-13616262D01*
X13660524Y-13616262D02*
X13670048Y-13597214D01*
X13670048Y-13597214D02*
X13689096Y-13587690D01*
X13689096Y-13587690D02*
X13717667Y-13587690D01*
X13717667Y-13587690D02*
X13736715Y-13597214D01*
X13812905Y-13797214D02*
X13822429Y-13787690D01*
X13822429Y-13787690D02*
X13841477Y-13759119D01*
X13841477Y-13759119D02*
X13851000Y-13740071D01*
X13851000Y-13740071D02*
X13860524Y-13711500D01*
X13860524Y-13711500D02*
X13870048Y-13663881D01*
X13870048Y-13663881D02*
X13870048Y-13625786D01*
X13870048Y-13625786D02*
X13860524Y-13578167D01*
X13860524Y-13578167D02*
X13851000Y-13549595D01*
X13851000Y-13549595D02*
X13841477Y-13530548D01*
X13841477Y-13530548D02*
X13822429Y-13501976D01*
X13822429Y-13501976D02*
X13812905Y-13492452D01*
D14*
X9011000Y-13852500D02*
X9011000Y-13932500D01*
X8971000Y-13892500D02*
X9051000Y-13892500D01*
D10*
X9336714Y-13785024D02*
X9355762Y-13785024D01*
X9355762Y-13785024D02*
X9374810Y-13794548D01*
X9374810Y-13794548D02*
X9384333Y-13804071D01*
X9384333Y-13804071D02*
X9393857Y-13823119D01*
X9393857Y-13823119D02*
X9403381Y-13861214D01*
X9403381Y-13861214D02*
X9403381Y-13908833D01*
X9403381Y-13908833D02*
X9393857Y-13946928D01*
X9393857Y-13946928D02*
X9384333Y-13965976D01*
X9384333Y-13965976D02*
X9374810Y-13975500D01*
X9374810Y-13975500D02*
X9355762Y-13985024D01*
X9355762Y-13985024D02*
X9336714Y-13985024D01*
X9336714Y-13985024D02*
X9317667Y-13975500D01*
X9317667Y-13975500D02*
X9308143Y-13965976D01*
X9308143Y-13965976D02*
X9298619Y-13946928D01*
X9298619Y-13946928D02*
X9289095Y-13908833D01*
X9289095Y-13908833D02*
X9289095Y-13861214D01*
X9289095Y-13861214D02*
X9298619Y-13823119D01*
X9298619Y-13823119D02*
X9308143Y-13804071D01*
X9308143Y-13804071D02*
X9317667Y-13794548D01*
X9317667Y-13794548D02*
X9336714Y-13785024D01*
X9489095Y-13965976D02*
X9498619Y-13975500D01*
X9498619Y-13975500D02*
X9489095Y-13985024D01*
X9489095Y-13985024D02*
X9479571Y-13975500D01*
X9479571Y-13975500D02*
X9489095Y-13965976D01*
X9489095Y-13965976D02*
X9489095Y-13985024D01*
X9612905Y-13870738D02*
X9593857Y-13861214D01*
X9593857Y-13861214D02*
X9584333Y-13851690D01*
X9584333Y-13851690D02*
X9574810Y-13832643D01*
X9574810Y-13832643D02*
X9574810Y-13823119D01*
X9574810Y-13823119D02*
X9584333Y-13804071D01*
X9584333Y-13804071D02*
X9593857Y-13794548D01*
X9593857Y-13794548D02*
X9612905Y-13785024D01*
X9612905Y-13785024D02*
X9651000Y-13785024D01*
X9651000Y-13785024D02*
X9670048Y-13794548D01*
X9670048Y-13794548D02*
X9679571Y-13804071D01*
X9679571Y-13804071D02*
X9689095Y-13823119D01*
X9689095Y-13823119D02*
X9689095Y-13832643D01*
X9689095Y-13832643D02*
X9679571Y-13851690D01*
X9679571Y-13851690D02*
X9670048Y-13861214D01*
X9670048Y-13861214D02*
X9651000Y-13870738D01*
X9651000Y-13870738D02*
X9612905Y-13870738D01*
X9612905Y-13870738D02*
X9593857Y-13880262D01*
X9593857Y-13880262D02*
X9584333Y-13889786D01*
X9584333Y-13889786D02*
X9574810Y-13908833D01*
X9574810Y-13908833D02*
X9574810Y-13946928D01*
X9574810Y-13946928D02*
X9584333Y-13965976D01*
X9584333Y-13965976D02*
X9593857Y-13975500D01*
X9593857Y-13975500D02*
X9612905Y-13985024D01*
X9612905Y-13985024D02*
X9651000Y-13985024D01*
X9651000Y-13985024D02*
X9670048Y-13975500D01*
X9670048Y-13975500D02*
X9679571Y-13965976D01*
X9679571Y-13965976D02*
X9689095Y-13946928D01*
X9689095Y-13946928D02*
X9689095Y-13908833D01*
X9689095Y-13908833D02*
X9679571Y-13889786D01*
X9679571Y-13889786D02*
X9670048Y-13880262D01*
X9670048Y-13880262D02*
X9651000Y-13870738D01*
X9812905Y-13785024D02*
X9831952Y-13785024D01*
X9831952Y-13785024D02*
X9851000Y-13794548D01*
X9851000Y-13794548D02*
X9860524Y-13804071D01*
X9860524Y-13804071D02*
X9870048Y-13823119D01*
X9870048Y-13823119D02*
X9879571Y-13861214D01*
X9879571Y-13861214D02*
X9879571Y-13908833D01*
X9879571Y-13908833D02*
X9870048Y-13946928D01*
X9870048Y-13946928D02*
X9860524Y-13965976D01*
X9860524Y-13965976D02*
X9851000Y-13975500D01*
X9851000Y-13975500D02*
X9831952Y-13985024D01*
X9831952Y-13985024D02*
X9812905Y-13985024D01*
X9812905Y-13985024D02*
X9793857Y-13975500D01*
X9793857Y-13975500D02*
X9784333Y-13965976D01*
X9784333Y-13965976D02*
X9774810Y-13946928D01*
X9774810Y-13946928D02*
X9765286Y-13908833D01*
X9765286Y-13908833D02*
X9765286Y-13861214D01*
X9765286Y-13861214D02*
X9774810Y-13823119D01*
X9774810Y-13823119D02*
X9784333Y-13804071D01*
X9784333Y-13804071D02*
X9793857Y-13794548D01*
X9793857Y-13794548D02*
X9812905Y-13785024D01*
X10003381Y-13785024D02*
X10022429Y-13785024D01*
X10022429Y-13785024D02*
X10041476Y-13794548D01*
X10041476Y-13794548D02*
X10051000Y-13804071D01*
X10051000Y-13804071D02*
X10060524Y-13823119D01*
X10060524Y-13823119D02*
X10070048Y-13861214D01*
X10070048Y-13861214D02*
X10070048Y-13908833D01*
X10070048Y-13908833D02*
X10060524Y-13946928D01*
X10060524Y-13946928D02*
X10051000Y-13965976D01*
X10051000Y-13965976D02*
X10041476Y-13975500D01*
X10041476Y-13975500D02*
X10022429Y-13985024D01*
X10022429Y-13985024D02*
X10003381Y-13985024D01*
X10003381Y-13985024D02*
X9984333Y-13975500D01*
X9984333Y-13975500D02*
X9974810Y-13965976D01*
X9974810Y-13965976D02*
X9965286Y-13946928D01*
X9965286Y-13946928D02*
X9955762Y-13908833D01*
X9955762Y-13908833D02*
X9955762Y-13861214D01*
X9955762Y-13861214D02*
X9965286Y-13823119D01*
X9965286Y-13823119D02*
X9974810Y-13804071D01*
X9974810Y-13804071D02*
X9984333Y-13794548D01*
X9984333Y-13794548D02*
X10003381Y-13785024D01*
X10155762Y-13985024D02*
X10155762Y-13851690D01*
X10155762Y-13870738D02*
X10165286Y-13861214D01*
X10165286Y-13861214D02*
X10184333Y-13851690D01*
X10184333Y-13851690D02*
X10212905Y-13851690D01*
X10212905Y-13851690D02*
X10231952Y-13861214D01*
X10231952Y-13861214D02*
X10241476Y-13880262D01*
X10241476Y-13880262D02*
X10241476Y-13985024D01*
X10241476Y-13880262D02*
X10251000Y-13861214D01*
X10251000Y-13861214D02*
X10270048Y-13851690D01*
X10270048Y-13851690D02*
X10298619Y-13851690D01*
X10298619Y-13851690D02*
X10317667Y-13861214D01*
X10317667Y-13861214D02*
X10327191Y-13880262D01*
X10327191Y-13880262D02*
X10327191Y-13985024D01*
X10422429Y-13985024D02*
X10422429Y-13851690D01*
X10422429Y-13870738D02*
X10431952Y-13861214D01*
X10431952Y-13861214D02*
X10451000Y-13851690D01*
X10451000Y-13851690D02*
X10479572Y-13851690D01*
X10479572Y-13851690D02*
X10498619Y-13861214D01*
X10498619Y-13861214D02*
X10508143Y-13880262D01*
X10508143Y-13880262D02*
X10508143Y-13985024D01*
X10508143Y-13880262D02*
X10517667Y-13861214D01*
X10517667Y-13861214D02*
X10536714Y-13851690D01*
X10536714Y-13851690D02*
X10565286Y-13851690D01*
X10565286Y-13851690D02*
X10584333Y-13861214D01*
X10584333Y-13861214D02*
X10593857Y-13880262D01*
X10593857Y-13880262D02*
X10593857Y-13985024D01*
X10984333Y-13775500D02*
X10812905Y-14032643D01*
X11241476Y-13785024D02*
X11260524Y-13785024D01*
X11260524Y-13785024D02*
X11279572Y-13794548D01*
X11279572Y-13794548D02*
X11289095Y-13804071D01*
X11289095Y-13804071D02*
X11298619Y-13823119D01*
X11298619Y-13823119D02*
X11308143Y-13861214D01*
X11308143Y-13861214D02*
X11308143Y-13908833D01*
X11308143Y-13908833D02*
X11298619Y-13946928D01*
X11298619Y-13946928D02*
X11289095Y-13965976D01*
X11289095Y-13965976D02*
X11279572Y-13975500D01*
X11279572Y-13975500D02*
X11260524Y-13985024D01*
X11260524Y-13985024D02*
X11241476Y-13985024D01*
X11241476Y-13985024D02*
X11222429Y-13975500D01*
X11222429Y-13975500D02*
X11212905Y-13965976D01*
X11212905Y-13965976D02*
X11203381Y-13946928D01*
X11203381Y-13946928D02*
X11193857Y-13908833D01*
X11193857Y-13908833D02*
X11193857Y-13861214D01*
X11193857Y-13861214D02*
X11203381Y-13823119D01*
X11203381Y-13823119D02*
X11212905Y-13804071D01*
X11212905Y-13804071D02*
X11222429Y-13794548D01*
X11222429Y-13794548D02*
X11241476Y-13785024D01*
X11393857Y-13965976D02*
X11403381Y-13975500D01*
X11403381Y-13975500D02*
X11393857Y-13985024D01*
X11393857Y-13985024D02*
X11384333Y-13975500D01*
X11384333Y-13975500D02*
X11393857Y-13965976D01*
X11393857Y-13965976D02*
X11393857Y-13985024D01*
X11527191Y-13785024D02*
X11546238Y-13785024D01*
X11546238Y-13785024D02*
X11565286Y-13794548D01*
X11565286Y-13794548D02*
X11574810Y-13804071D01*
X11574810Y-13804071D02*
X11584333Y-13823119D01*
X11584333Y-13823119D02*
X11593857Y-13861214D01*
X11593857Y-13861214D02*
X11593857Y-13908833D01*
X11593857Y-13908833D02*
X11584333Y-13946928D01*
X11584333Y-13946928D02*
X11574810Y-13965976D01*
X11574810Y-13965976D02*
X11565286Y-13975500D01*
X11565286Y-13975500D02*
X11546238Y-13985024D01*
X11546238Y-13985024D02*
X11527191Y-13985024D01*
X11527191Y-13985024D02*
X11508143Y-13975500D01*
X11508143Y-13975500D02*
X11498619Y-13965976D01*
X11498619Y-13965976D02*
X11489095Y-13946928D01*
X11489095Y-13946928D02*
X11479572Y-13908833D01*
X11479572Y-13908833D02*
X11479572Y-13861214D01*
X11479572Y-13861214D02*
X11489095Y-13823119D01*
X11489095Y-13823119D02*
X11498619Y-13804071D01*
X11498619Y-13804071D02*
X11508143Y-13794548D01*
X11508143Y-13794548D02*
X11527191Y-13785024D01*
X11660524Y-13785024D02*
X11784333Y-13785024D01*
X11784333Y-13785024D02*
X11717667Y-13861214D01*
X11717667Y-13861214D02*
X11746238Y-13861214D01*
X11746238Y-13861214D02*
X11765286Y-13870738D01*
X11765286Y-13870738D02*
X11774810Y-13880262D01*
X11774810Y-13880262D02*
X11784333Y-13899309D01*
X11784333Y-13899309D02*
X11784333Y-13946928D01*
X11784333Y-13946928D02*
X11774810Y-13965976D01*
X11774810Y-13965976D02*
X11765286Y-13975500D01*
X11765286Y-13975500D02*
X11746238Y-13985024D01*
X11746238Y-13985024D02*
X11689095Y-13985024D01*
X11689095Y-13985024D02*
X11670048Y-13975500D01*
X11670048Y-13975500D02*
X11660524Y-13965976D01*
X11974810Y-13985024D02*
X11860524Y-13985024D01*
X11917667Y-13985024D02*
X11917667Y-13785024D01*
X11917667Y-13785024D02*
X11898619Y-13813595D01*
X11898619Y-13813595D02*
X11879572Y-13832643D01*
X11879572Y-13832643D02*
X11860524Y-13842167D01*
X12155762Y-13785024D02*
X12060524Y-13785024D01*
X12060524Y-13785024D02*
X12051000Y-13880262D01*
X12051000Y-13880262D02*
X12060524Y-13870738D01*
X12060524Y-13870738D02*
X12079572Y-13861214D01*
X12079572Y-13861214D02*
X12127191Y-13861214D01*
X12127191Y-13861214D02*
X12146238Y-13870738D01*
X12146238Y-13870738D02*
X12155762Y-13880262D01*
X12155762Y-13880262D02*
X12165286Y-13899309D01*
X12165286Y-13899309D02*
X12165286Y-13946928D01*
X12165286Y-13946928D02*
X12155762Y-13965976D01*
X12155762Y-13965976D02*
X12146238Y-13975500D01*
X12146238Y-13975500D02*
X12127191Y-13985024D01*
X12127191Y-13985024D02*
X12079572Y-13985024D01*
X12079572Y-13985024D02*
X12060524Y-13975500D01*
X12060524Y-13975500D02*
X12051000Y-13965976D01*
X12241476Y-13785024D02*
X12241476Y-13823119D01*
X12317667Y-13785024D02*
X12317667Y-13823119D01*
X12612905Y-14061214D02*
X12603381Y-14051690D01*
X12603381Y-14051690D02*
X12584334Y-14023119D01*
X12584334Y-14023119D02*
X12574810Y-14004071D01*
X12574810Y-14004071D02*
X12565286Y-13975500D01*
X12565286Y-13975500D02*
X12555762Y-13927881D01*
X12555762Y-13927881D02*
X12555762Y-13889786D01*
X12555762Y-13889786D02*
X12565286Y-13842167D01*
X12565286Y-13842167D02*
X12574810Y-13813595D01*
X12574810Y-13813595D02*
X12584334Y-13794548D01*
X12584334Y-13794548D02*
X12603381Y-13765976D01*
X12603381Y-13765976D02*
X12612905Y-13756452D01*
X12717667Y-13870738D02*
X12698619Y-13861214D01*
X12698619Y-13861214D02*
X12689095Y-13851690D01*
X12689095Y-13851690D02*
X12679572Y-13832643D01*
X12679572Y-13832643D02*
X12679572Y-13823119D01*
X12679572Y-13823119D02*
X12689095Y-13804071D01*
X12689095Y-13804071D02*
X12698619Y-13794548D01*
X12698619Y-13794548D02*
X12717667Y-13785024D01*
X12717667Y-13785024D02*
X12755762Y-13785024D01*
X12755762Y-13785024D02*
X12774810Y-13794548D01*
X12774810Y-13794548D02*
X12784334Y-13804071D01*
X12784334Y-13804071D02*
X12793857Y-13823119D01*
X12793857Y-13823119D02*
X12793857Y-13832643D01*
X12793857Y-13832643D02*
X12784334Y-13851690D01*
X12784334Y-13851690D02*
X12774810Y-13861214D01*
X12774810Y-13861214D02*
X12755762Y-13870738D01*
X12755762Y-13870738D02*
X12717667Y-13870738D01*
X12717667Y-13870738D02*
X12698619Y-13880262D01*
X12698619Y-13880262D02*
X12689095Y-13889786D01*
X12689095Y-13889786D02*
X12679572Y-13908833D01*
X12679572Y-13908833D02*
X12679572Y-13946928D01*
X12679572Y-13946928D02*
X12689095Y-13965976D01*
X12689095Y-13965976D02*
X12698619Y-13975500D01*
X12698619Y-13975500D02*
X12717667Y-13985024D01*
X12717667Y-13985024D02*
X12755762Y-13985024D01*
X12755762Y-13985024D02*
X12774810Y-13975500D01*
X12774810Y-13975500D02*
X12784334Y-13965976D01*
X12784334Y-13965976D02*
X12793857Y-13946928D01*
X12793857Y-13946928D02*
X12793857Y-13908833D01*
X12793857Y-13908833D02*
X12784334Y-13889786D01*
X12784334Y-13889786D02*
X12774810Y-13880262D01*
X12774810Y-13880262D02*
X12755762Y-13870738D01*
X12965286Y-13785024D02*
X12927191Y-13785024D01*
X12927191Y-13785024D02*
X12908143Y-13794548D01*
X12908143Y-13794548D02*
X12898619Y-13804071D01*
X12898619Y-13804071D02*
X12879572Y-13832643D01*
X12879572Y-13832643D02*
X12870048Y-13870738D01*
X12870048Y-13870738D02*
X12870048Y-13946928D01*
X12870048Y-13946928D02*
X12879572Y-13965976D01*
X12879572Y-13965976D02*
X12889095Y-13975500D01*
X12889095Y-13975500D02*
X12908143Y-13985024D01*
X12908143Y-13985024D02*
X12946238Y-13985024D01*
X12946238Y-13985024D02*
X12965286Y-13975500D01*
X12965286Y-13975500D02*
X12974810Y-13965976D01*
X12974810Y-13965976D02*
X12984334Y-13946928D01*
X12984334Y-13946928D02*
X12984334Y-13899309D01*
X12984334Y-13899309D02*
X12974810Y-13880262D01*
X12974810Y-13880262D02*
X12965286Y-13870738D01*
X12965286Y-13870738D02*
X12946238Y-13861214D01*
X12946238Y-13861214D02*
X12908143Y-13861214D01*
X12908143Y-13861214D02*
X12889095Y-13870738D01*
X12889095Y-13870738D02*
X12879572Y-13880262D01*
X12879572Y-13880262D02*
X12870048Y-13899309D01*
X13222429Y-13985024D02*
X13222429Y-13785024D01*
X13308143Y-13985024D02*
X13308143Y-13880262D01*
X13308143Y-13880262D02*
X13298619Y-13861214D01*
X13298619Y-13861214D02*
X13279572Y-13851690D01*
X13279572Y-13851690D02*
X13251000Y-13851690D01*
X13251000Y-13851690D02*
X13231953Y-13861214D01*
X13231953Y-13861214D02*
X13222429Y-13870738D01*
X13431953Y-13985024D02*
X13412905Y-13975500D01*
X13412905Y-13975500D02*
X13403381Y-13965976D01*
X13403381Y-13965976D02*
X13393857Y-13946928D01*
X13393857Y-13946928D02*
X13393857Y-13889786D01*
X13393857Y-13889786D02*
X13403381Y-13870738D01*
X13403381Y-13870738D02*
X13412905Y-13861214D01*
X13412905Y-13861214D02*
X13431953Y-13851690D01*
X13431953Y-13851690D02*
X13460524Y-13851690D01*
X13460524Y-13851690D02*
X13479572Y-13861214D01*
X13479572Y-13861214D02*
X13489096Y-13870738D01*
X13489096Y-13870738D02*
X13498619Y-13889786D01*
X13498619Y-13889786D02*
X13498619Y-13946928D01*
X13498619Y-13946928D02*
X13489096Y-13965976D01*
X13489096Y-13965976D02*
X13479572Y-13975500D01*
X13479572Y-13975500D02*
X13460524Y-13985024D01*
X13460524Y-13985024D02*
X13431953Y-13985024D01*
X13612905Y-13985024D02*
X13593857Y-13975500D01*
X13593857Y-13975500D02*
X13584334Y-13956452D01*
X13584334Y-13956452D02*
X13584334Y-13785024D01*
X13765286Y-13975500D02*
X13746238Y-13985024D01*
X13746238Y-13985024D02*
X13708143Y-13985024D01*
X13708143Y-13985024D02*
X13689096Y-13975500D01*
X13689096Y-13975500D02*
X13679572Y-13956452D01*
X13679572Y-13956452D02*
X13679572Y-13880262D01*
X13679572Y-13880262D02*
X13689096Y-13861214D01*
X13689096Y-13861214D02*
X13708143Y-13851690D01*
X13708143Y-13851690D02*
X13746238Y-13851690D01*
X13746238Y-13851690D02*
X13765286Y-13861214D01*
X13765286Y-13861214D02*
X13774810Y-13880262D01*
X13774810Y-13880262D02*
X13774810Y-13899309D01*
X13774810Y-13899309D02*
X13679572Y-13918357D01*
X13851000Y-13975500D02*
X13870048Y-13985024D01*
X13870048Y-13985024D02*
X13908143Y-13985024D01*
X13908143Y-13985024D02*
X13927191Y-13975500D01*
X13927191Y-13975500D02*
X13936715Y-13956452D01*
X13936715Y-13956452D02*
X13936715Y-13946928D01*
X13936715Y-13946928D02*
X13927191Y-13927881D01*
X13927191Y-13927881D02*
X13908143Y-13918357D01*
X13908143Y-13918357D02*
X13879572Y-13918357D01*
X13879572Y-13918357D02*
X13860524Y-13908833D01*
X13860524Y-13908833D02*
X13851000Y-13889786D01*
X13851000Y-13889786D02*
X13851000Y-13880262D01*
X13851000Y-13880262D02*
X13860524Y-13861214D01*
X13860524Y-13861214D02*
X13879572Y-13851690D01*
X13879572Y-13851690D02*
X13908143Y-13851690D01*
X13908143Y-13851690D02*
X13927191Y-13861214D01*
X14003381Y-14061214D02*
X14012905Y-14051690D01*
X14012905Y-14051690D02*
X14031953Y-14023119D01*
X14031953Y-14023119D02*
X14041477Y-14004071D01*
X14041477Y-14004071D02*
X14051000Y-13975500D01*
X14051000Y-13975500D02*
X14060524Y-13927881D01*
X14060524Y-13927881D02*
X14060524Y-13889786D01*
X14060524Y-13889786D02*
X14051000Y-13842167D01*
X14051000Y-13842167D02*
X14041477Y-13813595D01*
X14041477Y-13813595D02*
X14031953Y-13794548D01*
X14031953Y-13794548D02*
X14012905Y-13765976D01*
X14012905Y-13765976D02*
X14003381Y-13756452D01*
D11*
X9036356Y-14191856D02*
X9036356Y-14121144D01*
X8965644Y-14121144D01*
X8965644Y-14191856D01*
X9036356Y-14191856D01*
D10*
X9403381Y-14249024D02*
X9289095Y-14249024D01*
X9346238Y-14249024D02*
X9346238Y-14049024D01*
X9346238Y-14049024D02*
X9327190Y-14077595D01*
X9327190Y-14077595D02*
X9308143Y-14096643D01*
X9308143Y-14096643D02*
X9289095Y-14106167D01*
X9489095Y-14229976D02*
X9498619Y-14239500D01*
X9498619Y-14239500D02*
X9489095Y-14249024D01*
X9489095Y-14249024D02*
X9479571Y-14239500D01*
X9479571Y-14239500D02*
X9489095Y-14229976D01*
X9489095Y-14229976D02*
X9489095Y-14249024D01*
X9622429Y-14049024D02*
X9641476Y-14049024D01*
X9641476Y-14049024D02*
X9660524Y-14058548D01*
X9660524Y-14058548D02*
X9670048Y-14068071D01*
X9670048Y-14068071D02*
X9679571Y-14087119D01*
X9679571Y-14087119D02*
X9689095Y-14125214D01*
X9689095Y-14125214D02*
X9689095Y-14172833D01*
X9689095Y-14172833D02*
X9679571Y-14210928D01*
X9679571Y-14210928D02*
X9670048Y-14229976D01*
X9670048Y-14229976D02*
X9660524Y-14239500D01*
X9660524Y-14239500D02*
X9641476Y-14249024D01*
X9641476Y-14249024D02*
X9622429Y-14249024D01*
X9622429Y-14249024D02*
X9603381Y-14239500D01*
X9603381Y-14239500D02*
X9593857Y-14229976D01*
X9593857Y-14229976D02*
X9584333Y-14210928D01*
X9584333Y-14210928D02*
X9574810Y-14172833D01*
X9574810Y-14172833D02*
X9574810Y-14125214D01*
X9574810Y-14125214D02*
X9584333Y-14087119D01*
X9584333Y-14087119D02*
X9593857Y-14068071D01*
X9593857Y-14068071D02*
X9603381Y-14058548D01*
X9603381Y-14058548D02*
X9622429Y-14049024D01*
X9812905Y-14049024D02*
X9831952Y-14049024D01*
X9831952Y-14049024D02*
X9851000Y-14058548D01*
X9851000Y-14058548D02*
X9860524Y-14068071D01*
X9860524Y-14068071D02*
X9870048Y-14087119D01*
X9870048Y-14087119D02*
X9879571Y-14125214D01*
X9879571Y-14125214D02*
X9879571Y-14172833D01*
X9879571Y-14172833D02*
X9870048Y-14210928D01*
X9870048Y-14210928D02*
X9860524Y-14229976D01*
X9860524Y-14229976D02*
X9851000Y-14239500D01*
X9851000Y-14239500D02*
X9831952Y-14249024D01*
X9831952Y-14249024D02*
X9812905Y-14249024D01*
X9812905Y-14249024D02*
X9793857Y-14239500D01*
X9793857Y-14239500D02*
X9784333Y-14229976D01*
X9784333Y-14229976D02*
X9774810Y-14210928D01*
X9774810Y-14210928D02*
X9765286Y-14172833D01*
X9765286Y-14172833D02*
X9765286Y-14125214D01*
X9765286Y-14125214D02*
X9774810Y-14087119D01*
X9774810Y-14087119D02*
X9784333Y-14068071D01*
X9784333Y-14068071D02*
X9793857Y-14058548D01*
X9793857Y-14058548D02*
X9812905Y-14049024D01*
X10003381Y-14049024D02*
X10022429Y-14049024D01*
X10022429Y-14049024D02*
X10041476Y-14058548D01*
X10041476Y-14058548D02*
X10051000Y-14068071D01*
X10051000Y-14068071D02*
X10060524Y-14087119D01*
X10060524Y-14087119D02*
X10070048Y-14125214D01*
X10070048Y-14125214D02*
X10070048Y-14172833D01*
X10070048Y-14172833D02*
X10060524Y-14210928D01*
X10060524Y-14210928D02*
X10051000Y-14229976D01*
X10051000Y-14229976D02*
X10041476Y-14239500D01*
X10041476Y-14239500D02*
X10022429Y-14249024D01*
X10022429Y-14249024D02*
X10003381Y-14249024D01*
X10003381Y-14249024D02*
X9984333Y-14239500D01*
X9984333Y-14239500D02*
X9974810Y-14229976D01*
X9974810Y-14229976D02*
X9965286Y-14210928D01*
X9965286Y-14210928D02*
X9955762Y-14172833D01*
X9955762Y-14172833D02*
X9955762Y-14125214D01*
X9955762Y-14125214D02*
X9965286Y-14087119D01*
X9965286Y-14087119D02*
X9974810Y-14068071D01*
X9974810Y-14068071D02*
X9984333Y-14058548D01*
X9984333Y-14058548D02*
X10003381Y-14049024D01*
X10155762Y-14249024D02*
X10155762Y-14115690D01*
X10155762Y-14134738D02*
X10165286Y-14125214D01*
X10165286Y-14125214D02*
X10184333Y-14115690D01*
X10184333Y-14115690D02*
X10212905Y-14115690D01*
X10212905Y-14115690D02*
X10231952Y-14125214D01*
X10231952Y-14125214D02*
X10241476Y-14144262D01*
X10241476Y-14144262D02*
X10241476Y-14249024D01*
X10241476Y-14144262D02*
X10251000Y-14125214D01*
X10251000Y-14125214D02*
X10270048Y-14115690D01*
X10270048Y-14115690D02*
X10298619Y-14115690D01*
X10298619Y-14115690D02*
X10317667Y-14125214D01*
X10317667Y-14125214D02*
X10327191Y-14144262D01*
X10327191Y-14144262D02*
X10327191Y-14249024D01*
X10422429Y-14249024D02*
X10422429Y-14115690D01*
X10422429Y-14134738D02*
X10431952Y-14125214D01*
X10431952Y-14125214D02*
X10451000Y-14115690D01*
X10451000Y-14115690D02*
X10479572Y-14115690D01*
X10479572Y-14115690D02*
X10498619Y-14125214D01*
X10498619Y-14125214D02*
X10508143Y-14144262D01*
X10508143Y-14144262D02*
X10508143Y-14249024D01*
X10508143Y-14144262D02*
X10517667Y-14125214D01*
X10517667Y-14125214D02*
X10536714Y-14115690D01*
X10536714Y-14115690D02*
X10565286Y-14115690D01*
X10565286Y-14115690D02*
X10584333Y-14125214D01*
X10584333Y-14125214D02*
X10593857Y-14144262D01*
X10593857Y-14144262D02*
X10593857Y-14249024D01*
X10984333Y-14039500D02*
X10812905Y-14296643D01*
X11241476Y-14049024D02*
X11260524Y-14049024D01*
X11260524Y-14049024D02*
X11279572Y-14058548D01*
X11279572Y-14058548D02*
X11289095Y-14068071D01*
X11289095Y-14068071D02*
X11298619Y-14087119D01*
X11298619Y-14087119D02*
X11308143Y-14125214D01*
X11308143Y-14125214D02*
X11308143Y-14172833D01*
X11308143Y-14172833D02*
X11298619Y-14210928D01*
X11298619Y-14210928D02*
X11289095Y-14229976D01*
X11289095Y-14229976D02*
X11279572Y-14239500D01*
X11279572Y-14239500D02*
X11260524Y-14249024D01*
X11260524Y-14249024D02*
X11241476Y-14249024D01*
X11241476Y-14249024D02*
X11222429Y-14239500D01*
X11222429Y-14239500D02*
X11212905Y-14229976D01*
X11212905Y-14229976D02*
X11203381Y-14210928D01*
X11203381Y-14210928D02*
X11193857Y-14172833D01*
X11193857Y-14172833D02*
X11193857Y-14125214D01*
X11193857Y-14125214D02*
X11203381Y-14087119D01*
X11203381Y-14087119D02*
X11212905Y-14068071D01*
X11212905Y-14068071D02*
X11222429Y-14058548D01*
X11222429Y-14058548D02*
X11241476Y-14049024D01*
X11393857Y-14229976D02*
X11403381Y-14239500D01*
X11403381Y-14239500D02*
X11393857Y-14249024D01*
X11393857Y-14249024D02*
X11384333Y-14239500D01*
X11384333Y-14239500D02*
X11393857Y-14229976D01*
X11393857Y-14229976D02*
X11393857Y-14249024D01*
X11527191Y-14049024D02*
X11546238Y-14049024D01*
X11546238Y-14049024D02*
X11565286Y-14058548D01*
X11565286Y-14058548D02*
X11574810Y-14068071D01*
X11574810Y-14068071D02*
X11584333Y-14087119D01*
X11584333Y-14087119D02*
X11593857Y-14125214D01*
X11593857Y-14125214D02*
X11593857Y-14172833D01*
X11593857Y-14172833D02*
X11584333Y-14210928D01*
X11584333Y-14210928D02*
X11574810Y-14229976D01*
X11574810Y-14229976D02*
X11565286Y-14239500D01*
X11565286Y-14239500D02*
X11546238Y-14249024D01*
X11546238Y-14249024D02*
X11527191Y-14249024D01*
X11527191Y-14249024D02*
X11508143Y-14239500D01*
X11508143Y-14239500D02*
X11498619Y-14229976D01*
X11498619Y-14229976D02*
X11489095Y-14210928D01*
X11489095Y-14210928D02*
X11479572Y-14172833D01*
X11479572Y-14172833D02*
X11479572Y-14125214D01*
X11479572Y-14125214D02*
X11489095Y-14087119D01*
X11489095Y-14087119D02*
X11498619Y-14068071D01*
X11498619Y-14068071D02*
X11508143Y-14058548D01*
X11508143Y-14058548D02*
X11527191Y-14049024D01*
X11660524Y-14049024D02*
X11784333Y-14049024D01*
X11784333Y-14049024D02*
X11717667Y-14125214D01*
X11717667Y-14125214D02*
X11746238Y-14125214D01*
X11746238Y-14125214D02*
X11765286Y-14134738D01*
X11765286Y-14134738D02*
X11774810Y-14144262D01*
X11774810Y-14144262D02*
X11784333Y-14163309D01*
X11784333Y-14163309D02*
X11784333Y-14210928D01*
X11784333Y-14210928D02*
X11774810Y-14229976D01*
X11774810Y-14229976D02*
X11765286Y-14239500D01*
X11765286Y-14239500D02*
X11746238Y-14249024D01*
X11746238Y-14249024D02*
X11689095Y-14249024D01*
X11689095Y-14249024D02*
X11670048Y-14239500D01*
X11670048Y-14239500D02*
X11660524Y-14229976D01*
X11879572Y-14249024D02*
X11917667Y-14249024D01*
X11917667Y-14249024D02*
X11936714Y-14239500D01*
X11936714Y-14239500D02*
X11946238Y-14229976D01*
X11946238Y-14229976D02*
X11965286Y-14201405D01*
X11965286Y-14201405D02*
X11974810Y-14163309D01*
X11974810Y-14163309D02*
X11974810Y-14087119D01*
X11974810Y-14087119D02*
X11965286Y-14068071D01*
X11965286Y-14068071D02*
X11955762Y-14058548D01*
X11955762Y-14058548D02*
X11936714Y-14049024D01*
X11936714Y-14049024D02*
X11898619Y-14049024D01*
X11898619Y-14049024D02*
X11879572Y-14058548D01*
X11879572Y-14058548D02*
X11870048Y-14068071D01*
X11870048Y-14068071D02*
X11860524Y-14087119D01*
X11860524Y-14087119D02*
X11860524Y-14134738D01*
X11860524Y-14134738D02*
X11870048Y-14153786D01*
X11870048Y-14153786D02*
X11879572Y-14163309D01*
X11879572Y-14163309D02*
X11898619Y-14172833D01*
X11898619Y-14172833D02*
X11936714Y-14172833D01*
X11936714Y-14172833D02*
X11955762Y-14163309D01*
X11955762Y-14163309D02*
X11965286Y-14153786D01*
X11965286Y-14153786D02*
X11974810Y-14134738D01*
X12146238Y-14115690D02*
X12146238Y-14249024D01*
X12098619Y-14039500D02*
X12051000Y-14182357D01*
X12051000Y-14182357D02*
X12174810Y-14182357D01*
X12241476Y-14049024D02*
X12241476Y-14087119D01*
X12317667Y-14049024D02*
X12317667Y-14087119D01*
X12612905Y-14325214D02*
X12603381Y-14315690D01*
X12603381Y-14315690D02*
X12584334Y-14287119D01*
X12584334Y-14287119D02*
X12574810Y-14268071D01*
X12574810Y-14268071D02*
X12565286Y-14239500D01*
X12565286Y-14239500D02*
X12555762Y-14191881D01*
X12555762Y-14191881D02*
X12555762Y-14153786D01*
X12555762Y-14153786D02*
X12565286Y-14106167D01*
X12565286Y-14106167D02*
X12574810Y-14077595D01*
X12574810Y-14077595D02*
X12584334Y-14058548D01*
X12584334Y-14058548D02*
X12603381Y-14029976D01*
X12603381Y-14029976D02*
X12612905Y-14020452D01*
X12774810Y-14049024D02*
X12736714Y-14049024D01*
X12736714Y-14049024D02*
X12717667Y-14058548D01*
X12717667Y-14058548D02*
X12708143Y-14068071D01*
X12708143Y-14068071D02*
X12689095Y-14096643D01*
X12689095Y-14096643D02*
X12679572Y-14134738D01*
X12679572Y-14134738D02*
X12679572Y-14210928D01*
X12679572Y-14210928D02*
X12689095Y-14229976D01*
X12689095Y-14229976D02*
X12698619Y-14239500D01*
X12698619Y-14239500D02*
X12717667Y-14249024D01*
X12717667Y-14249024D02*
X12755762Y-14249024D01*
X12755762Y-14249024D02*
X12774810Y-14239500D01*
X12774810Y-14239500D02*
X12784334Y-14229976D01*
X12784334Y-14229976D02*
X12793857Y-14210928D01*
X12793857Y-14210928D02*
X12793857Y-14163309D01*
X12793857Y-14163309D02*
X12784334Y-14144262D01*
X12784334Y-14144262D02*
X12774810Y-14134738D01*
X12774810Y-14134738D02*
X12755762Y-14125214D01*
X12755762Y-14125214D02*
X12717667Y-14125214D01*
X12717667Y-14125214D02*
X12698619Y-14134738D01*
X12698619Y-14134738D02*
X12689095Y-14144262D01*
X12689095Y-14144262D02*
X12679572Y-14163309D01*
X12908143Y-14134738D02*
X12889095Y-14125214D01*
X12889095Y-14125214D02*
X12879572Y-14115690D01*
X12879572Y-14115690D02*
X12870048Y-14096643D01*
X12870048Y-14096643D02*
X12870048Y-14087119D01*
X12870048Y-14087119D02*
X12879572Y-14068071D01*
X12879572Y-14068071D02*
X12889095Y-14058548D01*
X12889095Y-14058548D02*
X12908143Y-14049024D01*
X12908143Y-14049024D02*
X12946238Y-14049024D01*
X12946238Y-14049024D02*
X12965286Y-14058548D01*
X12965286Y-14058548D02*
X12974810Y-14068071D01*
X12974810Y-14068071D02*
X12984334Y-14087119D01*
X12984334Y-14087119D02*
X12984334Y-14096643D01*
X12984334Y-14096643D02*
X12974810Y-14115690D01*
X12974810Y-14115690D02*
X12965286Y-14125214D01*
X12965286Y-14125214D02*
X12946238Y-14134738D01*
X12946238Y-14134738D02*
X12908143Y-14134738D01*
X12908143Y-14134738D02*
X12889095Y-14144262D01*
X12889095Y-14144262D02*
X12879572Y-14153786D01*
X12879572Y-14153786D02*
X12870048Y-14172833D01*
X12870048Y-14172833D02*
X12870048Y-14210928D01*
X12870048Y-14210928D02*
X12879572Y-14229976D01*
X12879572Y-14229976D02*
X12889095Y-14239500D01*
X12889095Y-14239500D02*
X12908143Y-14249024D01*
X12908143Y-14249024D02*
X12946238Y-14249024D01*
X12946238Y-14249024D02*
X12965286Y-14239500D01*
X12965286Y-14239500D02*
X12974810Y-14229976D01*
X12974810Y-14229976D02*
X12984334Y-14210928D01*
X12984334Y-14210928D02*
X12984334Y-14172833D01*
X12984334Y-14172833D02*
X12974810Y-14153786D01*
X12974810Y-14153786D02*
X12965286Y-14144262D01*
X12965286Y-14144262D02*
X12946238Y-14134738D01*
X13222429Y-14249024D02*
X13222429Y-14049024D01*
X13308143Y-14249024D02*
X13308143Y-14144262D01*
X13308143Y-14144262D02*
X13298619Y-14125214D01*
X13298619Y-14125214D02*
X13279572Y-14115690D01*
X13279572Y-14115690D02*
X13251000Y-14115690D01*
X13251000Y-14115690D02*
X13231953Y-14125214D01*
X13231953Y-14125214D02*
X13222429Y-14134738D01*
X13431953Y-14249024D02*
X13412905Y-14239500D01*
X13412905Y-14239500D02*
X13403381Y-14229976D01*
X13403381Y-14229976D02*
X13393857Y-14210928D01*
X13393857Y-14210928D02*
X13393857Y-14153786D01*
X13393857Y-14153786D02*
X13403381Y-14134738D01*
X13403381Y-14134738D02*
X13412905Y-14125214D01*
X13412905Y-14125214D02*
X13431953Y-14115690D01*
X13431953Y-14115690D02*
X13460524Y-14115690D01*
X13460524Y-14115690D02*
X13479572Y-14125214D01*
X13479572Y-14125214D02*
X13489096Y-14134738D01*
X13489096Y-14134738D02*
X13498619Y-14153786D01*
X13498619Y-14153786D02*
X13498619Y-14210928D01*
X13498619Y-14210928D02*
X13489096Y-14229976D01*
X13489096Y-14229976D02*
X13479572Y-14239500D01*
X13479572Y-14239500D02*
X13460524Y-14249024D01*
X13460524Y-14249024D02*
X13431953Y-14249024D01*
X13612905Y-14249024D02*
X13593857Y-14239500D01*
X13593857Y-14239500D02*
X13584334Y-14220452D01*
X13584334Y-14220452D02*
X13584334Y-14049024D01*
X13765286Y-14239500D02*
X13746238Y-14249024D01*
X13746238Y-14249024D02*
X13708143Y-14249024D01*
X13708143Y-14249024D02*
X13689096Y-14239500D01*
X13689096Y-14239500D02*
X13679572Y-14220452D01*
X13679572Y-14220452D02*
X13679572Y-14144262D01*
X13679572Y-14144262D02*
X13689096Y-14125214D01*
X13689096Y-14125214D02*
X13708143Y-14115690D01*
X13708143Y-14115690D02*
X13746238Y-14115690D01*
X13746238Y-14115690D02*
X13765286Y-14125214D01*
X13765286Y-14125214D02*
X13774810Y-14144262D01*
X13774810Y-14144262D02*
X13774810Y-14163309D01*
X13774810Y-14163309D02*
X13679572Y-14182357D01*
X13851000Y-14239500D02*
X13870048Y-14249024D01*
X13870048Y-14249024D02*
X13908143Y-14249024D01*
X13908143Y-14249024D02*
X13927191Y-14239500D01*
X13927191Y-14239500D02*
X13936715Y-14220452D01*
X13936715Y-14220452D02*
X13936715Y-14210928D01*
X13936715Y-14210928D02*
X13927191Y-14191881D01*
X13927191Y-14191881D02*
X13908143Y-14182357D01*
X13908143Y-14182357D02*
X13879572Y-14182357D01*
X13879572Y-14182357D02*
X13860524Y-14172833D01*
X13860524Y-14172833D02*
X13851000Y-14153786D01*
X13851000Y-14153786D02*
X13851000Y-14144262D01*
X13851000Y-14144262D02*
X13860524Y-14125214D01*
X13860524Y-14125214D02*
X13879572Y-14115690D01*
X13879572Y-14115690D02*
X13908143Y-14115690D01*
X13908143Y-14115690D02*
X13927191Y-14125214D01*
X14003381Y-14325214D02*
X14012905Y-14315690D01*
X14012905Y-14315690D02*
X14031953Y-14287119D01*
X14031953Y-14287119D02*
X14041477Y-14268071D01*
X14041477Y-14268071D02*
X14051000Y-14239500D01*
X14051000Y-14239500D02*
X14060524Y-14191881D01*
X14060524Y-14191881D02*
X14060524Y-14153786D01*
X14060524Y-14153786D02*
X14051000Y-14106167D01*
X14051000Y-14106167D02*
X14041477Y-14077595D01*
X14041477Y-14077595D02*
X14031953Y-14058548D01*
X14031953Y-14058548D02*
X14012905Y-14029976D01*
X14012905Y-14029976D02*
X14003381Y-14020452D01*
M02*
