M48
; DRILL file {KiCad 7.0.1} date Сб 20 янв 2024 13:41:33
; FORMAT={-:-/ absolute / metric / decimal}
; #@! TF.CreationDate,2024-01-20T13:41:33+00:00
; #@! TF.GenerationSoftware,Kicad,Pcbnew,7.0.1
; #@! TF.FileFunction,Plated,1,2,PTH
FMAT,2
METRIC
; #@! TA.AperFunction,Plated,PTH,ViaDrill
T1C0.400
; #@! TA.AperFunction,Plated,PTH,ComponentDrill
T2C0.650
; #@! TA.AperFunction,Plated,PTH,ComponentDrill
T3C0.800
; #@! TA.AperFunction,Plated,PTH,ComponentDrill
T4C1.000
%
G90
G05
T1
X91.53Y-105.35
X91.53Y-112.79
X91.54Y-115.08
X91.54Y-122.52
X91.54Y-125.18
X91.56Y-102.93
X91.56Y-107.81
X91.57Y-93.06
X91.57Y-100.5
X91.57Y-117.54
X91.58Y-110.39
X91.59Y-120.12
X91.6Y-78.31
X91.6Y-80.54
X91.6Y-87.98
X91.6Y-90.64
X91.6Y-95.52
X91.62Y-98.1
X91.63Y-83.0
X91.65Y-85.58
X93.33Y-126.26
X94.0Y-78.36
X95.73Y-126.31
X96.58Y-78.34
X98.31Y-126.29
X99.04Y-78.31
X100.77Y-126.26
X101.25Y-111.97
X101.26Y-109.22
X101.46Y-78.34
X103.19Y-126.29
X103.89Y-78.35
X105.62Y-126.3
X106.29Y-78.4
X108.02Y-126.35
X108.87Y-78.38
X110.6Y-126.33
X111.33Y-78.35
X111.91Y-94.2
X112.08Y-101.55
X112.1Y-111.66
X112.13Y-106.87
X113.06Y-126.3
X113.75Y-78.38
X114.01Y-113.07
X115.48Y-126.33
X116.41Y-78.38
X118.14Y-126.33
X118.18Y-113.07
X118.81Y-78.43
X120.54Y-126.38
X121.39Y-78.41
X122.51Y-113.12
X123.12Y-126.36
X123.85Y-78.38
X125.58Y-126.33
X126.27Y-78.41
X127.65Y-126.31
X128.46Y-91.485
X129.22Y-78.42
X130.05Y-126.36
X131.0Y-92.355
X131.62Y-78.47
X132.55Y-92.285
X132.63Y-126.34
X133.54Y-94.234
X134.2Y-78.45
X134.8Y-92.285
X135.09Y-126.31
X136.04Y-93.785
X136.66Y-78.42
X137.115Y-92.295
X137.51Y-126.34
X139.08Y-78.45
X139.94Y-126.35
X141.72Y-78.44
X141.87Y-110.02
X141.87Y-113.12
X142.34Y-126.4
X144.12Y-78.49
X144.53Y-110.03
X144.53Y-113.13
X144.92Y-126.38
X146.7Y-78.47
X147.18Y-110.0
X147.18Y-113.1
X147.38Y-126.35
X149.16Y-78.44
X149.42Y-110.05
X149.42Y-113.15
X149.9Y-92.81
X150.01Y-126.34
X151.58Y-78.47
X152.08Y-110.06
X152.08Y-113.16
X152.41Y-81.79
X152.59Y-126.32
X154.33Y-78.47
X154.57Y-126.31
X155.01Y-110.09
X155.01Y-113.19
X155.02Y-116.75
X156.73Y-78.52
X157.47Y-126.32
X159.03Y-110.09
X159.06Y-100.51
X159.06Y-105.47
X159.08Y-97.28
X159.31Y-78.5
X159.9Y-126.33
X161.77Y-78.47
X162.3Y-126.38
X163.89Y-102.41
X164.19Y-78.5
X164.88Y-126.36
X165.34Y-112.77
X165.74Y-110.1
X166.73Y-78.48
X167.29Y-126.41
X167.34Y-126.33
X168.14Y-110.09
X169.13Y-78.53
X169.75Y-126.38
X171.71Y-78.51
X172.17Y-126.41
X174.17Y-78.48
X175.41Y-126.37
X175.46Y-123.91
X175.51Y-121.51
X175.54Y-119.09
X175.57Y-116.67
X175.58Y-114.24
X175.63Y-111.84
X175.64Y-99.14
X175.66Y-96.69
X175.66Y-101.72
X175.67Y-109.3
X175.69Y-94.27
X175.69Y-104.04
X175.72Y-106.5
X175.8Y-89.06
X175.82Y-86.61
X175.82Y-91.64
X175.85Y-81.88
X175.85Y-84.19
X175.86Y-79.55
T2
X106.675Y-92.38
X106.675Y-93.65
T3
X104.135Y-83.74
X104.135Y-86.28
X104.135Y-96.44
X104.135Y-98.98
X104.135Y-101.52
X104.135Y-109.14
X104.135Y-111.68
X104.135Y-114.22
X104.135Y-116.76
X104.135Y-119.3
X106.675Y-83.74
X106.675Y-86.28
X106.675Y-96.44
X106.675Y-98.98
X106.675Y-101.52
X106.675Y-109.14
X106.675Y-111.68
X106.675Y-114.22
X106.675Y-116.76
X106.675Y-119.3
X109.215Y-83.74
X109.215Y-86.28
X109.215Y-116.76
X109.215Y-119.3
X111.755Y-83.74
X111.755Y-86.28
X111.755Y-116.76
X111.755Y-119.3
X114.295Y-83.74
X114.295Y-86.28
X114.295Y-116.76
X114.295Y-119.3
X116.835Y-83.74
X116.835Y-86.28
X116.835Y-116.76
X116.835Y-119.3
X119.375Y-83.74
X119.375Y-86.28
X119.375Y-116.76
X119.375Y-119.3
X121.915Y-83.74
X121.915Y-86.28
X121.915Y-116.76
X121.915Y-119.3
X124.455Y-83.74
X124.455Y-86.28
X124.455Y-116.76
X124.455Y-119.3
X126.995Y-83.74
X126.995Y-86.28
X126.995Y-116.76
X126.995Y-119.3
X129.535Y-83.74
X129.535Y-86.28
X129.535Y-116.76
X129.535Y-119.3
X132.075Y-83.74
X132.075Y-86.28
X132.075Y-116.76
X132.075Y-119.3
X134.615Y-83.74
X134.615Y-86.28
X134.615Y-116.76
X134.615Y-119.3
X137.155Y-83.74
X137.155Y-86.28
X137.155Y-116.76
X137.155Y-119.3
X139.695Y-83.74
X139.695Y-86.28
X139.695Y-116.76
X139.695Y-119.3
X142.235Y-83.74
X142.235Y-86.28
X142.235Y-116.76
X142.235Y-119.3
X144.775Y-83.74
X144.775Y-86.28
X147.315Y-83.74
X147.315Y-86.28
X149.855Y-83.74
X149.855Y-86.28
X152.395Y-83.74
X152.395Y-86.28
X154.935Y-83.74
X154.935Y-86.28
T4
X99.385Y-92.395
X99.385Y-94.935
X99.385Y-97.475
X99.385Y-100.015
X99.385Y-102.555
X99.385Y-105.095
X99.385Y-107.635
X99.54Y-124.37
X102.08Y-124.37
X104.62Y-124.37
X107.16Y-124.37
X109.2Y-80.35
X109.7Y-124.37
X111.74Y-80.35
X112.24Y-124.37
X114.28Y-80.35
X114.78Y-124.37
X116.82Y-80.35
X117.32Y-124.37
X118.26Y-96.54
X119.36Y-80.35
X119.86Y-124.37
X120.8Y-96.54
X121.9Y-80.35
X122.4Y-124.37
X123.34Y-96.54
X124.44Y-80.35
X124.94Y-124.37
X125.88Y-96.54
X125.93Y-111.05
X126.98Y-80.35
X127.48Y-124.37
X128.42Y-96.54
X128.47Y-111.05
X129.52Y-80.35
X130.02Y-124.37
X130.96Y-96.54
X131.01Y-111.05
X132.06Y-80.35
X132.56Y-124.37
X133.5Y-96.54
X133.55Y-111.05
X134.6Y-80.35
X135.1Y-124.37
X136.04Y-96.54
X137.14Y-80.35
X137.64Y-124.37
X138.58Y-96.54
X139.68Y-80.35
X140.18Y-124.37
X141.12Y-96.54
X142.22Y-80.35
X143.66Y-96.54
X144.76Y-80.35
X146.2Y-96.54
X147.3Y-80.35
X149.84Y-80.35
X152.14Y-123.465
X154.68Y-123.465
X159.73Y-123.55
X159.87Y-118.795
X159.96Y-81.46
X159.96Y-84.0
X159.96Y-86.54
X159.96Y-89.08
X159.96Y-91.62
X162.27Y-123.55
X162.41Y-118.795
T0
M30
