%TF.GenerationSoftware,KiCad,Pcbnew,7.0.1*%
%TF.CreationDate,2024-01-20T13:41:41+00:00*%
%TF.ProjectId,Control_Board,436f6e74-726f-46c5-9f42-6f6172642e6b,rev?*%
%TF.SameCoordinates,Original*%
%TF.FileFunction,Copper,L1,Top*%
%TF.FilePolarity,Positive*%
%FSLAX45Y45*%
G04 Gerber Fmt 4.5, Leading zero omitted, Abs format (unit mm)*
G04 Created by KiCad (PCBNEW 7.0.1) date 2024-01-20 13:41:41*
%MOMM*%
%LPD*%
G01*
G04 APERTURE LIST*
G04 Aperture macros list*
%AMRoundRect*
0 Rectangle with rounded corners*
0 $1 Rounding radius*
0 $2 $3 $4 $5 $6 $7 $8 $9 X,Y pos of 4 corners*
0 Add a 4 corners polygon primitive as box body*
4,1,4,$2,$3,$4,$5,$6,$7,$8,$9,$2,$3,0*
0 Add four circle primitives for the rounded corners*
1,1,$1+$1,$2,$3*
1,1,$1+$1,$4,$5*
1,1,$1+$1,$6,$7*
1,1,$1+$1,$8,$9*
0 Add four rect primitives between the rounded corners*
20,1,$1+$1,$2,$3,$4,$5,0*
20,1,$1+$1,$4,$5,$6,$7,0*
20,1,$1+$1,$6,$7,$8,$9,0*
20,1,$1+$1,$8,$9,$2,$3,0*%
G04 Aperture macros list end*
%ADD10C,0.100000*%
%ADD11C,0.150000*%
%ADD12C,0.300000*%
%ADD13C,0.400000*%
%TA.AperFunction,SMDPad,CuDef*%
%ADD14R,1.500000X2.000000*%
%TD*%
%TA.AperFunction,SMDPad,CuDef*%
%ADD15R,3.800000X2.000000*%
%TD*%
%TA.AperFunction,SMDPad,CuDef*%
%ADD16RoundRect,0.250000X-0.412500X-0.650000X0.412500X-0.650000X0.412500X0.650000X-0.412500X0.650000X0*%
%TD*%
%TA.AperFunction,ComponentPad*%
%ADD17R,1.700000X1.700000*%
%TD*%
%TA.AperFunction,ComponentPad*%
%ADD18O,1.700000X1.700000*%
%TD*%
%TA.AperFunction,SMDPad,CuDef*%
%ADD19RoundRect,0.250000X-0.375000X-0.625000X0.375000X-0.625000X0.375000X0.625000X-0.375000X0.625000X0*%
%TD*%
%TA.AperFunction,SMDPad,CuDef*%
%ADD20RoundRect,0.250000X0.625000X-0.312500X0.625000X0.312500X-0.625000X0.312500X-0.625000X-0.312500X0*%
%TD*%
%TA.AperFunction,SMDPad,CuDef*%
%ADD21RoundRect,0.150000X0.587500X0.150000X-0.587500X0.150000X-0.587500X-0.150000X0.587500X-0.150000X0*%
%TD*%
%TA.AperFunction,SMDPad,CuDef*%
%ADD22RoundRect,0.250000X-0.625000X0.375000X-0.625000X-0.375000X0.625000X-0.375000X0.625000X0.375000X0*%
%TD*%
%TA.AperFunction,SMDPad,CuDef*%
%ADD23RoundRect,0.250000X-0.312500X-0.625000X0.312500X-0.625000X0.312500X0.625000X-0.312500X0.625000X0*%
%TD*%
%TA.AperFunction,SMDPad,CuDef*%
%ADD24RoundRect,0.249750X0.305250X1.250250X-0.305250X1.250250X-0.305250X-1.250250X0.305250X-1.250250X0*%
%TD*%
%TA.AperFunction,SMDPad,CuDef*%
%ADD25RoundRect,0.250000X-0.650000X0.412500X-0.650000X-0.412500X0.650000X-0.412500X0.650000X0.412500X0*%
%TD*%
%TA.AperFunction,ComponentPad*%
%ADD26R,1.000000X1.000000*%
%TD*%
%TA.AperFunction,ComponentPad*%
%ADD27O,1.000000X1.000000*%
%TD*%
%TA.AperFunction,ComponentPad*%
%ADD28C,1.676400*%
%TD*%
%TA.AperFunction,ViaPad*%
%ADD29C,0.800000*%
%TD*%
%TA.AperFunction,Conductor*%
%ADD30C,0.600000*%
%TD*%
%TA.AperFunction,Conductor*%
%ADD31C,1.500000*%
%TD*%
%TA.AperFunction,Conductor*%
%ADD32C,1.200000*%
%TD*%
%TA.AperFunction,Conductor*%
%ADD33C,2.000000*%
%TD*%
%TA.AperFunction,Conductor*%
%ADD34C,1.800000*%
%TD*%
%TA.AperFunction,Conductor*%
%ADD35C,0.400000*%
%TD*%
%TA.AperFunction,Conductor*%
%ADD36C,0.200000*%
%TD*%
%TA.AperFunction,Conductor*%
%ADD37C,0.350000*%
%TD*%
%TA.AperFunction,Conductor*%
%ADD38C,1.000000*%
%TD*%
%TA.AperFunction,Conductor*%
%ADD39C,0.800000*%
%TD*%
%TA.AperFunction,Profile*%
%ADD40C,0.200000*%
%TD*%
%TA.AperFunction,Profile*%
%ADD41C,0.100000*%
%TD*%
G04 APERTURE END LIST*
D10*
D11*
X17700220Y-16600720D02*
X28500220Y-16600720D01*
X28500220Y-19800720D01*
X17700220Y-19800720D01*
X17700220Y-16600720D01*
D10*
D11*
X1000000Y-1000000D02*
X28700220Y-1000000D01*
X28700220Y-20000720D01*
X1000000Y-20000720D01*
X1000000Y-1000000D01*
D10*
D11*
X1200000Y-1200000D02*
X28500220Y-1200000D01*
X28500220Y-19800720D01*
X1200000Y-19800720D01*
X1200000Y-1200000D01*
D10*
D11*
X6000000Y-1200000D02*
X6000000Y-1000000D01*
D10*
D11*
X11000000Y-1200000D02*
X11000000Y-1000000D01*
D10*
D11*
X16000000Y-1200000D02*
X16000000Y-1000000D01*
D10*
D11*
X21000000Y-1200000D02*
X21000000Y-1000000D01*
D10*
D11*
X26000000Y-1200000D02*
X26000000Y-1000000D01*
D10*
D11*
X3599048Y-1160140D02*
X3524762Y-1160140D01*
X3561905Y-1160140D02*
X3561905Y-1030140D01*
X3561905Y-1030140D02*
X3549524Y-1048712D01*
X3549524Y-1048712D02*
X3537143Y-1061093D01*
X3537143Y-1061093D02*
X3524762Y-1067283D01*
D10*
D11*
X8524762Y-1042521D02*
X8530952Y-1036331D01*
X8530952Y-1036331D02*
X8543333Y-1030140D01*
X8543333Y-1030140D02*
X8574286Y-1030140D01*
X8574286Y-1030140D02*
X8586667Y-1036331D01*
X8586667Y-1036331D02*
X8592857Y-1042521D01*
X8592857Y-1042521D02*
X8599048Y-1054902D01*
X8599048Y-1054902D02*
X8599048Y-1067283D01*
X8599048Y-1067283D02*
X8592857Y-1085855D01*
X8592857Y-1085855D02*
X8518571Y-1160140D01*
X8518571Y-1160140D02*
X8599048Y-1160140D01*
D10*
D11*
X13518571Y-1030140D02*
X13599048Y-1030140D01*
X13599048Y-1030140D02*
X13555714Y-1079664D01*
X13555714Y-1079664D02*
X13574286Y-1079664D01*
X13574286Y-1079664D02*
X13586667Y-1085855D01*
X13586667Y-1085855D02*
X13592857Y-1092045D01*
X13592857Y-1092045D02*
X13599048Y-1104426D01*
X13599048Y-1104426D02*
X13599048Y-1135379D01*
X13599048Y-1135379D02*
X13592857Y-1147760D01*
X13592857Y-1147760D02*
X13586667Y-1153950D01*
X13586667Y-1153950D02*
X13574286Y-1160140D01*
X13574286Y-1160140D02*
X13537143Y-1160140D01*
X13537143Y-1160140D02*
X13524762Y-1153950D01*
X13524762Y-1153950D02*
X13518571Y-1147760D01*
D10*
D11*
X18586667Y-1073474D02*
X18586667Y-1160140D01*
X18555714Y-1023950D02*
X18524762Y-1116807D01*
X18524762Y-1116807D02*
X18605238Y-1116807D01*
D10*
D11*
X23592857Y-1030140D02*
X23530952Y-1030140D01*
X23530952Y-1030140D02*
X23524762Y-1092045D01*
X23524762Y-1092045D02*
X23530952Y-1085855D01*
X23530952Y-1085855D02*
X23543333Y-1079664D01*
X23543333Y-1079664D02*
X23574286Y-1079664D01*
X23574286Y-1079664D02*
X23586667Y-1085855D01*
X23586667Y-1085855D02*
X23592857Y-1092045D01*
X23592857Y-1092045D02*
X23599048Y-1104426D01*
X23599048Y-1104426D02*
X23599048Y-1135379D01*
X23599048Y-1135379D02*
X23592857Y-1147760D01*
X23592857Y-1147760D02*
X23586667Y-1153950D01*
X23586667Y-1153950D02*
X23574286Y-1160140D01*
X23574286Y-1160140D02*
X23543333Y-1160140D01*
X23543333Y-1160140D02*
X23530952Y-1153950D01*
X23530952Y-1153950D02*
X23524762Y-1147760D01*
D10*
D11*
X28586667Y-1030140D02*
X28561905Y-1030140D01*
X28561905Y-1030140D02*
X28549524Y-1036331D01*
X28549524Y-1036331D02*
X28543333Y-1042521D01*
X28543333Y-1042521D02*
X28530952Y-1061093D01*
X28530952Y-1061093D02*
X28524762Y-1085855D01*
X28524762Y-1085855D02*
X28524762Y-1135379D01*
X28524762Y-1135379D02*
X28530952Y-1147760D01*
X28530952Y-1147760D02*
X28537143Y-1153950D01*
X28537143Y-1153950D02*
X28549524Y-1160140D01*
X28549524Y-1160140D02*
X28574286Y-1160140D01*
X28574286Y-1160140D02*
X28586667Y-1153950D01*
X28586667Y-1153950D02*
X28592857Y-1147760D01*
X28592857Y-1147760D02*
X28599048Y-1135379D01*
X28599048Y-1135379D02*
X28599048Y-1104426D01*
X28599048Y-1104426D02*
X28592857Y-1092045D01*
X28592857Y-1092045D02*
X28586667Y-1085855D01*
X28586667Y-1085855D02*
X28574286Y-1079664D01*
X28574286Y-1079664D02*
X28549524Y-1079664D01*
X28549524Y-1079664D02*
X28537143Y-1085855D01*
X28537143Y-1085855D02*
X28530952Y-1092045D01*
X28530952Y-1092045D02*
X28524762Y-1104426D01*
D10*
D11*
X6000000Y-19800720D02*
X6000000Y-20000720D01*
D10*
D11*
X11000000Y-19800720D02*
X11000000Y-20000720D01*
D10*
D11*
X16000000Y-19800720D02*
X16000000Y-20000720D01*
D10*
D11*
X21000000Y-19800720D02*
X21000000Y-20000720D01*
D10*
D11*
X26000000Y-19800720D02*
X26000000Y-20000720D01*
D10*
D11*
X3599048Y-19960860D02*
X3524762Y-19960860D01*
X3561905Y-19960860D02*
X3561905Y-19830860D01*
X3561905Y-19830860D02*
X3549524Y-19849432D01*
X3549524Y-19849432D02*
X3537143Y-19861813D01*
X3537143Y-19861813D02*
X3524762Y-19868003D01*
D10*
D11*
X8524762Y-19843241D02*
X8530952Y-19837051D01*
X8530952Y-19837051D02*
X8543333Y-19830860D01*
X8543333Y-19830860D02*
X8574286Y-19830860D01*
X8574286Y-19830860D02*
X8586667Y-19837051D01*
X8586667Y-19837051D02*
X8592857Y-19843241D01*
X8592857Y-19843241D02*
X8599048Y-19855622D01*
X8599048Y-19855622D02*
X8599048Y-19868003D01*
X8599048Y-19868003D02*
X8592857Y-19886575D01*
X8592857Y-19886575D02*
X8518571Y-19960860D01*
X8518571Y-19960860D02*
X8599048Y-19960860D01*
D10*
D11*
X13518571Y-19830860D02*
X13599048Y-19830860D01*
X13599048Y-19830860D02*
X13555714Y-19880384D01*
X13555714Y-19880384D02*
X13574286Y-19880384D01*
X13574286Y-19880384D02*
X13586667Y-19886575D01*
X13586667Y-19886575D02*
X13592857Y-19892765D01*
X13592857Y-19892765D02*
X13599048Y-19905146D01*
X13599048Y-19905146D02*
X13599048Y-19936099D01*
X13599048Y-19936099D02*
X13592857Y-19948480D01*
X13592857Y-19948480D02*
X13586667Y-19954670D01*
X13586667Y-19954670D02*
X13574286Y-19960860D01*
X13574286Y-19960860D02*
X13537143Y-19960860D01*
X13537143Y-19960860D02*
X13524762Y-19954670D01*
X13524762Y-19954670D02*
X13518571Y-19948480D01*
D10*
D11*
X18586667Y-19874194D02*
X18586667Y-19960860D01*
X18555714Y-19824670D02*
X18524762Y-19917527D01*
X18524762Y-19917527D02*
X18605238Y-19917527D01*
D10*
D11*
X23592857Y-19830860D02*
X23530952Y-19830860D01*
X23530952Y-19830860D02*
X23524762Y-19892765D01*
X23524762Y-19892765D02*
X23530952Y-19886575D01*
X23530952Y-19886575D02*
X23543333Y-19880384D01*
X23543333Y-19880384D02*
X23574286Y-19880384D01*
X23574286Y-19880384D02*
X23586667Y-19886575D01*
X23586667Y-19886575D02*
X23592857Y-19892765D01*
X23592857Y-19892765D02*
X23599048Y-19905146D01*
X23599048Y-19905146D02*
X23599048Y-19936099D01*
X23599048Y-19936099D02*
X23592857Y-19948480D01*
X23592857Y-19948480D02*
X23586667Y-19954670D01*
X23586667Y-19954670D02*
X23574286Y-19960860D01*
X23574286Y-19960860D02*
X23543333Y-19960860D01*
X23543333Y-19960860D02*
X23530952Y-19954670D01*
X23530952Y-19954670D02*
X23524762Y-19948480D01*
D10*
D11*
X28586667Y-19830860D02*
X28561905Y-19830860D01*
X28561905Y-19830860D02*
X28549524Y-19837051D01*
X28549524Y-19837051D02*
X28543333Y-19843241D01*
X28543333Y-19843241D02*
X28530952Y-19861813D01*
X28530952Y-19861813D02*
X28524762Y-19886575D01*
X28524762Y-19886575D02*
X28524762Y-19936099D01*
X28524762Y-19936099D02*
X28530952Y-19948480D01*
X28530952Y-19948480D02*
X28537143Y-19954670D01*
X28537143Y-19954670D02*
X28549524Y-19960860D01*
X28549524Y-19960860D02*
X28574286Y-19960860D01*
X28574286Y-19960860D02*
X28586667Y-19954670D01*
X28586667Y-19954670D02*
X28592857Y-19948480D01*
X28592857Y-19948480D02*
X28599048Y-19936099D01*
X28599048Y-19936099D02*
X28599048Y-19905146D01*
X28599048Y-19905146D02*
X28592857Y-19892765D01*
X28592857Y-19892765D02*
X28586667Y-19886575D01*
X28586667Y-19886575D02*
X28574286Y-19880384D01*
X28574286Y-19880384D02*
X28549524Y-19880384D01*
X28549524Y-19880384D02*
X28537143Y-19886575D01*
X28537143Y-19886575D02*
X28530952Y-19892765D01*
X28530952Y-19892765D02*
X28524762Y-19905146D01*
D10*
D11*
X1000000Y-6000000D02*
X1200000Y-6000000D01*
D10*
D11*
X1000000Y-11000000D02*
X1200000Y-11000000D01*
D10*
D11*
X1000000Y-16000000D02*
X1200000Y-16000000D01*
D10*
D11*
X1069048Y-3522998D02*
X1130952Y-3522998D01*
X1056667Y-3560140D02*
X1100000Y-3430140D01*
X1100000Y-3430140D02*
X1143333Y-3560140D01*
D10*
D11*
X1109286Y-8492045D02*
X1127857Y-8498236D01*
X1127857Y-8498236D02*
X1134048Y-8504426D01*
X1134048Y-8504426D02*
X1140238Y-8516807D01*
X1140238Y-8516807D02*
X1140238Y-8535379D01*
X1140238Y-8535379D02*
X1134048Y-8547760D01*
X1134048Y-8547760D02*
X1127857Y-8553950D01*
X1127857Y-8553950D02*
X1115476Y-8560140D01*
X1115476Y-8560140D02*
X1065952Y-8560140D01*
X1065952Y-8560140D02*
X1065952Y-8430140D01*
X1065952Y-8430140D02*
X1109286Y-8430140D01*
X1109286Y-8430140D02*
X1121667Y-8436331D01*
X1121667Y-8436331D02*
X1127857Y-8442521D01*
X1127857Y-8442521D02*
X1134048Y-8454902D01*
X1134048Y-8454902D02*
X1134048Y-8467283D01*
X1134048Y-8467283D02*
X1127857Y-8479664D01*
X1127857Y-8479664D02*
X1121667Y-8485855D01*
X1121667Y-8485855D02*
X1109286Y-8492045D01*
X1109286Y-8492045D02*
X1065952Y-8492045D01*
D10*
D11*
X1140238Y-13547759D02*
X1134048Y-13553950D01*
X1134048Y-13553950D02*
X1115476Y-13560140D01*
X1115476Y-13560140D02*
X1103095Y-13560140D01*
X1103095Y-13560140D02*
X1084524Y-13553950D01*
X1084524Y-13553950D02*
X1072143Y-13541569D01*
X1072143Y-13541569D02*
X1065952Y-13529188D01*
X1065952Y-13529188D02*
X1059762Y-13504426D01*
X1059762Y-13504426D02*
X1059762Y-13485855D01*
X1059762Y-13485855D02*
X1065952Y-13461093D01*
X1065952Y-13461093D02*
X1072143Y-13448712D01*
X1072143Y-13448712D02*
X1084524Y-13436331D01*
X1084524Y-13436331D02*
X1103095Y-13430140D01*
X1103095Y-13430140D02*
X1115476Y-13430140D01*
X1115476Y-13430140D02*
X1134048Y-13436331D01*
X1134048Y-13436331D02*
X1140238Y-13442521D01*
D10*
D11*
X1065952Y-18560140D02*
X1065952Y-18430140D01*
X1065952Y-18430140D02*
X1096905Y-18430140D01*
X1096905Y-18430140D02*
X1115476Y-18436331D01*
X1115476Y-18436331D02*
X1127857Y-18448712D01*
X1127857Y-18448712D02*
X1134048Y-18461093D01*
X1134048Y-18461093D02*
X1140238Y-18485855D01*
X1140238Y-18485855D02*
X1140238Y-18504426D01*
X1140238Y-18504426D02*
X1134048Y-18529188D01*
X1134048Y-18529188D02*
X1127857Y-18541569D01*
X1127857Y-18541569D02*
X1115476Y-18553950D01*
X1115476Y-18553950D02*
X1096905Y-18560140D01*
X1096905Y-18560140D02*
X1065952Y-18560140D01*
D10*
D11*
X28700220Y-6000000D02*
X28500220Y-6000000D01*
D10*
D11*
X28700220Y-11000000D02*
X28500220Y-11000000D01*
D10*
D11*
X28700220Y-16000000D02*
X28500220Y-16000000D01*
D10*
D11*
X28569268Y-3522998D02*
X28631172Y-3522998D01*
X28556887Y-3560140D02*
X28600220Y-3430140D01*
X28600220Y-3430140D02*
X28643553Y-3560140D01*
D10*
D11*
X28609506Y-8492045D02*
X28628077Y-8498236D01*
X28628077Y-8498236D02*
X28634268Y-8504426D01*
X28634268Y-8504426D02*
X28640458Y-8516807D01*
X28640458Y-8516807D02*
X28640458Y-8535379D01*
X28640458Y-8535379D02*
X28634268Y-8547760D01*
X28634268Y-8547760D02*
X28628077Y-8553950D01*
X28628077Y-8553950D02*
X28615696Y-8560140D01*
X28615696Y-8560140D02*
X28566172Y-8560140D01*
X28566172Y-8560140D02*
X28566172Y-8430140D01*
X28566172Y-8430140D02*
X28609506Y-8430140D01*
X28609506Y-8430140D02*
X28621887Y-8436331D01*
X28621887Y-8436331D02*
X28628077Y-8442521D01*
X28628077Y-8442521D02*
X28634268Y-8454902D01*
X28634268Y-8454902D02*
X28634268Y-8467283D01*
X28634268Y-8467283D02*
X28628077Y-8479664D01*
X28628077Y-8479664D02*
X28621887Y-8485855D01*
X28621887Y-8485855D02*
X28609506Y-8492045D01*
X28609506Y-8492045D02*
X28566172Y-8492045D01*
D10*
D11*
X28640458Y-13547759D02*
X28634268Y-13553950D01*
X28634268Y-13553950D02*
X28615696Y-13560140D01*
X28615696Y-13560140D02*
X28603315Y-13560140D01*
X28603315Y-13560140D02*
X28584744Y-13553950D01*
X28584744Y-13553950D02*
X28572363Y-13541569D01*
X28572363Y-13541569D02*
X28566172Y-13529188D01*
X28566172Y-13529188D02*
X28559982Y-13504426D01*
X28559982Y-13504426D02*
X28559982Y-13485855D01*
X28559982Y-13485855D02*
X28566172Y-13461093D01*
X28566172Y-13461093D02*
X28572363Y-13448712D01*
X28572363Y-13448712D02*
X28584744Y-13436331D01*
X28584744Y-13436331D02*
X28603315Y-13430140D01*
X28603315Y-13430140D02*
X28615696Y-13430140D01*
X28615696Y-13430140D02*
X28634268Y-13436331D01*
X28634268Y-13436331D02*
X28640458Y-13442521D01*
D10*
D11*
X28566172Y-18560140D02*
X28566172Y-18430140D01*
X28566172Y-18430140D02*
X28597125Y-18430140D01*
X28597125Y-18430140D02*
X28615696Y-18436331D01*
X28615696Y-18436331D02*
X28628077Y-18448712D01*
X28628077Y-18448712D02*
X28634268Y-18461093D01*
X28634268Y-18461093D02*
X28640458Y-18485855D01*
X28640458Y-18485855D02*
X28640458Y-18504426D01*
X28640458Y-18504426D02*
X28634268Y-18529188D01*
X28634268Y-18529188D02*
X28628077Y-18541569D01*
X28628077Y-18541569D02*
X28615696Y-18553950D01*
X28615696Y-18553950D02*
X28597125Y-18560140D01*
X28597125Y-18560140D02*
X28566172Y-18560140D01*
D10*
D11*
X20035934Y-19380113D02*
X20035934Y-19230113D01*
X20035934Y-19230113D02*
X20071649Y-19230113D01*
X20071649Y-19230113D02*
X20093077Y-19237256D01*
X20093077Y-19237256D02*
X20107363Y-19251541D01*
X20107363Y-19251541D02*
X20114506Y-19265827D01*
X20114506Y-19265827D02*
X20121649Y-19294399D01*
X20121649Y-19294399D02*
X20121649Y-19315827D01*
X20121649Y-19315827D02*
X20114506Y-19344399D01*
X20114506Y-19344399D02*
X20107363Y-19358684D01*
X20107363Y-19358684D02*
X20093077Y-19372970D01*
X20093077Y-19372970D02*
X20071649Y-19380113D01*
X20071649Y-19380113D02*
X20035934Y-19380113D01*
X20250220Y-19380113D02*
X20250220Y-19301541D01*
X20250220Y-19301541D02*
X20243077Y-19287256D01*
X20243077Y-19287256D02*
X20228791Y-19280113D01*
X20228791Y-19280113D02*
X20200220Y-19280113D01*
X20200220Y-19280113D02*
X20185934Y-19287256D01*
X20250220Y-19372970D02*
X20235934Y-19380113D01*
X20235934Y-19380113D02*
X20200220Y-19380113D01*
X20200220Y-19380113D02*
X20185934Y-19372970D01*
X20185934Y-19372970D02*
X20178791Y-19358684D01*
X20178791Y-19358684D02*
X20178791Y-19344399D01*
X20178791Y-19344399D02*
X20185934Y-19330113D01*
X20185934Y-19330113D02*
X20200220Y-19322970D01*
X20200220Y-19322970D02*
X20235934Y-19322970D01*
X20235934Y-19322970D02*
X20250220Y-19315827D01*
X20300220Y-19280113D02*
X20357363Y-19280113D01*
X20321649Y-19230113D02*
X20321649Y-19358684D01*
X20321649Y-19358684D02*
X20328791Y-19372970D01*
X20328791Y-19372970D02*
X20343077Y-19380113D01*
X20343077Y-19380113D02*
X20357363Y-19380113D01*
X20464506Y-19372970D02*
X20450220Y-19380113D01*
X20450220Y-19380113D02*
X20421649Y-19380113D01*
X20421649Y-19380113D02*
X20407363Y-19372970D01*
X20407363Y-19372970D02*
X20400220Y-19358684D01*
X20400220Y-19358684D02*
X20400220Y-19301541D01*
X20400220Y-19301541D02*
X20407363Y-19287256D01*
X20407363Y-19287256D02*
X20421649Y-19280113D01*
X20421649Y-19280113D02*
X20450220Y-19280113D01*
X20450220Y-19280113D02*
X20464506Y-19287256D01*
X20464506Y-19287256D02*
X20471649Y-19301541D01*
X20471649Y-19301541D02*
X20471649Y-19315827D01*
X20471649Y-19315827D02*
X20400220Y-19330113D01*
X20535934Y-19365827D02*
X20543077Y-19372970D01*
X20543077Y-19372970D02*
X20535934Y-19380113D01*
X20535934Y-19380113D02*
X20528791Y-19372970D01*
X20528791Y-19372970D02*
X20535934Y-19365827D01*
X20535934Y-19365827D02*
X20535934Y-19380113D01*
X20535934Y-19287256D02*
X20543077Y-19294399D01*
X20543077Y-19294399D02*
X20535934Y-19301541D01*
X20535934Y-19301541D02*
X20528791Y-19294399D01*
X20528791Y-19294399D02*
X20535934Y-19287256D01*
X20535934Y-19287256D02*
X20535934Y-19301541D01*
D10*
D11*
X17700220Y-19450720D02*
X28500220Y-19450720D01*
D10*
D11*
X17835934Y-19660113D02*
X17835934Y-19510113D01*
X17921649Y-19660113D02*
X17857363Y-19574399D01*
X17921649Y-19510113D02*
X17835934Y-19595827D01*
X17985934Y-19660113D02*
X17985934Y-19560113D01*
X17985934Y-19510113D02*
X17978791Y-19517256D01*
X17978791Y-19517256D02*
X17985934Y-19524399D01*
X17985934Y-19524399D02*
X17993077Y-19517256D01*
X17993077Y-19517256D02*
X17985934Y-19510113D01*
X17985934Y-19510113D02*
X17985934Y-19524399D01*
X18143077Y-19645827D02*
X18135934Y-19652970D01*
X18135934Y-19652970D02*
X18114506Y-19660113D01*
X18114506Y-19660113D02*
X18100220Y-19660113D01*
X18100220Y-19660113D02*
X18078791Y-19652970D01*
X18078791Y-19652970D02*
X18064506Y-19638684D01*
X18064506Y-19638684D02*
X18057363Y-19624399D01*
X18057363Y-19624399D02*
X18050220Y-19595827D01*
X18050220Y-19595827D02*
X18050220Y-19574399D01*
X18050220Y-19574399D02*
X18057363Y-19545827D01*
X18057363Y-19545827D02*
X18064506Y-19531541D01*
X18064506Y-19531541D02*
X18078791Y-19517256D01*
X18078791Y-19517256D02*
X18100220Y-19510113D01*
X18100220Y-19510113D02*
X18114506Y-19510113D01*
X18114506Y-19510113D02*
X18135934Y-19517256D01*
X18135934Y-19517256D02*
X18143077Y-19524399D01*
X18271649Y-19660113D02*
X18271649Y-19581541D01*
X18271649Y-19581541D02*
X18264506Y-19567256D01*
X18264506Y-19567256D02*
X18250220Y-19560113D01*
X18250220Y-19560113D02*
X18221649Y-19560113D01*
X18221649Y-19560113D02*
X18207363Y-19567256D01*
X18271649Y-19652970D02*
X18257363Y-19660113D01*
X18257363Y-19660113D02*
X18221649Y-19660113D01*
X18221649Y-19660113D02*
X18207363Y-19652970D01*
X18207363Y-19652970D02*
X18200220Y-19638684D01*
X18200220Y-19638684D02*
X18200220Y-19624399D01*
X18200220Y-19624399D02*
X18207363Y-19610113D01*
X18207363Y-19610113D02*
X18221649Y-19602970D01*
X18221649Y-19602970D02*
X18257363Y-19602970D01*
X18257363Y-19602970D02*
X18271649Y-19595827D01*
X18407363Y-19660113D02*
X18407363Y-19510113D01*
X18407363Y-19652970D02*
X18393077Y-19660113D01*
X18393077Y-19660113D02*
X18364506Y-19660113D01*
X18364506Y-19660113D02*
X18350220Y-19652970D01*
X18350220Y-19652970D02*
X18343077Y-19645827D01*
X18343077Y-19645827D02*
X18335934Y-19631541D01*
X18335934Y-19631541D02*
X18335934Y-19588684D01*
X18335934Y-19588684D02*
X18343077Y-19574399D01*
X18343077Y-19574399D02*
X18350220Y-19567256D01*
X18350220Y-19567256D02*
X18364506Y-19560113D01*
X18364506Y-19560113D02*
X18393077Y-19560113D01*
X18393077Y-19560113D02*
X18407363Y-19567256D01*
X18593077Y-19581541D02*
X18643077Y-19581541D01*
X18664506Y-19660113D02*
X18593077Y-19660113D01*
X18593077Y-19660113D02*
X18593077Y-19510113D01*
X18593077Y-19510113D02*
X18664506Y-19510113D01*
X18728791Y-19645827D02*
X18735934Y-19652970D01*
X18735934Y-19652970D02*
X18728791Y-19660113D01*
X18728791Y-19660113D02*
X18721649Y-19652970D01*
X18721649Y-19652970D02*
X18728791Y-19645827D01*
X18728791Y-19645827D02*
X18728791Y-19660113D01*
X18800220Y-19660113D02*
X18800220Y-19510113D01*
X18800220Y-19510113D02*
X18835934Y-19510113D01*
X18835934Y-19510113D02*
X18857363Y-19517256D01*
X18857363Y-19517256D02*
X18871649Y-19531541D01*
X18871649Y-19531541D02*
X18878792Y-19545827D01*
X18878792Y-19545827D02*
X18885934Y-19574399D01*
X18885934Y-19574399D02*
X18885934Y-19595827D01*
X18885934Y-19595827D02*
X18878792Y-19624399D01*
X18878792Y-19624399D02*
X18871649Y-19638684D01*
X18871649Y-19638684D02*
X18857363Y-19652970D01*
X18857363Y-19652970D02*
X18835934Y-19660113D01*
X18835934Y-19660113D02*
X18800220Y-19660113D01*
X18950220Y-19645827D02*
X18957363Y-19652970D01*
X18957363Y-19652970D02*
X18950220Y-19660113D01*
X18950220Y-19660113D02*
X18943077Y-19652970D01*
X18943077Y-19652970D02*
X18950220Y-19645827D01*
X18950220Y-19645827D02*
X18950220Y-19660113D01*
X19014506Y-19617256D02*
X19085934Y-19617256D01*
X19000220Y-19660113D02*
X19050220Y-19510113D01*
X19050220Y-19510113D02*
X19100220Y-19660113D01*
X19150220Y-19645827D02*
X19157363Y-19652970D01*
X19157363Y-19652970D02*
X19150220Y-19660113D01*
X19150220Y-19660113D02*
X19143077Y-19652970D01*
X19143077Y-19652970D02*
X19150220Y-19645827D01*
X19150220Y-19645827D02*
X19150220Y-19660113D01*
X19450220Y-19660113D02*
X19450220Y-19510113D01*
X19464506Y-19602970D02*
X19507363Y-19660113D01*
X19507363Y-19560113D02*
X19450220Y-19617256D01*
X19571649Y-19660113D02*
X19571649Y-19560113D01*
X19571649Y-19510113D02*
X19564506Y-19517256D01*
X19564506Y-19517256D02*
X19571649Y-19524399D01*
X19571649Y-19524399D02*
X19578792Y-19517256D01*
X19578792Y-19517256D02*
X19571649Y-19510113D01*
X19571649Y-19510113D02*
X19571649Y-19524399D01*
X19707363Y-19652970D02*
X19693077Y-19660113D01*
X19693077Y-19660113D02*
X19664506Y-19660113D01*
X19664506Y-19660113D02*
X19650220Y-19652970D01*
X19650220Y-19652970D02*
X19643077Y-19645827D01*
X19643077Y-19645827D02*
X19635934Y-19631541D01*
X19635934Y-19631541D02*
X19635934Y-19588684D01*
X19635934Y-19588684D02*
X19643077Y-19574399D01*
X19643077Y-19574399D02*
X19650220Y-19567256D01*
X19650220Y-19567256D02*
X19664506Y-19560113D01*
X19664506Y-19560113D02*
X19693077Y-19560113D01*
X19693077Y-19560113D02*
X19707363Y-19567256D01*
X19835934Y-19660113D02*
X19835934Y-19581541D01*
X19835934Y-19581541D02*
X19828792Y-19567256D01*
X19828792Y-19567256D02*
X19814506Y-19560113D01*
X19814506Y-19560113D02*
X19785934Y-19560113D01*
X19785934Y-19560113D02*
X19771649Y-19567256D01*
X19835934Y-19652970D02*
X19821649Y-19660113D01*
X19821649Y-19660113D02*
X19785934Y-19660113D01*
X19785934Y-19660113D02*
X19771649Y-19652970D01*
X19771649Y-19652970D02*
X19764506Y-19638684D01*
X19764506Y-19638684D02*
X19764506Y-19624399D01*
X19764506Y-19624399D02*
X19771649Y-19610113D01*
X19771649Y-19610113D02*
X19785934Y-19602970D01*
X19785934Y-19602970D02*
X19821649Y-19602970D01*
X19821649Y-19602970D02*
X19835934Y-19595827D01*
X19971649Y-19660113D02*
X19971649Y-19510113D01*
X19971649Y-19652970D02*
X19957363Y-19660113D01*
X19957363Y-19660113D02*
X19928792Y-19660113D01*
X19928792Y-19660113D02*
X19914506Y-19652970D01*
X19914506Y-19652970D02*
X19907363Y-19645827D01*
X19907363Y-19645827D02*
X19900220Y-19631541D01*
X19900220Y-19631541D02*
X19900220Y-19588684D01*
X19900220Y-19588684D02*
X19907363Y-19574399D01*
X19907363Y-19574399D02*
X19914506Y-19567256D01*
X19914506Y-19567256D02*
X19928792Y-19560113D01*
X19928792Y-19560113D02*
X19957363Y-19560113D01*
X19957363Y-19560113D02*
X19971649Y-19567256D01*
X20143077Y-19510113D02*
X20243077Y-19510113D01*
X20243077Y-19510113D02*
X20178792Y-19660113D01*
X20300220Y-19645827D02*
X20307363Y-19652970D01*
X20307363Y-19652970D02*
X20300220Y-19660113D01*
X20300220Y-19660113D02*
X20293077Y-19652970D01*
X20293077Y-19652970D02*
X20300220Y-19645827D01*
X20300220Y-19645827D02*
X20300220Y-19660113D01*
X20400220Y-19510113D02*
X20414506Y-19510113D01*
X20414506Y-19510113D02*
X20428792Y-19517256D01*
X20428792Y-19517256D02*
X20435934Y-19524399D01*
X20435934Y-19524399D02*
X20443077Y-19538684D01*
X20443077Y-19538684D02*
X20450220Y-19567256D01*
X20450220Y-19567256D02*
X20450220Y-19602970D01*
X20450220Y-19602970D02*
X20443077Y-19631541D01*
X20443077Y-19631541D02*
X20435934Y-19645827D01*
X20435934Y-19645827D02*
X20428792Y-19652970D01*
X20428792Y-19652970D02*
X20414506Y-19660113D01*
X20414506Y-19660113D02*
X20400220Y-19660113D01*
X20400220Y-19660113D02*
X20385934Y-19652970D01*
X20385934Y-19652970D02*
X20378792Y-19645827D01*
X20378792Y-19645827D02*
X20371649Y-19631541D01*
X20371649Y-19631541D02*
X20364506Y-19602970D01*
X20364506Y-19602970D02*
X20364506Y-19567256D01*
X20364506Y-19567256D02*
X20371649Y-19538684D01*
X20371649Y-19538684D02*
X20378792Y-19524399D01*
X20378792Y-19524399D02*
X20385934Y-19517256D01*
X20385934Y-19517256D02*
X20400220Y-19510113D01*
X20514506Y-19645827D02*
X20521649Y-19652970D01*
X20521649Y-19652970D02*
X20514506Y-19660113D01*
X20514506Y-19660113D02*
X20507363Y-19652970D01*
X20507363Y-19652970D02*
X20514506Y-19645827D01*
X20514506Y-19645827D02*
X20514506Y-19660113D01*
X20664506Y-19660113D02*
X20578792Y-19660113D01*
X20621649Y-19660113D02*
X20621649Y-19510113D01*
X20621649Y-19510113D02*
X20607363Y-19531541D01*
X20607363Y-19531541D02*
X20593077Y-19545827D01*
X20593077Y-19545827D02*
X20578792Y-19552970D01*
D10*
D11*
X17700220Y-19150720D02*
X28500220Y-19150720D01*
D10*
D12*
X26421648Y-19380113D02*
X26371648Y-19308684D01*
X26335934Y-19380113D02*
X26335934Y-19230113D01*
X26335934Y-19230113D02*
X26393077Y-19230113D01*
X26393077Y-19230113D02*
X26407363Y-19237256D01*
X26407363Y-19237256D02*
X26414506Y-19244399D01*
X26414506Y-19244399D02*
X26421648Y-19258684D01*
X26421648Y-19258684D02*
X26421648Y-19280113D01*
X26421648Y-19280113D02*
X26414506Y-19294399D01*
X26414506Y-19294399D02*
X26407363Y-19301541D01*
X26407363Y-19301541D02*
X26393077Y-19308684D01*
X26393077Y-19308684D02*
X26335934Y-19308684D01*
X26543077Y-19372970D02*
X26528791Y-19380113D01*
X26528791Y-19380113D02*
X26500220Y-19380113D01*
X26500220Y-19380113D02*
X26485934Y-19372970D01*
X26485934Y-19372970D02*
X26478791Y-19358684D01*
X26478791Y-19358684D02*
X26478791Y-19301541D01*
X26478791Y-19301541D02*
X26485934Y-19287256D01*
X26485934Y-19287256D02*
X26500220Y-19280113D01*
X26500220Y-19280113D02*
X26528791Y-19280113D01*
X26528791Y-19280113D02*
X26543077Y-19287256D01*
X26543077Y-19287256D02*
X26550220Y-19301541D01*
X26550220Y-19301541D02*
X26550220Y-19315827D01*
X26550220Y-19315827D02*
X26478791Y-19330113D01*
X26600220Y-19280113D02*
X26635934Y-19380113D01*
X26635934Y-19380113D02*
X26671648Y-19280113D01*
X26728791Y-19365827D02*
X26735934Y-19372970D01*
X26735934Y-19372970D02*
X26728791Y-19380113D01*
X26728791Y-19380113D02*
X26721648Y-19372970D01*
X26721648Y-19372970D02*
X26728791Y-19365827D01*
X26728791Y-19365827D02*
X26728791Y-19380113D01*
X26728791Y-19287256D02*
X26735934Y-19294399D01*
X26735934Y-19294399D02*
X26728791Y-19301541D01*
X26728791Y-19301541D02*
X26721648Y-19294399D01*
X26721648Y-19294399D02*
X26728791Y-19287256D01*
X26728791Y-19287256D02*
X26728791Y-19301541D01*
D10*
D11*
X17828791Y-19372970D02*
X17850220Y-19380113D01*
X17850220Y-19380113D02*
X17885934Y-19380113D01*
X17885934Y-19380113D02*
X17900220Y-19372970D01*
X17900220Y-19372970D02*
X17907363Y-19365827D01*
X17907363Y-19365827D02*
X17914506Y-19351541D01*
X17914506Y-19351541D02*
X17914506Y-19337256D01*
X17914506Y-19337256D02*
X17907363Y-19322970D01*
X17907363Y-19322970D02*
X17900220Y-19315827D01*
X17900220Y-19315827D02*
X17885934Y-19308684D01*
X17885934Y-19308684D02*
X17857363Y-19301541D01*
X17857363Y-19301541D02*
X17843077Y-19294399D01*
X17843077Y-19294399D02*
X17835934Y-19287256D01*
X17835934Y-19287256D02*
X17828791Y-19272970D01*
X17828791Y-19272970D02*
X17828791Y-19258684D01*
X17828791Y-19258684D02*
X17835934Y-19244399D01*
X17835934Y-19244399D02*
X17843077Y-19237256D01*
X17843077Y-19237256D02*
X17857363Y-19230113D01*
X17857363Y-19230113D02*
X17893077Y-19230113D01*
X17893077Y-19230113D02*
X17914506Y-19237256D01*
X17978791Y-19380113D02*
X17978791Y-19280113D01*
X17978791Y-19230113D02*
X17971649Y-19237256D01*
X17971649Y-19237256D02*
X17978791Y-19244399D01*
X17978791Y-19244399D02*
X17985934Y-19237256D01*
X17985934Y-19237256D02*
X17978791Y-19230113D01*
X17978791Y-19230113D02*
X17978791Y-19244399D01*
X18035934Y-19280113D02*
X18114506Y-19280113D01*
X18114506Y-19280113D02*
X18035934Y-19380113D01*
X18035934Y-19380113D02*
X18114506Y-19380113D01*
X18228791Y-19372970D02*
X18214506Y-19380113D01*
X18214506Y-19380113D02*
X18185934Y-19380113D01*
X18185934Y-19380113D02*
X18171649Y-19372970D01*
X18171649Y-19372970D02*
X18164506Y-19358684D01*
X18164506Y-19358684D02*
X18164506Y-19301541D01*
X18164506Y-19301541D02*
X18171649Y-19287256D01*
X18171649Y-19287256D02*
X18185934Y-19280113D01*
X18185934Y-19280113D02*
X18214506Y-19280113D01*
X18214506Y-19280113D02*
X18228791Y-19287256D01*
X18228791Y-19287256D02*
X18235934Y-19301541D01*
X18235934Y-19301541D02*
X18235934Y-19315827D01*
X18235934Y-19315827D02*
X18164506Y-19330113D01*
X18300220Y-19365827D02*
X18307363Y-19372970D01*
X18307363Y-19372970D02*
X18300220Y-19380113D01*
X18300220Y-19380113D02*
X18293077Y-19372970D01*
X18293077Y-19372970D02*
X18300220Y-19365827D01*
X18300220Y-19365827D02*
X18300220Y-19380113D01*
X18300220Y-19287256D02*
X18307363Y-19294399D01*
X18307363Y-19294399D02*
X18300220Y-19301541D01*
X18300220Y-19301541D02*
X18293077Y-19294399D01*
X18293077Y-19294399D02*
X18300220Y-19287256D01*
X18300220Y-19287256D02*
X18300220Y-19301541D01*
X18478791Y-19337256D02*
X18550220Y-19337256D01*
X18464506Y-19380113D02*
X18514506Y-19230113D01*
X18514506Y-19230113D02*
X18564506Y-19380113D01*
X18678791Y-19280113D02*
X18678791Y-19380113D01*
X18643077Y-19222970D02*
X18607363Y-19330113D01*
X18607363Y-19330113D02*
X18700220Y-19330113D01*
D10*
D11*
X26335934Y-19660113D02*
X26335934Y-19510113D01*
X26471649Y-19660113D02*
X26471649Y-19510113D01*
X26471649Y-19652970D02*
X26457363Y-19660113D01*
X26457363Y-19660113D02*
X26428791Y-19660113D01*
X26428791Y-19660113D02*
X26414506Y-19652970D01*
X26414506Y-19652970D02*
X26407363Y-19645827D01*
X26407363Y-19645827D02*
X26400220Y-19631541D01*
X26400220Y-19631541D02*
X26400220Y-19588684D01*
X26400220Y-19588684D02*
X26407363Y-19574399D01*
X26407363Y-19574399D02*
X26414506Y-19567256D01*
X26414506Y-19567256D02*
X26428791Y-19560113D01*
X26428791Y-19560113D02*
X26457363Y-19560113D01*
X26457363Y-19560113D02*
X26471649Y-19567256D01*
X26543077Y-19645827D02*
X26550220Y-19652970D01*
X26550220Y-19652970D02*
X26543077Y-19660113D01*
X26543077Y-19660113D02*
X26535934Y-19652970D01*
X26535934Y-19652970D02*
X26543077Y-19645827D01*
X26543077Y-19645827D02*
X26543077Y-19660113D01*
X26543077Y-19567256D02*
X26550220Y-19574399D01*
X26550220Y-19574399D02*
X26543077Y-19581541D01*
X26543077Y-19581541D02*
X26535934Y-19574399D01*
X26535934Y-19574399D02*
X26543077Y-19567256D01*
X26543077Y-19567256D02*
X26543077Y-19581541D01*
X26807363Y-19660113D02*
X26721649Y-19660113D01*
X26764506Y-19660113D02*
X26764506Y-19510113D01*
X26764506Y-19510113D02*
X26750220Y-19531541D01*
X26750220Y-19531541D02*
X26735934Y-19545827D01*
X26735934Y-19545827D02*
X26721649Y-19552970D01*
X26978791Y-19502970D02*
X26850220Y-19695827D01*
X27107363Y-19660113D02*
X27021649Y-19660113D01*
X27064506Y-19660113D02*
X27064506Y-19510113D01*
X27064506Y-19510113D02*
X27050220Y-19531541D01*
X27050220Y-19531541D02*
X27035934Y-19545827D01*
X27035934Y-19545827D02*
X27021649Y-19552970D01*
D10*
D11*
X17700220Y-18750720D02*
X28500220Y-18750720D01*
D10*
D13*
X17843077Y-18823244D02*
X17957363Y-18823244D01*
X17875220Y-19023244D02*
X17900220Y-18823244D01*
X17997839Y-19023244D02*
X18014506Y-18889910D01*
X18022839Y-18823244D02*
X18012125Y-18832768D01*
X18012125Y-18832768D02*
X18020458Y-18842291D01*
X18020458Y-18842291D02*
X18031172Y-18832768D01*
X18031172Y-18832768D02*
X18022839Y-18823244D01*
X18022839Y-18823244D02*
X18020458Y-18842291D01*
X18079982Y-18889910D02*
X18156172Y-18889910D01*
X18116887Y-18823244D02*
X18095458Y-18994672D01*
X18095458Y-18994672D02*
X18102601Y-19013720D01*
X18102601Y-19013720D02*
X18120458Y-19023244D01*
X18120458Y-19023244D02*
X18139506Y-19023244D01*
X18233553Y-19023244D02*
X18215696Y-19013720D01*
X18215696Y-19013720D02*
X18208553Y-18994672D01*
X18208553Y-18994672D02*
X18229982Y-18823244D01*
X18385934Y-19013720D02*
X18365696Y-19023244D01*
X18365696Y-19023244D02*
X18327601Y-19023244D01*
X18327601Y-19023244D02*
X18309744Y-19013720D01*
X18309744Y-19013720D02*
X18302601Y-18994672D01*
X18302601Y-18994672D02*
X18312125Y-18918482D01*
X18312125Y-18918482D02*
X18324029Y-18899434D01*
X18324029Y-18899434D02*
X18344268Y-18889910D01*
X18344268Y-18889910D02*
X18382363Y-18889910D01*
X18382363Y-18889910D02*
X18400220Y-18899434D01*
X18400220Y-18899434D02*
X18407363Y-18918482D01*
X18407363Y-18918482D02*
X18404982Y-18937530D01*
X18404982Y-18937530D02*
X18307363Y-18956577D01*
X18481172Y-19004196D02*
X18489506Y-19013720D01*
X18489506Y-19013720D02*
X18478791Y-19023244D01*
X18478791Y-19023244D02*
X18470458Y-19013720D01*
X18470458Y-19013720D02*
X18481172Y-19004196D01*
X18481172Y-19004196D02*
X18478791Y-19023244D01*
X18494268Y-18899434D02*
X18502601Y-18908958D01*
X18502601Y-18908958D02*
X18491887Y-18918482D01*
X18491887Y-18918482D02*
X18483553Y-18908958D01*
X18483553Y-18908958D02*
X18494268Y-18899434D01*
X18494268Y-18899434D02*
X18491887Y-18918482D01*
D10*
D11*
X17885934Y-18561541D02*
X17835934Y-18561541D01*
X17835934Y-18640113D02*
X17835934Y-18490113D01*
X17835934Y-18490113D02*
X17907363Y-18490113D01*
X17964506Y-18640113D02*
X17964506Y-18540113D01*
X17964506Y-18490113D02*
X17957363Y-18497256D01*
X17957363Y-18497256D02*
X17964506Y-18504399D01*
X17964506Y-18504399D02*
X17971649Y-18497256D01*
X17971649Y-18497256D02*
X17964506Y-18490113D01*
X17964506Y-18490113D02*
X17964506Y-18504399D01*
X18057363Y-18640113D02*
X18043077Y-18632970D01*
X18043077Y-18632970D02*
X18035934Y-18618684D01*
X18035934Y-18618684D02*
X18035934Y-18490113D01*
X18171649Y-18632970D02*
X18157363Y-18640113D01*
X18157363Y-18640113D02*
X18128791Y-18640113D01*
X18128791Y-18640113D02*
X18114506Y-18632970D01*
X18114506Y-18632970D02*
X18107363Y-18618684D01*
X18107363Y-18618684D02*
X18107363Y-18561541D01*
X18107363Y-18561541D02*
X18114506Y-18547256D01*
X18114506Y-18547256D02*
X18128791Y-18540113D01*
X18128791Y-18540113D02*
X18157363Y-18540113D01*
X18157363Y-18540113D02*
X18171649Y-18547256D01*
X18171649Y-18547256D02*
X18178791Y-18561541D01*
X18178791Y-18561541D02*
X18178791Y-18575827D01*
X18178791Y-18575827D02*
X18107363Y-18590113D01*
X18243077Y-18625827D02*
X18250220Y-18632970D01*
X18250220Y-18632970D02*
X18243077Y-18640113D01*
X18243077Y-18640113D02*
X18235934Y-18632970D01*
X18235934Y-18632970D02*
X18243077Y-18625827D01*
X18243077Y-18625827D02*
X18243077Y-18640113D01*
X18243077Y-18547256D02*
X18250220Y-18554399D01*
X18250220Y-18554399D02*
X18243077Y-18561541D01*
X18243077Y-18561541D02*
X18235934Y-18554399D01*
X18235934Y-18554399D02*
X18243077Y-18547256D01*
X18243077Y-18547256D02*
X18243077Y-18561541D01*
X18514506Y-18625827D02*
X18507363Y-18632970D01*
X18507363Y-18632970D02*
X18485934Y-18640113D01*
X18485934Y-18640113D02*
X18471649Y-18640113D01*
X18471649Y-18640113D02*
X18450220Y-18632970D01*
X18450220Y-18632970D02*
X18435934Y-18618684D01*
X18435934Y-18618684D02*
X18428791Y-18604399D01*
X18428791Y-18604399D02*
X18421649Y-18575827D01*
X18421649Y-18575827D02*
X18421649Y-18554399D01*
X18421649Y-18554399D02*
X18428791Y-18525827D01*
X18428791Y-18525827D02*
X18435934Y-18511541D01*
X18435934Y-18511541D02*
X18450220Y-18497256D01*
X18450220Y-18497256D02*
X18471649Y-18490113D01*
X18471649Y-18490113D02*
X18485934Y-18490113D01*
X18485934Y-18490113D02*
X18507363Y-18497256D01*
X18507363Y-18497256D02*
X18514506Y-18504399D01*
X18600220Y-18640113D02*
X18585934Y-18632970D01*
X18585934Y-18632970D02*
X18578791Y-18625827D01*
X18578791Y-18625827D02*
X18571649Y-18611541D01*
X18571649Y-18611541D02*
X18571649Y-18568684D01*
X18571649Y-18568684D02*
X18578791Y-18554399D01*
X18578791Y-18554399D02*
X18585934Y-18547256D01*
X18585934Y-18547256D02*
X18600220Y-18540113D01*
X18600220Y-18540113D02*
X18621649Y-18540113D01*
X18621649Y-18540113D02*
X18635934Y-18547256D01*
X18635934Y-18547256D02*
X18643077Y-18554399D01*
X18643077Y-18554399D02*
X18650220Y-18568684D01*
X18650220Y-18568684D02*
X18650220Y-18611541D01*
X18650220Y-18611541D02*
X18643077Y-18625827D01*
X18643077Y-18625827D02*
X18635934Y-18632970D01*
X18635934Y-18632970D02*
X18621649Y-18640113D01*
X18621649Y-18640113D02*
X18600220Y-18640113D01*
X18714506Y-18540113D02*
X18714506Y-18640113D01*
X18714506Y-18554399D02*
X18721649Y-18547256D01*
X18721649Y-18547256D02*
X18735934Y-18540113D01*
X18735934Y-18540113D02*
X18757363Y-18540113D01*
X18757363Y-18540113D02*
X18771649Y-18547256D01*
X18771649Y-18547256D02*
X18778791Y-18561541D01*
X18778791Y-18561541D02*
X18778791Y-18640113D01*
X18828791Y-18540113D02*
X18885934Y-18540113D01*
X18850220Y-18490113D02*
X18850220Y-18618684D01*
X18850220Y-18618684D02*
X18857363Y-18632970D01*
X18857363Y-18632970D02*
X18871649Y-18640113D01*
X18871649Y-18640113D02*
X18885934Y-18640113D01*
X18935934Y-18640113D02*
X18935934Y-18540113D01*
X18935934Y-18568684D02*
X18943077Y-18554399D01*
X18943077Y-18554399D02*
X18950220Y-18547256D01*
X18950220Y-18547256D02*
X18964506Y-18540113D01*
X18964506Y-18540113D02*
X18978791Y-18540113D01*
X19050220Y-18640113D02*
X19035934Y-18632970D01*
X19035934Y-18632970D02*
X19028791Y-18625827D01*
X19028791Y-18625827D02*
X19021649Y-18611541D01*
X19021649Y-18611541D02*
X19021649Y-18568684D01*
X19021649Y-18568684D02*
X19028791Y-18554399D01*
X19028791Y-18554399D02*
X19035934Y-18547256D01*
X19035934Y-18547256D02*
X19050220Y-18540113D01*
X19050220Y-18540113D02*
X19071649Y-18540113D01*
X19071649Y-18540113D02*
X19085934Y-18547256D01*
X19085934Y-18547256D02*
X19093077Y-18554399D01*
X19093077Y-18554399D02*
X19100220Y-18568684D01*
X19100220Y-18568684D02*
X19100220Y-18611541D01*
X19100220Y-18611541D02*
X19093077Y-18625827D01*
X19093077Y-18625827D02*
X19085934Y-18632970D01*
X19085934Y-18632970D02*
X19071649Y-18640113D01*
X19071649Y-18640113D02*
X19050220Y-18640113D01*
X19185934Y-18640113D02*
X19171649Y-18632970D01*
X19171649Y-18632970D02*
X19164506Y-18618684D01*
X19164506Y-18618684D02*
X19164506Y-18490113D01*
X19207363Y-18654399D02*
X19321649Y-18654399D01*
X19407363Y-18561541D02*
X19428791Y-18568684D01*
X19428791Y-18568684D02*
X19435934Y-18575827D01*
X19435934Y-18575827D02*
X19443077Y-18590113D01*
X19443077Y-18590113D02*
X19443077Y-18611541D01*
X19443077Y-18611541D02*
X19435934Y-18625827D01*
X19435934Y-18625827D02*
X19428791Y-18632970D01*
X19428791Y-18632970D02*
X19414506Y-18640113D01*
X19414506Y-18640113D02*
X19357363Y-18640113D01*
X19357363Y-18640113D02*
X19357363Y-18490113D01*
X19357363Y-18490113D02*
X19407363Y-18490113D01*
X19407363Y-18490113D02*
X19421649Y-18497256D01*
X19421649Y-18497256D02*
X19428791Y-18504399D01*
X19428791Y-18504399D02*
X19435934Y-18518684D01*
X19435934Y-18518684D02*
X19435934Y-18532970D01*
X19435934Y-18532970D02*
X19428791Y-18547256D01*
X19428791Y-18547256D02*
X19421649Y-18554399D01*
X19421649Y-18554399D02*
X19407363Y-18561541D01*
X19407363Y-18561541D02*
X19357363Y-18561541D01*
X19528791Y-18640113D02*
X19514506Y-18632970D01*
X19514506Y-18632970D02*
X19507363Y-18625827D01*
X19507363Y-18625827D02*
X19500220Y-18611541D01*
X19500220Y-18611541D02*
X19500220Y-18568684D01*
X19500220Y-18568684D02*
X19507363Y-18554399D01*
X19507363Y-18554399D02*
X19514506Y-18547256D01*
X19514506Y-18547256D02*
X19528791Y-18540113D01*
X19528791Y-18540113D02*
X19550220Y-18540113D01*
X19550220Y-18540113D02*
X19564506Y-18547256D01*
X19564506Y-18547256D02*
X19571649Y-18554399D01*
X19571649Y-18554399D02*
X19578791Y-18568684D01*
X19578791Y-18568684D02*
X19578791Y-18611541D01*
X19578791Y-18611541D02*
X19571649Y-18625827D01*
X19571649Y-18625827D02*
X19564506Y-18632970D01*
X19564506Y-18632970D02*
X19550220Y-18640113D01*
X19550220Y-18640113D02*
X19528791Y-18640113D01*
X19707363Y-18640113D02*
X19707363Y-18561541D01*
X19707363Y-18561541D02*
X19700220Y-18547256D01*
X19700220Y-18547256D02*
X19685934Y-18540113D01*
X19685934Y-18540113D02*
X19657363Y-18540113D01*
X19657363Y-18540113D02*
X19643077Y-18547256D01*
X19707363Y-18632970D02*
X19693077Y-18640113D01*
X19693077Y-18640113D02*
X19657363Y-18640113D01*
X19657363Y-18640113D02*
X19643077Y-18632970D01*
X19643077Y-18632970D02*
X19635934Y-18618684D01*
X19635934Y-18618684D02*
X19635934Y-18604399D01*
X19635934Y-18604399D02*
X19643077Y-18590113D01*
X19643077Y-18590113D02*
X19657363Y-18582970D01*
X19657363Y-18582970D02*
X19693077Y-18582970D01*
X19693077Y-18582970D02*
X19707363Y-18575827D01*
X19778791Y-18640113D02*
X19778791Y-18540113D01*
X19778791Y-18568684D02*
X19785934Y-18554399D01*
X19785934Y-18554399D02*
X19793077Y-18547256D01*
X19793077Y-18547256D02*
X19807363Y-18540113D01*
X19807363Y-18540113D02*
X19821649Y-18540113D01*
X19935934Y-18640113D02*
X19935934Y-18490113D01*
X19935934Y-18632970D02*
X19921648Y-18640113D01*
X19921648Y-18640113D02*
X19893077Y-18640113D01*
X19893077Y-18640113D02*
X19878791Y-18632970D01*
X19878791Y-18632970D02*
X19871648Y-18625827D01*
X19871648Y-18625827D02*
X19864506Y-18611541D01*
X19864506Y-18611541D02*
X19864506Y-18568684D01*
X19864506Y-18568684D02*
X19871648Y-18554399D01*
X19871648Y-18554399D02*
X19878791Y-18547256D01*
X19878791Y-18547256D02*
X19893077Y-18540113D01*
X19893077Y-18540113D02*
X19921648Y-18540113D01*
X19921648Y-18540113D02*
X19935934Y-18547256D01*
X20007363Y-18625827D02*
X20014506Y-18632970D01*
X20014506Y-18632970D02*
X20007363Y-18640113D01*
X20007363Y-18640113D02*
X20000220Y-18632970D01*
X20000220Y-18632970D02*
X20007363Y-18625827D01*
X20007363Y-18625827D02*
X20007363Y-18640113D01*
X20078791Y-18640113D02*
X20078791Y-18490113D01*
X20093077Y-18582970D02*
X20135934Y-18640113D01*
X20135934Y-18540113D02*
X20078791Y-18597256D01*
X20200220Y-18640113D02*
X20200220Y-18540113D01*
X20200220Y-18490113D02*
X20193077Y-18497256D01*
X20193077Y-18497256D02*
X20200220Y-18504399D01*
X20200220Y-18504399D02*
X20207363Y-18497256D01*
X20207363Y-18497256D02*
X20200220Y-18490113D01*
X20200220Y-18490113D02*
X20200220Y-18504399D01*
X20335934Y-18632970D02*
X20321649Y-18640113D01*
X20321649Y-18640113D02*
X20293077Y-18640113D01*
X20293077Y-18640113D02*
X20278791Y-18632970D01*
X20278791Y-18632970D02*
X20271649Y-18625827D01*
X20271649Y-18625827D02*
X20264506Y-18611541D01*
X20264506Y-18611541D02*
X20264506Y-18568684D01*
X20264506Y-18568684D02*
X20271649Y-18554399D01*
X20271649Y-18554399D02*
X20278791Y-18547256D01*
X20278791Y-18547256D02*
X20293077Y-18540113D01*
X20293077Y-18540113D02*
X20321649Y-18540113D01*
X20321649Y-18540113D02*
X20335934Y-18547256D01*
X20464506Y-18640113D02*
X20464506Y-18561541D01*
X20464506Y-18561541D02*
X20457363Y-18547256D01*
X20457363Y-18547256D02*
X20443077Y-18540113D01*
X20443077Y-18540113D02*
X20414506Y-18540113D01*
X20414506Y-18540113D02*
X20400220Y-18547256D01*
X20464506Y-18632970D02*
X20450220Y-18640113D01*
X20450220Y-18640113D02*
X20414506Y-18640113D01*
X20414506Y-18640113D02*
X20400220Y-18632970D01*
X20400220Y-18632970D02*
X20393077Y-18618684D01*
X20393077Y-18618684D02*
X20393077Y-18604399D01*
X20393077Y-18604399D02*
X20400220Y-18590113D01*
X20400220Y-18590113D02*
X20414506Y-18582970D01*
X20414506Y-18582970D02*
X20450220Y-18582970D01*
X20450220Y-18582970D02*
X20464506Y-18575827D01*
X20600220Y-18640113D02*
X20600220Y-18490113D01*
X20600220Y-18632970D02*
X20585934Y-18640113D01*
X20585934Y-18640113D02*
X20557363Y-18640113D01*
X20557363Y-18640113D02*
X20543077Y-18632970D01*
X20543077Y-18632970D02*
X20535934Y-18625827D01*
X20535934Y-18625827D02*
X20528791Y-18611541D01*
X20528791Y-18611541D02*
X20528791Y-18568684D01*
X20528791Y-18568684D02*
X20535934Y-18554399D01*
X20535934Y-18554399D02*
X20543077Y-18547256D01*
X20543077Y-18547256D02*
X20557363Y-18540113D01*
X20557363Y-18540113D02*
X20585934Y-18540113D01*
X20585934Y-18540113D02*
X20600220Y-18547256D01*
X20635934Y-18654399D02*
X20750220Y-18654399D01*
X20785934Y-18540113D02*
X20785934Y-18690113D01*
X20785934Y-18547256D02*
X20800220Y-18540113D01*
X20800220Y-18540113D02*
X20828791Y-18540113D01*
X20828791Y-18540113D02*
X20843077Y-18547256D01*
X20843077Y-18547256D02*
X20850220Y-18554399D01*
X20850220Y-18554399D02*
X20857363Y-18568684D01*
X20857363Y-18568684D02*
X20857363Y-18611541D01*
X20857363Y-18611541D02*
X20850220Y-18625827D01*
X20850220Y-18625827D02*
X20843077Y-18632970D01*
X20843077Y-18632970D02*
X20828791Y-18640113D01*
X20828791Y-18640113D02*
X20800220Y-18640113D01*
X20800220Y-18640113D02*
X20785934Y-18632970D01*
X20985934Y-18632970D02*
X20971649Y-18640113D01*
X20971649Y-18640113D02*
X20943077Y-18640113D01*
X20943077Y-18640113D02*
X20928791Y-18632970D01*
X20928791Y-18632970D02*
X20921649Y-18625827D01*
X20921649Y-18625827D02*
X20914506Y-18611541D01*
X20914506Y-18611541D02*
X20914506Y-18568684D01*
X20914506Y-18568684D02*
X20921649Y-18554399D01*
X20921649Y-18554399D02*
X20928791Y-18547256D01*
X20928791Y-18547256D02*
X20943077Y-18540113D01*
X20943077Y-18540113D02*
X20971649Y-18540113D01*
X20971649Y-18540113D02*
X20985934Y-18547256D01*
X21050220Y-18640113D02*
X21050220Y-18490113D01*
X21050220Y-18547256D02*
X21064506Y-18540113D01*
X21064506Y-18540113D02*
X21093077Y-18540113D01*
X21093077Y-18540113D02*
X21107363Y-18547256D01*
X21107363Y-18547256D02*
X21114506Y-18554399D01*
X21114506Y-18554399D02*
X21121649Y-18568684D01*
X21121649Y-18568684D02*
X21121649Y-18611541D01*
X21121649Y-18611541D02*
X21114506Y-18625827D01*
X21114506Y-18625827D02*
X21107363Y-18632970D01*
X21107363Y-18632970D02*
X21093077Y-18640113D01*
X21093077Y-18640113D02*
X21064506Y-18640113D01*
X21064506Y-18640113D02*
X21050220Y-18632970D01*
D10*
D11*
X17700220Y-18150720D02*
X28500220Y-18150720D01*
D10*
D11*
X17828791Y-18362970D02*
X17850220Y-18370113D01*
X17850220Y-18370113D02*
X17885934Y-18370113D01*
X17885934Y-18370113D02*
X17900220Y-18362970D01*
X17900220Y-18362970D02*
X17907363Y-18355827D01*
X17907363Y-18355827D02*
X17914506Y-18341541D01*
X17914506Y-18341541D02*
X17914506Y-18327256D01*
X17914506Y-18327256D02*
X17907363Y-18312970D01*
X17907363Y-18312970D02*
X17900220Y-18305827D01*
X17900220Y-18305827D02*
X17885934Y-18298684D01*
X17885934Y-18298684D02*
X17857363Y-18291541D01*
X17857363Y-18291541D02*
X17843077Y-18284399D01*
X17843077Y-18284399D02*
X17835934Y-18277256D01*
X17835934Y-18277256D02*
X17828791Y-18262970D01*
X17828791Y-18262970D02*
X17828791Y-18248684D01*
X17828791Y-18248684D02*
X17835934Y-18234399D01*
X17835934Y-18234399D02*
X17843077Y-18227256D01*
X17843077Y-18227256D02*
X17857363Y-18220113D01*
X17857363Y-18220113D02*
X17893077Y-18220113D01*
X17893077Y-18220113D02*
X17914506Y-18227256D01*
X17978791Y-18370113D02*
X17978791Y-18220113D01*
X18043077Y-18370113D02*
X18043077Y-18291541D01*
X18043077Y-18291541D02*
X18035934Y-18277256D01*
X18035934Y-18277256D02*
X18021649Y-18270113D01*
X18021649Y-18270113D02*
X18000220Y-18270113D01*
X18000220Y-18270113D02*
X17985934Y-18277256D01*
X17985934Y-18277256D02*
X17978791Y-18284399D01*
X18171649Y-18362970D02*
X18157363Y-18370113D01*
X18157363Y-18370113D02*
X18128791Y-18370113D01*
X18128791Y-18370113D02*
X18114506Y-18362970D01*
X18114506Y-18362970D02*
X18107363Y-18348684D01*
X18107363Y-18348684D02*
X18107363Y-18291541D01*
X18107363Y-18291541D02*
X18114506Y-18277256D01*
X18114506Y-18277256D02*
X18128791Y-18270113D01*
X18128791Y-18270113D02*
X18157363Y-18270113D01*
X18157363Y-18270113D02*
X18171649Y-18277256D01*
X18171649Y-18277256D02*
X18178791Y-18291541D01*
X18178791Y-18291541D02*
X18178791Y-18305827D01*
X18178791Y-18305827D02*
X18107363Y-18320113D01*
X18300220Y-18362970D02*
X18285934Y-18370113D01*
X18285934Y-18370113D02*
X18257363Y-18370113D01*
X18257363Y-18370113D02*
X18243077Y-18362970D01*
X18243077Y-18362970D02*
X18235934Y-18348684D01*
X18235934Y-18348684D02*
X18235934Y-18291541D01*
X18235934Y-18291541D02*
X18243077Y-18277256D01*
X18243077Y-18277256D02*
X18257363Y-18270113D01*
X18257363Y-18270113D02*
X18285934Y-18270113D01*
X18285934Y-18270113D02*
X18300220Y-18277256D01*
X18300220Y-18277256D02*
X18307363Y-18291541D01*
X18307363Y-18291541D02*
X18307363Y-18305827D01*
X18307363Y-18305827D02*
X18235934Y-18320113D01*
X18350220Y-18270113D02*
X18407363Y-18270113D01*
X18371648Y-18220113D02*
X18371648Y-18348684D01*
X18371648Y-18348684D02*
X18378791Y-18362970D01*
X18378791Y-18362970D02*
X18393077Y-18370113D01*
X18393077Y-18370113D02*
X18407363Y-18370113D01*
X18457363Y-18355827D02*
X18464506Y-18362970D01*
X18464506Y-18362970D02*
X18457363Y-18370113D01*
X18457363Y-18370113D02*
X18450220Y-18362970D01*
X18450220Y-18362970D02*
X18457363Y-18355827D01*
X18457363Y-18355827D02*
X18457363Y-18370113D01*
X18457363Y-18277256D02*
X18464506Y-18284399D01*
X18464506Y-18284399D02*
X18457363Y-18291541D01*
X18457363Y-18291541D02*
X18450220Y-18284399D01*
X18450220Y-18284399D02*
X18457363Y-18277256D01*
X18457363Y-18277256D02*
X18457363Y-18291541D01*
D10*
D12*
D10*
D11*
D10*
D11*
D10*
D11*
D10*
D11*
D10*
D11*
X19700220Y-19150720D02*
X19700220Y-19450720D01*
D10*
D11*
X26100220Y-19150720D02*
X26100220Y-19800720D01*
D14*
%TO.P,U2,1,GND*%
%TO.N,GND*%
X17130000Y-8905000D03*
%TO.P,U2,2,VO*%
%TO.N,Net-(D1-K)*%
X16900000Y-8905000D03*
D15*
X16900000Y-9535000D03*
D14*
%TO.P,U2,3,VI*%
%TO.N,12V_Main*%
X16670000Y-8905000D03*
%TD*%
D16*
%TO.P,C2,1*%
%TO.N,12V_Main*%
X16664000Y-8602000D03*
%TO.P,C2,2*%
%TO.N,GND*%
X16976500Y-8602000D03*
%TD*%
D17*
%TO.P,J1,1,Pin_1*%
%TO.N,GND*%
X10920000Y-8035000D03*
D18*
%TO.P,J1,2,Pin_2*%
X11174000Y-8035000D03*
%TO.P,J1,3,Pin_3*%
X11428000Y-8035000D03*
%TO.P,J1,4,Pin_4*%
%TO.N,D15*%
X11682000Y-8035000D03*
%TO.P,J1,5,Pin_5*%
%TO.N,D14*%
X11936000Y-8035000D03*
%TO.P,J1,6,Pin_6*%
%TO.N,D13*%
X12190000Y-8035000D03*
%TO.P,J1,7,Pin_7*%
%TO.N,D12*%
X12444000Y-8035000D03*
%TO.P,J1,8,Pin_8*%
%TO.N,D11*%
X12698000Y-8035000D03*
%TO.P,J1,9,Pin_9*%
%TO.N,D10*%
X12952000Y-8035000D03*
%TO.P,J1,10,Pin_10*%
%TO.N,D9*%
X13206000Y-8035000D03*
%TO.P,J1,11,Pin_11*%
%TO.N,D8*%
X13460000Y-8035000D03*
%TO.P,J1,12,Pin_12*%
%TO.N,D7*%
X13714000Y-8035000D03*
%TO.P,J1,13,Pin_13*%
%TO.N,D6*%
X13968000Y-8035000D03*
%TO.P,J1,14,Pin_14*%
%TO.N,D4*%
X14222000Y-8035000D03*
%TO.P,J1,15,Pin_15*%
%TO.N,D2*%
X14476000Y-8035000D03*
%TO.P,J1,16,Pin_16*%
%TO.N,GND*%
X14730000Y-8035000D03*
%TO.P,J1,17,Pin_17*%
%TO.N,VCC_5V*%
X14984000Y-8035000D03*
%TD*%
D19*
%TO.P,D4,1,K*%
%TO.N,Net-(D1-A)*%
X17143000Y-10988000D03*
%TO.P,D4,2,A*%
%TO.N,GND*%
X17423000Y-10988000D03*
%TD*%
D20*
%TO.P,R1,1*%
%TO.N,VCC_5V*%
X10967500Y-10172500D03*
%TO.P,R1,2*%
%TO.N,Net-(J3-Pin_1)*%
X10967500Y-9880000D03*
%TD*%
D17*
%TO.P,J6,1,Pin_1*%
%TO.N,GND*%
X9954000Y-12437000D03*
D18*
%TO.P,J6,2,Pin_2*%
%TO.N,D44*%
X10208000Y-12437000D03*
%TO.P,J6,3,Pin_3*%
%TO.N,D43*%
X10462000Y-12437000D03*
%TO.P,J6,4,Pin_4*%
%TO.N,D42*%
X10716000Y-12437000D03*
%TO.P,J6,5,Pin_5*%
%TO.N,D41*%
X10970000Y-12437000D03*
%TO.P,J6,6,Pin_6*%
%TO.N,D40*%
X11224000Y-12437000D03*
%TO.P,J6,7,Pin_7*%
%TO.N,D39*%
X11478000Y-12437000D03*
%TO.P,J6,8,Pin_8*%
%TO.N,D38*%
X11732000Y-12437000D03*
%TO.P,J6,9,Pin_9*%
%TO.N,D37*%
X11986000Y-12437000D03*
%TO.P,J6,10,Pin_10*%
%TO.N,D36*%
X12240000Y-12437000D03*
%TO.P,J6,11,Pin_11*%
%TO.N,D35*%
X12494000Y-12437000D03*
%TO.P,J6,12,Pin_12*%
%TO.N,D34*%
X12748000Y-12437000D03*
%TO.P,J6,13,Pin_13*%
%TO.N,D33*%
X13002000Y-12437000D03*
%TO.P,J6,14,Pin_14*%
%TO.N,A2*%
X13256000Y-12437000D03*
%TO.P,J6,15,Pin_15*%
%TO.N,A1*%
X13510000Y-12437000D03*
%TO.P,J6,16,Pin_16*%
%TO.N,GND*%
X13764000Y-12437000D03*
%TO.P,J6,17,Pin_17*%
%TO.N,VCC_5V*%
X14018000Y-12437000D03*
%TD*%
D21*
%TO.P,Q1,1,B*%
%TO.N,Net-(Q1-B)*%
X17218000Y-11457000D03*
%TO.P,Q1,2,E*%
%TO.N,GND*%
X17218000Y-11267000D03*
%TO.P,Q1,3,C*%
%TO.N,Net-(D1-A)*%
X17030500Y-11362000D03*
%TD*%
D22*
%TO.P,D1,1,K*%
%TO.N,Net-(D1-K)*%
X17412000Y-10144000D03*
%TO.P,D1,2,A*%
%TO.N,Net-(D1-A)*%
X17412000Y-10424000D03*
%TD*%
D17*
%TO.P,J4,1,Pin_1*%
%TO.N,GND*%
X13355000Y-11105000D03*
D18*
%TO.P,J4,2,Pin_2*%
%TO.N,A_SCL*%
X13101000Y-11105000D03*
%TO.P,J4,3,Pin_3*%
%TO.N,A_SDA*%
X12847000Y-11105000D03*
%TO.P,J4,4,Pin_4*%
%TO.N,VCC_5V*%
X12593000Y-11105000D03*
%TD*%
D20*
%TO.P,R2,1*%
%TO.N,Net-(J3-Pin_1)*%
X10965000Y-9715000D03*
%TO.P,R2,2*%
%TO.N,GND*%
X10965000Y-9422500D03*
%TD*%
D17*
%TO.P,J5,1,Pin_1*%
%TO.N,Sleep*%
X11826000Y-9654000D03*
D18*
%TO.P,J5,2,Pin_2*%
%TO.N,Mute*%
X12080000Y-9654000D03*
%TO.P,J5,3,Pin_3*%
%TO.N,Wp*%
X12334000Y-9654000D03*
%TO.P,J5,4,Pin_4*%
%TO.N,I2C-SW*%
X12588000Y-9654000D03*
%TO.P,J5,5,Pin_5*%
%TO.N,A_SDA*%
X12842000Y-9654000D03*
%TO.P,J5,6,Pin_6*%
%TO.N,A_SCL*%
X13096000Y-9654000D03*
%TO.P,J5,7,Pin_7*%
%TO.N,A_SEN*%
X13350000Y-9654000D03*
%TO.P,J5,8,Pin_8*%
%TO.N,A_RST*%
X13604000Y-9654000D03*
%TO.P,J5,9,Pin_9*%
%TO.N,GND*%
X13858000Y-9654000D03*
%TO.P,J5,10,Pin_10*%
%TO.N,+3V3*%
X14112000Y-9654000D03*
%TO.P,J5,11,Pin_11*%
%TO.N,+5V*%
X14366000Y-9654000D03*
%TO.P,J5,12,Pin_12*%
%TO.N,+12V*%
X14620000Y-9654000D03*
%TD*%
D23*
%TO.P,R6,1*%
%TO.N,Power_On*%
X16533500Y-11451000D03*
%TO.P,R6,2*%
%TO.N,Net-(Q1-B)*%
X16826000Y-11451000D03*
%TD*%
D17*
%TO.P,J2,1,Pin_1*%
%TO.N,SSD1309_CS*%
X9938468Y-9239500D03*
D18*
%TO.P,J2,2,Pin_2*%
%TO.N,SSD1309_DC*%
X9938468Y-9493500D03*
%TO.P,J2,3,Pin_3*%
%TO.N,SSD1309_RST*%
X9938468Y-9747500D03*
%TO.P,J2,4,Pin_4*%
%TO.N,SSD1309_SDA*%
X9938468Y-10001500D03*
%TO.P,J2,5,Pin_5*%
%TO.N,SSD1309_SCL*%
X9938468Y-10255500D03*
%TO.P,J2,6,Pin_6*%
%TO.N,VCC_5V*%
X9938468Y-10509500D03*
%TO.P,J2,7,Pin_7*%
%TO.N,GND*%
X9938468Y-10763500D03*
%TD*%
D24*
%TO.P,K1,1*%
%TO.N,Net-(D1-K)*%
X17151000Y-9875000D03*
%TO.P,K1,3*%
%TO.N,unconnected-(K1-Pad3)*%
X16643000Y-9875000D03*
%TO.P,K1,4*%
%TO.N,12V*%
X16389000Y-9875000D03*
%TO.P,K1,5*%
%TO.N,12V_Main*%
X16135000Y-9875000D03*
%TO.P,K1,8*%
X16135000Y-10604000D03*
%TO.P,K1,9*%
%TO.N,12V*%
X16389000Y-10604000D03*
%TO.P,K1,10*%
%TO.N,unconnected-(K1-Pad10)*%
X16643000Y-10604000D03*
%TO.P,K1,12*%
%TO.N,Net-(D1-A)*%
X17151000Y-10604000D03*
%TD*%
D23*
%TO.P,R9,1*%
%TO.N,Net-(Q1-B)*%
X17092000Y-11762000D03*
%TO.P,R9,2*%
%TO.N,GND*%
X17384500Y-11762000D03*
%TD*%
D25*
%TO.P,C1,1*%
%TO.N,GND*%
X17380000Y-8907500D03*
%TO.P,C1,2*%
%TO.N,Net-(D1-K)*%
X17380000Y-9220000D03*
%TD*%
D26*
%TO.P,J3,1,Pin_1*%
%TO.N,Net-(J3-Pin_1)*%
X10667500Y-9365000D03*
D27*
%TO.P,J3,2,Pin_2*%
%TO.N,GND*%
X10667500Y-9238000D03*
%TD*%
D28*
%TO.P,U1,3V3_1,3V3*%
%TO.N,3.3V*%
X14731468Y-8374000D03*
%TO.P,U1,3V3_2,3V3*%
X14731468Y-8628000D03*
%TO.P,U1,5V_1,5V*%
%TO.N,VCC_5V*%
X14985468Y-8374000D03*
%TO.P,U1,5V_2,5V*%
X14985468Y-8628000D03*
%TO.P,U1,5V_3,5V*%
X10413468Y-10152000D03*
%TO.P,U1,A0,A0*%
%TO.N,A0*%
X14223468Y-11930000D03*
%TO.P,U1,A1,A1*%
%TO.N,A1*%
X14223468Y-11676000D03*
%TO.P,U1,A2,A2*%
%TO.N,A2*%
X13969468Y-11930000D03*
%TO.P,U1,A3,A3*%
%TO.N,unconnected-(U1-PadA3)*%
X13969468Y-11676000D03*
%TO.P,U1,A4,A4*%
%TO.N,Power_On*%
X13715468Y-11930000D03*
%TO.P,U1,A5,A5*%
%TO.N,unconnected-(U1-PadA5)*%
X13715468Y-11676000D03*
%TO.P,U1,A6,A6*%
%TO.N,unconnected-(U1-PadA6)*%
X13461468Y-11930000D03*
%TO.P,U1,A7,A7*%
%TO.N,unconnected-(U1-PadA7)*%
X13461468Y-11676000D03*
%TO.P,U1,A8,A8*%
%TO.N,unconnected-(U1-PadA8)*%
X13207468Y-11930000D03*
%TO.P,U1,A9,A9*%
%TO.N,unconnected-(U1-PadA9)*%
X13207468Y-11676000D03*
%TO.P,U1,A10,A10*%
%TO.N,unconnected-(U1-PadA10)*%
X12953468Y-11930000D03*
%TO.P,U1,A11,A11*%
%TO.N,unconnected-(U1-PadA11)*%
X12953468Y-11676000D03*
%TO.P,U1,A12,A12*%
%TO.N,unconnected-(U1-PadA12)*%
X12699468Y-11930000D03*
%TO.P,U1,A13,A13*%
%TO.N,unconnected-(U1-PadA13)*%
X12699468Y-11676000D03*
%TO.P,U1,A14,A14*%
%TO.N,unconnected-(U1-PadA14)*%
X12445468Y-11930000D03*
%TO.P,U1,A15,A15*%
%TO.N,unconnected-(U1-PadA15)*%
X12445468Y-11676000D03*
%TO.P,U1,AREF,AREF*%
%TO.N,unconnected-(U1-PadAREF)*%
X14477468Y-8628000D03*
%TO.P,U1,D2,D2*%
%TO.N,D2*%
X13969468Y-8628000D03*
%TO.P,U1,D3,D3*%
%TO.N,ENC_P*%
X13969468Y-8374000D03*
%TO.P,U1,D4,D4*%
%TO.N,D4*%
X13715468Y-8628000D03*
%TO.P,U1,D5,D5*%
%TO.N,D5*%
X13715468Y-8374000D03*
%TO.P,U1,D6,D6*%
%TO.N,D6*%
X13461468Y-8628000D03*
%TO.P,U1,D7,D7*%
%TO.N,D7*%
X13461468Y-8374000D03*
%TO.P,U1,D8,D8*%
%TO.N,D8*%
X13207468Y-8628000D03*
%TO.P,U1,D9,D9*%
%TO.N,D9*%
X13207468Y-8374000D03*
%TO.P,U1,D10,D10*%
%TO.N,D10*%
X12953468Y-8628000D03*
%TO.P,U1,D11,D11*%
%TO.N,D11*%
X12953468Y-8374000D03*
%TO.P,U1,D12,D12*%
%TO.N,D12*%
X12699468Y-8628000D03*
%TO.P,U1,D13,D13*%
%TO.N,D13*%
X12699468Y-8374000D03*
%TO.P,U1,D14,D14*%
%TO.N,D14*%
X12445468Y-8628000D03*
%TO.P,U1,D15,D15*%
%TO.N,D15*%
X12445468Y-8374000D03*
%TO.P,U1,D16,D16*%
%TO.N,unconnected-(U1-PadD16)*%
X12191468Y-8628000D03*
%TO.P,U1,D17,D17*%
%TO.N,unconnected-(U1-PadD17)*%
X12191468Y-8374000D03*
%TO.P,U1,D18,D18*%
%TO.N,ENC_A*%
X11937468Y-8628000D03*
%TO.P,U1,D19,D19*%
%TO.N,ENC_B*%
X11937468Y-8374000D03*
%TO.P,U1,D20,D20*%
%TO.N,A_SDA*%
X11683468Y-8628000D03*
%TO.P,U1,D21,D21*%
%TO.N,A_SCL*%
X11683468Y-8374000D03*
%TO.P,U1,D22,D22*%
%TO.N,A_RST*%
X11429468Y-8628000D03*
%TO.P,U1,D23,D23*%
%TO.N,A_SEN*%
X11429468Y-8374000D03*
%TO.P,U1,D24,D24*%
%TO.N,unconnected-(U1-PadD24)*%
X11175468Y-8628000D03*
%TO.P,U1,D25,D25*%
%TO.N,unconnected-(U1-PadD25)*%
X11175468Y-8374000D03*
%TO.P,U1,D26,D26*%
%TO.N,unconnected-(U1-PadD26)*%
X10921468Y-8628000D03*
%TO.P,U1,D27,D27*%
%TO.N,unconnected-(U1-PadD27)*%
X10921468Y-8374000D03*
%TO.P,U1,D28,D28*%
%TO.N,I2C-SW*%
X10667468Y-8628000D03*
%TO.P,U1,D29,D29*%
%TO.N,Wp*%
X10667468Y-8374000D03*
%TO.P,U1,D30,D30*%
%TO.N,Sleep*%
X10413468Y-8628000D03*
%TO.P,U1,D31,D31*%
%TO.N,Mute*%
X10413468Y-8374000D03*
%TO.P,U1,D32,D32*%
%TO.N,unconnected-(U1-PadD32)*%
X12191468Y-11930000D03*
%TO.P,U1,D33,D33*%
%TO.N,D33*%
X12191468Y-11676000D03*
%TO.P,U1,D34,D34*%
%TO.N,D34*%
X11937468Y-11930000D03*
%TO.P,U1,D35,D35*%
%TO.N,D35*%
X11937468Y-11676000D03*
%TO.P,U1,D36,D36*%
%TO.N,D36*%
X11683468Y-11930000D03*
%TO.P,U1,D37,D37*%
%TO.N,D37*%
X11683468Y-11676000D03*
%TO.P,U1,D38,D38*%
%TO.N,D38*%
X11429468Y-11930000D03*
%TO.P,U1,D39,D39*%
%TO.N,D39*%
X11429468Y-11676000D03*
%TO.P,U1,D40,D40*%
%TO.N,D40*%
X11175468Y-11930000D03*
%TO.P,U1,D41,D41*%
%TO.N,D41*%
X11175468Y-11676000D03*
%TO.P,U1,D42,D42*%
%TO.N,D42*%
X10921468Y-11930000D03*
%TO.P,U1,D43,D43*%
%TO.N,D43*%
X10921468Y-11676000D03*
%TO.P,U1,D44,D44*%
%TO.N,D44*%
X10667468Y-11930000D03*
%TO.P,U1,D45,D45*%
%TO.N,unconnected-(U1-PadD45)*%
X10667468Y-11676000D03*
%TO.P,U1,D46,D46*%
%TO.N,SSD1309_DC*%
X10413468Y-11930000D03*
%TO.P,U1,D47,D47*%
%TO.N,unconnected-(U1-PadD47)*%
X10413468Y-11676000D03*
%TO.P,U1,D48,D48*%
%TO.N,SSD1309_RST*%
X10413468Y-11422000D03*
%TO.P,U1,D49,D49*%
%TO.N,unconnected-(U1-PadD49)*%
X10667468Y-11422000D03*
%TO.P,U1,D50,D50*%
%TO.N,unconnected-(U1-PadD50)*%
X10413468Y-11168000D03*
%TO.P,U1,D51,D51*%
%TO.N,SSD1309_SDA*%
X10667468Y-11168000D03*
%TO.P,U1,D52,D52*%
%TO.N,SSD1309_SCL*%
X10413468Y-10914000D03*
%TO.P,U1,D53,D53*%
%TO.N,SSD1309_CS*%
X10667468Y-10914000D03*
%TO.P,U1,GND_1,GND*%
%TO.N,GND*%
X15239468Y-8374000D03*
%TO.P,U1,GND_2,GND*%
X15239468Y-8628000D03*
%TO.P,U1,GND_3,GND*%
X10413468Y-9644000D03*
%TO.P,U1,MISO,MISO*%
%TO.N,unconnected-(U1-PadMISO)*%
X10667468Y-10152000D03*
%TO.P,U1,MOSI,MOSI*%
%TO.N,unconnected-(U1-PadMOSI)*%
X10413468Y-9898000D03*
%TO.P,U1,RESET,RESET*%
%TO.N,Net-(J3-Pin_1)*%
X10667468Y-9644000D03*
%TO.P,U1,RST,RST*%
%TO.N,unconnected-(U1-PadRST)*%
X14477468Y-8374000D03*
%TO.P,U1,RX,RX*%
%TO.N,unconnected-(U1-PadRX)*%
X14223468Y-8628000D03*
%TO.P,U1,SCK,SCK*%
%TO.N,unconnected-(U1-PadSCK)*%
X10667468Y-9898000D03*
%TO.P,U1,TX,TX*%
%TO.N,unconnected-(U1-PadTX)*%
X14223468Y-8374000D03*
%TO.P,U1,VIN_1,VIN*%
%TO.N,12V*%
X15493468Y-8374000D03*
%TO.P,U1,VIN_2,VIN*%
X15493468Y-8628000D03*
%TD*%
D17*
%TO.P,J7,1,Pin_1*%
%TO.N,VCC_5V*%
X15996000Y-9162000D03*
D18*
%TO.P,J7,2,Pin_2*%
%TO.N,ENC_A*%
X15996000Y-8908000D03*
%TO.P,J7,3,Pin_3*%
%TO.N,ENC_B*%
X15996000Y-8654000D03*
%TO.P,J7,4,Pin_4*%
%TO.N,ENC_P*%
X15996000Y-8400000D03*
%TO.P,J7,5,Pin_5*%
%TO.N,GND*%
X15996000Y-8146000D03*
%TD*%
D17*
%TO.P,SW1,1,A*%
%TO.N,12V_Main*%
X16241000Y-11879500D03*
D18*
%TO.P,SW1,2,B*%
%TO.N,12V*%
X15987000Y-11879500D03*
%TD*%
D17*
%TO.P,J8,1,Pin_1*%
%TO.N,12V_Main*%
X16227000Y-12355000D03*
D18*
%TO.P,J8,2,Pin_2*%
%TO.N,GND*%
X15973000Y-12355000D03*
%TD*%
D17*
%TO.P,J9,1,Pin_1*%
%TO.N,12V*%
X15214000Y-12346500D03*
D18*
%TO.P,J9,2,Pin_2*%
%TO.N,GND*%
X15468000Y-12346500D03*
%TD*%
D29*
%TO.N,GND*%
X14453000Y-11003000D03*
X9157000Y-9306000D03*
X9153000Y-10535000D03*
X17585000Y-8188000D03*
X13751000Y-12634000D03*
X12922000Y-7842000D03*
X10077000Y-12626000D03*
X11375000Y-7838000D03*
X12312000Y-12636000D03*
X15931000Y-7850000D03*
X15747000Y-12632000D03*
X9160000Y-9552000D03*
X15001000Y-12634000D03*
X15502000Y-11675000D03*
X17558000Y-11424000D03*
X17171000Y-7851000D03*
X14738000Y-12635000D03*
X13994000Y-12635000D03*
X15903000Y-11009000D03*
X11818000Y-11307000D03*
X15259000Y-12632000D03*
X17541000Y-12637000D03*
X12765000Y-12631000D03*
X17582000Y-9164000D03*
X9156000Y-10781000D03*
X16729000Y-12641000D03*
X15906000Y-10051000D03*
X14942000Y-11005000D03*
X10887000Y-7838000D03*
X16488000Y-12636000D03*
X9163000Y-8300000D03*
X9573000Y-12631000D03*
X11401000Y-11307000D03*
X10629000Y-7840000D03*
X13480000Y-9228500D03*
X9158000Y-11039000D03*
X10126000Y-10922000D03*
X13711500Y-9229500D03*
X13509000Y-12631000D03*
X9160000Y-7831000D03*
X16419000Y-7850000D03*
X9154000Y-12252000D03*
X10562000Y-12630000D03*
X16913000Y-7853000D03*
X15433000Y-7847000D03*
X17554000Y-11909000D03*
X9904000Y-7831000D03*
X11881000Y-7843000D03*
X15673000Y-7852000D03*
X15208000Y-11006000D03*
X11814000Y-12633000D03*
X9160000Y-8798000D03*
X11208000Y-10155000D03*
X11213000Y-10687000D03*
X11641000Y-7838000D03*
X15241000Y-8179000D03*
X11133000Y-7835000D03*
X12385000Y-7838000D03*
X9160000Y-8054000D03*
X16230000Y-12638000D03*
X17417000Y-7848000D03*
X9831000Y-12629000D03*
X12627000Y-7841000D03*
X13005000Y-12636000D03*
X14718000Y-11000000D03*
X17566000Y-9669000D03*
X15908000Y-9728000D03*
X16673000Y-7848000D03*
X15208000Y-11316000D03*
X16814000Y-11009000D03*
X9156000Y-10293000D03*
X12558000Y-12633000D03*
X9153000Y-11279000D03*
X9162000Y-9810000D03*
X13255000Y-9228500D03*
X10389000Y-7835000D03*
X11060000Y-12633000D03*
X17546000Y-12391000D03*
X9154000Y-12518000D03*
X15501000Y-11319000D03*
X15457000Y-12631000D03*
X17569000Y-10404000D03*
X12139000Y-7841000D03*
X17563000Y-11184000D03*
X16574000Y-11010000D03*
X17582000Y-8661000D03*
X16177000Y-7847000D03*
X10802000Y-12635000D03*
X14453000Y-11313000D03*
X14172000Y-7844000D03*
X17567000Y-10930000D03*
X17586000Y-7955000D03*
X12054000Y-12638000D03*
X11210000Y-11166000D03*
X9333000Y-12626000D03*
X14942000Y-11315000D03*
X15906000Y-10547000D03*
X14492000Y-12638000D03*
X9160000Y-9064000D03*
X12251000Y-11312000D03*
X17585000Y-8419000D03*
X9154000Y-11508000D03*
X17217000Y-12641000D03*
X13908000Y-7845000D03*
X17557000Y-11667000D03*
X16975000Y-12638000D03*
X14916000Y-7844000D03*
X13263000Y-12634000D03*
X9157000Y-10050000D03*
X14412000Y-7849000D03*
X9400000Y-7836000D03*
X17569000Y-9427000D03*
X9157000Y-11754000D03*
X15501000Y-11009000D03*
X17551000Y-12151000D03*
X10146000Y-7834000D03*
X17564000Y-9914000D03*
X14718000Y-11310000D03*
X14187000Y-11312000D03*
X9165000Y-8558000D03*
X15158000Y-7847000D03*
X14234000Y-12640000D03*
X9159000Y-12012000D03*
X14670000Y-7847000D03*
X15990000Y-12633000D03*
X17566000Y-10172000D03*
X11306000Y-12630000D03*
X14187000Y-11002000D03*
X11191000Y-9420000D03*
X10125000Y-11197000D03*
X16734000Y-12633000D03*
X13420000Y-7845000D03*
X13666000Y-7842000D03*
X9658000Y-7834000D03*
X10319000Y-12629000D03*
X11548000Y-12633000D03*
X17572000Y-10650000D03*
X13162000Y-7847000D03*
X17580000Y-8906000D03*
%TO.N,A_SDA*%
X12846000Y-9148500D03*
%TO.N,A_SCL*%
X13099968Y-9235500D03*
%TO.N,A_SEN*%
X13353968Y-9423450D03*
%TO.N,A_RST*%
X13604000Y-9378500D03*
%TO.N,12V*%
X16389000Y-10241000D03*
%TO.N,VCC_5V*%
X14990000Y-9281000D03*
%TO.N,Power_On*%
X16534000Y-11277000D03*
%TD*%
D30*
%TO.N,GND*%
X17139500Y-8976000D02*
X17588500Y-8976000D01*
D31*
X13291500Y-11037000D02*
X13291000Y-11037500D01*
X15465000Y-12341000D02*
X15959500Y-12341000D01*
D30*
X17429500Y-11651000D02*
X17294500Y-11651000D01*
X17175000Y-8971500D02*
X17175000Y-8522500D01*
X17088000Y-8556000D02*
X16874000Y-8556000D01*
X17382000Y-11130000D02*
X17247000Y-11130000D01*
D31*
X13285000Y-11031750D02*
X13285000Y-11186250D01*
D30*
X17075000Y-8626000D02*
X16861000Y-8626000D01*
X17076000Y-8562000D02*
X16973000Y-8562000D01*
X17251500Y-11335000D02*
X17251500Y-11200000D01*
D31*
X13490000Y-11190000D02*
X13472000Y-11208000D01*
D30*
X17508000Y-11092000D02*
X17334000Y-11092000D01*
X17469000Y-10893000D02*
X17390000Y-10893000D01*
X17334000Y-11114000D02*
X17517000Y-11114000D01*
X17518000Y-11082000D02*
X17508000Y-11092000D01*
D31*
X15955250Y-12269000D02*
X15975000Y-12288750D01*
D30*
X17079000Y-8539000D02*
X16865000Y-8539000D01*
X17501000Y-9093500D02*
X17531000Y-9063500D01*
X17465000Y-10905000D02*
X17469000Y-10901000D01*
X17130000Y-8905000D02*
X17579000Y-8905000D01*
X17429500Y-11841000D02*
X17293000Y-11841000D01*
D31*
X15465000Y-12510500D02*
X15457000Y-12518500D01*
X10966000Y-9421500D02*
X10966000Y-9264000D01*
D30*
X17427500Y-11731000D02*
X17292500Y-11731000D01*
D32*
X15239468Y-8374000D02*
X15240000Y-8374532D01*
D30*
X17424500Y-11880000D02*
X17289500Y-11880000D01*
X17378000Y-11072000D02*
X17378000Y-10884000D01*
D33*
X9887000Y-12293000D02*
X9887000Y-12578000D01*
D30*
X17295000Y-11761000D02*
X17290000Y-11766000D01*
X17126500Y-8833000D02*
X17575500Y-8833000D01*
X17490000Y-11880500D02*
X17490000Y-11745500D01*
X17380000Y-11746000D02*
X17375000Y-11741000D01*
X17468000Y-11163000D02*
X17195000Y-11163000D01*
X17579000Y-8905000D02*
X17580000Y-8906000D01*
X17293000Y-11841000D02*
X17288000Y-11846000D01*
D31*
X11489000Y-7973000D02*
X11482000Y-7966000D01*
X15805000Y-8086500D02*
X16081000Y-8086500D01*
D30*
X17517000Y-11114000D02*
X17468000Y-11163000D01*
D31*
X15457000Y-12318250D02*
X15457000Y-12487750D01*
D33*
X15240000Y-8512500D02*
X15240000Y-8835032D01*
D31*
X10457500Y-9205000D02*
X10413468Y-9249032D01*
D30*
X17518000Y-11082000D02*
X17518000Y-10868000D01*
D31*
X15979000Y-12341250D02*
X15979000Y-12510750D01*
D30*
X17130000Y-8620000D02*
X17132000Y-8618000D01*
D31*
X15975000Y-12288750D02*
X15975000Y-12424750D01*
D30*
X17130000Y-8905000D02*
X17130000Y-8620000D01*
X17452000Y-11786500D02*
X17452000Y-11651500D01*
D33*
X13807000Y-12304000D02*
X13807000Y-12589000D01*
D30*
X17292500Y-11335000D02*
X17292500Y-11200000D01*
X17177500Y-11334000D02*
X17177500Y-11199000D01*
X17252000Y-8977500D02*
X17252000Y-8528500D01*
X17518000Y-10868000D02*
X17511000Y-10861000D01*
X17376000Y-11790500D02*
X17376000Y-11654000D01*
X17594000Y-9099500D02*
X17594000Y-8650500D01*
D31*
X13469500Y-11031000D02*
X13350000Y-11031000D01*
D30*
X17093000Y-8464000D02*
X16879000Y-8464000D01*
X17456000Y-11878500D02*
X17456000Y-11743500D01*
X17326500Y-11337000D02*
X17326500Y-11202000D01*
D31*
X16081500Y-8202500D02*
X16079000Y-8205000D01*
D30*
X17353000Y-9093500D02*
X17353000Y-8644500D01*
D31*
X10698000Y-7968000D02*
X10700000Y-7966000D01*
D33*
X13717000Y-12309000D02*
X13717000Y-12594000D01*
D30*
X17250000Y-11129000D02*
X17115000Y-11129000D01*
D31*
X15460750Y-12269000D02*
X15955250Y-12269000D01*
D34*
X13771032Y-12433468D02*
X13762500Y-12442000D01*
D30*
X17251000Y-11268000D02*
X17116000Y-11268000D01*
D34*
X13704500Y-12324500D02*
X13704500Y-12384000D01*
D30*
X17093000Y-8425000D02*
X16879000Y-8425000D01*
D35*
X13490000Y-11038000D02*
X13429000Y-10977000D01*
D30*
X17425500Y-11765000D02*
X17290500Y-11765000D01*
X17134000Y-8971500D02*
X17134000Y-8522500D01*
D31*
X16079000Y-8205000D02*
X15923500Y-8205000D01*
X14665000Y-8127000D02*
X14665000Y-7961000D01*
X14789000Y-7963000D02*
X14789000Y-8129000D01*
D30*
X17451000Y-9093500D02*
X17451000Y-8644500D01*
X17416000Y-9050000D02*
X17416000Y-8646500D01*
X17216500Y-11202500D02*
X17211500Y-11197500D01*
X17130500Y-8953000D02*
X17579500Y-8953000D01*
D33*
X9977000Y-12288000D02*
X9977000Y-12573000D01*
D30*
X17451000Y-9085000D02*
X17416000Y-9050000D01*
X17427500Y-11685000D02*
X17292500Y-11685000D01*
X17390000Y-10893000D02*
X17372000Y-10911000D01*
D31*
X15923500Y-8205000D02*
X15805000Y-8086500D01*
D30*
X17216500Y-11339000D02*
X17216500Y-11202500D01*
X17511000Y-10861000D02*
X17327000Y-10861000D01*
X17293500Y-11370000D02*
X17164000Y-11370000D01*
X17385000Y-9063000D02*
X17385000Y-8647500D01*
X17378000Y-10884000D02*
X17402000Y-10860000D01*
X17144500Y-8851000D02*
X17593500Y-8851000D01*
X17079000Y-8578000D02*
X16865000Y-8578000D01*
X17150000Y-11266000D02*
X17150000Y-11132000D01*
X17341000Y-11877500D02*
X17341000Y-11742500D01*
X17480000Y-9093500D02*
X17480000Y-8644500D01*
D34*
X13704500Y-12384000D02*
X13762500Y-12442000D01*
D30*
X17425500Y-11806000D02*
X17290500Y-11806000D01*
X17426500Y-11800000D02*
X17291500Y-11800000D01*
D31*
X15957000Y-12353500D02*
X15957000Y-12512500D01*
D30*
X17301000Y-8967500D02*
X17301000Y-8518500D01*
D34*
X13822000Y-12382500D02*
X13762500Y-12442000D01*
D30*
X17563000Y-9097500D02*
X17563000Y-8648500D01*
X17427500Y-11726000D02*
X17292500Y-11726000D01*
D31*
X10907000Y-9205000D02*
X10457500Y-9205000D01*
D30*
X17376000Y-11654000D02*
X17371000Y-11649000D01*
D31*
X13301000Y-11208000D02*
X13297000Y-11204000D01*
D33*
X15240000Y-8369500D02*
X15240000Y-8512500D01*
D30*
X17132000Y-8618000D02*
X17076000Y-8562000D01*
X17501000Y-9093500D02*
X17501000Y-8644500D01*
D31*
X10698000Y-8106000D02*
X11480000Y-8106000D01*
D30*
X17326500Y-11337000D02*
X17293500Y-11370000D01*
X17212000Y-8975500D02*
X17212000Y-8526500D01*
D31*
X10966000Y-9264000D02*
X10907000Y-9205000D01*
X15463750Y-12455000D02*
X15958250Y-12455000D01*
D30*
X17150000Y-11132000D02*
X17151000Y-11131000D01*
D31*
X15964500Y-12346000D02*
X15957000Y-12353500D01*
X10700000Y-7966000D02*
X11482000Y-7966000D01*
D33*
X13858000Y-9654000D02*
X13861000Y-9657000D01*
D31*
X11489000Y-8109500D02*
X11489000Y-7973000D01*
D30*
X17531000Y-9063500D02*
X17531000Y-8651500D01*
X17086000Y-8974500D02*
X17086000Y-8525500D01*
X17089000Y-8512000D02*
X16875000Y-8512000D01*
D31*
X16081500Y-8090000D02*
X16081500Y-8202500D01*
X13472000Y-11208000D02*
X13301000Y-11208000D01*
D30*
X17337000Y-11785500D02*
X17337000Y-11650500D01*
D31*
X10698000Y-8102500D02*
X10698000Y-7968000D01*
X10413468Y-9249032D02*
X10413468Y-9649500D01*
D30*
X17411000Y-11786500D02*
X17411000Y-11651500D01*
D33*
X15240000Y-8196000D02*
X15240000Y-8518532D01*
D34*
X13771032Y-12316500D02*
X13771032Y-12433468D01*
D30*
X17074000Y-8670000D02*
X16860000Y-8670000D01*
X17158000Y-11373000D02*
X17158000Y-11238000D01*
D34*
X13822000Y-12322000D02*
X13822000Y-12382500D01*
D31*
X15460000Y-12221000D02*
X15460000Y-12390500D01*
X15959500Y-12341000D02*
X15964500Y-12346000D01*
D30*
X17414500Y-8905000D02*
X17416000Y-8903500D01*
X17465000Y-11069000D02*
X17465000Y-10905000D01*
X17130000Y-8905000D02*
X17414500Y-8905000D01*
D31*
X15456750Y-12517000D02*
X15951250Y-12517000D01*
D30*
X17415000Y-11878500D02*
X17415000Y-11743500D01*
X17115000Y-11268000D02*
X17115000Y-11133000D01*
D33*
X13864000Y-9491000D02*
X13864000Y-9818500D01*
X9896500Y-10856000D02*
X9987000Y-10856000D01*
D30*
X17486000Y-11788500D02*
X17486000Y-11653500D01*
D31*
X13490000Y-11038000D02*
X13490000Y-11190000D01*
D30*
X17431500Y-11761000D02*
X17295000Y-11761000D01*
X17563000Y-9094000D02*
X17349000Y-9094000D01*
X17380000Y-11882500D02*
X17380000Y-11746000D01*
D33*
X9897000Y-10762500D02*
X9987500Y-10762500D01*
D30*
X17334000Y-11092000D02*
X17334000Y-10878000D01*
X17469000Y-10901000D02*
X17469000Y-10893000D01*
D35*
%TO.N,ENC_A*%
X12065000Y-9038000D02*
X11937468Y-8910468D01*
D31*
X11937468Y-8748000D02*
X11937468Y-8628000D01*
D35*
X14965000Y-9038000D02*
X12065000Y-9038000D01*
X15996000Y-8908000D02*
X15825000Y-8908000D01*
X11937468Y-8910468D02*
X11937468Y-8628000D01*
X15825000Y-8908000D02*
X15540000Y-9193000D01*
X15120000Y-9193000D02*
X14965000Y-9038000D01*
X15540000Y-9193000D02*
X15120000Y-9193000D01*
%TO.N,ENC_B*%
X12117000Y-8969000D02*
X15005000Y-8969000D01*
D31*
X11919000Y-8376000D02*
X11989000Y-8446000D01*
D35*
X15149000Y-9113000D02*
X15516000Y-9113000D01*
D36*
X11937468Y-8374000D02*
X11923468Y-8360000D01*
D35*
X15516000Y-9113000D02*
X15972000Y-8657000D01*
X15939000Y-8654000D02*
X15996000Y-8654000D01*
X11937468Y-8394468D02*
X12062000Y-8519000D01*
X12062000Y-8914000D02*
X12117000Y-8969000D01*
D31*
X11937000Y-8373532D02*
X11937468Y-8374000D01*
D35*
X15005000Y-8969000D02*
X15149000Y-9113000D01*
X11937468Y-8374000D02*
X11937468Y-8394468D01*
X15972000Y-8657000D02*
X16000000Y-8657000D01*
X12062000Y-8519000D02*
X12062000Y-8914000D01*
%TO.N,ENC_P*%
X15182000Y-9042000D02*
X15494000Y-9042000D01*
X14096000Y-8796000D02*
X14189000Y-8889000D01*
X15494000Y-9042000D02*
X15718000Y-8818000D01*
X15718000Y-8672000D02*
X15990000Y-8400000D01*
X15029000Y-8889000D02*
X15182000Y-9042000D01*
X15718000Y-8818000D02*
X15718000Y-8672000D01*
X15990000Y-8400000D02*
X15996000Y-8400000D01*
D31*
X13961000Y-8369000D02*
X14031000Y-8439000D01*
D35*
X13977000Y-8374000D02*
X14096000Y-8493000D01*
D37*
X14096000Y-8493000D02*
X14096000Y-8796000D01*
D35*
X13969468Y-8374000D02*
X13977000Y-8374000D01*
X14189000Y-8889000D02*
X15029000Y-8889000D01*
%TO.N,SSD1309_CS*%
X10354000Y-10677000D02*
X10559000Y-10677000D01*
D33*
X10667468Y-10914000D02*
X10667468Y-10878500D01*
D35*
X10267000Y-10590000D02*
X10354000Y-10677000D01*
X10048468Y-9239500D02*
X10183468Y-9239500D01*
X10667468Y-10785468D02*
X10667468Y-10878500D01*
D33*
X9938468Y-9239500D02*
X10048468Y-9239500D01*
D35*
X10183468Y-9239500D02*
X10267000Y-9323032D01*
X10559000Y-10677000D02*
X10667468Y-10785468D01*
X10267000Y-9323032D02*
X10267000Y-10590000D01*
D36*
%TO.N,D8*%
X13207468Y-8628000D02*
X13238000Y-8628000D01*
X13334000Y-8161000D02*
X13460000Y-8035000D01*
X13238000Y-8628000D02*
X13334000Y-8532000D01*
X13334000Y-8532000D02*
X13334000Y-8161000D01*
%TO.N,D9*%
X13207468Y-8374000D02*
X13207468Y-8036468D01*
X13207468Y-8036468D02*
X13206000Y-8035000D01*
D35*
%TO.N,A_SDA*%
X12846000Y-9148500D02*
X12838000Y-9140500D01*
X12047000Y-9140500D02*
X11990500Y-9140500D01*
X11825532Y-8975532D02*
X11805000Y-8955000D01*
X12047000Y-9140500D02*
X11986500Y-9140500D01*
X11683468Y-8833468D02*
X11683468Y-8710000D01*
X11805000Y-8955000D02*
X11683468Y-8833468D01*
X11986500Y-9140500D02*
X11923500Y-9077500D01*
X12838000Y-9140500D02*
X12047000Y-9140500D01*
D31*
X11683468Y-8628000D02*
X11683468Y-8710000D01*
D35*
X11990500Y-9140500D02*
X11805000Y-8955000D01*
D31*
%TO.N,A_SCL*%
X11683468Y-8374000D02*
X11613468Y-8444000D01*
D35*
X13098968Y-9236500D02*
X12164000Y-9236500D01*
X11743532Y-9009532D02*
X11682000Y-8948000D01*
D38*
X13095000Y-11099000D02*
X13101000Y-11105000D01*
D35*
X13099968Y-9235500D02*
X13098968Y-9236500D01*
X13096000Y-11100000D02*
X13101000Y-11105000D01*
X11970500Y-9236500D02*
X12164000Y-9236500D01*
X11613468Y-8444000D02*
X11557000Y-8500468D01*
X11557000Y-8823000D02*
X11970500Y-9236500D01*
X11557000Y-8500468D02*
X11557000Y-8823000D01*
%TO.N,A_SEN*%
X11561000Y-9071000D02*
X11303000Y-8813000D01*
D31*
X11429468Y-8374000D02*
X11363468Y-8440000D01*
D35*
X11561000Y-9071000D02*
X11561000Y-9071500D01*
X11303000Y-8500468D02*
X11363468Y-8440000D01*
X11561000Y-9071500D02*
X11904000Y-9414500D01*
X11303000Y-8813000D02*
X11303000Y-8500468D01*
X13345018Y-9414500D02*
X11904000Y-9414500D01*
X13353968Y-9423450D02*
X13345018Y-9414500D01*
%TO.N,A_RST*%
X13391500Y-9333000D02*
X13437000Y-9378500D01*
D36*
X11429468Y-8770468D02*
X11429468Y-8707000D01*
D35*
X13437000Y-9378500D02*
X13604000Y-9378500D01*
X11945000Y-9333000D02*
X13391500Y-9333000D01*
X11429468Y-8817468D02*
X11945000Y-9333000D01*
X11429468Y-8707000D02*
X11429468Y-8817468D01*
D31*
X11429468Y-8628000D02*
X11429468Y-8707000D01*
D36*
%TO.N,D12*%
X12444000Y-8127000D02*
X12491000Y-8174000D01*
X12444000Y-8035000D02*
X12444000Y-8127000D01*
X12740000Y-8174000D02*
X12820000Y-8254000D01*
X12820000Y-8519000D02*
X12711000Y-8628000D01*
X12491000Y-8174000D02*
X12740000Y-8174000D01*
X12711000Y-8628000D02*
X12699468Y-8628000D01*
X12820000Y-8254000D02*
X12820000Y-8519000D01*
%TO.N,D13*%
X12554000Y-8214000D02*
X12251000Y-8214000D01*
X12251000Y-8214000D02*
X12190000Y-8153000D01*
X12190000Y-8153000D02*
X12190000Y-8035000D01*
X12699468Y-8374000D02*
X12699468Y-8359468D01*
X12699468Y-8359468D02*
X12554000Y-8214000D01*
%TO.N,D4*%
X14057000Y-8200000D02*
X14222000Y-8035000D01*
X13715468Y-8628000D02*
X13755000Y-8628000D01*
X13755000Y-8628000D02*
X13847000Y-8536000D01*
X13847000Y-8307000D02*
X13954000Y-8200000D01*
X13847000Y-8536000D02*
X13847000Y-8307000D01*
X13954000Y-8200000D02*
X14057000Y-8200000D01*
D35*
%TO.N,SSD1309_DC*%
X9659000Y-10917000D02*
X9659000Y-9553968D01*
X9659000Y-9553968D02*
X9719468Y-9493500D01*
D33*
X10401468Y-11930000D02*
X10365968Y-11894500D01*
D35*
X9913000Y-11171000D02*
X9659000Y-10917000D01*
X10365968Y-11894500D02*
X9913000Y-11441532D01*
X9719468Y-9493500D02*
X9859968Y-9493500D01*
D33*
X9938468Y-9493500D02*
X9859968Y-9493500D01*
D35*
X9913000Y-11441532D02*
X9913000Y-11171000D01*
D33*
X10413468Y-11930000D02*
X10401468Y-11930000D01*
D35*
%TO.N,SSD1309_RST*%
X9776500Y-9747500D02*
X9938468Y-9747500D01*
D33*
X9938468Y-9747500D02*
X9895468Y-9747500D01*
D35*
X9739000Y-9785000D02*
X9776500Y-9747500D01*
D33*
X10413468Y-11422000D02*
X10318468Y-11422000D01*
D35*
X10110968Y-11419500D02*
X9989000Y-11297532D01*
X9989000Y-11297532D02*
X9989000Y-11161000D01*
X10293468Y-11419500D02*
X10110968Y-11419500D01*
X9989000Y-11161000D02*
X9739000Y-10911000D01*
X9739000Y-10911000D02*
X9739000Y-9785000D01*
D32*
%TO.N,12V_Main*%
X16227000Y-12355000D02*
X16227000Y-12093000D01*
D30*
X16131000Y-10608000D02*
X16135000Y-10604000D01*
X16660500Y-8895500D02*
X16670000Y-8905000D01*
D32*
X16664000Y-8602000D02*
X16660500Y-8605500D01*
X16227000Y-12093000D02*
X16227000Y-11931000D01*
X16499000Y-9477000D02*
X16562000Y-9414000D01*
X15774000Y-11533000D02*
X16131000Y-11176000D01*
X16135000Y-9542000D02*
X16200000Y-9477000D01*
X16562000Y-8905000D02*
X16670000Y-8905000D01*
X16135000Y-10604000D02*
X16135000Y-9542000D01*
X16213000Y-12107000D02*
X15846000Y-12107000D01*
D30*
X16227000Y-12093000D02*
X16213000Y-12107000D01*
D32*
X16562000Y-9414000D02*
X16562000Y-8905000D01*
X15846000Y-12107000D02*
X15774000Y-12035000D01*
X16200000Y-9477000D02*
X16499000Y-9477000D01*
X15774000Y-12035000D02*
X15774000Y-11533000D01*
X16131000Y-11176000D02*
X16131000Y-10608000D01*
X16660500Y-8605500D02*
X16660500Y-8895500D01*
D34*
%TO.N,D39*%
X11402468Y-11703500D02*
X11408468Y-11703500D01*
D36*
X11303468Y-12114500D02*
X11303468Y-11802000D01*
X11475968Y-12452000D02*
X11475968Y-12287000D01*
D34*
X11478468Y-12387000D02*
X11478468Y-12428000D01*
D36*
X11475968Y-12287000D02*
X11303468Y-12114500D01*
D34*
X11408468Y-11703500D02*
X11427468Y-11684500D01*
D36*
X11303468Y-11802000D02*
X11429468Y-11676000D01*
%TO.N,D40*%
X11221968Y-12452000D02*
X11221968Y-12255500D01*
D34*
X11225968Y-12432032D02*
X11224000Y-12434000D01*
D36*
X11175468Y-12209000D02*
X11175468Y-11930000D01*
D34*
X11170968Y-11933500D02*
X11170968Y-11974500D01*
X11225968Y-12377000D02*
X11225968Y-12432032D01*
D36*
X11221968Y-12255500D02*
X11175468Y-12209000D01*
%TO.N,D41*%
X10967968Y-12452000D02*
X10967968Y-12275000D01*
D34*
X11164468Y-11680500D02*
X11158468Y-11680500D01*
X10968468Y-12387000D02*
X10968468Y-12432468D01*
X11158468Y-11680500D02*
X11139468Y-11699500D01*
X10968468Y-12432468D02*
X10970000Y-12434000D01*
D36*
X10967968Y-12275000D02*
X11048468Y-12194500D01*
X11048468Y-12194500D02*
X11048468Y-11803000D01*
X11048468Y-11803000D02*
X11175468Y-11676000D01*
D34*
%TO.N,D42*%
X10713468Y-12394500D02*
X10713468Y-12431468D01*
X10713468Y-12431468D02*
X10716000Y-12434000D01*
D36*
X10713968Y-12452000D02*
X10713968Y-12306500D01*
D34*
X10918468Y-11936000D02*
X10918468Y-11977000D01*
D36*
X10713968Y-12306500D02*
X10921468Y-12099000D01*
X10921468Y-12099000D02*
X10921468Y-11930000D01*
D30*
%TO.N,Net-(D1-K)*%
X17416000Y-9216000D02*
X17411000Y-9221000D01*
X17313000Y-9535000D02*
X17322000Y-9544000D01*
D31*
X16900000Y-8905000D02*
X16900000Y-9221000D01*
D30*
X17322000Y-9862000D02*
X17309000Y-9875000D01*
X17322000Y-9544000D02*
X17322000Y-9760000D01*
X17377000Y-9875000D02*
X17309000Y-9875000D01*
X17412000Y-9910000D02*
X17377000Y-9875000D01*
X16900000Y-9535000D02*
X17313000Y-9535000D01*
X17412000Y-10144000D02*
X17412000Y-9910000D01*
X17151000Y-9875000D02*
X17257000Y-9875000D01*
X17322000Y-9760000D02*
X17322000Y-9810000D01*
X17309000Y-9875000D02*
X17151000Y-9875000D01*
D31*
X16900000Y-9221000D02*
X16900000Y-9535000D01*
X17411000Y-9221000D02*
X16900000Y-9221000D01*
D30*
X17322000Y-9760000D02*
X17322000Y-9862000D01*
D32*
%TO.N,12V*%
X16389000Y-11134000D02*
X16389000Y-10604000D01*
X15987000Y-11879500D02*
X15987000Y-11536000D01*
X16389000Y-10241000D02*
X16389000Y-9875000D01*
X16389000Y-10258000D02*
X16389000Y-10604000D01*
X15987000Y-11536000D02*
X16389000Y-11134000D01*
D31*
%TO.N,Wp*%
X10663468Y-8379000D02*
X10665000Y-8379000D01*
D36*
%TO.N,SSD1309_SCL*%
X10413468Y-10914000D02*
X10387718Y-10888250D01*
D33*
X10413468Y-10914000D02*
X10410468Y-10914000D01*
D35*
X10390000Y-10914000D02*
X10126000Y-10650000D01*
D33*
X10410468Y-10914000D02*
X10384718Y-10888250D01*
D35*
X10126000Y-10286000D02*
X10095500Y-10255500D01*
D36*
X10387718Y-10888250D02*
X10384718Y-10888250D01*
D35*
X10126000Y-10650000D02*
X10126000Y-10286000D01*
D33*
X9938468Y-10255500D02*
X9984468Y-10255500D01*
D35*
X10413468Y-10914000D02*
X10390000Y-10914000D01*
X10095500Y-10255500D02*
X9984468Y-10255500D01*
%TO.N,SSD1309_SDA*%
X10324000Y-10741000D02*
X10489968Y-10741000D01*
X10489968Y-10741000D02*
X10538468Y-10789500D01*
D33*
X10667468Y-11168000D02*
X10638718Y-11139250D01*
X9938468Y-10001500D02*
X9942968Y-9997000D01*
D37*
X10538468Y-10789500D02*
X10538468Y-11039000D01*
D35*
X10201000Y-10049532D02*
X10201000Y-10618000D01*
D33*
X9942968Y-9997000D02*
X10033468Y-9997000D01*
D35*
X10538468Y-11039000D02*
X10638718Y-11139250D01*
X10201000Y-10618000D02*
X10324000Y-10741000D01*
X10148468Y-9997000D02*
X10201000Y-10049532D01*
X10033468Y-9997000D02*
X10148468Y-9997000D01*
D36*
%TO.N,D43*%
X10459968Y-12255500D02*
X10523468Y-12192000D01*
D34*
X10458468Y-12402000D02*
X10458468Y-12430468D01*
D36*
X10523468Y-12192000D02*
X10655968Y-12192000D01*
X10790968Y-12057000D02*
X10790968Y-11806500D01*
D34*
X10905968Y-11690500D02*
X10886968Y-11709500D01*
X10458468Y-12430468D02*
X10462000Y-12434000D01*
D36*
X10790968Y-11806500D02*
X10921468Y-11676000D01*
D34*
X10911968Y-11690500D02*
X10905968Y-11690500D01*
D36*
X10459968Y-12452000D02*
X10459968Y-12255500D01*
X10655968Y-12192000D02*
X10790968Y-12057000D01*
D34*
%TO.N,D44*%
X10663468Y-11933500D02*
X10663468Y-11974500D01*
D36*
X10205968Y-12452000D02*
X10205968Y-12277000D01*
X10595968Y-12122000D02*
X10667468Y-12050500D01*
X10205968Y-12277000D02*
X10360968Y-12122000D01*
X10360968Y-12122000D02*
X10595968Y-12122000D01*
D34*
X10205968Y-12402000D02*
X10205968Y-12443000D01*
D36*
X10667468Y-12050500D02*
X10667468Y-11930000D01*
D30*
%TO.N,Net-(D1-A)*%
X17412000Y-10424000D02*
X17412000Y-10533000D01*
X17412000Y-10533000D02*
X17348000Y-10597000D01*
X17143000Y-10597000D02*
X17143000Y-10991000D01*
X17143000Y-10991000D02*
X17030000Y-10991000D01*
X17030000Y-10991000D02*
X17030000Y-11361500D01*
X17348000Y-10597000D02*
X17143000Y-10597000D01*
D39*
%TO.N,VCC_5V*%
X14426000Y-11463000D02*
X14370000Y-11463000D01*
D31*
X10416000Y-10262000D02*
X10416000Y-10145468D01*
D39*
X10967500Y-10463532D02*
X10967500Y-10172500D01*
D31*
X14984000Y-8626532D02*
X14984000Y-8375468D01*
D38*
X14426000Y-11463000D02*
X12588000Y-11463000D01*
D32*
X14984000Y-8372532D02*
X14984000Y-8035000D01*
D39*
X14990000Y-9281000D02*
X14991000Y-9280000D01*
D32*
X14985468Y-8374000D02*
X14984000Y-8372532D01*
D33*
X14984000Y-8035000D02*
X14985000Y-8036000D01*
D38*
X12221000Y-11463000D02*
X11446000Y-11463000D01*
D39*
X15996000Y-9162000D02*
X15996000Y-9190000D01*
D38*
X10937500Y-10327000D02*
X10456000Y-10327000D01*
X15996000Y-9162000D02*
X15996000Y-9415000D01*
X10967500Y-11344500D02*
X10967500Y-10535000D01*
D39*
X15730000Y-9280000D02*
X15844000Y-9166000D01*
D38*
X15714000Y-11285000D02*
X15536000Y-11463000D01*
D39*
X15844000Y-9166000D02*
X15992000Y-9166000D01*
D38*
X10967500Y-10535000D02*
X10967500Y-10172500D01*
X10456000Y-10327000D02*
X10455000Y-10328000D01*
D31*
X14985468Y-8628000D02*
X14984000Y-8626532D01*
X14990000Y-8632532D02*
X14985468Y-8628000D01*
D39*
X14991000Y-9280000D02*
X15730000Y-9280000D01*
D33*
X14985000Y-8036000D02*
X14985000Y-8651375D01*
D38*
X12589000Y-11109000D02*
X12589000Y-11462000D01*
D39*
X15992000Y-9166000D02*
X15996000Y-9162000D01*
D31*
X14137000Y-12434000D02*
X14018000Y-12434000D01*
D38*
X15536000Y-11463000D02*
X14801000Y-11463000D01*
X11446000Y-11463000D02*
X11086000Y-11463000D01*
X10413468Y-10286468D02*
X10413468Y-10152000D01*
D39*
X14472000Y-11565000D02*
X14472000Y-11509000D01*
X14472000Y-12099000D02*
X14472000Y-11565000D01*
D38*
X15714000Y-9697000D02*
X15714000Y-11285000D01*
X12589000Y-11462000D02*
X12588000Y-11463000D01*
X12588000Y-11463000D02*
X12221000Y-11463000D01*
D39*
X14472000Y-11509000D02*
X14426000Y-11463000D01*
D38*
X14370000Y-11463000D02*
X15536000Y-11463000D01*
D31*
X14984000Y-8375468D02*
X14985468Y-8374000D01*
D38*
X11086000Y-11463000D02*
X10967500Y-11344500D01*
X15996000Y-9415000D02*
X15714000Y-9697000D01*
D31*
X14191500Y-12379500D02*
X14137000Y-12434000D01*
D39*
X14370000Y-11463000D02*
X11086000Y-11463000D01*
D38*
X10967500Y-10357000D02*
X10937500Y-10327000D01*
X10455000Y-10328000D02*
X10413468Y-10286468D01*
D39*
X14191500Y-12379500D02*
X14472000Y-12099000D01*
D31*
%TO.N,Net-(J3-Pin_1)*%
X10967500Y-9880000D02*
X10967500Y-9717500D01*
X10738468Y-9715000D02*
X10965000Y-9715000D01*
X10667468Y-9644000D02*
X10738468Y-9715000D01*
D32*
X10667468Y-9644000D02*
X10667468Y-9365032D01*
D31*
X10967500Y-9717500D02*
X10965000Y-9715000D01*
D30*
%TO.N,Power_On*%
X16534000Y-11277000D02*
X16534000Y-11341000D01*
X16534000Y-11468500D02*
X16533500Y-11469000D01*
X16534000Y-11277000D02*
X16534000Y-11468500D01*
%TO.N,Net-(Q1-B)*%
X17092000Y-11762000D02*
X17092000Y-11552000D01*
X16838000Y-11457000D02*
X16826000Y-11469000D01*
X16997000Y-11457000D02*
X16970000Y-11457000D01*
X17218000Y-11457000D02*
X17051000Y-11457000D01*
X17092000Y-11552000D02*
X16997000Y-11457000D01*
X17051000Y-11457000D02*
X16838000Y-11457000D01*
%TD*%
%TA.AperFunction,Conductor*%
%TO.N,GND*%
G36*
X14336734Y-12112335D02*
G01*
X14342363Y-12113687D01*
X14346766Y-12117447D01*
X14348981Y-12122796D01*
X14348527Y-12128567D01*
X14345502Y-12133504D01*
X14203150Y-12275855D01*
X14198982Y-12278602D01*
X14194068Y-12279483D01*
X14183864Y-12279224D01*
X14169463Y-12281805D01*
X14167275Y-12282000D01*
X11528235Y-12282000D01*
X11523756Y-12281163D01*
X11513974Y-12277373D01*
X11510257Y-12275115D01*
X11507548Y-12271712D01*
X11507261Y-12271181D01*
X11507026Y-12270726D01*
X11504560Y-12265680D01*
X11503327Y-12264546D01*
X11500427Y-12261876D01*
X11500060Y-12261523D01*
X11371869Y-12133332D01*
X11368844Y-12128396D01*
X11368389Y-12122624D01*
X11370605Y-12117275D01*
X11375008Y-12113515D01*
X11380637Y-12112164D01*
X14336734Y-12112335D01*
G37*
%TD.AperFunction*%
%TA.AperFunction,Conductor*%
G36*
X10075375Y-10651629D02*
G01*
X10079853Y-10655430D01*
X10082079Y-10660866D01*
X10082555Y-10664025D01*
X10082716Y-10664515D01*
X10085669Y-10670101D01*
X10085878Y-10670515D01*
X10088618Y-10676206D01*
X10088918Y-10676629D01*
X10093385Y-10681095D01*
X10093706Y-10681429D01*
X10098004Y-10686061D01*
X10099493Y-10687203D01*
X10259626Y-10847336D01*
X10262882Y-10853075D01*
X10262734Y-10859671D01*
X10261715Y-10863065D01*
X10259194Y-10885433D01*
X10260262Y-10901267D01*
X10260709Y-10907891D01*
X10264848Y-10924319D01*
X10266209Y-10929719D01*
X10273788Y-10946405D01*
X10274898Y-10951534D01*
X10274865Y-11296413D01*
X10272964Y-11303009D01*
X10267845Y-11307584D01*
X10254071Y-11314217D01*
X10235861Y-11327447D01*
X10235861Y-11327448D01*
X10235861Y-11327448D01*
X10231121Y-11332405D01*
X10220305Y-11343718D01*
X10209620Y-11359904D01*
X10207905Y-11362503D01*
X10206015Y-11366924D01*
X10203316Y-11370883D01*
X10199316Y-11373524D01*
X10194613Y-11374450D01*
X10134765Y-11374450D01*
X10130020Y-11373506D01*
X10125997Y-11370818D01*
X10037682Y-11282503D01*
X10034994Y-11278480D01*
X10034050Y-11273735D01*
X10034050Y-11164226D01*
X10034128Y-11162838D01*
X10034527Y-11159297D01*
X10034042Y-11156735D01*
X10033463Y-11153674D01*
X10033387Y-11153226D01*
X10032535Y-11147571D01*
X10032535Y-11147571D01*
X10032445Y-11146974D01*
X10032284Y-11146485D01*
X10029331Y-11140898D01*
X10029121Y-11140484D01*
X10029072Y-11140380D01*
X10026643Y-11135336D01*
X10026642Y-11135336D01*
X10026381Y-11134793D01*
X10026082Y-11134371D01*
X10021615Y-11129905D01*
X10021293Y-11129571D01*
X10017900Y-11125914D01*
X10017406Y-11125381D01*
X10017405Y-11125381D01*
X10016996Y-11124939D01*
X10015507Y-11123797D01*
X9904710Y-11013000D01*
X9787682Y-10895972D01*
X9784994Y-10891949D01*
X9784050Y-10887204D01*
X9784050Y-10802991D01*
X9785451Y-10797265D01*
X9789338Y-10792833D01*
X9794832Y-10790697D01*
X9800691Y-10791338D01*
X9805592Y-10794613D01*
X9808428Y-10799781D01*
X9811125Y-10809849D01*
X9821108Y-10831258D01*
X9834658Y-10850608D01*
X9851360Y-10867311D01*
X9870711Y-10880860D01*
X9892119Y-10890843D01*
X9913468Y-10896564D01*
X9913468Y-10896564D01*
X9913468Y-10788500D01*
X9963468Y-10788500D01*
X9963468Y-10896564D01*
X9984818Y-10890843D01*
X10006226Y-10880860D01*
X10025576Y-10867311D01*
X10042279Y-10850608D01*
X10055828Y-10831258D01*
X10065811Y-10809849D01*
X10071532Y-10788500D01*
X9963468Y-10788500D01*
X9913468Y-10788500D01*
X9913468Y-10750900D01*
X9915130Y-10744700D01*
X9919668Y-10740161D01*
X9925868Y-10738500D01*
X10071532Y-10738500D01*
X10071532Y-10738500D01*
X10065811Y-10717151D01*
X10055828Y-10695742D01*
X10042279Y-10676392D01*
X10037685Y-10671798D01*
X10034670Y-10666893D01*
X10034195Y-10661156D01*
X10036362Y-10655823D01*
X10040704Y-10652043D01*
X10046285Y-10650631D01*
X10069650Y-10650315D01*
X10075375Y-10651629D01*
G37*
%TD.AperFunction*%
%TA.AperFunction,Conductor*%
G36*
X9833035Y-10654880D02*
G01*
X9837497Y-10658619D01*
X9839762Y-10663982D01*
X9839329Y-10669788D01*
X9836293Y-10674756D01*
X9834657Y-10676392D01*
X9821108Y-10695742D01*
X9811125Y-10717151D01*
X9808428Y-10727219D01*
X9805592Y-10732387D01*
X9800691Y-10735662D01*
X9794832Y-10736303D01*
X9789338Y-10734167D01*
X9785451Y-10729735D01*
X9784050Y-10724010D01*
X9784050Y-10666408D01*
X9785684Y-10660257D01*
X9790154Y-10655726D01*
X9796282Y-10654009D01*
X9798526Y-10653979D01*
X9827358Y-10653589D01*
X9833035Y-10654880D01*
G37*
%TD.AperFunction*%
%TA.AperFunction,Conductor*%
G36*
X15652354Y-8790000D02*
G01*
X15657983Y-8791351D01*
X15662385Y-8795111D01*
X15664601Y-8800460D01*
X15664147Y-8806232D01*
X15661122Y-8811168D01*
X15478972Y-8993318D01*
X15474949Y-8996006D01*
X15470203Y-8996950D01*
X15205796Y-8996950D01*
X15201051Y-8996006D01*
X15197028Y-8993318D01*
X15063137Y-8859427D01*
X15062210Y-8858390D01*
X15061771Y-8857839D01*
X15059988Y-8855603D01*
X15055261Y-8852380D01*
X15054887Y-8852115D01*
X15049803Y-8848363D01*
X15049342Y-8848130D01*
X15043305Y-8846268D01*
X15042864Y-8846123D01*
X15039854Y-8845070D01*
X15037470Y-8844235D01*
X15037470Y-8844235D01*
X15036902Y-8844037D01*
X15036391Y-8843950D01*
X15035790Y-8843950D01*
X15030074Y-8843950D01*
X15029610Y-8843941D01*
X15023297Y-8843705D01*
X15021436Y-8843950D01*
X14212796Y-8843950D01*
X14208051Y-8843006D01*
X14204028Y-8840318D01*
X14174842Y-8811132D01*
X14171817Y-8806196D01*
X14171363Y-8800424D01*
X14173579Y-8795075D01*
X14177981Y-8791315D01*
X14183610Y-8789964D01*
X15652354Y-8790000D01*
G37*
%TD.AperFunction*%
%TA.AperFunction,Conductor*%
G36*
X11826468Y-7778606D02*
G01*
X17640557Y-7781993D01*
X17646754Y-7783656D01*
X17651290Y-7788195D01*
X17652950Y-7794393D01*
X17652950Y-8028500D01*
X17652003Y-12699594D01*
X17650339Y-12705795D01*
X17645797Y-12710333D01*
X17639594Y-12711991D01*
X9078399Y-12706009D01*
X9072200Y-12704343D01*
X9067665Y-12699802D01*
X9066008Y-12693601D01*
X9066149Y-12462000D01*
X9819000Y-12462000D01*
X9819000Y-12526782D01*
X9819640Y-12532737D01*
X9824665Y-12546209D01*
X9833281Y-12557719D01*
X9844791Y-12566335D01*
X9858262Y-12571360D01*
X9864218Y-12572000D01*
X9929000Y-12572000D01*
X9929000Y-12462000D01*
X9819000Y-12462000D01*
X9066149Y-12462000D01*
X9066179Y-12412000D01*
X9819000Y-12412000D01*
X9929000Y-12412000D01*
X9929000Y-12302000D01*
X9864218Y-12302000D01*
X9858262Y-12302640D01*
X9844791Y-12307665D01*
X9833281Y-12316281D01*
X9824665Y-12327791D01*
X9819640Y-12341262D01*
X9819000Y-12347218D01*
X9819000Y-12412000D01*
X9066179Y-12412000D01*
X9066292Y-12227000D01*
X9255944Y-12227000D01*
X9257803Y-12250630D01*
X9263337Y-12273679D01*
X9266570Y-12281484D01*
X9272408Y-12295578D01*
X9284793Y-12315789D01*
X9300187Y-12333813D01*
X9318211Y-12349207D01*
X9338422Y-12361592D01*
X9354601Y-12368294D01*
X9360321Y-12370663D01*
X9364380Y-12371638D01*
X9383370Y-12376197D01*
X9407000Y-12378056D01*
X9430630Y-12376197D01*
X9453679Y-12370663D01*
X9475578Y-12361592D01*
X9495789Y-12349207D01*
X9513813Y-12333813D01*
X9529207Y-12315789D01*
X9541592Y-12295578D01*
X9550663Y-12273679D01*
X9556197Y-12250630D01*
X9558056Y-12227000D01*
X9556197Y-12203370D01*
X9550663Y-12180321D01*
X9550657Y-12180305D01*
X9548007Y-12173908D01*
X9541592Y-12158422D01*
X9529207Y-12138211D01*
X9513813Y-12120187D01*
X9495789Y-12104793D01*
X9475578Y-12092408D01*
X9466363Y-12088590D01*
X9453679Y-12083337D01*
X9430631Y-12077803D01*
X9407000Y-12075944D01*
X9383369Y-12077803D01*
X9360321Y-12083337D01*
X9338422Y-12092408D01*
X9318211Y-12104793D01*
X9300187Y-12120187D01*
X9284793Y-12138211D01*
X9272408Y-12158422D01*
X9263337Y-12180321D01*
X9257803Y-12203369D01*
X9255944Y-12227000D01*
X9066292Y-12227000D01*
X9066456Y-11957000D01*
X9791401Y-11957000D01*
X9793339Y-11980383D01*
X9793339Y-11980383D01*
X9793339Y-11980383D01*
X9799099Y-12003129D01*
X9801915Y-12009550D01*
X9808524Y-12024616D01*
X9808524Y-12024616D01*
X9821358Y-12044259D01*
X9837249Y-12061522D01*
X9855765Y-12075934D01*
X9876401Y-12087101D01*
X9880763Y-12088599D01*
X9898593Y-12094720D01*
X9898593Y-12094720D01*
X9898593Y-12094720D01*
X9921737Y-12098582D01*
X9945200Y-12098582D01*
X9945200Y-12098582D01*
X9968344Y-12094720D01*
X9990536Y-12087101D01*
X10011172Y-12075934D01*
X10029688Y-12061522D01*
X10045579Y-12044259D01*
X10058413Y-12024616D01*
X10067838Y-12003129D01*
X10073598Y-11980383D01*
X10075535Y-11957000D01*
X10073598Y-11933616D01*
X10067838Y-11910871D01*
X10058413Y-11889384D01*
X10045579Y-11869741D01*
X10029688Y-11852478D01*
X10011172Y-11838066D01*
X9990536Y-11826899D01*
X9990536Y-11826899D01*
X9990536Y-11826899D01*
X9968344Y-11819280D01*
X9948695Y-11816001D01*
X9945200Y-11815418D01*
X9921737Y-11815418D01*
X9918242Y-11816001D01*
X9898593Y-11819280D01*
X9876401Y-11826899D01*
X9876401Y-11826899D01*
X9876401Y-11826899D01*
X9862644Y-11834344D01*
X9855765Y-11838066D01*
X9837249Y-11852478D01*
X9825346Y-11865408D01*
X9821358Y-11869741D01*
X9820316Y-11871334D01*
X9808524Y-11889384D01*
X9804087Y-11899500D01*
X9799099Y-11910871D01*
X9793339Y-11933616D01*
X9793339Y-11933617D01*
X9791401Y-11957000D01*
X9066456Y-11957000D01*
X9067088Y-10918703D01*
X9613473Y-10918703D01*
X9614536Y-10924319D01*
X9614613Y-10924777D01*
X9615555Y-10931025D01*
X9615716Y-10931515D01*
X9618669Y-10937101D01*
X9618878Y-10937515D01*
X9621618Y-10943206D01*
X9621918Y-10943629D01*
X9626385Y-10948095D01*
X9626706Y-10948429D01*
X9631004Y-10953061D01*
X9632493Y-10954203D01*
X9864318Y-11186028D01*
X9867006Y-11190051D01*
X9867950Y-11194797D01*
X9867950Y-11438305D01*
X9867872Y-11439694D01*
X9867473Y-11443235D01*
X9868536Y-11448851D01*
X9868613Y-11449308D01*
X9869555Y-11455556D01*
X9869716Y-11456046D01*
X9872669Y-11461633D01*
X9872878Y-11462047D01*
X9875618Y-11467738D01*
X9875918Y-11468160D01*
X9880385Y-11472627D01*
X9880706Y-11472961D01*
X9885004Y-11477592D01*
X9886493Y-11478735D01*
X10210909Y-11803151D01*
X10213602Y-11807184D01*
X10214541Y-11811941D01*
X10214073Y-12077803D01*
X10214013Y-12112096D01*
X10291364Y-12112101D01*
X10296993Y-12113453D01*
X10301395Y-12117213D01*
X10303610Y-12122561D01*
X10303156Y-12128333D01*
X10300131Y-12133269D01*
X10184664Y-12248736D01*
X10182679Y-12250348D01*
X10181902Y-12250856D01*
X10180118Y-12253147D01*
X10179145Y-12254250D01*
X10178012Y-12255836D01*
X10177708Y-12256244D01*
X10177144Y-12256968D01*
X10174257Y-12260677D01*
X10172655Y-12266058D01*
X10172499Y-12266546D01*
X10170247Y-12273108D01*
X10170001Y-12273024D01*
X10169257Y-12275800D01*
X10164718Y-12280339D01*
X10158518Y-12282000D01*
X10074000Y-12282000D01*
X10074000Y-12293830D01*
X10072588Y-12299578D01*
X10068672Y-12304016D01*
X10063145Y-12306133D01*
X10057267Y-12305448D01*
X10049738Y-12302640D01*
X10043782Y-12302000D01*
X9979000Y-12302000D01*
X9979000Y-12572000D01*
X10043782Y-12572000D01*
X10049738Y-12571360D01*
X10063209Y-12566335D01*
X10065695Y-12564474D01*
X10069206Y-12562637D01*
X10073117Y-12562001D01*
X10074000Y-12562000D01*
X13704167Y-12559342D01*
X13709417Y-12560504D01*
X13717651Y-12564343D01*
X13739000Y-12570063D01*
X13739554Y-12569638D01*
X13740660Y-12565510D01*
X13745195Y-12560971D01*
X13751391Y-12559307D01*
X13776591Y-12559289D01*
X13782795Y-12560947D01*
X13787337Y-12565486D01*
X13788451Y-12569643D01*
X13789000Y-12570063D01*
X13810349Y-12564343D01*
X13818771Y-12560416D01*
X13824002Y-12559254D01*
X14171000Y-12559000D01*
X14171000Y-12536856D01*
X14172714Y-12530566D01*
X14177381Y-12526015D01*
X14178602Y-12525337D01*
X14179319Y-12524939D01*
X14180736Y-12524266D01*
X14183562Y-12523138D01*
X14188488Y-12519891D01*
X14189291Y-12519404D01*
X14194450Y-12516541D01*
X14196759Y-12514559D01*
X14198011Y-12513614D01*
X14200552Y-12511940D01*
X14204725Y-12507767D01*
X14205412Y-12507130D01*
X14209889Y-12503287D01*
X14211752Y-12500880D01*
X14212788Y-12499704D01*
X14265834Y-12446658D01*
X14275470Y-12434841D01*
X14284891Y-12416805D01*
X14290489Y-12397242D01*
X14290903Y-12391805D01*
X14292129Y-12375695D01*
X14292325Y-12375710D01*
X14292692Y-12372095D01*
X14295658Y-12367337D01*
X14448088Y-12214906D01*
X15034995Y-12214906D01*
X15034998Y-12378056D01*
X15035000Y-12497500D01*
X16400000Y-12497500D01*
X16400954Y-12227000D01*
X17145944Y-12227000D01*
X17147803Y-12250630D01*
X17153337Y-12273679D01*
X17156570Y-12281484D01*
X17162408Y-12295578D01*
X17174793Y-12315789D01*
X17190187Y-12333813D01*
X17208211Y-12349207D01*
X17228422Y-12361592D01*
X17244601Y-12368294D01*
X17250321Y-12370663D01*
X17254380Y-12371638D01*
X17273370Y-12376197D01*
X17297000Y-12378056D01*
X17320630Y-12376197D01*
X17343679Y-12370663D01*
X17365578Y-12361592D01*
X17385789Y-12349207D01*
X17403813Y-12333813D01*
X17419207Y-12315789D01*
X17431592Y-12295578D01*
X17440663Y-12273679D01*
X17446197Y-12250630D01*
X17448056Y-12227000D01*
X17446197Y-12203370D01*
X17440663Y-12180321D01*
X17440657Y-12180305D01*
X17438007Y-12173908D01*
X17431592Y-12158422D01*
X17419207Y-12138211D01*
X17403813Y-12120187D01*
X17385789Y-12104793D01*
X17365578Y-12092408D01*
X17356363Y-12088590D01*
X17343679Y-12083337D01*
X17320631Y-12077803D01*
X17297000Y-12075944D01*
X17273369Y-12077803D01*
X17250321Y-12083337D01*
X17228422Y-12092408D01*
X17208211Y-12104793D01*
X17190187Y-12120187D01*
X17174793Y-12138211D01*
X17162408Y-12158422D01*
X17153337Y-12180321D01*
X17147803Y-12203369D01*
X17145944Y-12227000D01*
X16400954Y-12227000D01*
X16401000Y-12214000D01*
X16324458Y-12214051D01*
X16318255Y-12212392D01*
X16313713Y-12207853D01*
X16312050Y-12201651D01*
X16312050Y-12001950D01*
X16313711Y-11995750D01*
X16318250Y-11991211D01*
X16324450Y-11989550D01*
X16328467Y-11989550D01*
X16330903Y-11989065D01*
X16335774Y-11988097D01*
X16344060Y-11982560D01*
X16349597Y-11974274D01*
X16350546Y-11969500D01*
X16549401Y-11969500D01*
X16551339Y-11992883D01*
X16551339Y-11992883D01*
X16551339Y-11992883D01*
X16557099Y-12015629D01*
X16558278Y-12018318D01*
X16566524Y-12037116D01*
X16566524Y-12037116D01*
X16579357Y-12056759D01*
X16595249Y-12074022D01*
X16613765Y-12088434D01*
X16634401Y-12099601D01*
X16645497Y-12103410D01*
X16656592Y-12107220D01*
X16656593Y-12107220D01*
X16656593Y-12107220D01*
X16679736Y-12111082D01*
X16703200Y-12111082D01*
X16703200Y-12111082D01*
X16726344Y-12107220D01*
X16748536Y-12099601D01*
X16769172Y-12088434D01*
X16787688Y-12074022D01*
X16803579Y-12056759D01*
X16816413Y-12037116D01*
X16825838Y-12015629D01*
X16831598Y-11992883D01*
X16833535Y-11969500D01*
X16831598Y-11946116D01*
X16825838Y-11923371D01*
X16816413Y-11901884D01*
X16803579Y-11882241D01*
X16787688Y-11864978D01*
X16769172Y-11850566D01*
X16748536Y-11839399D01*
X16748536Y-11839399D01*
X16748535Y-11839399D01*
X16726344Y-11831780D01*
X16706695Y-11828501D01*
X16703200Y-11827918D01*
X16679736Y-11827918D01*
X16676242Y-11828501D01*
X16656592Y-11831780D01*
X16634401Y-11839399D01*
X16634401Y-11839399D01*
X16634401Y-11839399D01*
X16630405Y-11841561D01*
X16613765Y-11850566D01*
X16595249Y-11864978D01*
X16581880Y-11879500D01*
X16579357Y-11882241D01*
X16578383Y-11883732D01*
X16566524Y-11901884D01*
X16560712Y-11915135D01*
X16557099Y-11923371D01*
X16553475Y-11937682D01*
X16551339Y-11946117D01*
X16549401Y-11969500D01*
X16350546Y-11969500D01*
X16351050Y-11966967D01*
X16351050Y-11792033D01*
X16349597Y-11784726D01*
X16344060Y-11776440D01*
X16335774Y-11770903D01*
X16335774Y-11770903D01*
X16335774Y-11770903D01*
X16328467Y-11769450D01*
X16328467Y-11769450D01*
X16153533Y-11769450D01*
X16153532Y-11769450D01*
X16146226Y-11770903D01*
X16137940Y-11776440D01*
X16132403Y-11784726D01*
X16130950Y-11792032D01*
X16130950Y-11966967D01*
X16132403Y-11974274D01*
X16132403Y-11974274D01*
X16132403Y-11974274D01*
X16137940Y-11982560D01*
X16139310Y-11984611D01*
X16139246Y-11984654D01*
X16140486Y-11986022D01*
X16141950Y-11991867D01*
X16141950Y-12009550D01*
X16140289Y-12015750D01*
X16135750Y-12020289D01*
X16129550Y-12021950D01*
X15886365Y-12021950D01*
X15881620Y-12021006D01*
X15877597Y-12018318D01*
X15862682Y-12003403D01*
X15859994Y-11999380D01*
X15859050Y-11994635D01*
X15859050Y-11920832D01*
X15860436Y-11915135D01*
X15864286Y-11910711D01*
X15869737Y-11908551D01*
X15875571Y-11909137D01*
X15880484Y-11912338D01*
X15883377Y-11917439D01*
X15883942Y-11919425D01*
X15893032Y-11937682D01*
X15905324Y-11953958D01*
X15920396Y-11967698D01*
X15937736Y-11978435D01*
X15937736Y-11978435D01*
X15956754Y-11985802D01*
X15976802Y-11989550D01*
X15997197Y-11989550D01*
X15997198Y-11989550D01*
X16017246Y-11985802D01*
X16036264Y-11978435D01*
X16053604Y-11967698D01*
X16068676Y-11953958D01*
X16080967Y-11937682D01*
X16080967Y-11937682D01*
X16080967Y-11937682D01*
X16089357Y-11920832D01*
X16090058Y-11919425D01*
X16095640Y-11899808D01*
X16097521Y-11879500D01*
X16095640Y-11859192D01*
X16090058Y-11839575D01*
X16086177Y-11831780D01*
X16080967Y-11821318D01*
X16074555Y-11812826D01*
X16072693Y-11809294D01*
X16072050Y-11805353D01*
X16072050Y-11576365D01*
X16072994Y-11571620D01*
X16075682Y-11567597D01*
X16124992Y-11518287D01*
X16452200Y-11518287D01*
X16452841Y-11524248D01*
X16453728Y-11526626D01*
X16457870Y-11537733D01*
X16466495Y-11549255D01*
X16478017Y-11557880D01*
X16491502Y-11562909D01*
X16497463Y-11563550D01*
X16569537Y-11563550D01*
X16575498Y-11562909D01*
X16588983Y-11557880D01*
X16600505Y-11549255D01*
X16609130Y-11537733D01*
X16614159Y-11524248D01*
X16614800Y-11518287D01*
X16614800Y-11383713D01*
X16614159Y-11377752D01*
X16609130Y-11364267D01*
X16600505Y-11352745D01*
X16599920Y-11352308D01*
X16594019Y-11347890D01*
X16590362Y-11343514D01*
X16589050Y-11337963D01*
X16589050Y-11315622D01*
X16589611Y-11311933D01*
X16591245Y-11308578D01*
X16591343Y-11308435D01*
X16592022Y-11307452D01*
X16597624Y-11292682D01*
X16599528Y-11277000D01*
X16597624Y-11261318D01*
X16592022Y-11246548D01*
X16583048Y-11233547D01*
X16571224Y-11223072D01*
X16569899Y-11222376D01*
X16557236Y-11215730D01*
X16541898Y-11211950D01*
X16526101Y-11211950D01*
X16510763Y-11215730D01*
X16496776Y-11223072D01*
X16484951Y-11233547D01*
X16475978Y-11246548D01*
X16470376Y-11261318D01*
X16468472Y-11277000D01*
X16470376Y-11292682D01*
X16475978Y-11307452D01*
X16476755Y-11308578D01*
X16478388Y-11311933D01*
X16478950Y-11315622D01*
X16478950Y-11337215D01*
X16477638Y-11342765D01*
X16473981Y-11347142D01*
X16466495Y-11352745D01*
X16457870Y-11364267D01*
X16452841Y-11377752D01*
X16452200Y-11383713D01*
X16452200Y-11518287D01*
X16124992Y-11518287D01*
X16134512Y-11508766D01*
X16446339Y-11196940D01*
X16447077Y-11196259D01*
X16451110Y-11192834D01*
X16455911Y-11186517D01*
X16456113Y-11186259D01*
X16461084Y-11180075D01*
X16461084Y-11180075D01*
X16461092Y-11180066D01*
X16462300Y-11178118D01*
X16462305Y-11178107D01*
X16462305Y-11178106D01*
X16465636Y-11170908D01*
X16465779Y-11170608D01*
X16466549Y-11169057D01*
X16469304Y-11163502D01*
X16469304Y-11163502D01*
X16469309Y-11163490D01*
X16470071Y-11161328D01*
X16470518Y-11159297D01*
X16471778Y-11153571D01*
X16471855Y-11153245D01*
X16473266Y-11147571D01*
X16473768Y-11145549D01*
X16473768Y-11145549D01*
X16473771Y-11145538D01*
X16474050Y-11143262D01*
X16474050Y-11135323D01*
X16474054Y-11134987D01*
X16474190Y-11130000D01*
X16474269Y-11127057D01*
X16474269Y-11127057D01*
X16474270Y-11127045D01*
X16474050Y-11124735D01*
X16474050Y-10822594D01*
X16475711Y-10816394D01*
X16480250Y-10811856D01*
X16486450Y-10810194D01*
X17075550Y-10810194D01*
X17081750Y-10811856D01*
X17086289Y-10816394D01*
X17087950Y-10822594D01*
X17087950Y-10870018D01*
X17086949Y-10874900D01*
X17084107Y-10878993D01*
X17082605Y-10879933D01*
X17082694Y-10880052D01*
X17069745Y-10889745D01*
X17061120Y-10901267D01*
X17056091Y-10914752D01*
X17056091Y-10914752D01*
X17055473Y-10920502D01*
X17055450Y-10920713D01*
X17055450Y-10923550D01*
X17053789Y-10929750D01*
X17049250Y-10934289D01*
X17043050Y-10935950D01*
X17032306Y-10935950D01*
X17031459Y-10935921D01*
X17026208Y-10935562D01*
X17021054Y-10936633D01*
X17020221Y-10936776D01*
X17015008Y-10937493D01*
X17014428Y-10937745D01*
X17012012Y-10938512D01*
X17011392Y-10938641D01*
X17006717Y-10941063D01*
X17005953Y-10941426D01*
X17001128Y-10943522D01*
X17000637Y-10943921D01*
X16998518Y-10945311D01*
X16997955Y-10945603D01*
X16994110Y-10949194D01*
X16993472Y-10949751D01*
X16989389Y-10953072D01*
X16989024Y-10953590D01*
X16987358Y-10955500D01*
X16986896Y-10955932D01*
X16984161Y-10960428D01*
X16983697Y-10961136D01*
X16980662Y-10965436D01*
X16980450Y-10966032D01*
X16979362Y-10968321D01*
X16979033Y-10968862D01*
X16977613Y-10973928D01*
X16977357Y-10974735D01*
X16975595Y-10979694D01*
X16975551Y-10980326D01*
X16975121Y-10982824D01*
X16974950Y-10983433D01*
X16974950Y-10988695D01*
X16974921Y-10989541D01*
X16974562Y-10994792D01*
X16974691Y-10995411D01*
X16974950Y-10997934D01*
X16974950Y-11295353D01*
X16973599Y-11300983D01*
X16969839Y-11305385D01*
X16964490Y-11307601D01*
X16959220Y-11308435D01*
X16947916Y-11314195D01*
X16938945Y-11323166D01*
X16933185Y-11334470D01*
X16931700Y-11343848D01*
X16931700Y-11379329D01*
X16930148Y-11385336D01*
X16925879Y-11389840D01*
X16919964Y-11391711D01*
X16913882Y-11390482D01*
X16909156Y-11386461D01*
X16906971Y-11380654D01*
X16906659Y-11377752D01*
X16901630Y-11364267D01*
X16893005Y-11352745D01*
X16881483Y-11344120D01*
X16867998Y-11339091D01*
X16862037Y-11338450D01*
X16862037Y-11338450D01*
X16789963Y-11338450D01*
X16784002Y-11339091D01*
X16770517Y-11344120D01*
X16758995Y-11352745D01*
X16750370Y-11364267D01*
X16745341Y-11377752D01*
X16744700Y-11383713D01*
X16744700Y-11518287D01*
X16745341Y-11524248D01*
X16746228Y-11526626D01*
X16750370Y-11537733D01*
X16758995Y-11549255D01*
X16770517Y-11557880D01*
X16784002Y-11562909D01*
X16789963Y-11563550D01*
X16862037Y-11563550D01*
X16867998Y-11562909D01*
X16881483Y-11557880D01*
X16893005Y-11549255D01*
X16901630Y-11537733D01*
X16906659Y-11524248D01*
X16906780Y-11523124D01*
X16908840Y-11517500D01*
X16913296Y-11513497D01*
X16919109Y-11512050D01*
X16962434Y-11512050D01*
X16969061Y-11512050D01*
X16973807Y-11512994D01*
X16977829Y-11515682D01*
X17033318Y-11571171D01*
X17036006Y-11575193D01*
X17036950Y-11579939D01*
X17036950Y-11648589D01*
X17035638Y-11654140D01*
X17031981Y-11658516D01*
X17024995Y-11663745D01*
X17016370Y-11675267D01*
X17011341Y-11688751D01*
X17011341Y-11688752D01*
X17010723Y-11694502D01*
X17010700Y-11694713D01*
X17010700Y-11829287D01*
X17011341Y-11835248D01*
X17013027Y-11839769D01*
X17016370Y-11848733D01*
X17024995Y-11860255D01*
X17036517Y-11868880D01*
X17050002Y-11873909D01*
X17055963Y-11874550D01*
X17128037Y-11874550D01*
X17133998Y-11873909D01*
X17147483Y-11868880D01*
X17159005Y-11860255D01*
X17167630Y-11848733D01*
X17172659Y-11835248D01*
X17173300Y-11829287D01*
X17173300Y-11787000D01*
X17278250Y-11787000D01*
X17278250Y-11829498D01*
X17279299Y-11839769D01*
X17284814Y-11856412D01*
X17294018Y-11871334D01*
X17306415Y-11883732D01*
X17321338Y-11892936D01*
X17337980Y-11898451D01*
X17348252Y-11899500D01*
X17359500Y-11899500D01*
X17359500Y-11787000D01*
X17409500Y-11787000D01*
X17409500Y-11899500D01*
X17420748Y-11899500D01*
X17431020Y-11898451D01*
X17447662Y-11892936D01*
X17462585Y-11883732D01*
X17474982Y-11871334D01*
X17484186Y-11856412D01*
X17489701Y-11839770D01*
X17490750Y-11829498D01*
X17490750Y-11787000D01*
X17409500Y-11787000D01*
X17359500Y-11787000D01*
X17278250Y-11787000D01*
X17173300Y-11787000D01*
X17173300Y-11737000D01*
X17278250Y-11737000D01*
X17359500Y-11737000D01*
X17359500Y-11624500D01*
X17348252Y-11624500D01*
X17337980Y-11625549D01*
X17321338Y-11631064D01*
X17306415Y-11640268D01*
X17294018Y-11652665D01*
X17284814Y-11667588D01*
X17279299Y-11684230D01*
X17278250Y-11694502D01*
X17278250Y-11737000D01*
X17173300Y-11737000D01*
X17173300Y-11694713D01*
X17172659Y-11688752D01*
X17167630Y-11675267D01*
X17159005Y-11663745D01*
X17153669Y-11659751D01*
X17152019Y-11658516D01*
X17148362Y-11654140D01*
X17147050Y-11648589D01*
X17147050Y-11624500D01*
X17409500Y-11624500D01*
X17409500Y-11737000D01*
X17490750Y-11737000D01*
X17490750Y-11694502D01*
X17489701Y-11684230D01*
X17484186Y-11667588D01*
X17474982Y-11652665D01*
X17462585Y-11640268D01*
X17447662Y-11631064D01*
X17431020Y-11625549D01*
X17420748Y-11624500D01*
X17409500Y-11624500D01*
X17147050Y-11624500D01*
X17147050Y-11553152D01*
X17147057Y-11552729D01*
X17147276Y-11546317D01*
X17146708Y-11543987D01*
X17146303Y-11542325D01*
X17146067Y-11541079D01*
X17145507Y-11537008D01*
X17144792Y-11535362D01*
X17144118Y-11533358D01*
X17143693Y-11531615D01*
X17143082Y-11530527D01*
X17141491Y-11524344D01*
X17143187Y-11518189D01*
X17147721Y-11513694D01*
X17153891Y-11512050D01*
X17223778Y-11512050D01*
X17223778Y-11512050D01*
X17279901Y-11512050D01*
X17279902Y-11512050D01*
X17289280Y-11510565D01*
X17300584Y-11504805D01*
X17309555Y-11495834D01*
X17315315Y-11484530D01*
X17316800Y-11475152D01*
X17316800Y-11438848D01*
X17315315Y-11429470D01*
X17311754Y-11422480D01*
X17309555Y-11418166D01*
X17300584Y-11409195D01*
X17289280Y-11403435D01*
X17279902Y-11401950D01*
X17279902Y-11401950D01*
X17225567Y-11401950D01*
X17225567Y-11401950D01*
X17140366Y-11401950D01*
X17135175Y-11400811D01*
X17130937Y-11397603D01*
X17128432Y-11392916D01*
X17128119Y-11387610D01*
X17129047Y-11381750D01*
X17129300Y-11380152D01*
X17129300Y-11357501D01*
X17130608Y-11351959D01*
X17134255Y-11347585D01*
X17139472Y-11345303D01*
X17145160Y-11345594D01*
X17149001Y-11346710D01*
X17152686Y-11347000D01*
X17193000Y-11347000D01*
X17193000Y-11292000D01*
X17243000Y-11292000D01*
X17243000Y-11347000D01*
X17283314Y-11347000D01*
X17286999Y-11346710D01*
X17302770Y-11342128D01*
X17316906Y-11333768D01*
X17328518Y-11322156D01*
X17336878Y-11308020D01*
X17341460Y-11292249D01*
X17341480Y-11292000D01*
X17243000Y-11292000D01*
X17193000Y-11292000D01*
X17193000Y-11187000D01*
X17243000Y-11187000D01*
X17243000Y-11242000D01*
X17341480Y-11242000D01*
X17341480Y-11242000D01*
X17341460Y-11241751D01*
X17336878Y-11225980D01*
X17328518Y-11211844D01*
X17316906Y-11200232D01*
X17302770Y-11191872D01*
X17286999Y-11187290D01*
X17283314Y-11187000D01*
X17243000Y-11187000D01*
X17193000Y-11187000D01*
X17152686Y-11187000D01*
X17149001Y-11187290D01*
X17133230Y-11191872D01*
X17119094Y-11200232D01*
X17106374Y-11212952D01*
X17106134Y-11212712D01*
X17103560Y-11215238D01*
X17097372Y-11216847D01*
X17091205Y-11215160D01*
X17086698Y-11210625D01*
X17085050Y-11204447D01*
X17085050Y-11112671D01*
X17086939Y-11106091D01*
X17092032Y-11101517D01*
X17098775Y-11100342D01*
X17100713Y-11100550D01*
X17185287Y-11100550D01*
X17191248Y-11099909D01*
X17204733Y-11094880D01*
X17216255Y-11086255D01*
X17224880Y-11074733D01*
X17229909Y-11061248D01*
X17230550Y-11055287D01*
X17230550Y-11013000D01*
X17310500Y-11013000D01*
X17310500Y-11055498D01*
X17311549Y-11065770D01*
X17317064Y-11082412D01*
X17326268Y-11097335D01*
X17338665Y-11109732D01*
X17353588Y-11118936D01*
X17370230Y-11124451D01*
X17380502Y-11125500D01*
X17398000Y-11125500D01*
X17398000Y-11013000D01*
X17448000Y-11013000D01*
X17448000Y-11125500D01*
X17465498Y-11125500D01*
X17475770Y-11124451D01*
X17492412Y-11118936D01*
X17507335Y-11109732D01*
X17519732Y-11097335D01*
X17528936Y-11082412D01*
X17534451Y-11065770D01*
X17535500Y-11055498D01*
X17535500Y-11013000D01*
X17448000Y-11013000D01*
X17398000Y-11013000D01*
X17310500Y-11013000D01*
X17230550Y-11013000D01*
X17230550Y-10963000D01*
X17310500Y-10963000D01*
X17398000Y-10963000D01*
X17398000Y-10850500D01*
X17380502Y-10850500D01*
X17370230Y-10851549D01*
X17353588Y-10857064D01*
X17338665Y-10866268D01*
X17326268Y-10878665D01*
X17317064Y-10893588D01*
X17311549Y-10910230D01*
X17310500Y-10920502D01*
X17310500Y-10963000D01*
X17230550Y-10963000D01*
X17230550Y-10920713D01*
X17229909Y-10914752D01*
X17224880Y-10901267D01*
X17216255Y-10889745D01*
X17204733Y-10881120D01*
X17203306Y-10880052D01*
X17203395Y-10879933D01*
X17201893Y-10878993D01*
X17199051Y-10874900D01*
X17198050Y-10870018D01*
X17198050Y-10850500D01*
X17448000Y-10850500D01*
X17448000Y-10963000D01*
X17535500Y-10963000D01*
X17535500Y-10920502D01*
X17534451Y-10910230D01*
X17528936Y-10893588D01*
X17519732Y-10878665D01*
X17507335Y-10866268D01*
X17492412Y-10857064D01*
X17475770Y-10851549D01*
X17465498Y-10850500D01*
X17448000Y-10850500D01*
X17198050Y-10850500D01*
X17198050Y-10822594D01*
X17199711Y-10816394D01*
X17204250Y-10811856D01*
X17210450Y-10810194D01*
X17296532Y-10810194D01*
X17296532Y-10810194D01*
X17296423Y-10687203D01*
X17296403Y-10664461D01*
X17298060Y-10658256D01*
X17302600Y-10653713D01*
X17308803Y-10652050D01*
X17346848Y-10652050D01*
X17347271Y-10652057D01*
X17353682Y-10652276D01*
X17353682Y-10652276D01*
X17353683Y-10652276D01*
X17357675Y-10651303D01*
X17358920Y-10651067D01*
X17362992Y-10650507D01*
X17364638Y-10649792D01*
X17366642Y-10649118D01*
X17368385Y-10648693D01*
X17371970Y-10646678D01*
X17373102Y-10646116D01*
X17376872Y-10644478D01*
X17378264Y-10643346D01*
X17380011Y-10642156D01*
X17381576Y-10641277D01*
X17384481Y-10638371D01*
X17385423Y-10637521D01*
X17388611Y-10634928D01*
X17389646Y-10633461D01*
X17391007Y-10631845D01*
X17450115Y-10572738D01*
X17450413Y-10572449D01*
X17455104Y-10568068D01*
X17457240Y-10564556D01*
X17457953Y-10563508D01*
X17460436Y-10560234D01*
X17461095Y-10558564D01*
X17462034Y-10556672D01*
X17462967Y-10555138D01*
X17464076Y-10551181D01*
X17464480Y-10549979D01*
X17465988Y-10546156D01*
X17466171Y-10544371D01*
X17466566Y-10542294D01*
X17467050Y-10540567D01*
X17467050Y-10536458D01*
X17467115Y-10535190D01*
X17467535Y-10531103D01*
X17467230Y-10529334D01*
X17467050Y-10527228D01*
X17467050Y-10523950D01*
X17468711Y-10517750D01*
X17473250Y-10513211D01*
X17478642Y-10511766D01*
X17478627Y-10511621D01*
X17479287Y-10511550D01*
X17479287Y-10511550D01*
X17485248Y-10510909D01*
X17498733Y-10505880D01*
X17510255Y-10497255D01*
X17518880Y-10485733D01*
X17523909Y-10472248D01*
X17524550Y-10466287D01*
X17524550Y-10381713D01*
X17523909Y-10375752D01*
X17518880Y-10362267D01*
X17510255Y-10350745D01*
X17498733Y-10342120D01*
X17485248Y-10337091D01*
X17479287Y-10336450D01*
X17479287Y-10336450D01*
X17344713Y-10336450D01*
X17338752Y-10337091D01*
X17325267Y-10342120D01*
X17315945Y-10349098D01*
X17309622Y-10351522D01*
X17302969Y-10350263D01*
X17297969Y-10345695D01*
X17296114Y-10339183D01*
X17296016Y-10228766D01*
X17297863Y-10222245D01*
X17302861Y-10217669D01*
X17309519Y-10216404D01*
X17315847Y-10218828D01*
X17325267Y-10225880D01*
X17338752Y-10230909D01*
X17344713Y-10231550D01*
X17479287Y-10231550D01*
X17485248Y-10230909D01*
X17498733Y-10225880D01*
X17510255Y-10217255D01*
X17518880Y-10205733D01*
X17523909Y-10192248D01*
X17524550Y-10186287D01*
X17524550Y-10101713D01*
X17523909Y-10095752D01*
X17518880Y-10082267D01*
X17510255Y-10070745D01*
X17498733Y-10062120D01*
X17485248Y-10057091D01*
X17479287Y-10056450D01*
X17479287Y-10056450D01*
X17478627Y-10056379D01*
X17478642Y-10056234D01*
X17473250Y-10054789D01*
X17468711Y-10050250D01*
X17467050Y-10044050D01*
X17467050Y-9911154D01*
X17467057Y-9910731D01*
X17467276Y-9904317D01*
X17466303Y-9900325D01*
X17466066Y-9899079D01*
X17465507Y-9895008D01*
X17464792Y-9893362D01*
X17464118Y-9891358D01*
X17463693Y-9889615D01*
X17461680Y-9886034D01*
X17461115Y-9884896D01*
X17459478Y-9881128D01*
X17458346Y-9879736D01*
X17457156Y-9877988D01*
X17456277Y-9876424D01*
X17453371Y-9873519D01*
X17452521Y-9872576D01*
X17449928Y-9869389D01*
X17448462Y-9868354D01*
X17446844Y-9866992D01*
X17416741Y-9836888D01*
X17416449Y-9836587D01*
X17412068Y-9831896D01*
X17412068Y-9831896D01*
X17412068Y-9831895D01*
X17408557Y-9829761D01*
X17407508Y-9829046D01*
X17406128Y-9828000D01*
X17404234Y-9826564D01*
X17404234Y-9826564D01*
X17402564Y-9825905D01*
X17400671Y-9824965D01*
X17399138Y-9824033D01*
X17396092Y-9823179D01*
X17395181Y-9822924D01*
X17393980Y-9822520D01*
X17390156Y-9821012D01*
X17390156Y-9821012D01*
X17390156Y-9821012D01*
X17388372Y-9820829D01*
X17386298Y-9820435D01*
X17386108Y-9820382D01*
X17381410Y-9817881D01*
X17378193Y-9813640D01*
X17377050Y-9808441D01*
X17377050Y-9545152D01*
X17377057Y-9544729D01*
X17377276Y-9538317D01*
X17376304Y-9534326D01*
X17376067Y-9533079D01*
X17375507Y-9529008D01*
X17374792Y-9527362D01*
X17374118Y-9525358D01*
X17373693Y-9523615D01*
X17373337Y-9522980D01*
X17371680Y-9520033D01*
X17371115Y-9518896D01*
X17369478Y-9515128D01*
X17368346Y-9513736D01*
X17367155Y-9511987D01*
X17366276Y-9510424D01*
X17363372Y-9507519D01*
X17362521Y-9506577D01*
X17359928Y-9503389D01*
X17358462Y-9502354D01*
X17356844Y-9500992D01*
X17352741Y-9496888D01*
X17352447Y-9496584D01*
X17348068Y-9491896D01*
X17344557Y-9489761D01*
X17343508Y-9489046D01*
X17340234Y-9486564D01*
X17340234Y-9486564D01*
X17338564Y-9485905D01*
X17336671Y-9484965D01*
X17335138Y-9484033D01*
X17332054Y-9483169D01*
X17327358Y-9480667D01*
X17324142Y-9476426D01*
X17323000Y-9471229D01*
X17323000Y-9333450D01*
X17324661Y-9327250D01*
X17329200Y-9322711D01*
X17335400Y-9321050D01*
X17416074Y-9321050D01*
X17416074Y-9321050D01*
X17431244Y-9319507D01*
X17450659Y-9313416D01*
X17454562Y-9311250D01*
X17456245Y-9310474D01*
X17469233Y-9305630D01*
X17480755Y-9297005D01*
X17489380Y-9285483D01*
X17490369Y-9282831D01*
X17492181Y-9279575D01*
X17496345Y-9274196D01*
X17505306Y-9255927D01*
X17510406Y-9236229D01*
X17511437Y-9215906D01*
X17511426Y-9215832D01*
X17508356Y-9195793D01*
X17501289Y-9176712D01*
X17499742Y-9174230D01*
X17492906Y-9163263D01*
X17491812Y-9161039D01*
X17489380Y-9154517D01*
X17480755Y-9142995D01*
X17469233Y-9134370D01*
X17455748Y-9129341D01*
X17451417Y-9128875D01*
X17447853Y-9127941D01*
X17441106Y-9125046D01*
X17441106Y-9125046D01*
X17441106Y-9125046D01*
X17421174Y-9120950D01*
X17421174Y-9120950D01*
X17335400Y-9120950D01*
X17329200Y-9119289D01*
X17324661Y-9114750D01*
X17323000Y-9108550D01*
X17323000Y-9036150D01*
X17324661Y-9029950D01*
X17329200Y-9025411D01*
X17335400Y-9023750D01*
X17355000Y-9023750D01*
X17355000Y-8932500D01*
X17405000Y-8932500D01*
X17405000Y-9023750D01*
X17449998Y-9023750D01*
X17460270Y-9022701D01*
X17476912Y-9017186D01*
X17491835Y-9007982D01*
X17504232Y-8995585D01*
X17513436Y-8980662D01*
X17518951Y-8964020D01*
X17520000Y-8953748D01*
X17520000Y-8932500D01*
X17405000Y-8932500D01*
X17355000Y-8932500D01*
X17335400Y-8932500D01*
X17329200Y-8930839D01*
X17324661Y-8926300D01*
X17323000Y-8920100D01*
X17323000Y-8894900D01*
X17324661Y-8888700D01*
X17329200Y-8884161D01*
X17335400Y-8882500D01*
X17355000Y-8882500D01*
X17355000Y-8791250D01*
X17335400Y-8791250D01*
X17335400Y-8791250D01*
X17405000Y-8791250D01*
X17405000Y-8882500D01*
X17520000Y-8882500D01*
X17520000Y-8861252D01*
X17518951Y-8850980D01*
X17513436Y-8834338D01*
X17504232Y-8819415D01*
X17491835Y-8807018D01*
X17476912Y-8797814D01*
X17460270Y-8792299D01*
X17449998Y-8791250D01*
X17405000Y-8791250D01*
X17335400Y-8791250D01*
X17329200Y-8789589D01*
X17324661Y-8785050D01*
X17323000Y-8778850D01*
X17323000Y-8699000D01*
X17103259Y-8699254D01*
X17097608Y-8697899D01*
X17093195Y-8694119D01*
X17090989Y-8688744D01*
X17091474Y-8682953D01*
X17091701Y-8682269D01*
X17092750Y-8671998D01*
X17092750Y-8627000D01*
X16860250Y-8627000D01*
X16860250Y-8671998D01*
X16861299Y-8682270D01*
X16861623Y-8683247D01*
X16862109Y-8689030D01*
X16859910Y-8694401D01*
X16855508Y-8698183D01*
X16849867Y-8699548D01*
X16764365Y-8699647D01*
X16758613Y-8698239D01*
X16754169Y-8694324D01*
X16752048Y-8688795D01*
X16752733Y-8682913D01*
X16754659Y-8677748D01*
X16755300Y-8671787D01*
X16755300Y-8577000D01*
X16860250Y-8577000D01*
X16951500Y-8577000D01*
X16951500Y-8462000D01*
X16930252Y-8462000D01*
X16919980Y-8463049D01*
X16903338Y-8468564D01*
X16888415Y-8477768D01*
X16876018Y-8490165D01*
X16866814Y-8505088D01*
X16861299Y-8521730D01*
X16860250Y-8532002D01*
X16860250Y-8577000D01*
X16755300Y-8577000D01*
X16755300Y-8532213D01*
X16754659Y-8526252D01*
X16749630Y-8512767D01*
X16741005Y-8501245D01*
X16729483Y-8492620D01*
X16715998Y-8487591D01*
X16710037Y-8486950D01*
X16710037Y-8486950D01*
X16617963Y-8486950D01*
X16612001Y-8487591D01*
X16598517Y-8492620D01*
X16586995Y-8501245D01*
X16578370Y-8512767D01*
X16573341Y-8526252D01*
X16573341Y-8526252D01*
X16572723Y-8532002D01*
X16572700Y-8532213D01*
X16572700Y-8671787D01*
X16573341Y-8677748D01*
X16574668Y-8681307D01*
X16575450Y-8685640D01*
X16575450Y-8687480D01*
X16573791Y-8693675D01*
X16569258Y-8698213D01*
X16563064Y-8699880D01*
X16459000Y-8700000D01*
X16459000Y-9379550D01*
X16457339Y-9385750D01*
X16452800Y-9390289D01*
X16446600Y-9391950D01*
X16203961Y-9391950D01*
X16202954Y-9391909D01*
X16201390Y-9391782D01*
X16197683Y-9391480D01*
X16197683Y-9391480D01*
X16189826Y-9392550D01*
X16189494Y-9392591D01*
X16183051Y-9393292D01*
X16181609Y-9393449D01*
X16181609Y-9393449D01*
X16181597Y-9393450D01*
X16179364Y-9393973D01*
X16171907Y-9396713D01*
X16171591Y-9396824D01*
X16164068Y-9399359D01*
X16161997Y-9400351D01*
X16155306Y-9404628D01*
X16155021Y-9404805D01*
X16148216Y-9408899D01*
X16146409Y-9410312D01*
X16140796Y-9415925D01*
X16140556Y-9416159D01*
X16134787Y-9421623D01*
X16133309Y-9423412D01*
X16077661Y-9479060D01*
X16076921Y-9479742D01*
X16072890Y-9483166D01*
X16068092Y-9489477D01*
X16067886Y-9489741D01*
X16062909Y-9495934D01*
X16061700Y-9497882D01*
X16061695Y-9497894D01*
X16061695Y-9497894D01*
X16059152Y-9503389D01*
X16058364Y-9505092D01*
X16058219Y-9505394D01*
X16054691Y-9512509D01*
X16053929Y-9514672D01*
X16052222Y-9522428D01*
X16052145Y-9522755D01*
X16050229Y-9530461D01*
X16049950Y-9532739D01*
X16049950Y-9540677D01*
X16049945Y-9541013D01*
X16049730Y-9548955D01*
X16049950Y-9551265D01*
X16049950Y-9668802D01*
X16048287Y-9675005D01*
X16043744Y-9679544D01*
X16037540Y-9681202D01*
X16027532Y-9681194D01*
X16027532Y-9681194D01*
X16028532Y-10810194D01*
X16033550Y-10810194D01*
X16039750Y-10811856D01*
X16044289Y-10816394D01*
X16045950Y-10822594D01*
X16045950Y-11135635D01*
X16045006Y-11140380D01*
X16042318Y-11144403D01*
X15716661Y-11470060D01*
X15715921Y-11470742D01*
X15711890Y-11474166D01*
X15707092Y-11480477D01*
X15706886Y-11480741D01*
X15701909Y-11486933D01*
X15700700Y-11488882D01*
X15697364Y-11496092D01*
X15697219Y-11496394D01*
X15693691Y-11503509D01*
X15692929Y-11505672D01*
X15691222Y-11513428D01*
X15691145Y-11513755D01*
X15689229Y-11521461D01*
X15688950Y-11523739D01*
X15688950Y-11531677D01*
X15688945Y-11532013D01*
X15688730Y-11539955D01*
X15688950Y-11542265D01*
X15688950Y-12031039D01*
X15688909Y-12032046D01*
X15688480Y-12037317D01*
X15689550Y-12045173D01*
X15689591Y-12045506D01*
X15690450Y-12053402D01*
X15690973Y-12055636D01*
X15690977Y-12055647D01*
X15690977Y-12055647D01*
X15693713Y-12063093D01*
X15693823Y-12063405D01*
X15696359Y-12070933D01*
X15697351Y-12073002D01*
X15698003Y-12074022D01*
X15701629Y-12079696D01*
X15701804Y-12079977D01*
X15705899Y-12086783D01*
X15707312Y-12088590D01*
X15707320Y-12088599D01*
X15707320Y-12088599D01*
X15712930Y-12094209D01*
X15713161Y-12094446D01*
X15718615Y-12100204D01*
X15718615Y-12100204D01*
X15718623Y-12100213D01*
X15720412Y-12101691D01*
X15783059Y-12164338D01*
X15783742Y-12165078D01*
X15787166Y-12169110D01*
X15791559Y-12172449D01*
X15793478Y-12173908D01*
X15793743Y-12174115D01*
X15799933Y-12179091D01*
X15801883Y-12180300D01*
X15801893Y-12180305D01*
X15801894Y-12180305D01*
X15809094Y-12183637D01*
X15809390Y-12183778D01*
X15814073Y-12186101D01*
X15816509Y-12187309D01*
X15818671Y-12188070D01*
X15818683Y-12188073D01*
X15818683Y-12188073D01*
X15826427Y-12189777D01*
X15826753Y-12189854D01*
X15827136Y-12189949D01*
X15832381Y-12192715D01*
X15835742Y-12197600D01*
X15836451Y-12203486D01*
X15834346Y-12209029D01*
X15829908Y-12212961D01*
X15824151Y-12214383D01*
X15498977Y-12214598D01*
X15495760Y-12214176D01*
X15492474Y-12213295D01*
X15491256Y-12213947D01*
X15487274Y-12214606D01*
X15448775Y-12214632D01*
X15444785Y-12213975D01*
X15443517Y-12213298D01*
X15440086Y-12214217D01*
X15436885Y-12214639D01*
X15034995Y-12214906D01*
X15034995Y-12214906D01*
X14448088Y-12214906D01*
X14511951Y-12151043D01*
X14513616Y-12149709D01*
X14513794Y-12149520D01*
X14513794Y-12149520D01*
X14518590Y-12144413D01*
X14518855Y-12144140D01*
X14520891Y-12142103D01*
X14521161Y-12141755D01*
X14521919Y-12140868D01*
X14525045Y-12137539D01*
X14526067Y-12135679D01*
X14527135Y-12134054D01*
X14528436Y-12132376D01*
X14530249Y-12128187D01*
X14530763Y-12127138D01*
X14531368Y-12126038D01*
X14532963Y-12123137D01*
X14533491Y-12121080D01*
X14534120Y-12119241D01*
X14534963Y-12117293D01*
X14535678Y-12112782D01*
X14535914Y-12111640D01*
X14537050Y-12107218D01*
X14537050Y-12105095D01*
X14537203Y-12103156D01*
X14537435Y-12101691D01*
X14537535Y-12101059D01*
X14537105Y-12096514D01*
X14537050Y-12095347D01*
X14537050Y-11550450D01*
X14538711Y-11544250D01*
X14543250Y-11539711D01*
X14549450Y-11538050D01*
X14792228Y-11538050D01*
X15529629Y-11538050D01*
X15531426Y-11538181D01*
X15531832Y-11538240D01*
X15533802Y-11538529D01*
X15538737Y-11538097D01*
X15539818Y-11538050D01*
X15540371Y-11538050D01*
X15540371Y-11538050D01*
X15543455Y-11537689D01*
X15543803Y-11537654D01*
X15551280Y-11537000D01*
X15551280Y-11537000D01*
X15551405Y-11536989D01*
X15553306Y-11536567D01*
X15553425Y-11536524D01*
X15553425Y-11536524D01*
X15560482Y-11533956D01*
X15560809Y-11533842D01*
X15567933Y-11531481D01*
X15567934Y-11531481D01*
X15568054Y-11531441D01*
X15569806Y-11530593D01*
X15569911Y-11530524D01*
X15569912Y-11530524D01*
X15576181Y-11526400D01*
X15576480Y-11526210D01*
X15582866Y-11522271D01*
X15582866Y-11522271D01*
X15582973Y-11522205D01*
X15584482Y-11520975D01*
X15584569Y-11520883D01*
X15584570Y-11520883D01*
X15589718Y-11515425D01*
X15589963Y-11515173D01*
X15762564Y-11342573D01*
X15763926Y-11341396D01*
X15765853Y-11339961D01*
X15769038Y-11336165D01*
X15769767Y-11335370D01*
X15770159Y-11334978D01*
X15772086Y-11332540D01*
X15772303Y-11332274D01*
X15777130Y-11326521D01*
X15777130Y-11326521D01*
X15777212Y-11326424D01*
X15778257Y-11324782D01*
X15778311Y-11324668D01*
X15778311Y-11324668D01*
X15781482Y-11317868D01*
X15781637Y-11317547D01*
X15785004Y-11310843D01*
X15785004Y-11310843D01*
X15785061Y-11310730D01*
X15785700Y-11308892D01*
X15785880Y-11308020D01*
X15787243Y-11301417D01*
X15787319Y-11301077D01*
X15789050Y-11293772D01*
X15789050Y-11293772D01*
X15789079Y-11293649D01*
X15789277Y-11291712D01*
X15789273Y-11291586D01*
X15789273Y-11291586D01*
X15789055Y-11284089D01*
X15789050Y-11283728D01*
X15789050Y-9733223D01*
X15789994Y-9728478D01*
X15792682Y-9724455D01*
X15828909Y-9688228D01*
X16044564Y-9472573D01*
X16045926Y-9471396D01*
X16047853Y-9469961D01*
X16051038Y-9466165D01*
X16051767Y-9465370D01*
X16052159Y-9464978D01*
X16054086Y-9462540D01*
X16054303Y-9462274D01*
X16059130Y-9456521D01*
X16059130Y-9456521D01*
X16059212Y-9456424D01*
X16060257Y-9454783D01*
X16060311Y-9454668D01*
X16060311Y-9454668D01*
X16063482Y-9447868D01*
X16063637Y-9447548D01*
X16067004Y-9440843D01*
X16067004Y-9440843D01*
X16067061Y-9440730D01*
X16067700Y-9438892D01*
X16067726Y-9438767D01*
X16069243Y-9431417D01*
X16069319Y-9431077D01*
X16071050Y-9423772D01*
X16071050Y-9423772D01*
X16071079Y-9423650D01*
X16071277Y-9421712D01*
X16071273Y-9421586D01*
X16071273Y-9421586D01*
X16071055Y-9414089D01*
X16071050Y-9413728D01*
X16071050Y-9284450D01*
X16072711Y-9278250D01*
X16073961Y-9277000D01*
X16179946Y-9277000D01*
X16179950Y-9277010D01*
X16179962Y-9277038D01*
X16179962Y-9277038D01*
X16179962Y-9277038D01*
X16179981Y-9277046D01*
X16180000Y-9277054D01*
X16180000Y-9277054D01*
X16182462Y-9277052D01*
X16182462Y-9277053D01*
X16182476Y-9277050D01*
X16357524Y-9277050D01*
X16357538Y-9277053D01*
X16357538Y-9277052D01*
X16360000Y-9277054D01*
X16360000Y-9277054D01*
X16360038Y-9277038D01*
X16360050Y-9277010D01*
X16360054Y-9277000D01*
X16360054Y-9274545D01*
X16360050Y-9274524D01*
X16360050Y-8462000D01*
X17001500Y-8462000D01*
X17001500Y-8577000D01*
X17092750Y-8577000D01*
X17092750Y-8532002D01*
X17091701Y-8521730D01*
X17086186Y-8505088D01*
X17076982Y-8490165D01*
X17064585Y-8477768D01*
X17049662Y-8468564D01*
X17033020Y-8463049D01*
X17022748Y-8462000D01*
X17001500Y-8462000D01*
X16360050Y-8462000D01*
X16360050Y-8236000D01*
X17146944Y-8236000D01*
X17148803Y-8259630D01*
X17154337Y-8282679D01*
X17158901Y-8293698D01*
X17163408Y-8304578D01*
X17175793Y-8324789D01*
X17191187Y-8342813D01*
X17209211Y-8358207D01*
X17229422Y-8370592D01*
X17245601Y-8377294D01*
X17251321Y-8379663D01*
X17258602Y-8381411D01*
X17274370Y-8385197D01*
X17298000Y-8387056D01*
X17321630Y-8385197D01*
X17344679Y-8379663D01*
X17366578Y-8370592D01*
X17386789Y-8358207D01*
X17404813Y-8342813D01*
X17420207Y-8324789D01*
X17432592Y-8304578D01*
X17441663Y-8282679D01*
X17447197Y-8259630D01*
X17449056Y-8236000D01*
X17447197Y-8212370D01*
X17441663Y-8189321D01*
X17441249Y-8188321D01*
X17439294Y-8183601D01*
X17432592Y-8167422D01*
X17420207Y-8147211D01*
X17404813Y-8129187D01*
X17386789Y-8113793D01*
X17366578Y-8101408D01*
X17358489Y-8098057D01*
X17344679Y-8092337D01*
X17321631Y-8086803D01*
X17305188Y-8085509D01*
X17298000Y-8084944D01*
X17298000Y-8084944D01*
X17274369Y-8086803D01*
X17251321Y-8092337D01*
X17233761Y-8099610D01*
X17230619Y-8100912D01*
X17229422Y-8101408D01*
X17209211Y-8113793D01*
X17191187Y-8129187D01*
X17175793Y-8147211D01*
X17163408Y-8167422D01*
X17163408Y-8167422D01*
X17162778Y-8168942D01*
X17154337Y-8189321D01*
X17148803Y-8212369D01*
X17146944Y-8236000D01*
X16360050Y-8236000D01*
X16360050Y-8047000D01*
X16548901Y-8047000D01*
X16550839Y-8070383D01*
X16550839Y-8070383D01*
X16550839Y-8070383D01*
X16556599Y-8093129D01*
X16560822Y-8102758D01*
X16566024Y-8114616D01*
X16566024Y-8114616D01*
X16578857Y-8134259D01*
X16594749Y-8151522D01*
X16613265Y-8165934D01*
X16633901Y-8177101D01*
X16639286Y-8178950D01*
X16656092Y-8184720D01*
X16656093Y-8184720D01*
X16656093Y-8184720D01*
X16679236Y-8188582D01*
X16702700Y-8188582D01*
X16702700Y-8188582D01*
X16725844Y-8184720D01*
X16748036Y-8177101D01*
X16768672Y-8165934D01*
X16787188Y-8151522D01*
X16803079Y-8134259D01*
X16815913Y-8114616D01*
X16825338Y-8093129D01*
X16831098Y-8070383D01*
X16833035Y-8047000D01*
X16831098Y-8023616D01*
X16825338Y-8000871D01*
X16815913Y-7979384D01*
X16803079Y-7959741D01*
X16787188Y-7942478D01*
X16768672Y-7928066D01*
X16748036Y-7916899D01*
X16748036Y-7916899D01*
X16748035Y-7916899D01*
X16725844Y-7909280D01*
X16706195Y-7906001D01*
X16702700Y-7905418D01*
X16679236Y-7905418D01*
X16675742Y-7906001D01*
X16656092Y-7909280D01*
X16633901Y-7916899D01*
X16633901Y-7916899D01*
X16633901Y-7916899D01*
X16632531Y-7917640D01*
X16613265Y-7928066D01*
X16594749Y-7942478D01*
X16584702Y-7953392D01*
X16578857Y-7959741D01*
X16576315Y-7963632D01*
X16566024Y-7979384D01*
X16559141Y-7995075D01*
X16556599Y-8000871D01*
X16550839Y-8023616D01*
X16550839Y-8023617D01*
X16548901Y-8047000D01*
X16360050Y-8047000D01*
X16360050Y-8039476D01*
X16360053Y-8039462D01*
X16360052Y-8039462D01*
X16360054Y-8037000D01*
X16360054Y-8037000D01*
X16360046Y-8036981D01*
X16360038Y-8036962D01*
X16360038Y-8036961D01*
X16360019Y-8036954D01*
X16360000Y-8036946D01*
X16357545Y-8036946D01*
X16357524Y-8036950D01*
X16182476Y-8036950D01*
X16182455Y-8036946D01*
X16180000Y-8036946D01*
X16179981Y-8036954D01*
X16179962Y-8036961D01*
X16179961Y-8036962D01*
X16179946Y-8037000D01*
X16179948Y-8039462D01*
X16179947Y-8039462D01*
X16179950Y-8039476D01*
X16179950Y-9274524D01*
X16179946Y-9274545D01*
X16179946Y-9277000D01*
X16073961Y-9277000D01*
X16077250Y-9273711D01*
X16082284Y-9272362D01*
X16082269Y-9272288D01*
X16083400Y-9272063D01*
X16083450Y-9272050D01*
X16083467Y-9272050D01*
X16085903Y-9271566D01*
X16090774Y-9270597D01*
X16099060Y-9265060D01*
X16104597Y-9256774D01*
X16106050Y-9249467D01*
X16106050Y-9074533D01*
X16104597Y-9067226D01*
X16099060Y-9058940D01*
X16090774Y-9053403D01*
X16090774Y-9053403D01*
X16090774Y-9053403D01*
X16083467Y-9051950D01*
X16083467Y-9051950D01*
X15908533Y-9051950D01*
X15908532Y-9051950D01*
X15901226Y-9053403D01*
X15892940Y-9058940D01*
X15887403Y-9067226D01*
X15885950Y-9074533D01*
X15885950Y-9088550D01*
X15884289Y-9094750D01*
X15879750Y-9099289D01*
X15873550Y-9100950D01*
X15852550Y-9100950D01*
X15850429Y-9100716D01*
X15843174Y-9100944D01*
X15842784Y-9100950D01*
X15839907Y-9100950D01*
X15839469Y-9101005D01*
X15838306Y-9101097D01*
X15833743Y-9101240D01*
X15831705Y-9101832D01*
X15829801Y-9102227D01*
X15828364Y-9102408D01*
X15827694Y-9102493D01*
X15823449Y-9104174D01*
X15822344Y-9104552D01*
X15817960Y-9105826D01*
X15816133Y-9106906D01*
X15814386Y-9107762D01*
X15812413Y-9108543D01*
X15808720Y-9111226D01*
X15807744Y-9111867D01*
X15803814Y-9114192D01*
X15802312Y-9115693D01*
X15800834Y-9116956D01*
X15799116Y-9118203D01*
X15796206Y-9121722D01*
X15795420Y-9122586D01*
X15706687Y-9211318D01*
X15702664Y-9214006D01*
X15697919Y-9214950D01*
X15611697Y-9214950D01*
X15606067Y-9213599D01*
X15601665Y-9209839D01*
X15599449Y-9204490D01*
X15599903Y-9198718D01*
X15602928Y-9193782D01*
X15840028Y-8956682D01*
X15844051Y-8953994D01*
X15848796Y-8953050D01*
X15887816Y-8953050D01*
X15894344Y-8954907D01*
X15898916Y-8959923D01*
X15900577Y-8963258D01*
X15902033Y-8966182D01*
X15914324Y-8982458D01*
X15929396Y-8996198D01*
X15946736Y-9006935D01*
X15946736Y-9006935D01*
X15965754Y-9014302D01*
X15985802Y-9018050D01*
X16006197Y-9018050D01*
X16006198Y-9018050D01*
X16026246Y-9014302D01*
X16045264Y-9006935D01*
X16062604Y-8996198D01*
X16077676Y-8982458D01*
X16089967Y-8966182D01*
X16089967Y-8966182D01*
X16089967Y-8966182D01*
X16095581Y-8954907D01*
X16099058Y-8947925D01*
X16104640Y-8928308D01*
X16106521Y-8908000D01*
X16104640Y-8887692D01*
X16099058Y-8868075D01*
X16095833Y-8861599D01*
X16089967Y-8849818D01*
X16077676Y-8833542D01*
X16062604Y-8819802D01*
X16045264Y-8809065D01*
X16026246Y-8801698D01*
X16016170Y-8799814D01*
X16006198Y-8797950D01*
X15985802Y-8797950D01*
X15975830Y-8799814D01*
X15965754Y-8801698D01*
X15946736Y-8809065D01*
X15929396Y-8819802D01*
X15914324Y-8833542D01*
X15902033Y-8849818D01*
X15900051Y-8853798D01*
X15898916Y-8856077D01*
X15894344Y-8861093D01*
X15887816Y-8862950D01*
X15859696Y-8862950D01*
X15854067Y-8861599D01*
X15849665Y-8857839D01*
X15847449Y-8852490D01*
X15847903Y-8846718D01*
X15850928Y-8841782D01*
X15872162Y-8820548D01*
X15936006Y-8756704D01*
X15939940Y-8754053D01*
X15944583Y-8753074D01*
X15949253Y-8753910D01*
X15965754Y-8760302D01*
X15985802Y-8764050D01*
X16006197Y-8764050D01*
X16006198Y-8764050D01*
X16026246Y-8760302D01*
X16045264Y-8752935D01*
X16062604Y-8742198D01*
X16077676Y-8728458D01*
X16089967Y-8712182D01*
X16089967Y-8712182D01*
X16089967Y-8712182D01*
X16096405Y-8699254D01*
X16099058Y-8693925D01*
X16104640Y-8674308D01*
X16106521Y-8654000D01*
X16104640Y-8633692D01*
X16099058Y-8614075D01*
X16099021Y-8614000D01*
X16089967Y-8595818D01*
X16077676Y-8579542D01*
X16062604Y-8565802D01*
X16045264Y-8555065D01*
X16026246Y-8547698D01*
X16019563Y-8546448D01*
X16006198Y-8543950D01*
X15985802Y-8543950D01*
X15975778Y-8545824D01*
X15965754Y-8547698D01*
X15946736Y-8555065D01*
X15929396Y-8565802D01*
X15914324Y-8579542D01*
X15902032Y-8595818D01*
X15892942Y-8614075D01*
X15887360Y-8633692D01*
X15885478Y-8654000D01*
X15887130Y-8671826D01*
X15886446Y-8677181D01*
X15883551Y-8681738D01*
X15784218Y-8781072D01*
X15779282Y-8784097D01*
X15773510Y-8784551D01*
X15768161Y-8782335D01*
X15764401Y-8777933D01*
X15763050Y-8772303D01*
X15763050Y-8695797D01*
X15763994Y-8691051D01*
X15766682Y-8687029D01*
X15795793Y-8657918D01*
X15946818Y-8506893D01*
X15950752Y-8504242D01*
X15955394Y-8503262D01*
X15960065Y-8504098D01*
X15965754Y-8506302D01*
X15985802Y-8510050D01*
X16006197Y-8510050D01*
X16006198Y-8510050D01*
X16026246Y-8506302D01*
X16045264Y-8498935D01*
X16062604Y-8488198D01*
X16077676Y-8474458D01*
X16089967Y-8458182D01*
X16089967Y-8458182D01*
X16089967Y-8458182D01*
X16099042Y-8439957D01*
X16099058Y-8439925D01*
X16104640Y-8420308D01*
X16106521Y-8400000D01*
X16104640Y-8379692D01*
X16099058Y-8360075D01*
X16098128Y-8358207D01*
X16089967Y-8341818D01*
X16077676Y-8325542D01*
X16062604Y-8311802D01*
X16045264Y-8301065D01*
X16043338Y-8300319D01*
X16037171Y-8297930D01*
X16032160Y-8294348D01*
X16029491Y-8288796D01*
X16029823Y-8282645D01*
X16033074Y-8277412D01*
X16038442Y-8274390D01*
X16042349Y-8273343D01*
X16063758Y-8263360D01*
X16083108Y-8249811D01*
X16099811Y-8233108D01*
X16113360Y-8213758D01*
X16123343Y-8192349D01*
X16129064Y-8171000D01*
X15862936Y-8171000D01*
X15868657Y-8192349D01*
X15878640Y-8213758D01*
X15892189Y-8233108D01*
X15908892Y-8249811D01*
X15928242Y-8263360D01*
X15949651Y-8273343D01*
X15953558Y-8274390D01*
X15958926Y-8277412D01*
X15962177Y-8282645D01*
X15962509Y-8288796D01*
X15959840Y-8294348D01*
X15954828Y-8297930D01*
X15946736Y-8301065D01*
X15929396Y-8311802D01*
X15914324Y-8325542D01*
X15902032Y-8341818D01*
X15892942Y-8360075D01*
X15887360Y-8379692D01*
X15885478Y-8400000D01*
X15887360Y-8420309D01*
X15889491Y-8427796D01*
X15889566Y-8434306D01*
X15886332Y-8439957D01*
X15688426Y-8637863D01*
X15687390Y-8638790D01*
X15684603Y-8641012D01*
X15684457Y-8641226D01*
X15679710Y-8645355D01*
X15673549Y-8646623D01*
X15667558Y-8644704D01*
X15663279Y-8640093D01*
X15661815Y-8633975D01*
X15670468Y-8230500D01*
X15670468Y-8230500D01*
X15122452Y-8230586D01*
X15116251Y-8228926D01*
X15111712Y-8224387D01*
X15110050Y-8218186D01*
X15110050Y-8121000D01*
X15862936Y-8121000D01*
X15971000Y-8121000D01*
X15971000Y-8012936D01*
X16021000Y-8012936D01*
X16021000Y-8121000D01*
X16129064Y-8121000D01*
X16129063Y-8121000D01*
X16123343Y-8099651D01*
X16113360Y-8078242D01*
X16099811Y-8058892D01*
X16083108Y-8042189D01*
X16063758Y-8028640D01*
X16042349Y-8018657D01*
X16021000Y-8012936D01*
X15971000Y-8012936D01*
X15971000Y-8012936D01*
X15949651Y-8018657D01*
X15928242Y-8028640D01*
X15908892Y-8042189D01*
X15892189Y-8058892D01*
X15878640Y-8078242D01*
X15868657Y-8099651D01*
X15862936Y-8121000D01*
X15862936Y-8121000D01*
X15110050Y-8121000D01*
X15110050Y-8043718D01*
X15110128Y-8042329D01*
X15110524Y-8038817D01*
X15110078Y-8032208D01*
X15110050Y-8031374D01*
X15110050Y-8030385D01*
X15109684Y-8026323D01*
X15109663Y-8026045D01*
X15109010Y-8016359D01*
X15108903Y-8015935D01*
X15108577Y-8014017D01*
X15108538Y-8013581D01*
X15105953Y-8004217D01*
X15105884Y-8003954D01*
X15103510Y-7994532D01*
X15103329Y-7994134D01*
X15102665Y-7992304D01*
X15102549Y-7991883D01*
X15098335Y-7983131D01*
X15098219Y-7982884D01*
X15095971Y-7977935D01*
X15094201Y-7974037D01*
X15094106Y-7973901D01*
X15093952Y-7973678D01*
X15092972Y-7971996D01*
X15092873Y-7971791D01*
X15092783Y-7971603D01*
X15087074Y-7963745D01*
X15086916Y-7963523D01*
X15081382Y-7955535D01*
X15081073Y-7955226D01*
X15079809Y-7953746D01*
X15079552Y-7953392D01*
X15072530Y-7946678D01*
X15072331Y-7946484D01*
X15068453Y-7942606D01*
X15068453Y-7942605D01*
X15067332Y-7941670D01*
X15066711Y-7941115D01*
X15063282Y-7937837D01*
X15061276Y-7936512D01*
X15060161Y-7935683D01*
X15055502Y-7931793D01*
X15055502Y-7931793D01*
X15046071Y-7926442D01*
X15045360Y-7926006D01*
X15044497Y-7925436D01*
X15044335Y-7925367D01*
X15043090Y-7924751D01*
X15035924Y-7920685D01*
X15035924Y-7920685D01*
X15035924Y-7920684D01*
X15014678Y-7913250D01*
X14992446Y-7909729D01*
X14992446Y-7909729D01*
X14974443Y-7910133D01*
X14969942Y-7910234D01*
X14947890Y-7914749D01*
X14926999Y-7923129D01*
X14907940Y-7935105D01*
X14891325Y-7950292D01*
X14877689Y-7968200D01*
X14873628Y-7976170D01*
X14868966Y-7981169D01*
X14862363Y-7982939D01*
X14855826Y-7980940D01*
X14851342Y-7975781D01*
X14847360Y-7967242D01*
X14833811Y-7947892D01*
X14817108Y-7931189D01*
X14797758Y-7917640D01*
X14776349Y-7907657D01*
X14755000Y-7901936D01*
X14755000Y-8168064D01*
X14776349Y-8162343D01*
X14797758Y-8152360D01*
X14817108Y-8138811D01*
X14833811Y-8122108D01*
X14837392Y-8116993D01*
X14842114Y-8112960D01*
X14848199Y-8111722D01*
X14854121Y-8113589D01*
X14858395Y-8118094D01*
X14859950Y-8124105D01*
X14859950Y-8218230D01*
X14858289Y-8224429D01*
X14853751Y-8228968D01*
X14847552Y-8230630D01*
X14567239Y-8230674D01*
X14105759Y-8230747D01*
X14100129Y-8229396D01*
X14095726Y-8225636D01*
X14093510Y-8220287D01*
X14093964Y-8214515D01*
X14096989Y-8209579D01*
X14166949Y-8139619D01*
X14170883Y-8136968D01*
X14175526Y-8135989D01*
X14180196Y-8136825D01*
X14191754Y-8141302D01*
X14211802Y-8145050D01*
X14232197Y-8145050D01*
X14232198Y-8145050D01*
X14252246Y-8141302D01*
X14271264Y-8133935D01*
X14288604Y-8123198D01*
X14294203Y-8118094D01*
X14303676Y-8109458D01*
X14309375Y-8101912D01*
X14315967Y-8093182D01*
X14315967Y-8093182D01*
X14315967Y-8093182D01*
X14323528Y-8077999D01*
X14325058Y-8074925D01*
X14330640Y-8055308D01*
X14332521Y-8035000D01*
X14332521Y-8035000D01*
X14365478Y-8035000D01*
X14367360Y-8055308D01*
X14372942Y-8074925D01*
X14382032Y-8093182D01*
X14394324Y-8109458D01*
X14409396Y-8123198D01*
X14426736Y-8133935D01*
X14426736Y-8133935D01*
X14445754Y-8141302D01*
X14465802Y-8145050D01*
X14486197Y-8145050D01*
X14486198Y-8145050D01*
X14506246Y-8141302D01*
X14525264Y-8133935D01*
X14542604Y-8123198D01*
X14548203Y-8118094D01*
X14557676Y-8109458D01*
X14557677Y-8109458D01*
X14569967Y-8093182D01*
X14574752Y-8083573D01*
X14578682Y-8075681D01*
X14582524Y-8071154D01*
X14588031Y-8068933D01*
X14593939Y-8069526D01*
X14598894Y-8072798D01*
X14601759Y-8077999D01*
X14602657Y-8081349D01*
X14612640Y-8102758D01*
X14626189Y-8122108D01*
X14642892Y-8138811D01*
X14662242Y-8152360D01*
X14683651Y-8162343D01*
X14705000Y-8168064D01*
X14705000Y-7901936D01*
X14705000Y-7901936D01*
X14683651Y-7907657D01*
X14662242Y-7917640D01*
X14642892Y-7931189D01*
X14626189Y-7947892D01*
X14612640Y-7967242D01*
X14602657Y-7988651D01*
X14601759Y-7992001D01*
X14598894Y-7997202D01*
X14593939Y-8000474D01*
X14588031Y-8001067D01*
X14582524Y-7998846D01*
X14578682Y-7994319D01*
X14569967Y-7976818D01*
X14557676Y-7960542D01*
X14542604Y-7946802D01*
X14525264Y-7936065D01*
X14506246Y-7928698D01*
X14499563Y-7927448D01*
X14486198Y-7924950D01*
X14465802Y-7924950D01*
X14455778Y-7926824D01*
X14445754Y-7928698D01*
X14426736Y-7936065D01*
X14409396Y-7946802D01*
X14394324Y-7960542D01*
X14382032Y-7976818D01*
X14372942Y-7995075D01*
X14367360Y-8014692D01*
X14365478Y-8035000D01*
X14332521Y-8035000D01*
X14330640Y-8014692D01*
X14330324Y-8013581D01*
X14327621Y-8004084D01*
X14325058Y-7995075D01*
X14319111Y-7983131D01*
X14315967Y-7976818D01*
X14303676Y-7960542D01*
X14288604Y-7946802D01*
X14271264Y-7936065D01*
X14252246Y-7928698D01*
X14245563Y-7927448D01*
X14232198Y-7924950D01*
X14211802Y-7924950D01*
X14201778Y-7926824D01*
X14191754Y-7928698D01*
X14172736Y-7936065D01*
X14155396Y-7946802D01*
X14140324Y-7960542D01*
X14128032Y-7976818D01*
X14118942Y-7995075D01*
X14113360Y-8014692D01*
X14111478Y-8035000D01*
X14113360Y-8055308D01*
X14118942Y-8074925D01*
X14119474Y-8075994D01*
X14120761Y-8080949D01*
X14119937Y-8086001D01*
X14117142Y-8090289D01*
X14046114Y-8161318D01*
X14042091Y-8164006D01*
X14037346Y-8164950D01*
X14003538Y-8164950D01*
X13997010Y-8163093D01*
X13992438Y-8158077D01*
X13991191Y-8151406D01*
X13993643Y-8145077D01*
X13999059Y-8140987D01*
X14017264Y-8133935D01*
X14034604Y-8123198D01*
X14040203Y-8118094D01*
X14049676Y-8109458D01*
X14055375Y-8101912D01*
X14061967Y-8093182D01*
X14061967Y-8093182D01*
X14061967Y-8093182D01*
X14069528Y-8077999D01*
X14071058Y-8074925D01*
X14076640Y-8055308D01*
X14078521Y-8035000D01*
X14076640Y-8014692D01*
X14076324Y-8013581D01*
X14073621Y-8004084D01*
X14071058Y-7995075D01*
X14065111Y-7983131D01*
X14061967Y-7976818D01*
X14049676Y-7960542D01*
X14034604Y-7946802D01*
X14017264Y-7936065D01*
X13998246Y-7928698D01*
X13991563Y-7927448D01*
X13978198Y-7924950D01*
X13957802Y-7924950D01*
X13947778Y-7926824D01*
X13937754Y-7928698D01*
X13918736Y-7936065D01*
X13901396Y-7946802D01*
X13886324Y-7960542D01*
X13874032Y-7976818D01*
X13864942Y-7995075D01*
X13859360Y-8014692D01*
X13857478Y-8035000D01*
X13859360Y-8055308D01*
X13864942Y-8074925D01*
X13874032Y-8093182D01*
X13886324Y-8109458D01*
X13901396Y-8123198D01*
X13918736Y-8133935D01*
X13918736Y-8133935D01*
X13937754Y-8141302D01*
X13941821Y-8142062D01*
X13947390Y-8144651D01*
X13951034Y-8149594D01*
X13951860Y-8155679D01*
X13949664Y-8161414D01*
X13944986Y-8165393D01*
X13944815Y-8165476D01*
X13943190Y-8165997D01*
X13938180Y-8168708D01*
X13937725Y-8168942D01*
X13932680Y-8171408D01*
X13928878Y-8175539D01*
X13928523Y-8175908D01*
X13877279Y-8227152D01*
X13873257Y-8229840D01*
X13868513Y-8230784D01*
X13381452Y-8230861D01*
X13375251Y-8229201D01*
X13370712Y-8224662D01*
X13369050Y-8218461D01*
X13369050Y-8180654D01*
X13369994Y-8175909D01*
X13372682Y-8171886D01*
X13404949Y-8139619D01*
X13408883Y-8136968D01*
X13413526Y-8135989D01*
X13418196Y-8136825D01*
X13429754Y-8141302D01*
X13449802Y-8145050D01*
X13470197Y-8145050D01*
X13470198Y-8145050D01*
X13490246Y-8141302D01*
X13509264Y-8133935D01*
X13526604Y-8123198D01*
X13532203Y-8118094D01*
X13541676Y-8109458D01*
X13547375Y-8101912D01*
X13553967Y-8093182D01*
X13553967Y-8093182D01*
X13553967Y-8093182D01*
X13561528Y-8077999D01*
X13563058Y-8074925D01*
X13568640Y-8055308D01*
X13570521Y-8035000D01*
X13570521Y-8035000D01*
X13603478Y-8035000D01*
X13605360Y-8055308D01*
X13610942Y-8074925D01*
X13620032Y-8093182D01*
X13632324Y-8109458D01*
X13647396Y-8123198D01*
X13664736Y-8133935D01*
X13664736Y-8133935D01*
X13683754Y-8141302D01*
X13703802Y-8145050D01*
X13724197Y-8145050D01*
X13724198Y-8145050D01*
X13744246Y-8141302D01*
X13763264Y-8133935D01*
X13780604Y-8123198D01*
X13786203Y-8118094D01*
X13795676Y-8109458D01*
X13801375Y-8101912D01*
X13807967Y-8093182D01*
X13807967Y-8093182D01*
X13807967Y-8093182D01*
X13815528Y-8077999D01*
X13817058Y-8074925D01*
X13822640Y-8055308D01*
X13824521Y-8035000D01*
X13822640Y-8014692D01*
X13822324Y-8013581D01*
X13819621Y-8004084D01*
X13817058Y-7995075D01*
X13811111Y-7983131D01*
X13807967Y-7976818D01*
X13795676Y-7960542D01*
X13780604Y-7946802D01*
X13763264Y-7936065D01*
X13744246Y-7928698D01*
X13737563Y-7927448D01*
X13724198Y-7924950D01*
X13703802Y-7924950D01*
X13693778Y-7926824D01*
X13683754Y-7928698D01*
X13664736Y-7936065D01*
X13647396Y-7946802D01*
X13632324Y-7960542D01*
X13620032Y-7976818D01*
X13610942Y-7995075D01*
X13605360Y-8014692D01*
X13603478Y-8035000D01*
X13570521Y-8035000D01*
X13568640Y-8014692D01*
X13568324Y-8013581D01*
X13565621Y-8004084D01*
X13563058Y-7995075D01*
X13557111Y-7983131D01*
X13553967Y-7976818D01*
X13541676Y-7960542D01*
X13526604Y-7946802D01*
X13509264Y-7936065D01*
X13490246Y-7928698D01*
X13483563Y-7927448D01*
X13470198Y-7924950D01*
X13449802Y-7924950D01*
X13439778Y-7926824D01*
X13429754Y-7928698D01*
X13410736Y-7936065D01*
X13393396Y-7946802D01*
X13378324Y-7960542D01*
X13366032Y-7976818D01*
X13356942Y-7995075D01*
X13351360Y-8014692D01*
X13349478Y-8035000D01*
X13351360Y-8055308D01*
X13356942Y-8074925D01*
X13357474Y-8075994D01*
X13358761Y-8080949D01*
X13357937Y-8086001D01*
X13355142Y-8090289D01*
X13312695Y-8132736D01*
X13310710Y-8134348D01*
X13309933Y-8134856D01*
X13308150Y-8137147D01*
X13307176Y-8138250D01*
X13306044Y-8139836D01*
X13305739Y-8140244D01*
X13305628Y-8140387D01*
X13302289Y-8144677D01*
X13300687Y-8150058D01*
X13300531Y-8150546D01*
X13298707Y-8155858D01*
X13298939Y-8161467D01*
X13298950Y-8161979D01*
X13298950Y-8218476D01*
X13297289Y-8224676D01*
X13292751Y-8229214D01*
X13286552Y-8230876D01*
X13270629Y-8230879D01*
X13254920Y-8230881D01*
X13248719Y-8229221D01*
X13244180Y-8224682D01*
X13242518Y-8218481D01*
X13242518Y-8147367D01*
X13243499Y-8142533D01*
X13246286Y-8138464D01*
X13250439Y-8135804D01*
X13255264Y-8133935D01*
X13272604Y-8123198D01*
X13278203Y-8118094D01*
X13287676Y-8109458D01*
X13293375Y-8101912D01*
X13299967Y-8093182D01*
X13299967Y-8093182D01*
X13299967Y-8093182D01*
X13307528Y-8077999D01*
X13309058Y-8074925D01*
X13314640Y-8055308D01*
X13316521Y-8035000D01*
X13314640Y-8014692D01*
X13314324Y-8013581D01*
X13311621Y-8004084D01*
X13309058Y-7995075D01*
X13303111Y-7983131D01*
X13299967Y-7976818D01*
X13287676Y-7960542D01*
X13272604Y-7946802D01*
X13255264Y-7936065D01*
X13236246Y-7928698D01*
X13229563Y-7927448D01*
X13216198Y-7924950D01*
X13195802Y-7924950D01*
X13185778Y-7926824D01*
X13175754Y-7928698D01*
X13156736Y-7936065D01*
X13139396Y-7946802D01*
X13124324Y-7960542D01*
X13112032Y-7976818D01*
X13102942Y-7995075D01*
X13097360Y-8014692D01*
X13095478Y-8035000D01*
X13097360Y-8055308D01*
X13102942Y-8074925D01*
X13112032Y-8093182D01*
X13124324Y-8109458D01*
X13139396Y-8123198D01*
X13156736Y-8133935D01*
X13156736Y-8133935D01*
X13164498Y-8136941D01*
X13168650Y-8139602D01*
X13171437Y-8143671D01*
X13172418Y-8148504D01*
X13172418Y-8218496D01*
X13170757Y-8224696D01*
X13166219Y-8229234D01*
X13160020Y-8230896D01*
X12948106Y-8230930D01*
X12851651Y-8230945D01*
X12846905Y-8230001D01*
X12842881Y-8227313D01*
X12768264Y-8152696D01*
X12766651Y-8150709D01*
X12766144Y-8149933D01*
X12763853Y-8148150D01*
X12762751Y-8147177D01*
X12761165Y-8146045D01*
X12760754Y-8145738D01*
X12760394Y-8145458D01*
X12756729Y-8140819D01*
X12755629Y-8135010D01*
X12757343Y-8129351D01*
X12761483Y-8125130D01*
X12764604Y-8123198D01*
X12779676Y-8109458D01*
X12791967Y-8093182D01*
X12791967Y-8093182D01*
X12791967Y-8093182D01*
X12799528Y-8077999D01*
X12801058Y-8074925D01*
X12806640Y-8055308D01*
X12808521Y-8035000D01*
X12808521Y-8035000D01*
X12841478Y-8035000D01*
X12843360Y-8055308D01*
X12848942Y-8074925D01*
X12858032Y-8093182D01*
X12870324Y-8109458D01*
X12885396Y-8123198D01*
X12902736Y-8133935D01*
X12902736Y-8133935D01*
X12921754Y-8141302D01*
X12941802Y-8145050D01*
X12962197Y-8145050D01*
X12962198Y-8145050D01*
X12982246Y-8141302D01*
X13001264Y-8133935D01*
X13018604Y-8123198D01*
X13024203Y-8118094D01*
X13033676Y-8109458D01*
X13039375Y-8101912D01*
X13045967Y-8093182D01*
X13045967Y-8093182D01*
X13045967Y-8093182D01*
X13053528Y-8077999D01*
X13055058Y-8074925D01*
X13060640Y-8055308D01*
X13062521Y-8035000D01*
X13060640Y-8014692D01*
X13060324Y-8013581D01*
X13057621Y-8004084D01*
X13055058Y-7995075D01*
X13049111Y-7983131D01*
X13045967Y-7976818D01*
X13033676Y-7960542D01*
X13018604Y-7946802D01*
X13001264Y-7936065D01*
X12982246Y-7928698D01*
X12975563Y-7927448D01*
X12962198Y-7924950D01*
X12941802Y-7924950D01*
X12931778Y-7926824D01*
X12921754Y-7928698D01*
X12902736Y-7936065D01*
X12885396Y-7946802D01*
X12870324Y-7960542D01*
X12858032Y-7976818D01*
X12848942Y-7995075D01*
X12843360Y-8014692D01*
X12841478Y-8035000D01*
X12808521Y-8035000D01*
X12806640Y-8014692D01*
X12806324Y-8013581D01*
X12803621Y-8004084D01*
X12801058Y-7995075D01*
X12795111Y-7983131D01*
X12791967Y-7976818D01*
X12779676Y-7960542D01*
X12764604Y-7946802D01*
X12747264Y-7936065D01*
X12728246Y-7928698D01*
X12721563Y-7927448D01*
X12708198Y-7924950D01*
X12687802Y-7924950D01*
X12677778Y-7926824D01*
X12667754Y-7928698D01*
X12648736Y-7936065D01*
X12631396Y-7946802D01*
X12616324Y-7960542D01*
X12604032Y-7976818D01*
X12594942Y-7995075D01*
X12589360Y-8014692D01*
X12587478Y-8035000D01*
X12589360Y-8055308D01*
X12594942Y-8074925D01*
X12604032Y-8093182D01*
X12616324Y-8109458D01*
X12625021Y-8117386D01*
X12628310Y-8122285D01*
X12628963Y-8128150D01*
X12626832Y-8133652D01*
X12622398Y-8137546D01*
X12616667Y-8138950D01*
X12525333Y-8138950D01*
X12519602Y-8137546D01*
X12515168Y-8133652D01*
X12513037Y-8128149D01*
X12513690Y-8122285D01*
X12516979Y-8117386D01*
X12525676Y-8109458D01*
X12537967Y-8093182D01*
X12537967Y-8093182D01*
X12537967Y-8093182D01*
X12545528Y-8077999D01*
X12547058Y-8074925D01*
X12552640Y-8055308D01*
X12554521Y-8035000D01*
X12552640Y-8014692D01*
X12552324Y-8013581D01*
X12549621Y-8004084D01*
X12547058Y-7995075D01*
X12541111Y-7983131D01*
X12537967Y-7976818D01*
X12525676Y-7960542D01*
X12510604Y-7946802D01*
X12493264Y-7936065D01*
X12474246Y-7928698D01*
X12467563Y-7927448D01*
X12454198Y-7924950D01*
X12433802Y-7924950D01*
X12423778Y-7926824D01*
X12413754Y-7928698D01*
X12394736Y-7936065D01*
X12377396Y-7946802D01*
X12362324Y-7960542D01*
X12350032Y-7976818D01*
X12340942Y-7995075D01*
X12335360Y-8014692D01*
X12333478Y-8035000D01*
X12335360Y-8055308D01*
X12340942Y-8074925D01*
X12350032Y-8093182D01*
X12362324Y-8109458D01*
X12377396Y-8123198D01*
X12394736Y-8133935D01*
X12394736Y-8133935D01*
X12407035Y-8138699D01*
X12410943Y-8141129D01*
X12413695Y-8144816D01*
X12415080Y-8147648D01*
X12415080Y-8147648D01*
X12415408Y-8148320D01*
X12415958Y-8148826D01*
X12415958Y-8148826D01*
X12418897Y-8151531D01*
X12419540Y-8152123D01*
X12419910Y-8152478D01*
X12425214Y-8157782D01*
X12428239Y-8162718D01*
X12428693Y-8168490D01*
X12426477Y-8173838D01*
X12422075Y-8177598D01*
X12416446Y-8178950D01*
X12270654Y-8178950D01*
X12265909Y-8178006D01*
X12261886Y-8175318D01*
X12238747Y-8152178D01*
X12235804Y-8147486D01*
X12235197Y-8141981D01*
X12237048Y-8136761D01*
X12240987Y-8132868D01*
X12256604Y-8123198D01*
X12271676Y-8109458D01*
X12283967Y-8093182D01*
X12283967Y-8093182D01*
X12283967Y-8093182D01*
X12291528Y-8077999D01*
X12293058Y-8074925D01*
X12298640Y-8055308D01*
X12300521Y-8035000D01*
X12298640Y-8014692D01*
X12298324Y-8013581D01*
X12295621Y-8004084D01*
X12293058Y-7995075D01*
X12287111Y-7983131D01*
X12283967Y-7976818D01*
X12271676Y-7960542D01*
X12256604Y-7946802D01*
X12239264Y-7936065D01*
X12220246Y-7928698D01*
X12213563Y-7927448D01*
X12200198Y-7924950D01*
X12179802Y-7924950D01*
X12169778Y-7926824D01*
X12159754Y-7928698D01*
X12140736Y-7936065D01*
X12123396Y-7946802D01*
X12108324Y-7960542D01*
X12096032Y-7976818D01*
X12086942Y-7995075D01*
X12081360Y-8014692D01*
X12079478Y-8035000D01*
X12081360Y-8055308D01*
X12086942Y-8074925D01*
X12096032Y-8093182D01*
X12108324Y-8109458D01*
X12123396Y-8123198D01*
X12140736Y-8133935D01*
X12140736Y-8133935D01*
X12140736Y-8133935D01*
X12147030Y-8136373D01*
X12151182Y-8139033D01*
X12153969Y-8143102D01*
X12154950Y-8147935D01*
X12154950Y-8148079D01*
X12154686Y-8150623D01*
X12154496Y-8151531D01*
X12154855Y-8154412D01*
X12154946Y-8155879D01*
X12155266Y-8157801D01*
X12155340Y-8158308D01*
X12156035Y-8163881D01*
X12158708Y-8168820D01*
X12158942Y-8169275D01*
X12161080Y-8173648D01*
X12161080Y-8173648D01*
X12161408Y-8174320D01*
X12161958Y-8174826D01*
X12161958Y-8174826D01*
X12165413Y-8178006D01*
X12165540Y-8178123D01*
X12165910Y-8178478D01*
X12197313Y-8209881D01*
X12200338Y-8214817D01*
X12200793Y-8220588D01*
X12198578Y-8225937D01*
X12194176Y-8229697D01*
X12188547Y-8231049D01*
X10183360Y-8231366D01*
X10183360Y-8231366D01*
X10170360Y-8789866D01*
X11245550Y-8789892D01*
X11251750Y-8791554D01*
X11256289Y-8796092D01*
X11257950Y-8802292D01*
X11257950Y-8809774D01*
X11257872Y-8811162D01*
X11257473Y-8814703D01*
X11258223Y-8818669D01*
X11258438Y-8819802D01*
X11258536Y-8820319D01*
X11258613Y-8820777D01*
X11259555Y-8827025D01*
X11259716Y-8827515D01*
X11262669Y-8833101D01*
X11262878Y-8833515D01*
X11265618Y-8839206D01*
X11265918Y-8839629D01*
X11270385Y-8844095D01*
X11270706Y-8844429D01*
X11275004Y-8849061D01*
X11276493Y-8850203D01*
X11521955Y-9095665D01*
X11522277Y-9095999D01*
X11522832Y-9096598D01*
X11523918Y-9098129D01*
X11528385Y-9102595D01*
X11528706Y-9102929D01*
X11533004Y-9107561D01*
X11534493Y-9108703D01*
X11869863Y-9444073D01*
X11870790Y-9445110D01*
X11873012Y-9447897D01*
X11873124Y-9447973D01*
X11877640Y-9451052D01*
X11881748Y-9455757D01*
X11883042Y-9461866D01*
X11881193Y-9467832D01*
X11876672Y-9472140D01*
X11870624Y-9473698D01*
X11671094Y-9473202D01*
X11671968Y-9828000D01*
X11671968Y-9828000D01*
X14835646Y-9835859D01*
X14836772Y-9481061D01*
X14829250Y-9481043D01*
X13419268Y-9477542D01*
X13412864Y-9475742D01*
X13408312Y-9470891D01*
X13406922Y-9464386D01*
X13409094Y-9458098D01*
X13411990Y-9453902D01*
X13417592Y-9439132D01*
X13418160Y-9434455D01*
X13420264Y-9428906D01*
X13424707Y-9424970D01*
X13430469Y-9423550D01*
X13435926Y-9423550D01*
X13436390Y-9423559D01*
X13442101Y-9423772D01*
X13442101Y-9423772D01*
X13442703Y-9423795D01*
X13444563Y-9423550D01*
X13552052Y-9423550D01*
X13556449Y-9424356D01*
X13560274Y-9426668D01*
X13562800Y-9428906D01*
X13566776Y-9432428D01*
X13580763Y-9439770D01*
X13596101Y-9443550D01*
X13611898Y-9443550D01*
X13627236Y-9439770D01*
X13641224Y-9432428D01*
X13653048Y-9421953D01*
X13662022Y-9408952D01*
X13667624Y-9394182D01*
X13669528Y-9378500D01*
X13667624Y-9362818D01*
X13662022Y-9348048D01*
X13657466Y-9341448D01*
X13653048Y-9335047D01*
X13651147Y-9333363D01*
X13641224Y-9324572D01*
X13639019Y-9323414D01*
X13627236Y-9317230D01*
X13611898Y-9313450D01*
X13596101Y-9313450D01*
X13580763Y-9317230D01*
X13566776Y-9324572D01*
X13560274Y-9330332D01*
X13556449Y-9332644D01*
X13552052Y-9333450D01*
X13460796Y-9333450D01*
X13456051Y-9332506D01*
X13452028Y-9329818D01*
X13425637Y-9303427D01*
X13424710Y-9302390D01*
X13422488Y-9299603D01*
X13417761Y-9296380D01*
X13417387Y-9296115D01*
X13417202Y-9295978D01*
X13416044Y-9295123D01*
X13412303Y-9292363D01*
X13411842Y-9292130D01*
X13411219Y-9291938D01*
X13405804Y-9290268D01*
X13405364Y-9290123D01*
X13399402Y-9288037D01*
X13398891Y-9287950D01*
X13398290Y-9287950D01*
X13392574Y-9287950D01*
X13392110Y-9287941D01*
X13385797Y-9287705D01*
X13383936Y-9287950D01*
X13166433Y-9287950D01*
X13160018Y-9286162D01*
X13155453Y-9281313D01*
X13154055Y-9274801D01*
X13156228Y-9268506D01*
X13157990Y-9265952D01*
X13163592Y-9251182D01*
X13165496Y-9235500D01*
X13163592Y-9219818D01*
X13157990Y-9205048D01*
X13150872Y-9194735D01*
X13149017Y-9192047D01*
X13147433Y-9190644D01*
X13137192Y-9181572D01*
X13135868Y-9180877D01*
X13123205Y-9174230D01*
X13107867Y-9170450D01*
X13092070Y-9170450D01*
X13076732Y-9174230D01*
X13062744Y-9181572D01*
X13055114Y-9188332D01*
X13051288Y-9190644D01*
X13046891Y-9191450D01*
X12917247Y-9191450D01*
X12911484Y-9190030D01*
X12907042Y-9186094D01*
X12904937Y-9180545D01*
X12905652Y-9174653D01*
X12909624Y-9164182D01*
X12911528Y-9148500D01*
X12909624Y-9132818D01*
X12904022Y-9118048D01*
X12897572Y-9108703D01*
X12895048Y-9105047D01*
X12895048Y-9105047D01*
X12894692Y-9104731D01*
X12891321Y-9099847D01*
X12890605Y-9093955D01*
X12892710Y-9088406D01*
X12897152Y-9084470D01*
X12902915Y-9083050D01*
X14941203Y-9083050D01*
X14945949Y-9083994D01*
X14949971Y-9086682D01*
X15012283Y-9148993D01*
X15057072Y-9193782D01*
X15060097Y-9198718D01*
X15060551Y-9204490D01*
X15058335Y-9209839D01*
X15053933Y-9213599D01*
X15048303Y-9214950D01*
X14999550Y-9214950D01*
X14997429Y-9214716D01*
X14990174Y-9214944D01*
X14989784Y-9214950D01*
X14986907Y-9214950D01*
X14986469Y-9215005D01*
X14985306Y-9215097D01*
X14980743Y-9215240D01*
X14978705Y-9215832D01*
X14976801Y-9216227D01*
X14974694Y-9216493D01*
X14970449Y-9218173D01*
X14969344Y-9218552D01*
X14964960Y-9219826D01*
X14963133Y-9220906D01*
X14961386Y-9221762D01*
X14959413Y-9222543D01*
X14955720Y-9225226D01*
X14954744Y-9225867D01*
X14950814Y-9228192D01*
X14949312Y-9229693D01*
X14947834Y-9230956D01*
X14946116Y-9232204D01*
X14944350Y-9234339D01*
X14943019Y-9235715D01*
X14940952Y-9237547D01*
X14937687Y-9242277D01*
X14937280Y-9242833D01*
X14936749Y-9243517D01*
X14936506Y-9243820D01*
X14935072Y-9245554D01*
X14934707Y-9246150D01*
X14933563Y-9247624D01*
X14933320Y-9248187D01*
X14932146Y-9250305D01*
X14931978Y-9250548D01*
X14929806Y-9256274D01*
X14929592Y-9256801D01*
X14927036Y-9262707D01*
X14927000Y-9262940D01*
X14926384Y-9265257D01*
X14925593Y-9271769D01*
X14925531Y-9272211D01*
X14924764Y-9277053D01*
X14924449Y-9279046D01*
X14924427Y-9280632D01*
X14925300Y-9287819D01*
X14925335Y-9288147D01*
X14926052Y-9295724D01*
X14926117Y-9295999D01*
X14928948Y-9303462D01*
X14929020Y-9303659D01*
X14931661Y-9310993D01*
X14936315Y-9317736D01*
X14936366Y-9317810D01*
X14940818Y-9324360D01*
X14946888Y-9329713D01*
X14946906Y-9329728D01*
X14949254Y-9331808D01*
X14953075Y-9335193D01*
X14960053Y-9338749D01*
X14960179Y-9338814D01*
X14966763Y-9342270D01*
X14966764Y-9342270D01*
X14967400Y-9342604D01*
X14967790Y-9342691D01*
X14967790Y-9342691D01*
X14974987Y-9344299D01*
X14975247Y-9344360D01*
X14982101Y-9346050D01*
X14982102Y-9346050D01*
X14982631Y-9346180D01*
X14983570Y-9346284D01*
X14983829Y-9346276D01*
X14983830Y-9346276D01*
X14990826Y-9346056D01*
X14991216Y-9346050D01*
X14998109Y-9346050D01*
X15000212Y-9345761D01*
X15000257Y-9345760D01*
X15001005Y-9345542D01*
X15004464Y-9345050D01*
X15721449Y-9345050D01*
X15723570Y-9345284D01*
X15723829Y-9345276D01*
X15723830Y-9345276D01*
X15730826Y-9345056D01*
X15731216Y-9345050D01*
X15734092Y-9345050D01*
X15734092Y-9345050D01*
X15734530Y-9344995D01*
X15735694Y-9344903D01*
X15740257Y-9344760D01*
X15742295Y-9344168D01*
X15744199Y-9343773D01*
X15746306Y-9343507D01*
X15750552Y-9341826D01*
X15751656Y-9341448D01*
X15756040Y-9340174D01*
X15757867Y-9339094D01*
X15759614Y-9338238D01*
X15761587Y-9337457D01*
X15765282Y-9334773D01*
X15766255Y-9334133D01*
X15770186Y-9331808D01*
X15771687Y-9330307D01*
X15773166Y-9329044D01*
X15774884Y-9327796D01*
X15777795Y-9324277D01*
X15778579Y-9323415D01*
X15864782Y-9237213D01*
X15869718Y-9234188D01*
X15875490Y-9233734D01*
X15880838Y-9235949D01*
X15884598Y-9240351D01*
X15885950Y-9245981D01*
X15885950Y-9249468D01*
X15887403Y-9256774D01*
X15887403Y-9256774D01*
X15887403Y-9256774D01*
X15892940Y-9265060D01*
X15901226Y-9270597D01*
X15904879Y-9271323D01*
X15908532Y-9272050D01*
X15908533Y-9272050D01*
X15908550Y-9272050D01*
X15908600Y-9272063D01*
X15909730Y-9272288D01*
X15909716Y-9272362D01*
X15914750Y-9273711D01*
X15919289Y-9278250D01*
X15920950Y-9284450D01*
X15920950Y-9378777D01*
X15920006Y-9383522D01*
X15917318Y-9387545D01*
X15665436Y-9639427D01*
X15664073Y-9640605D01*
X15662147Y-9642039D01*
X15658963Y-9645833D01*
X15658234Y-9646629D01*
X15657841Y-9647022D01*
X15655918Y-9649455D01*
X15655690Y-9649734D01*
X15650789Y-9655574D01*
X15649742Y-9657219D01*
X15646519Y-9664129D01*
X15646362Y-9664454D01*
X15642939Y-9671269D01*
X15642300Y-9673110D01*
X15640757Y-9680579D01*
X15640679Y-9680931D01*
X15638921Y-9688351D01*
X15638723Y-9690288D01*
X15638945Y-9697913D01*
X15638950Y-9698274D01*
X15638950Y-11248777D01*
X15638006Y-11253522D01*
X15635318Y-11257545D01*
X15508545Y-11384318D01*
X15504522Y-11387006D01*
X15499777Y-11387950D01*
X14434772Y-11387950D01*
X12676450Y-11387950D01*
X12670250Y-11386289D01*
X12665711Y-11381750D01*
X12664050Y-11375550D01*
X12664050Y-11194620D01*
X12665107Y-11189611D01*
X12668096Y-11185457D01*
X12674676Y-11179458D01*
X12686967Y-11163182D01*
X12686967Y-11163182D01*
X12686967Y-11163182D01*
X12695038Y-11146974D01*
X12696058Y-11144925D01*
X12701640Y-11125308D01*
X12703521Y-11105000D01*
X12703521Y-11105000D01*
X12736478Y-11105000D01*
X12738360Y-11125308D01*
X12743942Y-11144925D01*
X12753032Y-11163182D01*
X12765324Y-11179458D01*
X12780396Y-11193198D01*
X12797736Y-11203935D01*
X12797736Y-11203935D01*
X12816754Y-11211302D01*
X12836802Y-11215050D01*
X12857197Y-11215050D01*
X12857198Y-11215050D01*
X12877246Y-11211302D01*
X12896264Y-11203935D01*
X12913604Y-11193198D01*
X12921075Y-11186387D01*
X12928676Y-11179458D01*
X12930417Y-11177153D01*
X12940967Y-11163182D01*
X12940967Y-11163182D01*
X12940967Y-11163182D01*
X12949038Y-11146974D01*
X12950058Y-11144925D01*
X12955640Y-11125308D01*
X12957521Y-11105000D01*
X12957521Y-11105000D01*
X12990478Y-11105000D01*
X12992360Y-11125308D01*
X12997942Y-11144925D01*
X13007032Y-11163182D01*
X13019324Y-11179458D01*
X13034396Y-11193198D01*
X13051736Y-11203935D01*
X13051736Y-11203935D01*
X13070754Y-11211302D01*
X13090802Y-11215050D01*
X13111197Y-11215050D01*
X13111198Y-11215050D01*
X13131246Y-11211302D01*
X13150264Y-11203935D01*
X13167604Y-11193198D01*
X13175075Y-11186387D01*
X13182676Y-11179458D01*
X13184417Y-11177153D01*
X13194967Y-11163182D01*
X13196500Y-11160104D01*
X13200878Y-11155211D01*
X13207142Y-11153240D01*
X13213533Y-11154743D01*
X13218261Y-11159300D01*
X13220000Y-11165631D01*
X13220000Y-11194782D01*
X13220640Y-11200737D01*
X13225665Y-11214209D01*
X13234281Y-11225719D01*
X13245791Y-11234335D01*
X13259262Y-11239360D01*
X13265218Y-11240000D01*
X13330000Y-11240000D01*
X13330000Y-11130000D01*
X13380000Y-11130000D01*
X13380000Y-11240000D01*
X13444782Y-11240000D01*
X13450737Y-11239360D01*
X13464209Y-11234335D01*
X13475719Y-11225719D01*
X13484335Y-11214209D01*
X13489360Y-11200737D01*
X13490000Y-11194782D01*
X13490000Y-11130000D01*
X13380000Y-11130000D01*
X13330000Y-11130000D01*
X13330000Y-10970000D01*
X13380000Y-10970000D01*
X13380000Y-11080000D01*
X13490000Y-11080000D01*
X13490000Y-11015218D01*
X13489360Y-11009262D01*
X13484335Y-10995791D01*
X13475719Y-10984281D01*
X13464209Y-10975665D01*
X13450737Y-10970640D01*
X13444782Y-10970000D01*
X13380000Y-10970000D01*
X13330000Y-10970000D01*
X13265218Y-10970000D01*
X13259262Y-10970640D01*
X13245791Y-10975665D01*
X13234281Y-10984281D01*
X13225665Y-10995791D01*
X13220640Y-11009262D01*
X13220000Y-11015218D01*
X13220000Y-11044369D01*
X13218261Y-11050701D01*
X13213533Y-11055257D01*
X13207142Y-11056760D01*
X13200878Y-11054789D01*
X13196500Y-11049896D01*
X13194967Y-11046818D01*
X13182676Y-11030542D01*
X13167604Y-11016802D01*
X13150264Y-11006065D01*
X13131246Y-10998698D01*
X13120344Y-10996660D01*
X13111198Y-10994950D01*
X13090802Y-10994950D01*
X13081656Y-10996660D01*
X13070754Y-10998698D01*
X13051736Y-11006065D01*
X13034396Y-11016802D01*
X13019324Y-11030542D01*
X13007032Y-11046818D01*
X12997942Y-11065075D01*
X12992360Y-11084692D01*
X12990478Y-11105000D01*
X12957521Y-11105000D01*
X12955640Y-11084692D01*
X12950058Y-11065075D01*
X12950021Y-11065000D01*
X12940967Y-11046818D01*
X12928676Y-11030542D01*
X12913604Y-11016802D01*
X12896264Y-11006065D01*
X12877246Y-10998698D01*
X12866344Y-10996660D01*
X12857198Y-10994950D01*
X12836802Y-10994950D01*
X12827656Y-10996660D01*
X12816754Y-10998698D01*
X12797736Y-11006065D01*
X12780396Y-11016802D01*
X12765324Y-11030542D01*
X12753032Y-11046818D01*
X12743942Y-11065075D01*
X12738360Y-11084692D01*
X12736478Y-11105000D01*
X12703521Y-11105000D01*
X12701640Y-11084692D01*
X12696058Y-11065075D01*
X12696021Y-11065000D01*
X12686967Y-11046818D01*
X12674676Y-11030542D01*
X12659604Y-11016802D01*
X12642264Y-11006065D01*
X12623246Y-10998698D01*
X12612344Y-10996660D01*
X12603198Y-10994950D01*
X12582802Y-10994950D01*
X12573656Y-10996660D01*
X12562754Y-10998698D01*
X12543736Y-11006065D01*
X12526396Y-11016802D01*
X12511324Y-11030542D01*
X12499032Y-11046818D01*
X12489942Y-11065075D01*
X12484360Y-11084692D01*
X12482478Y-11105000D01*
X12484360Y-11125308D01*
X12489942Y-11144925D01*
X12499032Y-11163182D01*
X12511445Y-11179619D01*
X12513307Y-11183151D01*
X12513950Y-11187092D01*
X12513950Y-11375550D01*
X12512289Y-11381750D01*
X12507750Y-11386289D01*
X12501550Y-11387950D01*
X12229772Y-11387950D01*
X11454772Y-11387950D01*
X11122223Y-11387950D01*
X11117478Y-11387006D01*
X11113455Y-11384318D01*
X11046182Y-11317045D01*
X11043494Y-11313022D01*
X11042550Y-11308277D01*
X11042550Y-10363371D01*
X11042681Y-10361574D01*
X11042734Y-10361212D01*
X11043029Y-10359198D01*
X11042597Y-10354263D01*
X11042550Y-10353182D01*
X11042550Y-10328310D01*
X11044215Y-10322103D01*
X11048763Y-10317564D01*
X11054972Y-10315910D01*
X11106000Y-10316000D01*
X11102408Y-9402776D01*
X11102500Y-9402308D01*
X11102500Y-9386252D01*
X11102399Y-9385261D01*
X11102335Y-9384051D01*
X11102000Y-9299000D01*
X10836210Y-9299000D01*
X10830005Y-9297336D01*
X10825466Y-9292790D01*
X10823810Y-9286583D01*
X10823823Y-9277052D01*
X10824000Y-9150000D01*
X10822508Y-9149990D01*
X10716614Y-9149249D01*
X10710856Y-9147785D01*
X10705953Y-9145165D01*
X10692500Y-9141084D01*
X10690990Y-9142204D01*
X10690824Y-9142818D01*
X10686250Y-9147361D01*
X10680013Y-9148993D01*
X10654813Y-9148817D01*
X10648650Y-9147127D01*
X10644147Y-9142592D01*
X10644052Y-9142235D01*
X10642500Y-9141084D01*
X10629047Y-9145165D01*
X10625415Y-9147106D01*
X10619483Y-9148570D01*
X10538000Y-9148000D01*
X10538000Y-9478989D01*
X10536342Y-9485183D01*
X10531812Y-9489721D01*
X10525620Y-9491389D01*
X10417696Y-9491562D01*
X10324470Y-9491711D01*
X10318262Y-9490057D01*
X10313715Y-9485517D01*
X10312050Y-9479312D01*
X10312050Y-9326258D01*
X10312128Y-9324870D01*
X10312527Y-9321328D01*
X10311847Y-9317736D01*
X10311464Y-9315708D01*
X10311386Y-9315253D01*
X10310445Y-9309007D01*
X10310284Y-9308517D01*
X10308758Y-9305630D01*
X10307329Y-9302927D01*
X10307122Y-9302515D01*
X10304382Y-9296825D01*
X10304082Y-9296403D01*
X10299616Y-9291938D01*
X10299295Y-9291604D01*
X10295783Y-9287819D01*
X10295406Y-9287412D01*
X10295405Y-9287412D01*
X10294996Y-9286971D01*
X10293507Y-9285828D01*
X10217605Y-9209927D01*
X10216679Y-9208890D01*
X10214456Y-9206103D01*
X10209729Y-9202880D01*
X10209355Y-9202615D01*
X10204272Y-9198863D01*
X10203811Y-9198630D01*
X10197773Y-9196768D01*
X10197333Y-9196623D01*
X10191371Y-9194537D01*
X10190860Y-9194450D01*
X10190259Y-9194450D01*
X10184542Y-9194450D01*
X10184078Y-9194441D01*
X10177765Y-9194205D01*
X10175905Y-9194450D01*
X10173641Y-9194450D01*
X10167281Y-9192695D01*
X10162721Y-9187926D01*
X10153254Y-9170332D01*
X10139219Y-9152733D01*
X10139219Y-9152733D01*
X10132278Y-9146669D01*
X10129150Y-9142466D01*
X10128036Y-9137347D01*
X10128026Y-9128875D01*
X10127968Y-9084000D01*
X9760000Y-9084000D01*
X9759993Y-9414239D01*
X9759469Y-9417805D01*
X9757942Y-9421070D01*
X9749405Y-9434003D01*
X9746447Y-9440924D01*
X9743747Y-9444884D01*
X9739747Y-9447524D01*
X9735045Y-9448450D01*
X9722695Y-9448450D01*
X9721306Y-9448372D01*
X9720861Y-9448322D01*
X9717765Y-9447973D01*
X9712147Y-9449036D01*
X9711690Y-9449113D01*
X9705444Y-9450055D01*
X9704952Y-9450217D01*
X9699365Y-9453170D01*
X9698951Y-9453379D01*
X9693263Y-9456118D01*
X9692839Y-9456419D01*
X9688373Y-9460885D01*
X9688039Y-9461206D01*
X9683408Y-9465504D01*
X9682265Y-9466993D01*
X9629426Y-9519831D01*
X9628390Y-9520758D01*
X9625603Y-9522980D01*
X9622382Y-9527704D01*
X9622114Y-9528082D01*
X9618363Y-9533164D01*
X9618130Y-9533626D01*
X9616267Y-9539665D01*
X9616123Y-9540105D01*
X9614037Y-9546066D01*
X9613950Y-9546577D01*
X9613950Y-9552895D01*
X9613941Y-9553358D01*
X9613705Y-9559671D01*
X9613950Y-9561532D01*
X9613950Y-10913774D01*
X9613872Y-10915162D01*
X9613473Y-10918703D01*
X9067088Y-10918703D01*
X9068721Y-8235000D01*
X9244944Y-8235000D01*
X9246803Y-8258630D01*
X9252337Y-8281679D01*
X9257315Y-8293698D01*
X9261408Y-8303578D01*
X9273793Y-8323789D01*
X9289187Y-8341813D01*
X9307211Y-8357207D01*
X9327422Y-8369592D01*
X9343601Y-8376294D01*
X9349321Y-8378663D01*
X9356602Y-8380411D01*
X9372370Y-8384197D01*
X9396000Y-8386056D01*
X9419630Y-8384197D01*
X9442679Y-8378663D01*
X9464578Y-8369592D01*
X9484789Y-8357207D01*
X9502813Y-8341813D01*
X9518207Y-8323789D01*
X9530592Y-8303578D01*
X9539663Y-8281679D01*
X9545197Y-8258630D01*
X9547056Y-8235000D01*
X9545197Y-8211370D01*
X9540630Y-8192349D01*
X9539663Y-8188321D01*
X9535586Y-8178478D01*
X9530592Y-8166422D01*
X9518207Y-8146211D01*
X9502813Y-8128187D01*
X9484789Y-8112793D01*
X9464578Y-8100408D01*
X9456489Y-8097057D01*
X9442679Y-8091337D01*
X9419631Y-8085803D01*
X9403188Y-8084509D01*
X9396000Y-8083944D01*
X9396000Y-8083944D01*
X9372369Y-8085803D01*
X9349321Y-8091337D01*
X9327422Y-8100408D01*
X9307211Y-8112793D01*
X9289187Y-8128187D01*
X9273793Y-8146211D01*
X9261408Y-8166422D01*
X9252337Y-8188321D01*
X9246803Y-8211369D01*
X9244944Y-8235000D01*
X9068721Y-8235000D01*
X9068836Y-8047000D01*
X9745433Y-8047000D01*
X9747371Y-8070383D01*
X9747371Y-8070383D01*
X9747371Y-8070383D01*
X9753131Y-8093129D01*
X9757354Y-8102758D01*
X9762556Y-8114616D01*
X9762556Y-8114616D01*
X9775389Y-8134259D01*
X9791281Y-8151522D01*
X9809797Y-8165934D01*
X9830432Y-8177101D01*
X9835818Y-8178950D01*
X9852624Y-8184720D01*
X9852624Y-8184720D01*
X9852625Y-8184720D01*
X9875768Y-8188582D01*
X9899232Y-8188582D01*
X9899232Y-8188582D01*
X9922375Y-8184720D01*
X9944568Y-8177101D01*
X9965203Y-8165934D01*
X9983719Y-8151522D01*
X9999611Y-8134259D01*
X10012444Y-8114616D01*
X10021869Y-8093129D01*
X10027629Y-8070383D01*
X10028490Y-8060000D01*
X10785000Y-8060000D01*
X10785000Y-8124782D01*
X10785640Y-8130737D01*
X10790665Y-8144209D01*
X10799281Y-8155719D01*
X10810791Y-8164335D01*
X10824262Y-8169360D01*
X10830218Y-8170000D01*
X10895000Y-8170000D01*
X10895000Y-8060000D01*
X10945000Y-8060000D01*
X10945000Y-8170000D01*
X11009782Y-8170000D01*
X11015738Y-8169360D01*
X11029209Y-8164335D01*
X11040719Y-8155719D01*
X11049335Y-8144209D01*
X11054261Y-8131001D01*
X11057759Y-8125963D01*
X11063244Y-8123218D01*
X11069373Y-8123437D01*
X11074648Y-8126566D01*
X11086892Y-8138811D01*
X11106242Y-8152360D01*
X11127651Y-8162343D01*
X11149000Y-8168063D01*
X11149000Y-8168064D01*
X11149000Y-8060000D01*
X11199000Y-8060000D01*
X11199000Y-8168063D01*
X11220349Y-8162343D01*
X11241758Y-8152360D01*
X11261108Y-8138811D01*
X11277811Y-8122108D01*
X11290842Y-8103497D01*
X11295274Y-8099610D01*
X11301000Y-8098209D01*
X11306726Y-8099610D01*
X11311157Y-8103497D01*
X11324189Y-8122108D01*
X11340892Y-8138811D01*
X11360242Y-8152360D01*
X11381651Y-8162343D01*
X11403000Y-8168063D01*
X11403000Y-8168064D01*
X11403000Y-8060000D01*
X11199000Y-8060000D01*
X11149000Y-8060000D01*
X10945000Y-8060000D01*
X10895000Y-8060000D01*
X10785000Y-8060000D01*
X10028490Y-8060000D01*
X10029567Y-8047000D01*
X10027629Y-8023616D01*
X10024181Y-8010000D01*
X10785000Y-8010000D01*
X10895000Y-8010000D01*
X10895000Y-7900000D01*
X10945000Y-7900000D01*
X10945000Y-8010000D01*
X11149000Y-8010000D01*
X11199000Y-8010000D01*
X11403000Y-8010000D01*
X11403000Y-7901936D01*
X11453000Y-7901936D01*
X11453000Y-8168063D01*
X11474349Y-8162343D01*
X11495758Y-8152360D01*
X11515108Y-8138811D01*
X11531811Y-8122108D01*
X11545360Y-8102758D01*
X11555343Y-8081349D01*
X11556241Y-8077999D01*
X11559106Y-8072798D01*
X11564061Y-8069526D01*
X11569969Y-8068932D01*
X11575476Y-8071154D01*
X11579318Y-8075681D01*
X11588033Y-8093182D01*
X11600324Y-8109458D01*
X11615396Y-8123198D01*
X11632736Y-8133935D01*
X11632736Y-8133935D01*
X11651754Y-8141302D01*
X11671802Y-8145050D01*
X11692197Y-8145050D01*
X11692198Y-8145050D01*
X11712246Y-8141302D01*
X11731264Y-8133935D01*
X11748604Y-8123198D01*
X11754203Y-8118094D01*
X11763676Y-8109458D01*
X11769375Y-8101912D01*
X11775967Y-8093182D01*
X11775967Y-8093182D01*
X11775967Y-8093182D01*
X11783528Y-8077999D01*
X11785058Y-8074925D01*
X11790640Y-8055308D01*
X11792521Y-8035000D01*
X11825478Y-8035000D01*
X11827360Y-8055308D01*
X11832942Y-8074925D01*
X11842032Y-8093182D01*
X11854324Y-8109458D01*
X11869396Y-8123198D01*
X11886736Y-8133935D01*
X11886736Y-8133935D01*
X11905754Y-8141302D01*
X11925802Y-8145050D01*
X11946197Y-8145050D01*
X11946198Y-8145050D01*
X11966246Y-8141302D01*
X11985264Y-8133935D01*
X12002604Y-8123198D01*
X12008203Y-8118094D01*
X12017676Y-8109458D01*
X12023375Y-8101912D01*
X12029967Y-8093182D01*
X12029967Y-8093182D01*
X12029967Y-8093182D01*
X12037528Y-8077999D01*
X12039058Y-8074925D01*
X12044640Y-8055308D01*
X12046521Y-8035000D01*
X12044640Y-8014692D01*
X12044324Y-8013581D01*
X12041621Y-8004084D01*
X12039058Y-7995075D01*
X12033111Y-7983131D01*
X12029967Y-7976818D01*
X12017676Y-7960542D01*
X12002604Y-7946802D01*
X11985264Y-7936065D01*
X11966246Y-7928698D01*
X11959563Y-7927448D01*
X11946198Y-7924950D01*
X11925802Y-7924950D01*
X11915778Y-7926824D01*
X11905754Y-7928698D01*
X11886736Y-7936065D01*
X11869396Y-7946802D01*
X11854324Y-7960542D01*
X11842032Y-7976818D01*
X11832942Y-7995075D01*
X11827360Y-8014692D01*
X11825478Y-8035000D01*
X11792521Y-8035000D01*
X11790640Y-8014692D01*
X11790324Y-8013581D01*
X11787621Y-8004084D01*
X11785058Y-7995075D01*
X11779111Y-7983131D01*
X11775967Y-7976818D01*
X11763676Y-7960542D01*
X11748604Y-7946802D01*
X11731264Y-7936065D01*
X11712246Y-7928698D01*
X11705563Y-7927448D01*
X11692198Y-7924950D01*
X11671802Y-7924950D01*
X11661778Y-7926824D01*
X11651754Y-7928698D01*
X11632736Y-7936065D01*
X11615396Y-7946802D01*
X11600324Y-7960542D01*
X11588033Y-7976818D01*
X11579318Y-7994319D01*
X11575476Y-7998846D01*
X11569969Y-8001067D01*
X11564061Y-8000474D01*
X11559106Y-7997202D01*
X11556241Y-7992001D01*
X11555343Y-7988651D01*
X11545360Y-7967242D01*
X11531811Y-7947892D01*
X11515108Y-7931189D01*
X11495758Y-7917640D01*
X11474349Y-7907657D01*
X11453000Y-7901936D01*
X11403000Y-7901936D01*
X11403000Y-7901936D01*
X11381651Y-7907657D01*
X11360242Y-7917640D01*
X11340892Y-7931189D01*
X11324189Y-7947892D01*
X11311157Y-7966503D01*
X11306726Y-7970390D01*
X11301000Y-7971791D01*
X11295274Y-7970390D01*
X11290842Y-7966503D01*
X11277811Y-7947892D01*
X11261108Y-7931189D01*
X11241758Y-7917640D01*
X11220349Y-7907657D01*
X11199000Y-7901936D01*
X11199000Y-8010000D01*
X11149000Y-8010000D01*
X11149000Y-7901936D01*
X11127651Y-7907657D01*
X11106242Y-7917640D01*
X11086892Y-7931189D01*
X11074648Y-7943433D01*
X11069373Y-7946563D01*
X11063244Y-7946782D01*
X11057759Y-7944037D01*
X11054261Y-7938999D01*
X11049335Y-7925791D01*
X11040719Y-7914281D01*
X11029209Y-7905665D01*
X11015738Y-7900640D01*
X11009782Y-7900000D01*
X10945000Y-7900000D01*
X10895000Y-7900000D01*
X10830218Y-7900000D01*
X10824262Y-7900640D01*
X10810791Y-7905665D01*
X10799281Y-7914281D01*
X10790665Y-7925791D01*
X10785640Y-7939262D01*
X10785000Y-7945218D01*
X10785000Y-8010000D01*
X10024181Y-8010000D01*
X10021869Y-8000871D01*
X10012444Y-7979384D01*
X9999611Y-7959741D01*
X9983719Y-7942478D01*
X9965203Y-7928066D01*
X9944568Y-7916899D01*
X9944567Y-7916899D01*
X9944567Y-7916899D01*
X9922376Y-7909280D01*
X9902727Y-7906001D01*
X9899232Y-7905418D01*
X9875768Y-7905418D01*
X9872273Y-7906001D01*
X9852624Y-7909280D01*
X9830433Y-7916899D01*
X9830432Y-7916899D01*
X9830432Y-7916899D01*
X9829063Y-7917640D01*
X9809797Y-7928066D01*
X9791281Y-7942478D01*
X9781233Y-7953392D01*
X9775389Y-7959741D01*
X9772847Y-7963632D01*
X9762556Y-7979384D01*
X9755673Y-7995075D01*
X9753131Y-8000871D01*
X9747371Y-8023616D01*
X9747371Y-8023617D01*
X9745433Y-8047000D01*
X9068836Y-8047000D01*
X9068992Y-7789399D01*
X9070657Y-7783201D01*
X9075199Y-7778665D01*
X9081400Y-7777007D01*
X11826468Y-7778606D01*
G37*
%TD.AperFunction*%
%TD*%
D40*
X17448541Y-8236000D02*
G75*
G03*
X17448541Y-8236000I-150541J0D01*
G01*
D41*
X16180000Y-8037000D02*
X16360000Y-8037000D01*
X16360000Y-9277000D01*
X16180000Y-9277000D01*
X16180000Y-8037000D01*
X16832500Y-8047000D02*
G75*
G03*
X16832500Y-8047000I-141532J0D01*
G01*
X10029032Y-8047000D02*
G75*
G03*
X10029032Y-8047000I-141532J0D01*
G01*
D40*
X9557541Y-12227000D02*
G75*
G03*
X9557541Y-12227000I-150541J0D01*
G01*
X9546541Y-8235000D02*
G75*
G03*
X9546541Y-8235000I-150541J0D01*
G01*
X17447541Y-12227000D02*
G75*
G03*
X17447541Y-12227000I-150541J0D01*
G01*
D41*
X10075000Y-11957000D02*
G75*
G03*
X10075000Y-11957000I-141532J0D01*
G01*
X16833000Y-11969500D02*
G75*
G03*
X16833000Y-11969500I-141532J0D01*
G01*
X9056000Y-7769500D02*
X17653000Y-7769500D01*
X17653000Y-12719500D01*
X9056000Y-12719500D01*
X9056000Y-7769500D01*
M02*
