%TF.GenerationSoftware,KiCad,Pcbnew,7.0.1*%
%TF.CreationDate,2024-01-20T13:41:41+00:00*%
%TF.ProjectId,Control_Board,436f6e74-726f-46c5-9f42-6f6172642e6b,rev?*%
%TF.SameCoordinates,Original*%
%TF.FileFunction,Legend,Bot*%
%TF.FilePolarity,Positive*%
%FSLAX45Y45*%
G04 Gerber Fmt 4.5, Leading zero omitted, Abs format (unit mm)*
G04 Created by KiCad (PCBNEW 7.0.1) date 2024-01-20 13:41:41*
%MOMM*%
%LPD*%
G01*
G04 APERTURE LIST*
%ADD10C,0.100000*%
%ADD11C,0.150000*%
%ADD12C,0.300000*%
%ADD13C,0.400000*%
%ADD14C,0.120000*%
%ADD15C,0.175000*%
%TA.AperFunction,Profile*%
%ADD16C,0.200000*%
%TD*%
%TA.AperFunction,Profile*%
%ADD17C,0.100000*%
%TD*%
G04 APERTURE END LIST*
D10*
D11*
X17700220Y-16600720D02*
X28500220Y-16600720D01*
X28500220Y-19800720D01*
X17700220Y-19800720D01*
X17700220Y-16600720D01*
D10*
D11*
X1000000Y-1000000D02*
X28700220Y-1000000D01*
X28700220Y-20000720D01*
X1000000Y-20000720D01*
X1000000Y-1000000D01*
D10*
D11*
X1200000Y-1200000D02*
X28500220Y-1200000D01*
X28500220Y-19800720D01*
X1200000Y-19800720D01*
X1200000Y-1200000D01*
D10*
D11*
X6000000Y-1200000D02*
X6000000Y-1000000D01*
D10*
D11*
X11000000Y-1200000D02*
X11000000Y-1000000D01*
D10*
D11*
X16000000Y-1200000D02*
X16000000Y-1000000D01*
D10*
D11*
X21000000Y-1200000D02*
X21000000Y-1000000D01*
D10*
D11*
X26000000Y-1200000D02*
X26000000Y-1000000D01*
D10*
D11*
X3599048Y-1160140D02*
X3524762Y-1160140D01*
X3561905Y-1160140D02*
X3561905Y-1030140D01*
X3561905Y-1030140D02*
X3549524Y-1048712D01*
X3549524Y-1048712D02*
X3537143Y-1061093D01*
X3537143Y-1061093D02*
X3524762Y-1067283D01*
D10*
D11*
X8524762Y-1042521D02*
X8530952Y-1036331D01*
X8530952Y-1036331D02*
X8543333Y-1030140D01*
X8543333Y-1030140D02*
X8574286Y-1030140D01*
X8574286Y-1030140D02*
X8586667Y-1036331D01*
X8586667Y-1036331D02*
X8592857Y-1042521D01*
X8592857Y-1042521D02*
X8599048Y-1054902D01*
X8599048Y-1054902D02*
X8599048Y-1067283D01*
X8599048Y-1067283D02*
X8592857Y-1085855D01*
X8592857Y-1085855D02*
X8518571Y-1160140D01*
X8518571Y-1160140D02*
X8599048Y-1160140D01*
D10*
D11*
X13518571Y-1030140D02*
X13599048Y-1030140D01*
X13599048Y-1030140D02*
X13555714Y-1079664D01*
X13555714Y-1079664D02*
X13574286Y-1079664D01*
X13574286Y-1079664D02*
X13586667Y-1085855D01*
X13586667Y-1085855D02*
X13592857Y-1092045D01*
X13592857Y-1092045D02*
X13599048Y-1104426D01*
X13599048Y-1104426D02*
X13599048Y-1135379D01*
X13599048Y-1135379D02*
X13592857Y-1147760D01*
X13592857Y-1147760D02*
X13586667Y-1153950D01*
X13586667Y-1153950D02*
X13574286Y-1160140D01*
X13574286Y-1160140D02*
X13537143Y-1160140D01*
X13537143Y-1160140D02*
X13524762Y-1153950D01*
X13524762Y-1153950D02*
X13518571Y-1147760D01*
D10*
D11*
X18586667Y-1073474D02*
X18586667Y-1160140D01*
X18555714Y-1023950D02*
X18524762Y-1116807D01*
X18524762Y-1116807D02*
X18605238Y-1116807D01*
D10*
D11*
X23592857Y-1030140D02*
X23530952Y-1030140D01*
X23530952Y-1030140D02*
X23524762Y-1092045D01*
X23524762Y-1092045D02*
X23530952Y-1085855D01*
X23530952Y-1085855D02*
X23543333Y-1079664D01*
X23543333Y-1079664D02*
X23574286Y-1079664D01*
X23574286Y-1079664D02*
X23586667Y-1085855D01*
X23586667Y-1085855D02*
X23592857Y-1092045D01*
X23592857Y-1092045D02*
X23599048Y-1104426D01*
X23599048Y-1104426D02*
X23599048Y-1135379D01*
X23599048Y-1135379D02*
X23592857Y-1147760D01*
X23592857Y-1147760D02*
X23586667Y-1153950D01*
X23586667Y-1153950D02*
X23574286Y-1160140D01*
X23574286Y-1160140D02*
X23543333Y-1160140D01*
X23543333Y-1160140D02*
X23530952Y-1153950D01*
X23530952Y-1153950D02*
X23524762Y-1147760D01*
D10*
D11*
X28586667Y-1030140D02*
X28561905Y-1030140D01*
X28561905Y-1030140D02*
X28549524Y-1036331D01*
X28549524Y-1036331D02*
X28543333Y-1042521D01*
X28543333Y-1042521D02*
X28530952Y-1061093D01*
X28530952Y-1061093D02*
X28524762Y-1085855D01*
X28524762Y-1085855D02*
X28524762Y-1135379D01*
X28524762Y-1135379D02*
X28530952Y-1147760D01*
X28530952Y-1147760D02*
X28537143Y-1153950D01*
X28537143Y-1153950D02*
X28549524Y-1160140D01*
X28549524Y-1160140D02*
X28574286Y-1160140D01*
X28574286Y-1160140D02*
X28586667Y-1153950D01*
X28586667Y-1153950D02*
X28592857Y-1147760D01*
X28592857Y-1147760D02*
X28599048Y-1135379D01*
X28599048Y-1135379D02*
X28599048Y-1104426D01*
X28599048Y-1104426D02*
X28592857Y-1092045D01*
X28592857Y-1092045D02*
X28586667Y-1085855D01*
X28586667Y-1085855D02*
X28574286Y-1079664D01*
X28574286Y-1079664D02*
X28549524Y-1079664D01*
X28549524Y-1079664D02*
X28537143Y-1085855D01*
X28537143Y-1085855D02*
X28530952Y-1092045D01*
X28530952Y-1092045D02*
X28524762Y-1104426D01*
D10*
D11*
X6000000Y-19800720D02*
X6000000Y-20000720D01*
D10*
D11*
X11000000Y-19800720D02*
X11000000Y-20000720D01*
D10*
D11*
X16000000Y-19800720D02*
X16000000Y-20000720D01*
D10*
D11*
X21000000Y-19800720D02*
X21000000Y-20000720D01*
D10*
D11*
X26000000Y-19800720D02*
X26000000Y-20000720D01*
D10*
D11*
X3599048Y-19960860D02*
X3524762Y-19960860D01*
X3561905Y-19960860D02*
X3561905Y-19830860D01*
X3561905Y-19830860D02*
X3549524Y-19849432D01*
X3549524Y-19849432D02*
X3537143Y-19861813D01*
X3537143Y-19861813D02*
X3524762Y-19868003D01*
D10*
D11*
X8524762Y-19843241D02*
X8530952Y-19837051D01*
X8530952Y-19837051D02*
X8543333Y-19830860D01*
X8543333Y-19830860D02*
X8574286Y-19830860D01*
X8574286Y-19830860D02*
X8586667Y-19837051D01*
X8586667Y-19837051D02*
X8592857Y-19843241D01*
X8592857Y-19843241D02*
X8599048Y-19855622D01*
X8599048Y-19855622D02*
X8599048Y-19868003D01*
X8599048Y-19868003D02*
X8592857Y-19886575D01*
X8592857Y-19886575D02*
X8518571Y-19960860D01*
X8518571Y-19960860D02*
X8599048Y-19960860D01*
D10*
D11*
X13518571Y-19830860D02*
X13599048Y-19830860D01*
X13599048Y-19830860D02*
X13555714Y-19880384D01*
X13555714Y-19880384D02*
X13574286Y-19880384D01*
X13574286Y-19880384D02*
X13586667Y-19886575D01*
X13586667Y-19886575D02*
X13592857Y-19892765D01*
X13592857Y-19892765D02*
X13599048Y-19905146D01*
X13599048Y-19905146D02*
X13599048Y-19936099D01*
X13599048Y-19936099D02*
X13592857Y-19948480D01*
X13592857Y-19948480D02*
X13586667Y-19954670D01*
X13586667Y-19954670D02*
X13574286Y-19960860D01*
X13574286Y-19960860D02*
X13537143Y-19960860D01*
X13537143Y-19960860D02*
X13524762Y-19954670D01*
X13524762Y-19954670D02*
X13518571Y-19948480D01*
D10*
D11*
X18586667Y-19874194D02*
X18586667Y-19960860D01*
X18555714Y-19824670D02*
X18524762Y-19917527D01*
X18524762Y-19917527D02*
X18605238Y-19917527D01*
D10*
D11*
X23592857Y-19830860D02*
X23530952Y-19830860D01*
X23530952Y-19830860D02*
X23524762Y-19892765D01*
X23524762Y-19892765D02*
X23530952Y-19886575D01*
X23530952Y-19886575D02*
X23543333Y-19880384D01*
X23543333Y-19880384D02*
X23574286Y-19880384D01*
X23574286Y-19880384D02*
X23586667Y-19886575D01*
X23586667Y-19886575D02*
X23592857Y-19892765D01*
X23592857Y-19892765D02*
X23599048Y-19905146D01*
X23599048Y-19905146D02*
X23599048Y-19936099D01*
X23599048Y-19936099D02*
X23592857Y-19948480D01*
X23592857Y-19948480D02*
X23586667Y-19954670D01*
X23586667Y-19954670D02*
X23574286Y-19960860D01*
X23574286Y-19960860D02*
X23543333Y-19960860D01*
X23543333Y-19960860D02*
X23530952Y-19954670D01*
X23530952Y-19954670D02*
X23524762Y-19948480D01*
D10*
D11*
X28586667Y-19830860D02*
X28561905Y-19830860D01*
X28561905Y-19830860D02*
X28549524Y-19837051D01*
X28549524Y-19837051D02*
X28543333Y-19843241D01*
X28543333Y-19843241D02*
X28530952Y-19861813D01*
X28530952Y-19861813D02*
X28524762Y-19886575D01*
X28524762Y-19886575D02*
X28524762Y-19936099D01*
X28524762Y-19936099D02*
X28530952Y-19948480D01*
X28530952Y-19948480D02*
X28537143Y-19954670D01*
X28537143Y-19954670D02*
X28549524Y-19960860D01*
X28549524Y-19960860D02*
X28574286Y-19960860D01*
X28574286Y-19960860D02*
X28586667Y-19954670D01*
X28586667Y-19954670D02*
X28592857Y-19948480D01*
X28592857Y-19948480D02*
X28599048Y-19936099D01*
X28599048Y-19936099D02*
X28599048Y-19905146D01*
X28599048Y-19905146D02*
X28592857Y-19892765D01*
X28592857Y-19892765D02*
X28586667Y-19886575D01*
X28586667Y-19886575D02*
X28574286Y-19880384D01*
X28574286Y-19880384D02*
X28549524Y-19880384D01*
X28549524Y-19880384D02*
X28537143Y-19886575D01*
X28537143Y-19886575D02*
X28530952Y-19892765D01*
X28530952Y-19892765D02*
X28524762Y-19905146D01*
D10*
D11*
X1000000Y-6000000D02*
X1200000Y-6000000D01*
D10*
D11*
X1000000Y-11000000D02*
X1200000Y-11000000D01*
D10*
D11*
X1000000Y-16000000D02*
X1200000Y-16000000D01*
D10*
D11*
X1069048Y-3522998D02*
X1130952Y-3522998D01*
X1056667Y-3560140D02*
X1100000Y-3430140D01*
X1100000Y-3430140D02*
X1143333Y-3560140D01*
D10*
D11*
X1109286Y-8492045D02*
X1127857Y-8498236D01*
X1127857Y-8498236D02*
X1134048Y-8504426D01*
X1134048Y-8504426D02*
X1140238Y-8516807D01*
X1140238Y-8516807D02*
X1140238Y-8535379D01*
X1140238Y-8535379D02*
X1134048Y-8547760D01*
X1134048Y-8547760D02*
X1127857Y-8553950D01*
X1127857Y-8553950D02*
X1115476Y-8560140D01*
X1115476Y-8560140D02*
X1065952Y-8560140D01*
X1065952Y-8560140D02*
X1065952Y-8430140D01*
X1065952Y-8430140D02*
X1109286Y-8430140D01*
X1109286Y-8430140D02*
X1121667Y-8436331D01*
X1121667Y-8436331D02*
X1127857Y-8442521D01*
X1127857Y-8442521D02*
X1134048Y-8454902D01*
X1134048Y-8454902D02*
X1134048Y-8467283D01*
X1134048Y-8467283D02*
X1127857Y-8479664D01*
X1127857Y-8479664D02*
X1121667Y-8485855D01*
X1121667Y-8485855D02*
X1109286Y-8492045D01*
X1109286Y-8492045D02*
X1065952Y-8492045D01*
D10*
D11*
X1140238Y-13547759D02*
X1134048Y-13553950D01*
X1134048Y-13553950D02*
X1115476Y-13560140D01*
X1115476Y-13560140D02*
X1103095Y-13560140D01*
X1103095Y-13560140D02*
X1084524Y-13553950D01*
X1084524Y-13553950D02*
X1072143Y-13541569D01*
X1072143Y-13541569D02*
X1065952Y-13529188D01*
X1065952Y-13529188D02*
X1059762Y-13504426D01*
X1059762Y-13504426D02*
X1059762Y-13485855D01*
X1059762Y-13485855D02*
X1065952Y-13461093D01*
X1065952Y-13461093D02*
X1072143Y-13448712D01*
X1072143Y-13448712D02*
X1084524Y-13436331D01*
X1084524Y-13436331D02*
X1103095Y-13430140D01*
X1103095Y-13430140D02*
X1115476Y-13430140D01*
X1115476Y-13430140D02*
X1134048Y-13436331D01*
X1134048Y-13436331D02*
X1140238Y-13442521D01*
D10*
D11*
X1065952Y-18560140D02*
X1065952Y-18430140D01*
X1065952Y-18430140D02*
X1096905Y-18430140D01*
X1096905Y-18430140D02*
X1115476Y-18436331D01*
X1115476Y-18436331D02*
X1127857Y-18448712D01*
X1127857Y-18448712D02*
X1134048Y-18461093D01*
X1134048Y-18461093D02*
X1140238Y-18485855D01*
X1140238Y-18485855D02*
X1140238Y-18504426D01*
X1140238Y-18504426D02*
X1134048Y-18529188D01*
X1134048Y-18529188D02*
X1127857Y-18541569D01*
X1127857Y-18541569D02*
X1115476Y-18553950D01*
X1115476Y-18553950D02*
X1096905Y-18560140D01*
X1096905Y-18560140D02*
X1065952Y-18560140D01*
D10*
D11*
X28700220Y-6000000D02*
X28500220Y-6000000D01*
D10*
D11*
X28700220Y-11000000D02*
X28500220Y-11000000D01*
D10*
D11*
X28700220Y-16000000D02*
X28500220Y-16000000D01*
D10*
D11*
X28569268Y-3522998D02*
X28631172Y-3522998D01*
X28556887Y-3560140D02*
X28600220Y-3430140D01*
X28600220Y-3430140D02*
X28643553Y-3560140D01*
D10*
D11*
X28609506Y-8492045D02*
X28628077Y-8498236D01*
X28628077Y-8498236D02*
X28634268Y-8504426D01*
X28634268Y-8504426D02*
X28640458Y-8516807D01*
X28640458Y-8516807D02*
X28640458Y-8535379D01*
X28640458Y-8535379D02*
X28634268Y-8547760D01*
X28634268Y-8547760D02*
X28628077Y-8553950D01*
X28628077Y-8553950D02*
X28615696Y-8560140D01*
X28615696Y-8560140D02*
X28566172Y-8560140D01*
X28566172Y-8560140D02*
X28566172Y-8430140D01*
X28566172Y-8430140D02*
X28609506Y-8430140D01*
X28609506Y-8430140D02*
X28621887Y-8436331D01*
X28621887Y-8436331D02*
X28628077Y-8442521D01*
X28628077Y-8442521D02*
X28634268Y-8454902D01*
X28634268Y-8454902D02*
X28634268Y-8467283D01*
X28634268Y-8467283D02*
X28628077Y-8479664D01*
X28628077Y-8479664D02*
X28621887Y-8485855D01*
X28621887Y-8485855D02*
X28609506Y-8492045D01*
X28609506Y-8492045D02*
X28566172Y-8492045D01*
D10*
D11*
X28640458Y-13547759D02*
X28634268Y-13553950D01*
X28634268Y-13553950D02*
X28615696Y-13560140D01*
X28615696Y-13560140D02*
X28603315Y-13560140D01*
X28603315Y-13560140D02*
X28584744Y-13553950D01*
X28584744Y-13553950D02*
X28572363Y-13541569D01*
X28572363Y-13541569D02*
X28566172Y-13529188D01*
X28566172Y-13529188D02*
X28559982Y-13504426D01*
X28559982Y-13504426D02*
X28559982Y-13485855D01*
X28559982Y-13485855D02*
X28566172Y-13461093D01*
X28566172Y-13461093D02*
X28572363Y-13448712D01*
X28572363Y-13448712D02*
X28584744Y-13436331D01*
X28584744Y-13436331D02*
X28603315Y-13430140D01*
X28603315Y-13430140D02*
X28615696Y-13430140D01*
X28615696Y-13430140D02*
X28634268Y-13436331D01*
X28634268Y-13436331D02*
X28640458Y-13442521D01*
D10*
D11*
X28566172Y-18560140D02*
X28566172Y-18430140D01*
X28566172Y-18430140D02*
X28597125Y-18430140D01*
X28597125Y-18430140D02*
X28615696Y-18436331D01*
X28615696Y-18436331D02*
X28628077Y-18448712D01*
X28628077Y-18448712D02*
X28634268Y-18461093D01*
X28634268Y-18461093D02*
X28640458Y-18485855D01*
X28640458Y-18485855D02*
X28640458Y-18504426D01*
X28640458Y-18504426D02*
X28634268Y-18529188D01*
X28634268Y-18529188D02*
X28628077Y-18541569D01*
X28628077Y-18541569D02*
X28615696Y-18553950D01*
X28615696Y-18553950D02*
X28597125Y-18560140D01*
X28597125Y-18560140D02*
X28566172Y-18560140D01*
D10*
D11*
X20035934Y-19380113D02*
X20035934Y-19230113D01*
X20035934Y-19230113D02*
X20071649Y-19230113D01*
X20071649Y-19230113D02*
X20093077Y-19237256D01*
X20093077Y-19237256D02*
X20107363Y-19251541D01*
X20107363Y-19251541D02*
X20114506Y-19265827D01*
X20114506Y-19265827D02*
X20121649Y-19294399D01*
X20121649Y-19294399D02*
X20121649Y-19315827D01*
X20121649Y-19315827D02*
X20114506Y-19344399D01*
X20114506Y-19344399D02*
X20107363Y-19358684D01*
X20107363Y-19358684D02*
X20093077Y-19372970D01*
X20093077Y-19372970D02*
X20071649Y-19380113D01*
X20071649Y-19380113D02*
X20035934Y-19380113D01*
X20250220Y-19380113D02*
X20250220Y-19301541D01*
X20250220Y-19301541D02*
X20243077Y-19287256D01*
X20243077Y-19287256D02*
X20228791Y-19280113D01*
X20228791Y-19280113D02*
X20200220Y-19280113D01*
X20200220Y-19280113D02*
X20185934Y-19287256D01*
X20250220Y-19372970D02*
X20235934Y-19380113D01*
X20235934Y-19380113D02*
X20200220Y-19380113D01*
X20200220Y-19380113D02*
X20185934Y-19372970D01*
X20185934Y-19372970D02*
X20178791Y-19358684D01*
X20178791Y-19358684D02*
X20178791Y-19344399D01*
X20178791Y-19344399D02*
X20185934Y-19330113D01*
X20185934Y-19330113D02*
X20200220Y-19322970D01*
X20200220Y-19322970D02*
X20235934Y-19322970D01*
X20235934Y-19322970D02*
X20250220Y-19315827D01*
X20300220Y-19280113D02*
X20357363Y-19280113D01*
X20321649Y-19230113D02*
X20321649Y-19358684D01*
X20321649Y-19358684D02*
X20328791Y-19372970D01*
X20328791Y-19372970D02*
X20343077Y-19380113D01*
X20343077Y-19380113D02*
X20357363Y-19380113D01*
X20464506Y-19372970D02*
X20450220Y-19380113D01*
X20450220Y-19380113D02*
X20421649Y-19380113D01*
X20421649Y-19380113D02*
X20407363Y-19372970D01*
X20407363Y-19372970D02*
X20400220Y-19358684D01*
X20400220Y-19358684D02*
X20400220Y-19301541D01*
X20400220Y-19301541D02*
X20407363Y-19287256D01*
X20407363Y-19287256D02*
X20421649Y-19280113D01*
X20421649Y-19280113D02*
X20450220Y-19280113D01*
X20450220Y-19280113D02*
X20464506Y-19287256D01*
X20464506Y-19287256D02*
X20471649Y-19301541D01*
X20471649Y-19301541D02*
X20471649Y-19315827D01*
X20471649Y-19315827D02*
X20400220Y-19330113D01*
X20535934Y-19365827D02*
X20543077Y-19372970D01*
X20543077Y-19372970D02*
X20535934Y-19380113D01*
X20535934Y-19380113D02*
X20528791Y-19372970D01*
X20528791Y-19372970D02*
X20535934Y-19365827D01*
X20535934Y-19365827D02*
X20535934Y-19380113D01*
X20535934Y-19287256D02*
X20543077Y-19294399D01*
X20543077Y-19294399D02*
X20535934Y-19301541D01*
X20535934Y-19301541D02*
X20528791Y-19294399D01*
X20528791Y-19294399D02*
X20535934Y-19287256D01*
X20535934Y-19287256D02*
X20535934Y-19301541D01*
D10*
D11*
X17700220Y-19450720D02*
X28500220Y-19450720D01*
D10*
D11*
X17835934Y-19660113D02*
X17835934Y-19510113D01*
X17921649Y-19660113D02*
X17857363Y-19574399D01*
X17921649Y-19510113D02*
X17835934Y-19595827D01*
X17985934Y-19660113D02*
X17985934Y-19560113D01*
X17985934Y-19510113D02*
X17978791Y-19517256D01*
X17978791Y-19517256D02*
X17985934Y-19524399D01*
X17985934Y-19524399D02*
X17993077Y-19517256D01*
X17993077Y-19517256D02*
X17985934Y-19510113D01*
X17985934Y-19510113D02*
X17985934Y-19524399D01*
X18143077Y-19645827D02*
X18135934Y-19652970D01*
X18135934Y-19652970D02*
X18114506Y-19660113D01*
X18114506Y-19660113D02*
X18100220Y-19660113D01*
X18100220Y-19660113D02*
X18078791Y-19652970D01*
X18078791Y-19652970D02*
X18064506Y-19638684D01*
X18064506Y-19638684D02*
X18057363Y-19624399D01*
X18057363Y-19624399D02*
X18050220Y-19595827D01*
X18050220Y-19595827D02*
X18050220Y-19574399D01*
X18050220Y-19574399D02*
X18057363Y-19545827D01*
X18057363Y-19545827D02*
X18064506Y-19531541D01*
X18064506Y-19531541D02*
X18078791Y-19517256D01*
X18078791Y-19517256D02*
X18100220Y-19510113D01*
X18100220Y-19510113D02*
X18114506Y-19510113D01*
X18114506Y-19510113D02*
X18135934Y-19517256D01*
X18135934Y-19517256D02*
X18143077Y-19524399D01*
X18271649Y-19660113D02*
X18271649Y-19581541D01*
X18271649Y-19581541D02*
X18264506Y-19567256D01*
X18264506Y-19567256D02*
X18250220Y-19560113D01*
X18250220Y-19560113D02*
X18221649Y-19560113D01*
X18221649Y-19560113D02*
X18207363Y-19567256D01*
X18271649Y-19652970D02*
X18257363Y-19660113D01*
X18257363Y-19660113D02*
X18221649Y-19660113D01*
X18221649Y-19660113D02*
X18207363Y-19652970D01*
X18207363Y-19652970D02*
X18200220Y-19638684D01*
X18200220Y-19638684D02*
X18200220Y-19624399D01*
X18200220Y-19624399D02*
X18207363Y-19610113D01*
X18207363Y-19610113D02*
X18221649Y-19602970D01*
X18221649Y-19602970D02*
X18257363Y-19602970D01*
X18257363Y-19602970D02*
X18271649Y-19595827D01*
X18407363Y-19660113D02*
X18407363Y-19510113D01*
X18407363Y-19652970D02*
X18393077Y-19660113D01*
X18393077Y-19660113D02*
X18364506Y-19660113D01*
X18364506Y-19660113D02*
X18350220Y-19652970D01*
X18350220Y-19652970D02*
X18343077Y-19645827D01*
X18343077Y-19645827D02*
X18335934Y-19631541D01*
X18335934Y-19631541D02*
X18335934Y-19588684D01*
X18335934Y-19588684D02*
X18343077Y-19574399D01*
X18343077Y-19574399D02*
X18350220Y-19567256D01*
X18350220Y-19567256D02*
X18364506Y-19560113D01*
X18364506Y-19560113D02*
X18393077Y-19560113D01*
X18393077Y-19560113D02*
X18407363Y-19567256D01*
X18593077Y-19581541D02*
X18643077Y-19581541D01*
X18664506Y-19660113D02*
X18593077Y-19660113D01*
X18593077Y-19660113D02*
X18593077Y-19510113D01*
X18593077Y-19510113D02*
X18664506Y-19510113D01*
X18728791Y-19645827D02*
X18735934Y-19652970D01*
X18735934Y-19652970D02*
X18728791Y-19660113D01*
X18728791Y-19660113D02*
X18721649Y-19652970D01*
X18721649Y-19652970D02*
X18728791Y-19645827D01*
X18728791Y-19645827D02*
X18728791Y-19660113D01*
X18800220Y-19660113D02*
X18800220Y-19510113D01*
X18800220Y-19510113D02*
X18835934Y-19510113D01*
X18835934Y-19510113D02*
X18857363Y-19517256D01*
X18857363Y-19517256D02*
X18871649Y-19531541D01*
X18871649Y-19531541D02*
X18878792Y-19545827D01*
X18878792Y-19545827D02*
X18885934Y-19574399D01*
X18885934Y-19574399D02*
X18885934Y-19595827D01*
X18885934Y-19595827D02*
X18878792Y-19624399D01*
X18878792Y-19624399D02*
X18871649Y-19638684D01*
X18871649Y-19638684D02*
X18857363Y-19652970D01*
X18857363Y-19652970D02*
X18835934Y-19660113D01*
X18835934Y-19660113D02*
X18800220Y-19660113D01*
X18950220Y-19645827D02*
X18957363Y-19652970D01*
X18957363Y-19652970D02*
X18950220Y-19660113D01*
X18950220Y-19660113D02*
X18943077Y-19652970D01*
X18943077Y-19652970D02*
X18950220Y-19645827D01*
X18950220Y-19645827D02*
X18950220Y-19660113D01*
X19014506Y-19617256D02*
X19085934Y-19617256D01*
X19000220Y-19660113D02*
X19050220Y-19510113D01*
X19050220Y-19510113D02*
X19100220Y-19660113D01*
X19150220Y-19645827D02*
X19157363Y-19652970D01*
X19157363Y-19652970D02*
X19150220Y-19660113D01*
X19150220Y-19660113D02*
X19143077Y-19652970D01*
X19143077Y-19652970D02*
X19150220Y-19645827D01*
X19150220Y-19645827D02*
X19150220Y-19660113D01*
X19450220Y-19660113D02*
X19450220Y-19510113D01*
X19464506Y-19602970D02*
X19507363Y-19660113D01*
X19507363Y-19560113D02*
X19450220Y-19617256D01*
X19571649Y-19660113D02*
X19571649Y-19560113D01*
X19571649Y-19510113D02*
X19564506Y-19517256D01*
X19564506Y-19517256D02*
X19571649Y-19524399D01*
X19571649Y-19524399D02*
X19578792Y-19517256D01*
X19578792Y-19517256D02*
X19571649Y-19510113D01*
X19571649Y-19510113D02*
X19571649Y-19524399D01*
X19707363Y-19652970D02*
X19693077Y-19660113D01*
X19693077Y-19660113D02*
X19664506Y-19660113D01*
X19664506Y-19660113D02*
X19650220Y-19652970D01*
X19650220Y-19652970D02*
X19643077Y-19645827D01*
X19643077Y-19645827D02*
X19635934Y-19631541D01*
X19635934Y-19631541D02*
X19635934Y-19588684D01*
X19635934Y-19588684D02*
X19643077Y-19574399D01*
X19643077Y-19574399D02*
X19650220Y-19567256D01*
X19650220Y-19567256D02*
X19664506Y-19560113D01*
X19664506Y-19560113D02*
X19693077Y-19560113D01*
X19693077Y-19560113D02*
X19707363Y-19567256D01*
X19835934Y-19660113D02*
X19835934Y-19581541D01*
X19835934Y-19581541D02*
X19828792Y-19567256D01*
X19828792Y-19567256D02*
X19814506Y-19560113D01*
X19814506Y-19560113D02*
X19785934Y-19560113D01*
X19785934Y-19560113D02*
X19771649Y-19567256D01*
X19835934Y-19652970D02*
X19821649Y-19660113D01*
X19821649Y-19660113D02*
X19785934Y-19660113D01*
X19785934Y-19660113D02*
X19771649Y-19652970D01*
X19771649Y-19652970D02*
X19764506Y-19638684D01*
X19764506Y-19638684D02*
X19764506Y-19624399D01*
X19764506Y-19624399D02*
X19771649Y-19610113D01*
X19771649Y-19610113D02*
X19785934Y-19602970D01*
X19785934Y-19602970D02*
X19821649Y-19602970D01*
X19821649Y-19602970D02*
X19835934Y-19595827D01*
X19971649Y-19660113D02*
X19971649Y-19510113D01*
X19971649Y-19652970D02*
X19957363Y-19660113D01*
X19957363Y-19660113D02*
X19928792Y-19660113D01*
X19928792Y-19660113D02*
X19914506Y-19652970D01*
X19914506Y-19652970D02*
X19907363Y-19645827D01*
X19907363Y-19645827D02*
X19900220Y-19631541D01*
X19900220Y-19631541D02*
X19900220Y-19588684D01*
X19900220Y-19588684D02*
X19907363Y-19574399D01*
X19907363Y-19574399D02*
X19914506Y-19567256D01*
X19914506Y-19567256D02*
X19928792Y-19560113D01*
X19928792Y-19560113D02*
X19957363Y-19560113D01*
X19957363Y-19560113D02*
X19971649Y-19567256D01*
X20143077Y-19510113D02*
X20243077Y-19510113D01*
X20243077Y-19510113D02*
X20178792Y-19660113D01*
X20300220Y-19645827D02*
X20307363Y-19652970D01*
X20307363Y-19652970D02*
X20300220Y-19660113D01*
X20300220Y-19660113D02*
X20293077Y-19652970D01*
X20293077Y-19652970D02*
X20300220Y-19645827D01*
X20300220Y-19645827D02*
X20300220Y-19660113D01*
X20400220Y-19510113D02*
X20414506Y-19510113D01*
X20414506Y-19510113D02*
X20428792Y-19517256D01*
X20428792Y-19517256D02*
X20435934Y-19524399D01*
X20435934Y-19524399D02*
X20443077Y-19538684D01*
X20443077Y-19538684D02*
X20450220Y-19567256D01*
X20450220Y-19567256D02*
X20450220Y-19602970D01*
X20450220Y-19602970D02*
X20443077Y-19631541D01*
X20443077Y-19631541D02*
X20435934Y-19645827D01*
X20435934Y-19645827D02*
X20428792Y-19652970D01*
X20428792Y-19652970D02*
X20414506Y-19660113D01*
X20414506Y-19660113D02*
X20400220Y-19660113D01*
X20400220Y-19660113D02*
X20385934Y-19652970D01*
X20385934Y-19652970D02*
X20378792Y-19645827D01*
X20378792Y-19645827D02*
X20371649Y-19631541D01*
X20371649Y-19631541D02*
X20364506Y-19602970D01*
X20364506Y-19602970D02*
X20364506Y-19567256D01*
X20364506Y-19567256D02*
X20371649Y-19538684D01*
X20371649Y-19538684D02*
X20378792Y-19524399D01*
X20378792Y-19524399D02*
X20385934Y-19517256D01*
X20385934Y-19517256D02*
X20400220Y-19510113D01*
X20514506Y-19645827D02*
X20521649Y-19652970D01*
X20521649Y-19652970D02*
X20514506Y-19660113D01*
X20514506Y-19660113D02*
X20507363Y-19652970D01*
X20507363Y-19652970D02*
X20514506Y-19645827D01*
X20514506Y-19645827D02*
X20514506Y-19660113D01*
X20664506Y-19660113D02*
X20578792Y-19660113D01*
X20621649Y-19660113D02*
X20621649Y-19510113D01*
X20621649Y-19510113D02*
X20607363Y-19531541D01*
X20607363Y-19531541D02*
X20593077Y-19545827D01*
X20593077Y-19545827D02*
X20578792Y-19552970D01*
D10*
D11*
X17700220Y-19150720D02*
X28500220Y-19150720D01*
D10*
D12*
X26421648Y-19380113D02*
X26371648Y-19308684D01*
X26335934Y-19380113D02*
X26335934Y-19230113D01*
X26335934Y-19230113D02*
X26393077Y-19230113D01*
X26393077Y-19230113D02*
X26407363Y-19237256D01*
X26407363Y-19237256D02*
X26414506Y-19244399D01*
X26414506Y-19244399D02*
X26421648Y-19258684D01*
X26421648Y-19258684D02*
X26421648Y-19280113D01*
X26421648Y-19280113D02*
X26414506Y-19294399D01*
X26414506Y-19294399D02*
X26407363Y-19301541D01*
X26407363Y-19301541D02*
X26393077Y-19308684D01*
X26393077Y-19308684D02*
X26335934Y-19308684D01*
X26543077Y-19372970D02*
X26528791Y-19380113D01*
X26528791Y-19380113D02*
X26500220Y-19380113D01*
X26500220Y-19380113D02*
X26485934Y-19372970D01*
X26485934Y-19372970D02*
X26478791Y-19358684D01*
X26478791Y-19358684D02*
X26478791Y-19301541D01*
X26478791Y-19301541D02*
X26485934Y-19287256D01*
X26485934Y-19287256D02*
X26500220Y-19280113D01*
X26500220Y-19280113D02*
X26528791Y-19280113D01*
X26528791Y-19280113D02*
X26543077Y-19287256D01*
X26543077Y-19287256D02*
X26550220Y-19301541D01*
X26550220Y-19301541D02*
X26550220Y-19315827D01*
X26550220Y-19315827D02*
X26478791Y-19330113D01*
X26600220Y-19280113D02*
X26635934Y-19380113D01*
X26635934Y-19380113D02*
X26671648Y-19280113D01*
X26728791Y-19365827D02*
X26735934Y-19372970D01*
X26735934Y-19372970D02*
X26728791Y-19380113D01*
X26728791Y-19380113D02*
X26721648Y-19372970D01*
X26721648Y-19372970D02*
X26728791Y-19365827D01*
X26728791Y-19365827D02*
X26728791Y-19380113D01*
X26728791Y-19287256D02*
X26735934Y-19294399D01*
X26735934Y-19294399D02*
X26728791Y-19301541D01*
X26728791Y-19301541D02*
X26721648Y-19294399D01*
X26721648Y-19294399D02*
X26728791Y-19287256D01*
X26728791Y-19287256D02*
X26728791Y-19301541D01*
D10*
D11*
X17828791Y-19372970D02*
X17850220Y-19380113D01*
X17850220Y-19380113D02*
X17885934Y-19380113D01*
X17885934Y-19380113D02*
X17900220Y-19372970D01*
X17900220Y-19372970D02*
X17907363Y-19365827D01*
X17907363Y-19365827D02*
X17914506Y-19351541D01*
X17914506Y-19351541D02*
X17914506Y-19337256D01*
X17914506Y-19337256D02*
X17907363Y-19322970D01*
X17907363Y-19322970D02*
X17900220Y-19315827D01*
X17900220Y-19315827D02*
X17885934Y-19308684D01*
X17885934Y-19308684D02*
X17857363Y-19301541D01*
X17857363Y-19301541D02*
X17843077Y-19294399D01*
X17843077Y-19294399D02*
X17835934Y-19287256D01*
X17835934Y-19287256D02*
X17828791Y-19272970D01*
X17828791Y-19272970D02*
X17828791Y-19258684D01*
X17828791Y-19258684D02*
X17835934Y-19244399D01*
X17835934Y-19244399D02*
X17843077Y-19237256D01*
X17843077Y-19237256D02*
X17857363Y-19230113D01*
X17857363Y-19230113D02*
X17893077Y-19230113D01*
X17893077Y-19230113D02*
X17914506Y-19237256D01*
X17978791Y-19380113D02*
X17978791Y-19280113D01*
X17978791Y-19230113D02*
X17971649Y-19237256D01*
X17971649Y-19237256D02*
X17978791Y-19244399D01*
X17978791Y-19244399D02*
X17985934Y-19237256D01*
X17985934Y-19237256D02*
X17978791Y-19230113D01*
X17978791Y-19230113D02*
X17978791Y-19244399D01*
X18035934Y-19280113D02*
X18114506Y-19280113D01*
X18114506Y-19280113D02*
X18035934Y-19380113D01*
X18035934Y-19380113D02*
X18114506Y-19380113D01*
X18228791Y-19372970D02*
X18214506Y-19380113D01*
X18214506Y-19380113D02*
X18185934Y-19380113D01*
X18185934Y-19380113D02*
X18171649Y-19372970D01*
X18171649Y-19372970D02*
X18164506Y-19358684D01*
X18164506Y-19358684D02*
X18164506Y-19301541D01*
X18164506Y-19301541D02*
X18171649Y-19287256D01*
X18171649Y-19287256D02*
X18185934Y-19280113D01*
X18185934Y-19280113D02*
X18214506Y-19280113D01*
X18214506Y-19280113D02*
X18228791Y-19287256D01*
X18228791Y-19287256D02*
X18235934Y-19301541D01*
X18235934Y-19301541D02*
X18235934Y-19315827D01*
X18235934Y-19315827D02*
X18164506Y-19330113D01*
X18300220Y-19365827D02*
X18307363Y-19372970D01*
X18307363Y-19372970D02*
X18300220Y-19380113D01*
X18300220Y-19380113D02*
X18293077Y-19372970D01*
X18293077Y-19372970D02*
X18300220Y-19365827D01*
X18300220Y-19365827D02*
X18300220Y-19380113D01*
X18300220Y-19287256D02*
X18307363Y-19294399D01*
X18307363Y-19294399D02*
X18300220Y-19301541D01*
X18300220Y-19301541D02*
X18293077Y-19294399D01*
X18293077Y-19294399D02*
X18300220Y-19287256D01*
X18300220Y-19287256D02*
X18300220Y-19301541D01*
X18478791Y-19337256D02*
X18550220Y-19337256D01*
X18464506Y-19380113D02*
X18514506Y-19230113D01*
X18514506Y-19230113D02*
X18564506Y-19380113D01*
X18678791Y-19280113D02*
X18678791Y-19380113D01*
X18643077Y-19222970D02*
X18607363Y-19330113D01*
X18607363Y-19330113D02*
X18700220Y-19330113D01*
D10*
D11*
X26335934Y-19660113D02*
X26335934Y-19510113D01*
X26471649Y-19660113D02*
X26471649Y-19510113D01*
X26471649Y-19652970D02*
X26457363Y-19660113D01*
X26457363Y-19660113D02*
X26428791Y-19660113D01*
X26428791Y-19660113D02*
X26414506Y-19652970D01*
X26414506Y-19652970D02*
X26407363Y-19645827D01*
X26407363Y-19645827D02*
X26400220Y-19631541D01*
X26400220Y-19631541D02*
X26400220Y-19588684D01*
X26400220Y-19588684D02*
X26407363Y-19574399D01*
X26407363Y-19574399D02*
X26414506Y-19567256D01*
X26414506Y-19567256D02*
X26428791Y-19560113D01*
X26428791Y-19560113D02*
X26457363Y-19560113D01*
X26457363Y-19560113D02*
X26471649Y-19567256D01*
X26543077Y-19645827D02*
X26550220Y-19652970D01*
X26550220Y-19652970D02*
X26543077Y-19660113D01*
X26543077Y-19660113D02*
X26535934Y-19652970D01*
X26535934Y-19652970D02*
X26543077Y-19645827D01*
X26543077Y-19645827D02*
X26543077Y-19660113D01*
X26543077Y-19567256D02*
X26550220Y-19574399D01*
X26550220Y-19574399D02*
X26543077Y-19581541D01*
X26543077Y-19581541D02*
X26535934Y-19574399D01*
X26535934Y-19574399D02*
X26543077Y-19567256D01*
X26543077Y-19567256D02*
X26543077Y-19581541D01*
X26807363Y-19660113D02*
X26721649Y-19660113D01*
X26764506Y-19660113D02*
X26764506Y-19510113D01*
X26764506Y-19510113D02*
X26750220Y-19531541D01*
X26750220Y-19531541D02*
X26735934Y-19545827D01*
X26735934Y-19545827D02*
X26721649Y-19552970D01*
X26978791Y-19502970D02*
X26850220Y-19695827D01*
X27107363Y-19660113D02*
X27021649Y-19660113D01*
X27064506Y-19660113D02*
X27064506Y-19510113D01*
X27064506Y-19510113D02*
X27050220Y-19531541D01*
X27050220Y-19531541D02*
X27035934Y-19545827D01*
X27035934Y-19545827D02*
X27021649Y-19552970D01*
D10*
D11*
X17700220Y-18750720D02*
X28500220Y-18750720D01*
D10*
D13*
X17843077Y-18823244D02*
X17957363Y-18823244D01*
X17875220Y-19023244D02*
X17900220Y-18823244D01*
X17997839Y-19023244D02*
X18014506Y-18889910D01*
X18022839Y-18823244D02*
X18012125Y-18832768D01*
X18012125Y-18832768D02*
X18020458Y-18842291D01*
X18020458Y-18842291D02*
X18031172Y-18832768D01*
X18031172Y-18832768D02*
X18022839Y-18823244D01*
X18022839Y-18823244D02*
X18020458Y-18842291D01*
X18079982Y-18889910D02*
X18156172Y-18889910D01*
X18116887Y-18823244D02*
X18095458Y-18994672D01*
X18095458Y-18994672D02*
X18102601Y-19013720D01*
X18102601Y-19013720D02*
X18120458Y-19023244D01*
X18120458Y-19023244D02*
X18139506Y-19023244D01*
X18233553Y-19023244D02*
X18215696Y-19013720D01*
X18215696Y-19013720D02*
X18208553Y-18994672D01*
X18208553Y-18994672D02*
X18229982Y-18823244D01*
X18385934Y-19013720D02*
X18365696Y-19023244D01*
X18365696Y-19023244D02*
X18327601Y-19023244D01*
X18327601Y-19023244D02*
X18309744Y-19013720D01*
X18309744Y-19013720D02*
X18302601Y-18994672D01*
X18302601Y-18994672D02*
X18312125Y-18918482D01*
X18312125Y-18918482D02*
X18324029Y-18899434D01*
X18324029Y-18899434D02*
X18344268Y-18889910D01*
X18344268Y-18889910D02*
X18382363Y-18889910D01*
X18382363Y-18889910D02*
X18400220Y-18899434D01*
X18400220Y-18899434D02*
X18407363Y-18918482D01*
X18407363Y-18918482D02*
X18404982Y-18937530D01*
X18404982Y-18937530D02*
X18307363Y-18956577D01*
X18481172Y-19004196D02*
X18489506Y-19013720D01*
X18489506Y-19013720D02*
X18478791Y-19023244D01*
X18478791Y-19023244D02*
X18470458Y-19013720D01*
X18470458Y-19013720D02*
X18481172Y-19004196D01*
X18481172Y-19004196D02*
X18478791Y-19023244D01*
X18494268Y-18899434D02*
X18502601Y-18908958D01*
X18502601Y-18908958D02*
X18491887Y-18918482D01*
X18491887Y-18918482D02*
X18483553Y-18908958D01*
X18483553Y-18908958D02*
X18494268Y-18899434D01*
X18494268Y-18899434D02*
X18491887Y-18918482D01*
D10*
D11*
X17885934Y-18561541D02*
X17835934Y-18561541D01*
X17835934Y-18640113D02*
X17835934Y-18490113D01*
X17835934Y-18490113D02*
X17907363Y-18490113D01*
X17964506Y-18640113D02*
X17964506Y-18540113D01*
X17964506Y-18490113D02*
X17957363Y-18497256D01*
X17957363Y-18497256D02*
X17964506Y-18504399D01*
X17964506Y-18504399D02*
X17971649Y-18497256D01*
X17971649Y-18497256D02*
X17964506Y-18490113D01*
X17964506Y-18490113D02*
X17964506Y-18504399D01*
X18057363Y-18640113D02*
X18043077Y-18632970D01*
X18043077Y-18632970D02*
X18035934Y-18618684D01*
X18035934Y-18618684D02*
X18035934Y-18490113D01*
X18171649Y-18632970D02*
X18157363Y-18640113D01*
X18157363Y-18640113D02*
X18128791Y-18640113D01*
X18128791Y-18640113D02*
X18114506Y-18632970D01*
X18114506Y-18632970D02*
X18107363Y-18618684D01*
X18107363Y-18618684D02*
X18107363Y-18561541D01*
X18107363Y-18561541D02*
X18114506Y-18547256D01*
X18114506Y-18547256D02*
X18128791Y-18540113D01*
X18128791Y-18540113D02*
X18157363Y-18540113D01*
X18157363Y-18540113D02*
X18171649Y-18547256D01*
X18171649Y-18547256D02*
X18178791Y-18561541D01*
X18178791Y-18561541D02*
X18178791Y-18575827D01*
X18178791Y-18575827D02*
X18107363Y-18590113D01*
X18243077Y-18625827D02*
X18250220Y-18632970D01*
X18250220Y-18632970D02*
X18243077Y-18640113D01*
X18243077Y-18640113D02*
X18235934Y-18632970D01*
X18235934Y-18632970D02*
X18243077Y-18625827D01*
X18243077Y-18625827D02*
X18243077Y-18640113D01*
X18243077Y-18547256D02*
X18250220Y-18554399D01*
X18250220Y-18554399D02*
X18243077Y-18561541D01*
X18243077Y-18561541D02*
X18235934Y-18554399D01*
X18235934Y-18554399D02*
X18243077Y-18547256D01*
X18243077Y-18547256D02*
X18243077Y-18561541D01*
X18514506Y-18625827D02*
X18507363Y-18632970D01*
X18507363Y-18632970D02*
X18485934Y-18640113D01*
X18485934Y-18640113D02*
X18471649Y-18640113D01*
X18471649Y-18640113D02*
X18450220Y-18632970D01*
X18450220Y-18632970D02*
X18435934Y-18618684D01*
X18435934Y-18618684D02*
X18428791Y-18604399D01*
X18428791Y-18604399D02*
X18421649Y-18575827D01*
X18421649Y-18575827D02*
X18421649Y-18554399D01*
X18421649Y-18554399D02*
X18428791Y-18525827D01*
X18428791Y-18525827D02*
X18435934Y-18511541D01*
X18435934Y-18511541D02*
X18450220Y-18497256D01*
X18450220Y-18497256D02*
X18471649Y-18490113D01*
X18471649Y-18490113D02*
X18485934Y-18490113D01*
X18485934Y-18490113D02*
X18507363Y-18497256D01*
X18507363Y-18497256D02*
X18514506Y-18504399D01*
X18600220Y-18640113D02*
X18585934Y-18632970D01*
X18585934Y-18632970D02*
X18578791Y-18625827D01*
X18578791Y-18625827D02*
X18571649Y-18611541D01*
X18571649Y-18611541D02*
X18571649Y-18568684D01*
X18571649Y-18568684D02*
X18578791Y-18554399D01*
X18578791Y-18554399D02*
X18585934Y-18547256D01*
X18585934Y-18547256D02*
X18600220Y-18540113D01*
X18600220Y-18540113D02*
X18621649Y-18540113D01*
X18621649Y-18540113D02*
X18635934Y-18547256D01*
X18635934Y-18547256D02*
X18643077Y-18554399D01*
X18643077Y-18554399D02*
X18650220Y-18568684D01*
X18650220Y-18568684D02*
X18650220Y-18611541D01*
X18650220Y-18611541D02*
X18643077Y-18625827D01*
X18643077Y-18625827D02*
X18635934Y-18632970D01*
X18635934Y-18632970D02*
X18621649Y-18640113D01*
X18621649Y-18640113D02*
X18600220Y-18640113D01*
X18714506Y-18540113D02*
X18714506Y-18640113D01*
X18714506Y-18554399D02*
X18721649Y-18547256D01*
X18721649Y-18547256D02*
X18735934Y-18540113D01*
X18735934Y-18540113D02*
X18757363Y-18540113D01*
X18757363Y-18540113D02*
X18771649Y-18547256D01*
X18771649Y-18547256D02*
X18778791Y-18561541D01*
X18778791Y-18561541D02*
X18778791Y-18640113D01*
X18828791Y-18540113D02*
X18885934Y-18540113D01*
X18850220Y-18490113D02*
X18850220Y-18618684D01*
X18850220Y-18618684D02*
X18857363Y-18632970D01*
X18857363Y-18632970D02*
X18871649Y-18640113D01*
X18871649Y-18640113D02*
X18885934Y-18640113D01*
X18935934Y-18640113D02*
X18935934Y-18540113D01*
X18935934Y-18568684D02*
X18943077Y-18554399D01*
X18943077Y-18554399D02*
X18950220Y-18547256D01*
X18950220Y-18547256D02*
X18964506Y-18540113D01*
X18964506Y-18540113D02*
X18978791Y-18540113D01*
X19050220Y-18640113D02*
X19035934Y-18632970D01*
X19035934Y-18632970D02*
X19028791Y-18625827D01*
X19028791Y-18625827D02*
X19021649Y-18611541D01*
X19021649Y-18611541D02*
X19021649Y-18568684D01*
X19021649Y-18568684D02*
X19028791Y-18554399D01*
X19028791Y-18554399D02*
X19035934Y-18547256D01*
X19035934Y-18547256D02*
X19050220Y-18540113D01*
X19050220Y-18540113D02*
X19071649Y-18540113D01*
X19071649Y-18540113D02*
X19085934Y-18547256D01*
X19085934Y-18547256D02*
X19093077Y-18554399D01*
X19093077Y-18554399D02*
X19100220Y-18568684D01*
X19100220Y-18568684D02*
X19100220Y-18611541D01*
X19100220Y-18611541D02*
X19093077Y-18625827D01*
X19093077Y-18625827D02*
X19085934Y-18632970D01*
X19085934Y-18632970D02*
X19071649Y-18640113D01*
X19071649Y-18640113D02*
X19050220Y-18640113D01*
X19185934Y-18640113D02*
X19171649Y-18632970D01*
X19171649Y-18632970D02*
X19164506Y-18618684D01*
X19164506Y-18618684D02*
X19164506Y-18490113D01*
X19207363Y-18654399D02*
X19321649Y-18654399D01*
X19407363Y-18561541D02*
X19428791Y-18568684D01*
X19428791Y-18568684D02*
X19435934Y-18575827D01*
X19435934Y-18575827D02*
X19443077Y-18590113D01*
X19443077Y-18590113D02*
X19443077Y-18611541D01*
X19443077Y-18611541D02*
X19435934Y-18625827D01*
X19435934Y-18625827D02*
X19428791Y-18632970D01*
X19428791Y-18632970D02*
X19414506Y-18640113D01*
X19414506Y-18640113D02*
X19357363Y-18640113D01*
X19357363Y-18640113D02*
X19357363Y-18490113D01*
X19357363Y-18490113D02*
X19407363Y-18490113D01*
X19407363Y-18490113D02*
X19421649Y-18497256D01*
X19421649Y-18497256D02*
X19428791Y-18504399D01*
X19428791Y-18504399D02*
X19435934Y-18518684D01*
X19435934Y-18518684D02*
X19435934Y-18532970D01*
X19435934Y-18532970D02*
X19428791Y-18547256D01*
X19428791Y-18547256D02*
X19421649Y-18554399D01*
X19421649Y-18554399D02*
X19407363Y-18561541D01*
X19407363Y-18561541D02*
X19357363Y-18561541D01*
X19528791Y-18640113D02*
X19514506Y-18632970D01*
X19514506Y-18632970D02*
X19507363Y-18625827D01*
X19507363Y-18625827D02*
X19500220Y-18611541D01*
X19500220Y-18611541D02*
X19500220Y-18568684D01*
X19500220Y-18568684D02*
X19507363Y-18554399D01*
X19507363Y-18554399D02*
X19514506Y-18547256D01*
X19514506Y-18547256D02*
X19528791Y-18540113D01*
X19528791Y-18540113D02*
X19550220Y-18540113D01*
X19550220Y-18540113D02*
X19564506Y-18547256D01*
X19564506Y-18547256D02*
X19571649Y-18554399D01*
X19571649Y-18554399D02*
X19578791Y-18568684D01*
X19578791Y-18568684D02*
X19578791Y-18611541D01*
X19578791Y-18611541D02*
X19571649Y-18625827D01*
X19571649Y-18625827D02*
X19564506Y-18632970D01*
X19564506Y-18632970D02*
X19550220Y-18640113D01*
X19550220Y-18640113D02*
X19528791Y-18640113D01*
X19707363Y-18640113D02*
X19707363Y-18561541D01*
X19707363Y-18561541D02*
X19700220Y-18547256D01*
X19700220Y-18547256D02*
X19685934Y-18540113D01*
X19685934Y-18540113D02*
X19657363Y-18540113D01*
X19657363Y-18540113D02*
X19643077Y-18547256D01*
X19707363Y-18632970D02*
X19693077Y-18640113D01*
X19693077Y-18640113D02*
X19657363Y-18640113D01*
X19657363Y-18640113D02*
X19643077Y-18632970D01*
X19643077Y-18632970D02*
X19635934Y-18618684D01*
X19635934Y-18618684D02*
X19635934Y-18604399D01*
X19635934Y-18604399D02*
X19643077Y-18590113D01*
X19643077Y-18590113D02*
X19657363Y-18582970D01*
X19657363Y-18582970D02*
X19693077Y-18582970D01*
X19693077Y-18582970D02*
X19707363Y-18575827D01*
X19778791Y-18640113D02*
X19778791Y-18540113D01*
X19778791Y-18568684D02*
X19785934Y-18554399D01*
X19785934Y-18554399D02*
X19793077Y-18547256D01*
X19793077Y-18547256D02*
X19807363Y-18540113D01*
X19807363Y-18540113D02*
X19821649Y-18540113D01*
X19935934Y-18640113D02*
X19935934Y-18490113D01*
X19935934Y-18632970D02*
X19921648Y-18640113D01*
X19921648Y-18640113D02*
X19893077Y-18640113D01*
X19893077Y-18640113D02*
X19878791Y-18632970D01*
X19878791Y-18632970D02*
X19871648Y-18625827D01*
X19871648Y-18625827D02*
X19864506Y-18611541D01*
X19864506Y-18611541D02*
X19864506Y-18568684D01*
X19864506Y-18568684D02*
X19871648Y-18554399D01*
X19871648Y-18554399D02*
X19878791Y-18547256D01*
X19878791Y-18547256D02*
X19893077Y-18540113D01*
X19893077Y-18540113D02*
X19921648Y-18540113D01*
X19921648Y-18540113D02*
X19935934Y-18547256D01*
X20007363Y-18625827D02*
X20014506Y-18632970D01*
X20014506Y-18632970D02*
X20007363Y-18640113D01*
X20007363Y-18640113D02*
X20000220Y-18632970D01*
X20000220Y-18632970D02*
X20007363Y-18625827D01*
X20007363Y-18625827D02*
X20007363Y-18640113D01*
X20078791Y-18640113D02*
X20078791Y-18490113D01*
X20093077Y-18582970D02*
X20135934Y-18640113D01*
X20135934Y-18540113D02*
X20078791Y-18597256D01*
X20200220Y-18640113D02*
X20200220Y-18540113D01*
X20200220Y-18490113D02*
X20193077Y-18497256D01*
X20193077Y-18497256D02*
X20200220Y-18504399D01*
X20200220Y-18504399D02*
X20207363Y-18497256D01*
X20207363Y-18497256D02*
X20200220Y-18490113D01*
X20200220Y-18490113D02*
X20200220Y-18504399D01*
X20335934Y-18632970D02*
X20321649Y-18640113D01*
X20321649Y-18640113D02*
X20293077Y-18640113D01*
X20293077Y-18640113D02*
X20278791Y-18632970D01*
X20278791Y-18632970D02*
X20271649Y-18625827D01*
X20271649Y-18625827D02*
X20264506Y-18611541D01*
X20264506Y-18611541D02*
X20264506Y-18568684D01*
X20264506Y-18568684D02*
X20271649Y-18554399D01*
X20271649Y-18554399D02*
X20278791Y-18547256D01*
X20278791Y-18547256D02*
X20293077Y-18540113D01*
X20293077Y-18540113D02*
X20321649Y-18540113D01*
X20321649Y-18540113D02*
X20335934Y-18547256D01*
X20464506Y-18640113D02*
X20464506Y-18561541D01*
X20464506Y-18561541D02*
X20457363Y-18547256D01*
X20457363Y-18547256D02*
X20443077Y-18540113D01*
X20443077Y-18540113D02*
X20414506Y-18540113D01*
X20414506Y-18540113D02*
X20400220Y-18547256D01*
X20464506Y-18632970D02*
X20450220Y-18640113D01*
X20450220Y-18640113D02*
X20414506Y-18640113D01*
X20414506Y-18640113D02*
X20400220Y-18632970D01*
X20400220Y-18632970D02*
X20393077Y-18618684D01*
X20393077Y-18618684D02*
X20393077Y-18604399D01*
X20393077Y-18604399D02*
X20400220Y-18590113D01*
X20400220Y-18590113D02*
X20414506Y-18582970D01*
X20414506Y-18582970D02*
X20450220Y-18582970D01*
X20450220Y-18582970D02*
X20464506Y-18575827D01*
X20600220Y-18640113D02*
X20600220Y-18490113D01*
X20600220Y-18632970D02*
X20585934Y-18640113D01*
X20585934Y-18640113D02*
X20557363Y-18640113D01*
X20557363Y-18640113D02*
X20543077Y-18632970D01*
X20543077Y-18632970D02*
X20535934Y-18625827D01*
X20535934Y-18625827D02*
X20528791Y-18611541D01*
X20528791Y-18611541D02*
X20528791Y-18568684D01*
X20528791Y-18568684D02*
X20535934Y-18554399D01*
X20535934Y-18554399D02*
X20543077Y-18547256D01*
X20543077Y-18547256D02*
X20557363Y-18540113D01*
X20557363Y-18540113D02*
X20585934Y-18540113D01*
X20585934Y-18540113D02*
X20600220Y-18547256D01*
X20635934Y-18654399D02*
X20750220Y-18654399D01*
X20785934Y-18540113D02*
X20785934Y-18690113D01*
X20785934Y-18547256D02*
X20800220Y-18540113D01*
X20800220Y-18540113D02*
X20828791Y-18540113D01*
X20828791Y-18540113D02*
X20843077Y-18547256D01*
X20843077Y-18547256D02*
X20850220Y-18554399D01*
X20850220Y-18554399D02*
X20857363Y-18568684D01*
X20857363Y-18568684D02*
X20857363Y-18611541D01*
X20857363Y-18611541D02*
X20850220Y-18625827D01*
X20850220Y-18625827D02*
X20843077Y-18632970D01*
X20843077Y-18632970D02*
X20828791Y-18640113D01*
X20828791Y-18640113D02*
X20800220Y-18640113D01*
X20800220Y-18640113D02*
X20785934Y-18632970D01*
X20985934Y-18632970D02*
X20971649Y-18640113D01*
X20971649Y-18640113D02*
X20943077Y-18640113D01*
X20943077Y-18640113D02*
X20928791Y-18632970D01*
X20928791Y-18632970D02*
X20921649Y-18625827D01*
X20921649Y-18625827D02*
X20914506Y-18611541D01*
X20914506Y-18611541D02*
X20914506Y-18568684D01*
X20914506Y-18568684D02*
X20921649Y-18554399D01*
X20921649Y-18554399D02*
X20928791Y-18547256D01*
X20928791Y-18547256D02*
X20943077Y-18540113D01*
X20943077Y-18540113D02*
X20971649Y-18540113D01*
X20971649Y-18540113D02*
X20985934Y-18547256D01*
X21050220Y-18640113D02*
X21050220Y-18490113D01*
X21050220Y-18547256D02*
X21064506Y-18540113D01*
X21064506Y-18540113D02*
X21093077Y-18540113D01*
X21093077Y-18540113D02*
X21107363Y-18547256D01*
X21107363Y-18547256D02*
X21114506Y-18554399D01*
X21114506Y-18554399D02*
X21121649Y-18568684D01*
X21121649Y-18568684D02*
X21121649Y-18611541D01*
X21121649Y-18611541D02*
X21114506Y-18625827D01*
X21114506Y-18625827D02*
X21107363Y-18632970D01*
X21107363Y-18632970D02*
X21093077Y-18640113D01*
X21093077Y-18640113D02*
X21064506Y-18640113D01*
X21064506Y-18640113D02*
X21050220Y-18632970D01*
D10*
D11*
X17700220Y-18150720D02*
X28500220Y-18150720D01*
D10*
D11*
X17828791Y-18362970D02*
X17850220Y-18370113D01*
X17850220Y-18370113D02*
X17885934Y-18370113D01*
X17885934Y-18370113D02*
X17900220Y-18362970D01*
X17900220Y-18362970D02*
X17907363Y-18355827D01*
X17907363Y-18355827D02*
X17914506Y-18341541D01*
X17914506Y-18341541D02*
X17914506Y-18327256D01*
X17914506Y-18327256D02*
X17907363Y-18312970D01*
X17907363Y-18312970D02*
X17900220Y-18305827D01*
X17900220Y-18305827D02*
X17885934Y-18298684D01*
X17885934Y-18298684D02*
X17857363Y-18291541D01*
X17857363Y-18291541D02*
X17843077Y-18284399D01*
X17843077Y-18284399D02*
X17835934Y-18277256D01*
X17835934Y-18277256D02*
X17828791Y-18262970D01*
X17828791Y-18262970D02*
X17828791Y-18248684D01*
X17828791Y-18248684D02*
X17835934Y-18234399D01*
X17835934Y-18234399D02*
X17843077Y-18227256D01*
X17843077Y-18227256D02*
X17857363Y-18220113D01*
X17857363Y-18220113D02*
X17893077Y-18220113D01*
X17893077Y-18220113D02*
X17914506Y-18227256D01*
X17978791Y-18370113D02*
X17978791Y-18220113D01*
X18043077Y-18370113D02*
X18043077Y-18291541D01*
X18043077Y-18291541D02*
X18035934Y-18277256D01*
X18035934Y-18277256D02*
X18021649Y-18270113D01*
X18021649Y-18270113D02*
X18000220Y-18270113D01*
X18000220Y-18270113D02*
X17985934Y-18277256D01*
X17985934Y-18277256D02*
X17978791Y-18284399D01*
X18171649Y-18362970D02*
X18157363Y-18370113D01*
X18157363Y-18370113D02*
X18128791Y-18370113D01*
X18128791Y-18370113D02*
X18114506Y-18362970D01*
X18114506Y-18362970D02*
X18107363Y-18348684D01*
X18107363Y-18348684D02*
X18107363Y-18291541D01*
X18107363Y-18291541D02*
X18114506Y-18277256D01*
X18114506Y-18277256D02*
X18128791Y-18270113D01*
X18128791Y-18270113D02*
X18157363Y-18270113D01*
X18157363Y-18270113D02*
X18171649Y-18277256D01*
X18171649Y-18277256D02*
X18178791Y-18291541D01*
X18178791Y-18291541D02*
X18178791Y-18305827D01*
X18178791Y-18305827D02*
X18107363Y-18320113D01*
X18300220Y-18362970D02*
X18285934Y-18370113D01*
X18285934Y-18370113D02*
X18257363Y-18370113D01*
X18257363Y-18370113D02*
X18243077Y-18362970D01*
X18243077Y-18362970D02*
X18235934Y-18348684D01*
X18235934Y-18348684D02*
X18235934Y-18291541D01*
X18235934Y-18291541D02*
X18243077Y-18277256D01*
X18243077Y-18277256D02*
X18257363Y-18270113D01*
X18257363Y-18270113D02*
X18285934Y-18270113D01*
X18285934Y-18270113D02*
X18300220Y-18277256D01*
X18300220Y-18277256D02*
X18307363Y-18291541D01*
X18307363Y-18291541D02*
X18307363Y-18305827D01*
X18307363Y-18305827D02*
X18235934Y-18320113D01*
X18350220Y-18270113D02*
X18407363Y-18270113D01*
X18371648Y-18220113D02*
X18371648Y-18348684D01*
X18371648Y-18348684D02*
X18378791Y-18362970D01*
X18378791Y-18362970D02*
X18393077Y-18370113D01*
X18393077Y-18370113D02*
X18407363Y-18370113D01*
X18457363Y-18355827D02*
X18464506Y-18362970D01*
X18464506Y-18362970D02*
X18457363Y-18370113D01*
X18457363Y-18370113D02*
X18450220Y-18362970D01*
X18450220Y-18362970D02*
X18457363Y-18355827D01*
X18457363Y-18355827D02*
X18457363Y-18370113D01*
X18457363Y-18277256D02*
X18464506Y-18284399D01*
X18464506Y-18284399D02*
X18457363Y-18291541D01*
X18457363Y-18291541D02*
X18450220Y-18284399D01*
X18450220Y-18284399D02*
X18457363Y-18277256D01*
X18457363Y-18277256D02*
X18457363Y-18291541D01*
D10*
D12*
D10*
D11*
D10*
D11*
D10*
D11*
D10*
D11*
D10*
D11*
X19700220Y-19150720D02*
X19700220Y-19450720D01*
D10*
D11*
X26100220Y-19150720D02*
X26100220Y-19800720D01*
D14*
X12716750Y-10027750D02*
X12716750Y-9807750D01*
X12956750Y-10027750D02*
X12956750Y-9807750D01*
X13208000Y-10030250D02*
X13208000Y-9810250D01*
X12171750Y-10030250D02*
X12171750Y-9810250D01*
X12985000Y-11472000D02*
X12985000Y-11252000D01*
X11631750Y-9807750D02*
X14784250Y-9807750D01*
X14784250Y-10030250D01*
X11631750Y-10030250D01*
X11631750Y-9807750D01*
X13461750Y-10030250D02*
X13461750Y-9810250D01*
X13955000Y-10029000D02*
X13955000Y-9809000D01*
X12445000Y-11249500D02*
X13522500Y-11249500D01*
X13522500Y-11472000D01*
X12445000Y-11472000D01*
X12445000Y-11249500D01*
D11*
X10274468Y-8252000D02*
X15674468Y-8252000D01*
X15674468Y-12050000D01*
X10274468Y-12050000D01*
X10274468Y-8252000D01*
D14*
X14250000Y-10027000D02*
X14250000Y-9807000D01*
X13703000Y-10030250D02*
X13703000Y-9810250D01*
X11931750Y-10027750D02*
X11931750Y-9810250D01*
X13237250Y-11470750D02*
X13237250Y-11250750D01*
X14512000Y-10026000D02*
X14512000Y-9806000D01*
X12424000Y-10029000D02*
X12424000Y-9809000D01*
X12745000Y-11469500D02*
X12745000Y-11252000D01*
D11*
X15701809Y-8039881D02*
X15668476Y-8039881D01*
X15654190Y-8092262D02*
X15701809Y-8092262D01*
X15701809Y-8092262D02*
X15701809Y-7992262D01*
X15701809Y-7992262D02*
X15654190Y-7992262D01*
X15620857Y-7992262D02*
X15554190Y-8092262D01*
X15554190Y-7992262D02*
X15620857Y-8092262D01*
X15530381Y-7992262D02*
X15473238Y-7992262D01*
X15501809Y-8092262D02*
X15501809Y-7992262D01*
X15363714Y-8092262D02*
X15363714Y-7992262D01*
X15244667Y-7987500D02*
X15330381Y-8116071D01*
X15192286Y-7992262D02*
X15173238Y-7992262D01*
X15173238Y-7992262D02*
X15163714Y-7997024D01*
X15163714Y-7997024D02*
X15154190Y-8006548D01*
X15154190Y-8006548D02*
X15149428Y-8025595D01*
X15149428Y-8025595D02*
X15149428Y-8058928D01*
X15149428Y-8058928D02*
X15154190Y-8077976D01*
X15154190Y-8077976D02*
X15163714Y-8087500D01*
X15163714Y-8087500D02*
X15173238Y-8092262D01*
X15173238Y-8092262D02*
X15192286Y-8092262D01*
X15192286Y-8092262D02*
X15201809Y-8087500D01*
X15201809Y-8087500D02*
X15211333Y-8077976D01*
X15211333Y-8077976D02*
X15216095Y-8058928D01*
X15216095Y-8058928D02*
X15216095Y-8025595D01*
X15216095Y-8025595D02*
X15211333Y-8006548D01*
X15211333Y-8006548D02*
X15201809Y-7997024D01*
X15201809Y-7997024D02*
X15192286Y-7992262D01*
X14208500Y-9880210D02*
X14165167Y-9880210D01*
X14165167Y-9880210D02*
X14188500Y-9910686D01*
X14188500Y-9910686D02*
X14178500Y-9910686D01*
X14178500Y-9910686D02*
X14171833Y-9914495D01*
X14171833Y-9914495D02*
X14168500Y-9918305D01*
X14168500Y-9918305D02*
X14165167Y-9925924D01*
X14165167Y-9925924D02*
X14165167Y-9944971D01*
X14165167Y-9944971D02*
X14168500Y-9952590D01*
X14168500Y-9952590D02*
X14171833Y-9956400D01*
X14171833Y-9956400D02*
X14178500Y-9960210D01*
X14178500Y-9960210D02*
X14198500Y-9960210D01*
X14198500Y-9960210D02*
X14205167Y-9956400D01*
X14205167Y-9956400D02*
X14208500Y-9952590D01*
X14135167Y-9952590D02*
X14131833Y-9956400D01*
X14131833Y-9956400D02*
X14135167Y-9960210D01*
X14135167Y-9960210D02*
X14138500Y-9956400D01*
X14138500Y-9956400D02*
X14135167Y-9952590D01*
X14135167Y-9952590D02*
X14135167Y-9960210D01*
X14108500Y-9880210D02*
X14065167Y-9880210D01*
X14065167Y-9880210D02*
X14088500Y-9910686D01*
X14088500Y-9910686D02*
X14078500Y-9910686D01*
X14078500Y-9910686D02*
X14071833Y-9914495D01*
X14071833Y-9914495D02*
X14068500Y-9918305D01*
X14068500Y-9918305D02*
X14065167Y-9925924D01*
X14065167Y-9925924D02*
X14065167Y-9944971D01*
X14065167Y-9944971D02*
X14068500Y-9952590D01*
X14068500Y-9952590D02*
X14071833Y-9956400D01*
X14071833Y-9956400D02*
X14078500Y-9960210D01*
X14078500Y-9960210D02*
X14098500Y-9960210D01*
X14098500Y-9960210D02*
X14105167Y-9956400D01*
X14105167Y-9956400D02*
X14108500Y-9952590D01*
X14045167Y-9880210D02*
X14021833Y-9960210D01*
X14021833Y-9960210D02*
X13998500Y-9880210D01*
X13619833Y-9962210D02*
X13643167Y-9924114D01*
X13659833Y-9962210D02*
X13659833Y-9882210D01*
X13659833Y-9882210D02*
X13633167Y-9882210D01*
X13633167Y-9882210D02*
X13626500Y-9886019D01*
X13626500Y-9886019D02*
X13623167Y-9889829D01*
X13623167Y-9889829D02*
X13619833Y-9897448D01*
X13619833Y-9897448D02*
X13619833Y-9908876D01*
X13619833Y-9908876D02*
X13623167Y-9916495D01*
X13623167Y-9916495D02*
X13626500Y-9920305D01*
X13626500Y-9920305D02*
X13633167Y-9924114D01*
X13633167Y-9924114D02*
X13659833Y-9924114D01*
X13593167Y-9958400D02*
X13583167Y-9962210D01*
X13583167Y-9962210D02*
X13566500Y-9962210D01*
X13566500Y-9962210D02*
X13559833Y-9958400D01*
X13559833Y-9958400D02*
X13556500Y-9954590D01*
X13556500Y-9954590D02*
X13553167Y-9946971D01*
X13553167Y-9946971D02*
X13553167Y-9939352D01*
X13553167Y-9939352D02*
X13556500Y-9931733D01*
X13556500Y-9931733D02*
X13559833Y-9927924D01*
X13559833Y-9927924D02*
X13566500Y-9924114D01*
X13566500Y-9924114D02*
X13579833Y-9920305D01*
X13579833Y-9920305D02*
X13586500Y-9916495D01*
X13586500Y-9916495D02*
X13589833Y-9912686D01*
X13589833Y-9912686D02*
X13593167Y-9905067D01*
X13593167Y-9905067D02*
X13593167Y-9897448D01*
X13593167Y-9897448D02*
X13589833Y-9889829D01*
X13589833Y-9889829D02*
X13586500Y-9886019D01*
X13586500Y-9886019D02*
X13579833Y-9882210D01*
X13579833Y-9882210D02*
X13563167Y-9882210D01*
X13563167Y-9882210D02*
X13553167Y-9886019D01*
X13533167Y-9882210D02*
X13493167Y-9882210D01*
X13513167Y-9962210D02*
X13513167Y-9882210D01*
X13420167Y-9951400D02*
X13410167Y-9955210D01*
X13410167Y-9955210D02*
X13393500Y-9955210D01*
X13393500Y-9955210D02*
X13386833Y-9951400D01*
X13386833Y-9951400D02*
X13383500Y-9947590D01*
X13383500Y-9947590D02*
X13380167Y-9939971D01*
X13380167Y-9939971D02*
X13380167Y-9932352D01*
X13380167Y-9932352D02*
X13383500Y-9924733D01*
X13383500Y-9924733D02*
X13386833Y-9920924D01*
X13386833Y-9920924D02*
X13393500Y-9917114D01*
X13393500Y-9917114D02*
X13406833Y-9913305D01*
X13406833Y-9913305D02*
X13413500Y-9909495D01*
X13413500Y-9909495D02*
X13416833Y-9905686D01*
X13416833Y-9905686D02*
X13420167Y-9898067D01*
X13420167Y-9898067D02*
X13420167Y-9890448D01*
X13420167Y-9890448D02*
X13416833Y-9882829D01*
X13416833Y-9882829D02*
X13413500Y-9879019D01*
X13413500Y-9879019D02*
X13406833Y-9875210D01*
X13406833Y-9875210D02*
X13390167Y-9875210D01*
X13390167Y-9875210D02*
X13380167Y-9879019D01*
X13350167Y-9913305D02*
X13326833Y-9913305D01*
X13316833Y-9955210D02*
X13350167Y-9955210D01*
X13350167Y-9955210D02*
X13350167Y-9875210D01*
X13350167Y-9875210D02*
X13316833Y-9875210D01*
X13286833Y-9955210D02*
X13286833Y-9875210D01*
X13286833Y-9875210D02*
X13246833Y-9955210D01*
X13246833Y-9955210D02*
X13246833Y-9875210D01*
X13878167Y-9883019D02*
X13884833Y-9879210D01*
X13884833Y-9879210D02*
X13894833Y-9879210D01*
X13894833Y-9879210D02*
X13904833Y-9883019D01*
X13904833Y-9883019D02*
X13911500Y-9890638D01*
X13911500Y-9890638D02*
X13914833Y-9898257D01*
X13914833Y-9898257D02*
X13918167Y-9913495D01*
X13918167Y-9913495D02*
X13918167Y-9924924D01*
X13918167Y-9924924D02*
X13914833Y-9940162D01*
X13914833Y-9940162D02*
X13911500Y-9947781D01*
X13911500Y-9947781D02*
X13904833Y-9955400D01*
X13904833Y-9955400D02*
X13894833Y-9959210D01*
X13894833Y-9959210D02*
X13888167Y-9959210D01*
X13888167Y-9959210D02*
X13878167Y-9955400D01*
X13878167Y-9955400D02*
X13874833Y-9951590D01*
X13874833Y-9951590D02*
X13874833Y-9924924D01*
X13874833Y-9924924D02*
X13888167Y-9924924D01*
X13844833Y-9959210D02*
X13844833Y-9879210D01*
X13844833Y-9879210D02*
X13804833Y-9959210D01*
X13804833Y-9959210D02*
X13804833Y-9879210D01*
X13771500Y-9959210D02*
X13771500Y-9879210D01*
X13771500Y-9879210D02*
X13754833Y-9879210D01*
X13754833Y-9879210D02*
X13744833Y-9883019D01*
X13744833Y-9883019D02*
X13738167Y-9890638D01*
X13738167Y-9890638D02*
X13734833Y-9898257D01*
X13734833Y-9898257D02*
X13731500Y-9913495D01*
X13731500Y-9913495D02*
X13731500Y-9924924D01*
X13731500Y-9924924D02*
X13734833Y-9940162D01*
X13734833Y-9940162D02*
X13738167Y-9947781D01*
X13738167Y-9947781D02*
X13744833Y-9955400D01*
X13744833Y-9955400D02*
X13754833Y-9959210D01*
X13754833Y-9959210D02*
X13771500Y-9959210D01*
X12948917Y-11397400D02*
X12938917Y-11401209D01*
X12938917Y-11401209D02*
X12922250Y-11401209D01*
X12922250Y-11401209D02*
X12915583Y-11397400D01*
X12915583Y-11397400D02*
X12912250Y-11393590D01*
X12912250Y-11393590D02*
X12908917Y-11385971D01*
X12908917Y-11385971D02*
X12908917Y-11378352D01*
X12908917Y-11378352D02*
X12912250Y-11370733D01*
X12912250Y-11370733D02*
X12915583Y-11366924D01*
X12915583Y-11366924D02*
X12922250Y-11363114D01*
X12922250Y-11363114D02*
X12935583Y-11359305D01*
X12935583Y-11359305D02*
X12942250Y-11355495D01*
X12942250Y-11355495D02*
X12945583Y-11351686D01*
X12945583Y-11351686D02*
X12948917Y-11344067D01*
X12948917Y-11344067D02*
X12948917Y-11336448D01*
X12948917Y-11336448D02*
X12945583Y-11328828D01*
X12945583Y-11328828D02*
X12942250Y-11325019D01*
X12942250Y-11325019D02*
X12935583Y-11321209D01*
X12935583Y-11321209D02*
X12918917Y-11321209D01*
X12918917Y-11321209D02*
X12908917Y-11325019D01*
X12878917Y-11401209D02*
X12878917Y-11321209D01*
X12878917Y-11321209D02*
X12862250Y-11321209D01*
X12862250Y-11321209D02*
X12852250Y-11325019D01*
X12852250Y-11325019D02*
X12845583Y-11332638D01*
X12845583Y-11332638D02*
X12842250Y-11340257D01*
X12842250Y-11340257D02*
X12838917Y-11355495D01*
X12838917Y-11355495D02*
X12838917Y-11366924D01*
X12838917Y-11366924D02*
X12842250Y-11382162D01*
X12842250Y-11382162D02*
X12845583Y-11389781D01*
X12845583Y-11389781D02*
X12852250Y-11397400D01*
X12852250Y-11397400D02*
X12862250Y-11401209D01*
X12862250Y-11401209D02*
X12878917Y-11401209D01*
X12812250Y-11378352D02*
X12778917Y-11378352D01*
X12818917Y-11401209D02*
X12795583Y-11321209D01*
X12795583Y-11321209D02*
X12772250Y-11401209D01*
X13159167Y-9951400D02*
X13149167Y-9955210D01*
X13149167Y-9955210D02*
X13132500Y-9955210D01*
X13132500Y-9955210D02*
X13125833Y-9951400D01*
X13125833Y-9951400D02*
X13122500Y-9947590D01*
X13122500Y-9947590D02*
X13119167Y-9939971D01*
X13119167Y-9939971D02*
X13119167Y-9932352D01*
X13119167Y-9932352D02*
X13122500Y-9924733D01*
X13122500Y-9924733D02*
X13125833Y-9920924D01*
X13125833Y-9920924D02*
X13132500Y-9917114D01*
X13132500Y-9917114D02*
X13145833Y-9913305D01*
X13145833Y-9913305D02*
X13152500Y-9909495D01*
X13152500Y-9909495D02*
X13155833Y-9905686D01*
X13155833Y-9905686D02*
X13159167Y-9898067D01*
X13159167Y-9898067D02*
X13159167Y-9890448D01*
X13159167Y-9890448D02*
X13155833Y-9882829D01*
X13155833Y-9882829D02*
X13152500Y-9879019D01*
X13152500Y-9879019D02*
X13145833Y-9875210D01*
X13145833Y-9875210D02*
X13129167Y-9875210D01*
X13129167Y-9875210D02*
X13119167Y-9879019D01*
X13049167Y-9947590D02*
X13052500Y-9951400D01*
X13052500Y-9951400D02*
X13062500Y-9955210D01*
X13062500Y-9955210D02*
X13069167Y-9955210D01*
X13069167Y-9955210D02*
X13079167Y-9951400D01*
X13079167Y-9951400D02*
X13085833Y-9943781D01*
X13085833Y-9943781D02*
X13089167Y-9936162D01*
X13089167Y-9936162D02*
X13092500Y-9920924D01*
X13092500Y-9920924D02*
X13092500Y-9909495D01*
X13092500Y-9909495D02*
X13089167Y-9894257D01*
X13089167Y-9894257D02*
X13085833Y-9886638D01*
X13085833Y-9886638D02*
X13079167Y-9879019D01*
X13079167Y-9879019D02*
X13069167Y-9875210D01*
X13069167Y-9875210D02*
X13062500Y-9875210D01*
X13062500Y-9875210D02*
X13052500Y-9879019D01*
X13052500Y-9879019D02*
X13049167Y-9882829D01*
X12985833Y-9955210D02*
X13019167Y-9955210D01*
X13019167Y-9955210D02*
X13019167Y-9875210D01*
D15*
X12681833Y-9913305D02*
X12658500Y-9913305D01*
X12648500Y-9955210D02*
X12681833Y-9955210D01*
X12681833Y-9955210D02*
X12681833Y-9875210D01*
X12681833Y-9875210D02*
X12648500Y-9875210D01*
X12618500Y-9901876D02*
X12618500Y-9955210D01*
X12618500Y-9909495D02*
X12615167Y-9905686D01*
X12615167Y-9905686D02*
X12608500Y-9901876D01*
X12608500Y-9901876D02*
X12598500Y-9901876D01*
X12598500Y-9901876D02*
X12591833Y-9905686D01*
X12591833Y-9905686D02*
X12588500Y-9913305D01*
X12588500Y-9913305D02*
X12588500Y-9955210D01*
D11*
X14393500Y-9880210D02*
X14426833Y-9880210D01*
X14426833Y-9880210D02*
X14430167Y-9918305D01*
X14430167Y-9918305D02*
X14426833Y-9914495D01*
X14426833Y-9914495D02*
X14420167Y-9910686D01*
X14420167Y-9910686D02*
X14403500Y-9910686D01*
X14403500Y-9910686D02*
X14396833Y-9914495D01*
X14396833Y-9914495D02*
X14393500Y-9918305D01*
X14393500Y-9918305D02*
X14390167Y-9925924D01*
X14390167Y-9925924D02*
X14390167Y-9944971D01*
X14390167Y-9944971D02*
X14393500Y-9952590D01*
X14393500Y-9952590D02*
X14396833Y-9956400D01*
X14396833Y-9956400D02*
X14403500Y-9960210D01*
X14403500Y-9960210D02*
X14420167Y-9960210D01*
X14420167Y-9960210D02*
X14426833Y-9956400D01*
X14426833Y-9956400D02*
X14430167Y-9952590D01*
X14370167Y-9880210D02*
X14346833Y-9960210D01*
X14346833Y-9960210D02*
X14323500Y-9880210D01*
X12926167Y-9951400D02*
X12916167Y-9955210D01*
X12916167Y-9955210D02*
X12899500Y-9955210D01*
X12899500Y-9955210D02*
X12892833Y-9951400D01*
X12892833Y-9951400D02*
X12889500Y-9947590D01*
X12889500Y-9947590D02*
X12886167Y-9939971D01*
X12886167Y-9939971D02*
X12886167Y-9932352D01*
X12886167Y-9932352D02*
X12889500Y-9924733D01*
X12889500Y-9924733D02*
X12892833Y-9920924D01*
X12892833Y-9920924D02*
X12899500Y-9917114D01*
X12899500Y-9917114D02*
X12912833Y-9913305D01*
X12912833Y-9913305D02*
X12919500Y-9909495D01*
X12919500Y-9909495D02*
X12922833Y-9905686D01*
X12922833Y-9905686D02*
X12926167Y-9898067D01*
X12926167Y-9898067D02*
X12926167Y-9890448D01*
X12926167Y-9890448D02*
X12922833Y-9882829D01*
X12922833Y-9882829D02*
X12919500Y-9879019D01*
X12919500Y-9879019D02*
X12912833Y-9875210D01*
X12912833Y-9875210D02*
X12896167Y-9875210D01*
X12896167Y-9875210D02*
X12886167Y-9879019D01*
X12856167Y-9955210D02*
X12856167Y-9875210D01*
X12856167Y-9875210D02*
X12839500Y-9875210D01*
X12839500Y-9875210D02*
X12829500Y-9879019D01*
X12829500Y-9879019D02*
X12822833Y-9886638D01*
X12822833Y-9886638D02*
X12819500Y-9894257D01*
X12819500Y-9894257D02*
X12816167Y-9909495D01*
X12816167Y-9909495D02*
X12816167Y-9920924D01*
X12816167Y-9920924D02*
X12819500Y-9936162D01*
X12819500Y-9936162D02*
X12822833Y-9943781D01*
X12822833Y-9943781D02*
X12829500Y-9951400D01*
X12829500Y-9951400D02*
X12839500Y-9955210D01*
X12839500Y-9955210D02*
X12856167Y-9955210D01*
X12789500Y-9932352D02*
X12756167Y-9932352D01*
X12796167Y-9955210D02*
X12772833Y-9875210D01*
X12772833Y-9875210D02*
X12749500Y-9955210D01*
X14696167Y-9960210D02*
X14736167Y-9960210D01*
X14716167Y-9960210D02*
X14716167Y-9880210D01*
X14716167Y-9880210D02*
X14722833Y-9891638D01*
X14722833Y-9891638D02*
X14729500Y-9899257D01*
X14729500Y-9899257D02*
X14736167Y-9903067D01*
X14669500Y-9887829D02*
X14666167Y-9884019D01*
X14666167Y-9884019D02*
X14659500Y-9880210D01*
X14659500Y-9880210D02*
X14642833Y-9880210D01*
X14642833Y-9880210D02*
X14636167Y-9884019D01*
X14636167Y-9884019D02*
X14632833Y-9887829D01*
X14632833Y-9887829D02*
X14629500Y-9895448D01*
X14629500Y-9895448D02*
X14629500Y-9903067D01*
X14629500Y-9903067D02*
X14632833Y-9914495D01*
X14632833Y-9914495D02*
X14672833Y-9960210D01*
X14672833Y-9960210D02*
X14629500Y-9960210D01*
X14609500Y-9880210D02*
X14586167Y-9960210D01*
X14586167Y-9960210D02*
X14562833Y-9880210D01*
X13181917Y-11397400D02*
X13171917Y-11401209D01*
X13171917Y-11401209D02*
X13155250Y-11401209D01*
X13155250Y-11401209D02*
X13148583Y-11397400D01*
X13148583Y-11397400D02*
X13145250Y-11393590D01*
X13145250Y-11393590D02*
X13141917Y-11385971D01*
X13141917Y-11385971D02*
X13141917Y-11378352D01*
X13141917Y-11378352D02*
X13145250Y-11370733D01*
X13145250Y-11370733D02*
X13148583Y-11366924D01*
X13148583Y-11366924D02*
X13155250Y-11363114D01*
X13155250Y-11363114D02*
X13168583Y-11359305D01*
X13168583Y-11359305D02*
X13175250Y-11355495D01*
X13175250Y-11355495D02*
X13178583Y-11351686D01*
X13178583Y-11351686D02*
X13181917Y-11344067D01*
X13181917Y-11344067D02*
X13181917Y-11336448D01*
X13181917Y-11336448D02*
X13178583Y-11328828D01*
X13178583Y-11328828D02*
X13175250Y-11325019D01*
X13175250Y-11325019D02*
X13168583Y-11321209D01*
X13168583Y-11321209D02*
X13151917Y-11321209D01*
X13151917Y-11321209D02*
X13141917Y-11325019D01*
X13071917Y-11393590D02*
X13075250Y-11397400D01*
X13075250Y-11397400D02*
X13085250Y-11401209D01*
X13085250Y-11401209D02*
X13091917Y-11401209D01*
X13091917Y-11401209D02*
X13101917Y-11397400D01*
X13101917Y-11397400D02*
X13108583Y-11389781D01*
X13108583Y-11389781D02*
X13111917Y-11382162D01*
X13111917Y-11382162D02*
X13115250Y-11366924D01*
X13115250Y-11366924D02*
X13115250Y-11355495D01*
X13115250Y-11355495D02*
X13111917Y-11340257D01*
X13111917Y-11340257D02*
X13108583Y-11332638D01*
X13108583Y-11332638D02*
X13101917Y-11325019D01*
X13101917Y-11325019D02*
X13091917Y-11321209D01*
X13091917Y-11321209D02*
X13085250Y-11321209D01*
X13085250Y-11321209D02*
X13075250Y-11325019D01*
X13075250Y-11325019D02*
X13071917Y-11328828D01*
X13008583Y-11401209D02*
X13041917Y-11401209D01*
X13041917Y-11401209D02*
X13041917Y-11321209D01*
X12610250Y-11321209D02*
X12643583Y-11321209D01*
X12643583Y-11321209D02*
X12646917Y-11359305D01*
X12646917Y-11359305D02*
X12643583Y-11355495D01*
X12643583Y-11355495D02*
X12636917Y-11351686D01*
X12636917Y-11351686D02*
X12620250Y-11351686D01*
X12620250Y-11351686D02*
X12613583Y-11355495D01*
X12613583Y-11355495D02*
X12610250Y-11359305D01*
X12610250Y-11359305D02*
X12606917Y-11366924D01*
X12606917Y-11366924D02*
X12606917Y-11385971D01*
X12606917Y-11385971D02*
X12610250Y-11393590D01*
X12610250Y-11393590D02*
X12613583Y-11397400D01*
X12613583Y-11397400D02*
X12620250Y-11401209D01*
X12620250Y-11401209D02*
X12636917Y-11401209D01*
X12636917Y-11401209D02*
X12643583Y-11397400D01*
X12643583Y-11397400D02*
X12646917Y-11393590D01*
X12586917Y-11321209D02*
X12563583Y-11401209D01*
X12563583Y-11401209D02*
X12540250Y-11321209D01*
X13426917Y-11330019D02*
X13433583Y-11326209D01*
X13433583Y-11326209D02*
X13443583Y-11326209D01*
X13443583Y-11326209D02*
X13453583Y-11330019D01*
X13453583Y-11330019D02*
X13460250Y-11337638D01*
X13460250Y-11337638D02*
X13463583Y-11345257D01*
X13463583Y-11345257D02*
X13466917Y-11360495D01*
X13466917Y-11360495D02*
X13466917Y-11371924D01*
X13466917Y-11371924D02*
X13463583Y-11387162D01*
X13463583Y-11387162D02*
X13460250Y-11394781D01*
X13460250Y-11394781D02*
X13453583Y-11402400D01*
X13453583Y-11402400D02*
X13443583Y-11406209D01*
X13443583Y-11406209D02*
X13436917Y-11406209D01*
X13436917Y-11406209D02*
X13426917Y-11402400D01*
X13426917Y-11402400D02*
X13423583Y-11398590D01*
X13423583Y-11398590D02*
X13423583Y-11371924D01*
X13423583Y-11371924D02*
X13436917Y-11371924D01*
X13393583Y-11406209D02*
X13393583Y-11326209D01*
X13393583Y-11326209D02*
X13353583Y-11406209D01*
X13353583Y-11406209D02*
X13353583Y-11326209D01*
X13320250Y-11406209D02*
X13320250Y-11326209D01*
X13320250Y-11326209D02*
X13303583Y-11326209D01*
X13303583Y-11326209D02*
X13293583Y-11330019D01*
X13293583Y-11330019D02*
X13286917Y-11337638D01*
X13286917Y-11337638D02*
X13283583Y-11345257D01*
X13283583Y-11345257D02*
X13280250Y-11360495D01*
X13280250Y-11360495D02*
X13280250Y-11371924D01*
X13280250Y-11371924D02*
X13283583Y-11387162D01*
X13283583Y-11387162D02*
X13286917Y-11394781D01*
X13286917Y-11394781D02*
X13293583Y-11402400D01*
X13293583Y-11402400D02*
X13303583Y-11406209D01*
X13303583Y-11406209D02*
X13320250Y-11406209D01*
X14826809Y-12431881D02*
X14793476Y-12431881D01*
X14779190Y-12484262D02*
X14826809Y-12484262D01*
X14826809Y-12484262D02*
X14826809Y-12384262D01*
X14826809Y-12384262D02*
X14779190Y-12384262D01*
X14745857Y-12384262D02*
X14679190Y-12484262D01*
X14679190Y-12384262D02*
X14745857Y-12484262D01*
X14655381Y-12384262D02*
X14598238Y-12384262D01*
X14626809Y-12484262D02*
X14626809Y-12384262D01*
X14488714Y-12484262D02*
X14488714Y-12384262D01*
X14369667Y-12379500D02*
X14455381Y-12508071D01*
X14317286Y-12384262D02*
X14298238Y-12384262D01*
X14298238Y-12384262D02*
X14288714Y-12389024D01*
X14288714Y-12389024D02*
X14279190Y-12398548D01*
X14279190Y-12398548D02*
X14274428Y-12417595D01*
X14274428Y-12417595D02*
X14274428Y-12450928D01*
X14274428Y-12450928D02*
X14279190Y-12469976D01*
X14279190Y-12469976D02*
X14288714Y-12479500D01*
X14288714Y-12479500D02*
X14298238Y-12484262D01*
X14298238Y-12484262D02*
X14317286Y-12484262D01*
X14317286Y-12484262D02*
X14326809Y-12479500D01*
X14326809Y-12479500D02*
X14336333Y-12469976D01*
X14336333Y-12469976D02*
X14341095Y-12450928D01*
X14341095Y-12450928D02*
X14341095Y-12417595D01*
X14341095Y-12417595D02*
X14336333Y-12398548D01*
X14336333Y-12398548D02*
X14326809Y-12389024D01*
X14326809Y-12389024D02*
X14317286Y-12384262D01*
X12155833Y-9952210D02*
X12155833Y-9872210D01*
X12155833Y-9872210D02*
X12132500Y-9929352D01*
X12132500Y-9929352D02*
X12109167Y-9872210D01*
X12109167Y-9872210D02*
X12109167Y-9952210D01*
X12045833Y-9898876D02*
X12045833Y-9952210D01*
X12075833Y-9898876D02*
X12075833Y-9940781D01*
X12075833Y-9940781D02*
X12072500Y-9948400D01*
X12072500Y-9948400D02*
X12065833Y-9952210D01*
X12065833Y-9952210D02*
X12055833Y-9952210D01*
X12055833Y-9952210D02*
X12049167Y-9948400D01*
X12049167Y-9948400D02*
X12045833Y-9944590D01*
X12022500Y-9898876D02*
X11995833Y-9898876D01*
X12012500Y-9872210D02*
X12012500Y-9940781D01*
X12012500Y-9940781D02*
X12009167Y-9948400D01*
X12009167Y-9948400D02*
X12002500Y-9952210D01*
X12002500Y-9952210D02*
X11995833Y-9952210D01*
X11945833Y-9948400D02*
X11952500Y-9952210D01*
X11952500Y-9952210D02*
X11965833Y-9952210D01*
X11965833Y-9952210D02*
X11972500Y-9948400D01*
X11972500Y-9948400D02*
X11975833Y-9940781D01*
X11975833Y-9940781D02*
X11975833Y-9910305D01*
X11975833Y-9910305D02*
X11972500Y-9902686D01*
X11972500Y-9902686D02*
X11965833Y-9898876D01*
X11965833Y-9898876D02*
X11952500Y-9898876D01*
X11952500Y-9898876D02*
X11945833Y-9902686D01*
X11945833Y-9902686D02*
X11942500Y-9910305D01*
X11942500Y-9910305D02*
X11942500Y-9917924D01*
X11942500Y-9917924D02*
X11975833Y-9925543D01*
X9293762Y-8595810D02*
X9193762Y-8595810D01*
X9193762Y-8595810D02*
X9193762Y-8619619D01*
X9193762Y-8619619D02*
X9198524Y-8633905D01*
X9198524Y-8633905D02*
X9208048Y-8643429D01*
X9208048Y-8643429D02*
X9217571Y-8648190D01*
X9217571Y-8648190D02*
X9236619Y-8652952D01*
X9236619Y-8652952D02*
X9250905Y-8652952D01*
X9250905Y-8652952D02*
X9269952Y-8648190D01*
X9269952Y-8648190D02*
X9279476Y-8643429D01*
X9279476Y-8643429D02*
X9289000Y-8633905D01*
X9289000Y-8633905D02*
X9293762Y-8619619D01*
X9293762Y-8619619D02*
X9293762Y-8595810D01*
X9289000Y-8733905D02*
X9293762Y-8724381D01*
X9293762Y-8724381D02*
X9293762Y-8705333D01*
X9293762Y-8705333D02*
X9289000Y-8695810D01*
X9289000Y-8695810D02*
X9279476Y-8691048D01*
X9279476Y-8691048D02*
X9241381Y-8691048D01*
X9241381Y-8691048D02*
X9231857Y-8695810D01*
X9231857Y-8695810D02*
X9227095Y-8705333D01*
X9227095Y-8705333D02*
X9227095Y-8724381D01*
X9227095Y-8724381D02*
X9231857Y-8733905D01*
X9231857Y-8733905D02*
X9241381Y-8738667D01*
X9241381Y-8738667D02*
X9250905Y-8738667D01*
X9250905Y-8738667D02*
X9260429Y-8691048D01*
X9227095Y-8772000D02*
X9293762Y-8795810D01*
X9293762Y-8795810D02*
X9227095Y-8819619D01*
X9289000Y-8895810D02*
X9293762Y-8886286D01*
X9293762Y-8886286D02*
X9293762Y-8867238D01*
X9293762Y-8867238D02*
X9289000Y-8857714D01*
X9289000Y-8857714D02*
X9279476Y-8852952D01*
X9279476Y-8852952D02*
X9241381Y-8852952D01*
X9241381Y-8852952D02*
X9231857Y-8857714D01*
X9231857Y-8857714D02*
X9227095Y-8867238D01*
X9227095Y-8867238D02*
X9227095Y-8886286D01*
X9227095Y-8886286D02*
X9231857Y-8895810D01*
X9231857Y-8895810D02*
X9241381Y-8900571D01*
X9241381Y-8900571D02*
X9250905Y-8900571D01*
X9250905Y-8900571D02*
X9260429Y-8852952D01*
X9293762Y-8957714D02*
X9289000Y-8948191D01*
X9289000Y-8948191D02*
X9279476Y-8943429D01*
X9279476Y-8943429D02*
X9193762Y-8943429D01*
X9293762Y-9010095D02*
X9289000Y-9000572D01*
X9289000Y-9000572D02*
X9284238Y-8995810D01*
X9284238Y-8995810D02*
X9274714Y-8991048D01*
X9274714Y-8991048D02*
X9246143Y-8991048D01*
X9246143Y-8991048D02*
X9236619Y-8995810D01*
X9236619Y-8995810D02*
X9231857Y-9000572D01*
X9231857Y-9000572D02*
X9227095Y-9010095D01*
X9227095Y-9010095D02*
X9227095Y-9024381D01*
X9227095Y-9024381D02*
X9231857Y-9033905D01*
X9231857Y-9033905D02*
X9236619Y-9038667D01*
X9236619Y-9038667D02*
X9246143Y-9043429D01*
X9246143Y-9043429D02*
X9274714Y-9043429D01*
X9274714Y-9043429D02*
X9284238Y-9038667D01*
X9284238Y-9038667D02*
X9289000Y-9033905D01*
X9289000Y-9033905D02*
X9293762Y-9024381D01*
X9293762Y-9024381D02*
X9293762Y-9010095D01*
X9227095Y-9086286D02*
X9327095Y-9086286D01*
X9231857Y-9086286D02*
X9227095Y-9095810D01*
X9227095Y-9095810D02*
X9227095Y-9114857D01*
X9227095Y-9114857D02*
X9231857Y-9124381D01*
X9231857Y-9124381D02*
X9236619Y-9129143D01*
X9236619Y-9129143D02*
X9246143Y-9133905D01*
X9246143Y-9133905D02*
X9274714Y-9133905D01*
X9274714Y-9133905D02*
X9284238Y-9129143D01*
X9284238Y-9129143D02*
X9289000Y-9124381D01*
X9289000Y-9124381D02*
X9293762Y-9114857D01*
X9293762Y-9114857D02*
X9293762Y-9095810D01*
X9293762Y-9095810D02*
X9289000Y-9086286D01*
X9289000Y-9214857D02*
X9293762Y-9205333D01*
X9293762Y-9205333D02*
X9293762Y-9186286D01*
X9293762Y-9186286D02*
X9289000Y-9176762D01*
X9289000Y-9176762D02*
X9279476Y-9172000D01*
X9279476Y-9172000D02*
X9241381Y-9172000D01*
X9241381Y-9172000D02*
X9231857Y-9176762D01*
X9231857Y-9176762D02*
X9227095Y-9186286D01*
X9227095Y-9186286D02*
X9227095Y-9205333D01*
X9227095Y-9205333D02*
X9231857Y-9214857D01*
X9231857Y-9214857D02*
X9241381Y-9219619D01*
X9241381Y-9219619D02*
X9250905Y-9219619D01*
X9250905Y-9219619D02*
X9260429Y-9172000D01*
X9293762Y-9305333D02*
X9193762Y-9305333D01*
X9289000Y-9305333D02*
X9293762Y-9295810D01*
X9293762Y-9295810D02*
X9293762Y-9276762D01*
X9293762Y-9276762D02*
X9289000Y-9267238D01*
X9289000Y-9267238D02*
X9284238Y-9262476D01*
X9284238Y-9262476D02*
X9274714Y-9257714D01*
X9274714Y-9257714D02*
X9246143Y-9257714D01*
X9246143Y-9257714D02*
X9236619Y-9262476D01*
X9236619Y-9262476D02*
X9231857Y-9267238D01*
X9231857Y-9267238D02*
X9227095Y-9276762D01*
X9227095Y-9276762D02*
X9227095Y-9295810D01*
X9227095Y-9295810D02*
X9231857Y-9305333D01*
X9293762Y-9429143D02*
X9193762Y-9429143D01*
X9231857Y-9429143D02*
X9227095Y-9438667D01*
X9227095Y-9438667D02*
X9227095Y-9457714D01*
X9227095Y-9457714D02*
X9231857Y-9467238D01*
X9231857Y-9467238D02*
X9236619Y-9472000D01*
X9236619Y-9472000D02*
X9246143Y-9476762D01*
X9246143Y-9476762D02*
X9274714Y-9476762D01*
X9274714Y-9476762D02*
X9284238Y-9472000D01*
X9284238Y-9472000D02*
X9289000Y-9467238D01*
X9289000Y-9467238D02*
X9293762Y-9457714D01*
X9293762Y-9457714D02*
X9293762Y-9438667D01*
X9293762Y-9438667D02*
X9289000Y-9429143D01*
X9227095Y-9510095D02*
X9293762Y-9533905D01*
X9227095Y-9557714D02*
X9293762Y-9533905D01*
X9293762Y-9533905D02*
X9317571Y-9524381D01*
X9317571Y-9524381D02*
X9322333Y-9519619D01*
X9322333Y-9519619D02*
X9327095Y-9510095D01*
X9265190Y-9667238D02*
X9265190Y-9714857D01*
X9293762Y-9657715D02*
X9193762Y-9691048D01*
X9193762Y-9691048D02*
X9293762Y-9724381D01*
X9227095Y-9757715D02*
X9293762Y-9757715D01*
X9236619Y-9757715D02*
X9231857Y-9762476D01*
X9231857Y-9762476D02*
X9227095Y-9772000D01*
X9227095Y-9772000D02*
X9227095Y-9786286D01*
X9227095Y-9786286D02*
X9231857Y-9795810D01*
X9231857Y-9795810D02*
X9241381Y-9800572D01*
X9241381Y-9800572D02*
X9293762Y-9800572D01*
X9293762Y-9891048D02*
X9193762Y-9891048D01*
X9289000Y-9891048D02*
X9293762Y-9881524D01*
X9293762Y-9881524D02*
X9293762Y-9862476D01*
X9293762Y-9862476D02*
X9289000Y-9852953D01*
X9289000Y-9852953D02*
X9284238Y-9848191D01*
X9284238Y-9848191D02*
X9274714Y-9843429D01*
X9274714Y-9843429D02*
X9246143Y-9843429D01*
X9246143Y-9843429D02*
X9236619Y-9848191D01*
X9236619Y-9848191D02*
X9231857Y-9852953D01*
X9231857Y-9852953D02*
X9227095Y-9862476D01*
X9227095Y-9862476D02*
X9227095Y-9881524D01*
X9227095Y-9881524D02*
X9231857Y-9891048D01*
X9293762Y-9938667D02*
X9227095Y-9938667D01*
X9246143Y-9938667D02*
X9236619Y-9943429D01*
X9236619Y-9943429D02*
X9231857Y-9948191D01*
X9231857Y-9948191D02*
X9227095Y-9957715D01*
X9227095Y-9957715D02*
X9227095Y-9967238D01*
X9289000Y-10038667D02*
X9293762Y-10029143D01*
X9293762Y-10029143D02*
X9293762Y-10010096D01*
X9293762Y-10010096D02*
X9289000Y-10000572D01*
X9289000Y-10000572D02*
X9279476Y-9995810D01*
X9279476Y-9995810D02*
X9241381Y-9995810D01*
X9241381Y-9995810D02*
X9231857Y-10000572D01*
X9231857Y-10000572D02*
X9227095Y-10010096D01*
X9227095Y-10010096D02*
X9227095Y-10029143D01*
X9227095Y-10029143D02*
X9231857Y-10038667D01*
X9231857Y-10038667D02*
X9241381Y-10043429D01*
X9241381Y-10043429D02*
X9250905Y-10043429D01*
X9250905Y-10043429D02*
X9260429Y-9995810D01*
X9227095Y-10076762D02*
X9293762Y-10100572D01*
X9227095Y-10124381D02*
X9293762Y-10100572D01*
X9293762Y-10100572D02*
X9317571Y-10091048D01*
X9317571Y-10091048D02*
X9322333Y-10086286D01*
X9322333Y-10086286D02*
X9327095Y-10076762D01*
X9293762Y-10238667D02*
X9193762Y-10238667D01*
X9227095Y-10276762D02*
X9293762Y-10300572D01*
X9293762Y-10300572D02*
X9227095Y-10324381D01*
X9293762Y-10405334D02*
X9241381Y-10405334D01*
X9241381Y-10405334D02*
X9231857Y-10400572D01*
X9231857Y-10400572D02*
X9227095Y-10391048D01*
X9227095Y-10391048D02*
X9227095Y-10372000D01*
X9227095Y-10372000D02*
X9231857Y-10362477D01*
X9289000Y-10405334D02*
X9293762Y-10395810D01*
X9293762Y-10395810D02*
X9293762Y-10372000D01*
X9293762Y-10372000D02*
X9289000Y-10362477D01*
X9289000Y-10362477D02*
X9279476Y-10357715D01*
X9279476Y-10357715D02*
X9269952Y-10357715D01*
X9269952Y-10357715D02*
X9260429Y-10362477D01*
X9260429Y-10362477D02*
X9255667Y-10372000D01*
X9255667Y-10372000D02*
X9255667Y-10395810D01*
X9255667Y-10395810D02*
X9250905Y-10405334D01*
X9227095Y-10452953D02*
X9293762Y-10452953D01*
X9236619Y-10452953D02*
X9231857Y-10457715D01*
X9231857Y-10457715D02*
X9227095Y-10467238D01*
X9227095Y-10467238D02*
X9227095Y-10481524D01*
X9227095Y-10481524D02*
X9231857Y-10491048D01*
X9231857Y-10491048D02*
X9241381Y-10495810D01*
X9241381Y-10495810D02*
X9293762Y-10495810D01*
X9293762Y-10557715D02*
X9289000Y-10548191D01*
X9289000Y-10548191D02*
X9284238Y-10543429D01*
X9284238Y-10543429D02*
X9274714Y-10538667D01*
X9274714Y-10538667D02*
X9246143Y-10538667D01*
X9246143Y-10538667D02*
X9236619Y-10543429D01*
X9236619Y-10543429D02*
X9231857Y-10548191D01*
X9231857Y-10548191D02*
X9227095Y-10557715D01*
X9227095Y-10557715D02*
X9227095Y-10572000D01*
X9227095Y-10572000D02*
X9231857Y-10581524D01*
X9231857Y-10581524D02*
X9236619Y-10586286D01*
X9236619Y-10586286D02*
X9246143Y-10591048D01*
X9246143Y-10591048D02*
X9274714Y-10591048D01*
X9274714Y-10591048D02*
X9284238Y-10586286D01*
X9284238Y-10586286D02*
X9289000Y-10581524D01*
X9289000Y-10581524D02*
X9293762Y-10572000D01*
X9293762Y-10572000D02*
X9293762Y-10557715D01*
X9227095Y-10624381D02*
X9293762Y-10648191D01*
X9293762Y-10648191D02*
X9227095Y-10672000D01*
X9284238Y-10710096D02*
X9289000Y-10714858D01*
X9289000Y-10714858D02*
X9293762Y-10710096D01*
X9293762Y-10710096D02*
X9289000Y-10705334D01*
X9289000Y-10705334D02*
X9284238Y-10710096D01*
X9284238Y-10710096D02*
X9293762Y-10710096D01*
X9455762Y-8648190D02*
X9455762Y-8591048D01*
X9455762Y-8619619D02*
X9355762Y-8619619D01*
X9355762Y-8619619D02*
X9370048Y-8610095D01*
X9370048Y-8610095D02*
X9379571Y-8600571D01*
X9379571Y-8600571D02*
X9384333Y-8591048D01*
X9355762Y-8710095D02*
X9355762Y-8719619D01*
X9355762Y-8719619D02*
X9360524Y-8729143D01*
X9360524Y-8729143D02*
X9365286Y-8733905D01*
X9365286Y-8733905D02*
X9374810Y-8738667D01*
X9374810Y-8738667D02*
X9393857Y-8743429D01*
X9393857Y-8743429D02*
X9417667Y-8743429D01*
X9417667Y-8743429D02*
X9436714Y-8738667D01*
X9436714Y-8738667D02*
X9446238Y-8733905D01*
X9446238Y-8733905D02*
X9451000Y-8729143D01*
X9451000Y-8729143D02*
X9455762Y-8719619D01*
X9455762Y-8719619D02*
X9455762Y-8710095D01*
X9455762Y-8710095D02*
X9451000Y-8700571D01*
X9451000Y-8700571D02*
X9446238Y-8695810D01*
X9446238Y-8695810D02*
X9436714Y-8691048D01*
X9436714Y-8691048D02*
X9417667Y-8686286D01*
X9417667Y-8686286D02*
X9393857Y-8686286D01*
X9393857Y-8686286D02*
X9374810Y-8691048D01*
X9374810Y-8691048D02*
X9365286Y-8695810D01*
X9365286Y-8695810D02*
X9360524Y-8700571D01*
X9360524Y-8700571D02*
X9355762Y-8710095D01*
X9446238Y-8786286D02*
X9451000Y-8791048D01*
X9451000Y-8791048D02*
X9455762Y-8786286D01*
X9455762Y-8786286D02*
X9451000Y-8781524D01*
X9451000Y-8781524D02*
X9446238Y-8786286D01*
X9446238Y-8786286D02*
X9455762Y-8786286D01*
X9355762Y-8852952D02*
X9355762Y-8862476D01*
X9355762Y-8862476D02*
X9360524Y-8872000D01*
X9360524Y-8872000D02*
X9365286Y-8876762D01*
X9365286Y-8876762D02*
X9374810Y-8881524D01*
X9374810Y-8881524D02*
X9393857Y-8886286D01*
X9393857Y-8886286D02*
X9417667Y-8886286D01*
X9417667Y-8886286D02*
X9436714Y-8881524D01*
X9436714Y-8881524D02*
X9446238Y-8876762D01*
X9446238Y-8876762D02*
X9451000Y-8872000D01*
X9451000Y-8872000D02*
X9455762Y-8862476D01*
X9455762Y-8862476D02*
X9455762Y-8852952D01*
X9455762Y-8852952D02*
X9451000Y-8843429D01*
X9451000Y-8843429D02*
X9446238Y-8838667D01*
X9446238Y-8838667D02*
X9436714Y-8833905D01*
X9436714Y-8833905D02*
X9417667Y-8829143D01*
X9417667Y-8829143D02*
X9393857Y-8829143D01*
X9393857Y-8829143D02*
X9374810Y-8833905D01*
X9374810Y-8833905D02*
X9365286Y-8838667D01*
X9365286Y-8838667D02*
X9360524Y-8843429D01*
X9360524Y-8843429D02*
X9355762Y-8852952D01*
X9455762Y-8981524D02*
X9455762Y-8924381D01*
X9455762Y-8952952D02*
X9355762Y-8952952D01*
X9355762Y-8952952D02*
X9370048Y-8943429D01*
X9370048Y-8943429D02*
X9379571Y-8933905D01*
X9379571Y-8933905D02*
X9384333Y-8924381D01*
X9446238Y-9024381D02*
X9451000Y-9029143D01*
X9451000Y-9029143D02*
X9455762Y-9024381D01*
X9455762Y-9024381D02*
X9451000Y-9019619D01*
X9451000Y-9019619D02*
X9446238Y-9024381D01*
X9446238Y-9024381D02*
X9455762Y-9024381D01*
X9365286Y-9067238D02*
X9360524Y-9072000D01*
X9360524Y-9072000D02*
X9355762Y-9081524D01*
X9355762Y-9081524D02*
X9355762Y-9105333D01*
X9355762Y-9105333D02*
X9360524Y-9114857D01*
X9360524Y-9114857D02*
X9365286Y-9119619D01*
X9365286Y-9119619D02*
X9374810Y-9124381D01*
X9374810Y-9124381D02*
X9384333Y-9124381D01*
X9384333Y-9124381D02*
X9398619Y-9119619D01*
X9398619Y-9119619D02*
X9455762Y-9062476D01*
X9455762Y-9062476D02*
X9455762Y-9124381D01*
X9355762Y-9186286D02*
X9355762Y-9195809D01*
X9355762Y-9195809D02*
X9360524Y-9205333D01*
X9360524Y-9205333D02*
X9365286Y-9210095D01*
X9365286Y-9210095D02*
X9374810Y-9214857D01*
X9374810Y-9214857D02*
X9393857Y-9219619D01*
X9393857Y-9219619D02*
X9417667Y-9219619D01*
X9417667Y-9219619D02*
X9436714Y-9214857D01*
X9436714Y-9214857D02*
X9446238Y-9210095D01*
X9446238Y-9210095D02*
X9451000Y-9205333D01*
X9451000Y-9205333D02*
X9455762Y-9195809D01*
X9455762Y-9195809D02*
X9455762Y-9186286D01*
X9455762Y-9186286D02*
X9451000Y-9176762D01*
X9451000Y-9176762D02*
X9446238Y-9172000D01*
X9446238Y-9172000D02*
X9436714Y-9167238D01*
X9436714Y-9167238D02*
X9417667Y-9162476D01*
X9417667Y-9162476D02*
X9393857Y-9162476D01*
X9393857Y-9162476D02*
X9374810Y-9167238D01*
X9374810Y-9167238D02*
X9365286Y-9172000D01*
X9365286Y-9172000D02*
X9360524Y-9176762D01*
X9360524Y-9176762D02*
X9355762Y-9186286D01*
X9365286Y-9257714D02*
X9360524Y-9262476D01*
X9360524Y-9262476D02*
X9355762Y-9272000D01*
X9355762Y-9272000D02*
X9355762Y-9295809D01*
X9355762Y-9295809D02*
X9360524Y-9305333D01*
X9360524Y-9305333D02*
X9365286Y-9310095D01*
X9365286Y-9310095D02*
X9374810Y-9314857D01*
X9374810Y-9314857D02*
X9384333Y-9314857D01*
X9384333Y-9314857D02*
X9398619Y-9310095D01*
X9398619Y-9310095D02*
X9455762Y-9252952D01*
X9455762Y-9252952D02*
X9455762Y-9314857D01*
X9389095Y-9400571D02*
X9455762Y-9400571D01*
X9351000Y-9376762D02*
X9422429Y-9352952D01*
X9422429Y-9352952D02*
X9422429Y-9414857D01*
X9565381Y-8629143D02*
X9565381Y-8595810D01*
X9617762Y-8595810D02*
X9517762Y-8595810D01*
X9517762Y-8595810D02*
X9517762Y-8643429D01*
X9617762Y-8681524D02*
X9551095Y-8681524D01*
X9570143Y-8681524D02*
X9560619Y-8686286D01*
X9560619Y-8686286D02*
X9555857Y-8691048D01*
X9555857Y-8691048D02*
X9551095Y-8700571D01*
X9551095Y-8700571D02*
X9551095Y-8710095D01*
X9617762Y-8757714D02*
X9613000Y-8748191D01*
X9613000Y-8748191D02*
X9608238Y-8743429D01*
X9608238Y-8743429D02*
X9598714Y-8738667D01*
X9598714Y-8738667D02*
X9570143Y-8738667D01*
X9570143Y-8738667D02*
X9560619Y-8743429D01*
X9560619Y-8743429D02*
X9555857Y-8748191D01*
X9555857Y-8748191D02*
X9551095Y-8757714D01*
X9551095Y-8757714D02*
X9551095Y-8772000D01*
X9551095Y-8772000D02*
X9555857Y-8781524D01*
X9555857Y-8781524D02*
X9560619Y-8786286D01*
X9560619Y-8786286D02*
X9570143Y-8791048D01*
X9570143Y-8791048D02*
X9598714Y-8791048D01*
X9598714Y-8791048D02*
X9608238Y-8786286D01*
X9608238Y-8786286D02*
X9613000Y-8781524D01*
X9613000Y-8781524D02*
X9617762Y-8772000D01*
X9617762Y-8772000D02*
X9617762Y-8757714D01*
X9551095Y-8833905D02*
X9617762Y-8833905D01*
X9560619Y-8833905D02*
X9555857Y-8838667D01*
X9555857Y-8838667D02*
X9551095Y-8848191D01*
X9551095Y-8848191D02*
X9551095Y-8862476D01*
X9551095Y-8862476D02*
X9555857Y-8872000D01*
X9555857Y-8872000D02*
X9565381Y-8876762D01*
X9565381Y-8876762D02*
X9617762Y-8876762D01*
X9551095Y-8910095D02*
X9551095Y-8948191D01*
X9517762Y-8924381D02*
X9603476Y-8924381D01*
X9603476Y-8924381D02*
X9613000Y-8929143D01*
X9613000Y-8929143D02*
X9617762Y-8938667D01*
X9617762Y-8938667D02*
X9617762Y-8948191D01*
X9627286Y-8957714D02*
X9627286Y-9033905D01*
X9617762Y-9057714D02*
X9517762Y-9057714D01*
X9517762Y-9057714D02*
X9517762Y-9095810D01*
X9517762Y-9095810D02*
X9522524Y-9105333D01*
X9522524Y-9105333D02*
X9527286Y-9110095D01*
X9527286Y-9110095D02*
X9536810Y-9114857D01*
X9536810Y-9114857D02*
X9551095Y-9114857D01*
X9551095Y-9114857D02*
X9560619Y-9110095D01*
X9560619Y-9110095D02*
X9565381Y-9105333D01*
X9565381Y-9105333D02*
X9570143Y-9095810D01*
X9570143Y-9095810D02*
X9570143Y-9057714D01*
X9608238Y-9214857D02*
X9613000Y-9210095D01*
X9613000Y-9210095D02*
X9617762Y-9195810D01*
X9617762Y-9195810D02*
X9617762Y-9186286D01*
X9617762Y-9186286D02*
X9613000Y-9172000D01*
X9613000Y-9172000D02*
X9603476Y-9162476D01*
X9603476Y-9162476D02*
X9593952Y-9157714D01*
X9593952Y-9157714D02*
X9574905Y-9152953D01*
X9574905Y-9152953D02*
X9560619Y-9152953D01*
X9560619Y-9152953D02*
X9541571Y-9157714D01*
X9541571Y-9157714D02*
X9532048Y-9162476D01*
X9532048Y-9162476D02*
X9522524Y-9172000D01*
X9522524Y-9172000D02*
X9517762Y-9186286D01*
X9517762Y-9186286D02*
X9517762Y-9195810D01*
X9517762Y-9195810D02*
X9522524Y-9210095D01*
X9522524Y-9210095D02*
X9527286Y-9214857D01*
X9565381Y-9291048D02*
X9570143Y-9305333D01*
X9570143Y-9305333D02*
X9574905Y-9310095D01*
X9574905Y-9310095D02*
X9584429Y-9314857D01*
X9584429Y-9314857D02*
X9598714Y-9314857D01*
X9598714Y-9314857D02*
X9608238Y-9310095D01*
X9608238Y-9310095D02*
X9613000Y-9305333D01*
X9613000Y-9305333D02*
X9617762Y-9295810D01*
X9617762Y-9295810D02*
X9617762Y-9257714D01*
X9617762Y-9257714D02*
X9517762Y-9257714D01*
X9517762Y-9257714D02*
X9517762Y-9291048D01*
X9517762Y-9291048D02*
X9522524Y-9300572D01*
X9522524Y-9300572D02*
X9527286Y-9305333D01*
X9527286Y-9305333D02*
X9536810Y-9310095D01*
X9536810Y-9310095D02*
X9546333Y-9310095D01*
X9546333Y-9310095D02*
X9555857Y-9305333D01*
X9555857Y-9305333D02*
X9560619Y-9300572D01*
X9560619Y-9300572D02*
X9565381Y-9291048D01*
X9565381Y-9291048D02*
X9565381Y-9257714D01*
X9627286Y-9333905D02*
X9627286Y-9410095D01*
X9517762Y-9452953D02*
X9517762Y-9472000D01*
X9517762Y-9472000D02*
X9522524Y-9481524D01*
X9522524Y-9481524D02*
X9532048Y-9491048D01*
X9532048Y-9491048D02*
X9551095Y-9495810D01*
X9551095Y-9495810D02*
X9584429Y-9495810D01*
X9584429Y-9495810D02*
X9603476Y-9491048D01*
X9603476Y-9491048D02*
X9613000Y-9481524D01*
X9613000Y-9481524D02*
X9617762Y-9472000D01*
X9617762Y-9472000D02*
X9617762Y-9452953D01*
X9617762Y-9452953D02*
X9613000Y-9443429D01*
X9613000Y-9443429D02*
X9603476Y-9433905D01*
X9603476Y-9433905D02*
X9584429Y-9429143D01*
X9584429Y-9429143D02*
X9551095Y-9429143D01*
X9551095Y-9429143D02*
X9532048Y-9433905D01*
X9532048Y-9433905D02*
X9522524Y-9443429D01*
X9522524Y-9443429D02*
X9517762Y-9452953D01*
X9617762Y-9586286D02*
X9617762Y-9538667D01*
X9617762Y-9538667D02*
X9517762Y-9538667D01*
X9565381Y-9619619D02*
X9565381Y-9652953D01*
X9617762Y-9667238D02*
X9617762Y-9619619D01*
X9617762Y-9619619D02*
X9517762Y-9619619D01*
X9517762Y-9619619D02*
X9517762Y-9667238D01*
X9617762Y-9710095D02*
X9517762Y-9710095D01*
X9517762Y-9710095D02*
X9517762Y-9733905D01*
X9517762Y-9733905D02*
X9522524Y-9748191D01*
X9522524Y-9748191D02*
X9532048Y-9757714D01*
X9532048Y-9757714D02*
X9541571Y-9762476D01*
X9541571Y-9762476D02*
X9560619Y-9767238D01*
X9560619Y-9767238D02*
X9574905Y-9767238D01*
X9574905Y-9767238D02*
X9593952Y-9762476D01*
X9593952Y-9762476D02*
X9603476Y-9757714D01*
X9603476Y-9757714D02*
X9613000Y-9748191D01*
X9613000Y-9748191D02*
X9617762Y-9733905D01*
X9617762Y-9733905D02*
X9617762Y-9710095D01*
X9551095Y-9876762D02*
X9617762Y-9900572D01*
X9617762Y-9900572D02*
X9551095Y-9924381D01*
X9617762Y-10014857D02*
X9617762Y-9957715D01*
X9617762Y-9986286D02*
X9517762Y-9986286D01*
X9517762Y-9986286D02*
X9532048Y-9976762D01*
X9532048Y-9976762D02*
X9541571Y-9967238D01*
X9541571Y-9967238D02*
X9546333Y-9957715D01*
X9608238Y-10057715D02*
X9613000Y-10062476D01*
X9613000Y-10062476D02*
X9617762Y-10057715D01*
X9617762Y-10057715D02*
X9613000Y-10052953D01*
X9613000Y-10052953D02*
X9608238Y-10057715D01*
X9608238Y-10057715D02*
X9617762Y-10057715D01*
X9517762Y-10152953D02*
X9517762Y-10105334D01*
X9517762Y-10105334D02*
X9565381Y-10100572D01*
X9565381Y-10100572D02*
X9560619Y-10105334D01*
X9560619Y-10105334D02*
X9555857Y-10114857D01*
X9555857Y-10114857D02*
X9555857Y-10138667D01*
X9555857Y-10138667D02*
X9560619Y-10148191D01*
X9560619Y-10148191D02*
X9565381Y-10152953D01*
X9565381Y-10152953D02*
X9574905Y-10157714D01*
X9574905Y-10157714D02*
X9598714Y-10157714D01*
X9598714Y-10157714D02*
X9608238Y-10152953D01*
X9608238Y-10152953D02*
X9613000Y-10148191D01*
X9613000Y-10148191D02*
X9617762Y-10138667D01*
X9617762Y-10138667D02*
X9617762Y-10114857D01*
X9617762Y-10114857D02*
X9613000Y-10105334D01*
X9613000Y-10105334D02*
X9608238Y-10100572D01*
X11909167Y-9947400D02*
X11899167Y-9951210D01*
X11899167Y-9951210D02*
X11882500Y-9951210D01*
X11882500Y-9951210D02*
X11875833Y-9947400D01*
X11875833Y-9947400D02*
X11872500Y-9943590D01*
X11872500Y-9943590D02*
X11869167Y-9935971D01*
X11869167Y-9935971D02*
X11869167Y-9928352D01*
X11869167Y-9928352D02*
X11872500Y-9920733D01*
X11872500Y-9920733D02*
X11875833Y-9916924D01*
X11875833Y-9916924D02*
X11882500Y-9913114D01*
X11882500Y-9913114D02*
X11895833Y-9909305D01*
X11895833Y-9909305D02*
X11902500Y-9905495D01*
X11902500Y-9905495D02*
X11905833Y-9901686D01*
X11905833Y-9901686D02*
X11909167Y-9894067D01*
X11909167Y-9894067D02*
X11909167Y-9886448D01*
X11909167Y-9886448D02*
X11905833Y-9878829D01*
X11905833Y-9878829D02*
X11902500Y-9875019D01*
X11902500Y-9875019D02*
X11895833Y-9871210D01*
X11895833Y-9871210D02*
X11879167Y-9871210D01*
X11879167Y-9871210D02*
X11869167Y-9875019D01*
X11829167Y-9951210D02*
X11835833Y-9947400D01*
X11835833Y-9947400D02*
X11839167Y-9939781D01*
X11839167Y-9939781D02*
X11839167Y-9871210D01*
X11775833Y-9947400D02*
X11782500Y-9951210D01*
X11782500Y-9951210D02*
X11795833Y-9951210D01*
X11795833Y-9951210D02*
X11802500Y-9947400D01*
X11802500Y-9947400D02*
X11805833Y-9939781D01*
X11805833Y-9939781D02*
X11805833Y-9909305D01*
X11805833Y-9909305D02*
X11802500Y-9901686D01*
X11802500Y-9901686D02*
X11795833Y-9897876D01*
X11795833Y-9897876D02*
X11782500Y-9897876D01*
X11782500Y-9897876D02*
X11775833Y-9901686D01*
X11775833Y-9901686D02*
X11772500Y-9909305D01*
X11772500Y-9909305D02*
X11772500Y-9916924D01*
X11772500Y-9916924D02*
X11805833Y-9924543D01*
X11715833Y-9947400D02*
X11722500Y-9951210D01*
X11722500Y-9951210D02*
X11735833Y-9951210D01*
X11735833Y-9951210D02*
X11742500Y-9947400D01*
X11742500Y-9947400D02*
X11745833Y-9939781D01*
X11745833Y-9939781D02*
X11745833Y-9909305D01*
X11745833Y-9909305D02*
X11742500Y-9901686D01*
X11742500Y-9901686D02*
X11735833Y-9897876D01*
X11735833Y-9897876D02*
X11722500Y-9897876D01*
X11722500Y-9897876D02*
X11715833Y-9901686D01*
X11715833Y-9901686D02*
X11712500Y-9909305D01*
X11712500Y-9909305D02*
X11712500Y-9916924D01*
X11712500Y-9916924D02*
X11745833Y-9924543D01*
X11682500Y-9897876D02*
X11682500Y-9977876D01*
X11682500Y-9901686D02*
X11675833Y-9897876D01*
X11675833Y-9897876D02*
X11662500Y-9897876D01*
X11662500Y-9897876D02*
X11655833Y-9901686D01*
X11655833Y-9901686D02*
X11652500Y-9905495D01*
X11652500Y-9905495D02*
X11649167Y-9913114D01*
X11649167Y-9913114D02*
X11649167Y-9935971D01*
X11649167Y-9935971D02*
X11652500Y-9943590D01*
X11652500Y-9943590D02*
X11655833Y-9947400D01*
X11655833Y-9947400D02*
X11662500Y-9951210D01*
X11662500Y-9951210D02*
X11675833Y-9951210D01*
X11675833Y-9951210D02*
X11682500Y-9947400D01*
X12365500Y-9868210D02*
X12348833Y-9948210D01*
X12348833Y-9948210D02*
X12335500Y-9891067D01*
X12335500Y-9891067D02*
X12322167Y-9948210D01*
X12322167Y-9948210D02*
X12305500Y-9868210D01*
X12278833Y-9894876D02*
X12278833Y-9974876D01*
X12278833Y-9898686D02*
X12272167Y-9894876D01*
X12272167Y-9894876D02*
X12258833Y-9894876D01*
X12258833Y-9894876D02*
X12252167Y-9898686D01*
X12252167Y-9898686D02*
X12248833Y-9902495D01*
X12248833Y-9902495D02*
X12245500Y-9910114D01*
X12245500Y-9910114D02*
X12245500Y-9932971D01*
X12245500Y-9932971D02*
X12248833Y-9940590D01*
X12248833Y-9940590D02*
X12252167Y-9944400D01*
X12252167Y-9944400D02*
X12258833Y-9948210D01*
X12258833Y-9948210D02*
X12272167Y-9948210D01*
X12272167Y-9948210D02*
X12278833Y-9944400D01*
D14*
X12565214Y-9899657D02*
X12565214Y-9859657D01*
X12565214Y-9839657D02*
X12568071Y-9842514D01*
X12568071Y-9842514D02*
X12565214Y-9845371D01*
X12565214Y-9845371D02*
X12562357Y-9842514D01*
X12562357Y-9842514D02*
X12565214Y-9839657D01*
X12565214Y-9839657D02*
X12565214Y-9845371D01*
X12539500Y-9845371D02*
X12536643Y-9842514D01*
X12536643Y-9842514D02*
X12530929Y-9839657D01*
X12530929Y-9839657D02*
X12516643Y-9839657D01*
X12516643Y-9839657D02*
X12510929Y-9842514D01*
X12510929Y-9842514D02*
X12508071Y-9845371D01*
X12508071Y-9845371D02*
X12505214Y-9851086D01*
X12505214Y-9851086D02*
X12505214Y-9856800D01*
X12505214Y-9856800D02*
X12508071Y-9865371D01*
X12508071Y-9865371D02*
X12542357Y-9899657D01*
X12542357Y-9899657D02*
X12505214Y-9899657D01*
X12453786Y-9896800D02*
X12459500Y-9899657D01*
X12459500Y-9899657D02*
X12470928Y-9899657D01*
X12470928Y-9899657D02*
X12476643Y-9896800D01*
X12476643Y-9896800D02*
X12479500Y-9893943D01*
X12479500Y-9893943D02*
X12482357Y-9888229D01*
X12482357Y-9888229D02*
X12482357Y-9871086D01*
X12482357Y-9871086D02*
X12479500Y-9865371D01*
X12479500Y-9865371D02*
X12476643Y-9862514D01*
X12476643Y-9862514D02*
X12470928Y-9859657D01*
X12470928Y-9859657D02*
X12459500Y-9859657D01*
X12459500Y-9859657D02*
X12453786Y-9862514D01*
D11*
%TO.C,U1*%
X14873690Y-8819262D02*
X14883809Y-8900214D01*
X14883809Y-8900214D02*
X14880238Y-8909738D01*
X14880238Y-8909738D02*
X14876071Y-8914500D01*
X14876071Y-8914500D02*
X14867143Y-8919262D01*
X14867143Y-8919262D02*
X14848095Y-8919262D01*
X14848095Y-8919262D02*
X14837976Y-8914500D01*
X14837976Y-8914500D02*
X14832619Y-8909738D01*
X14832619Y-8909738D02*
X14826667Y-8900214D01*
X14826667Y-8900214D02*
X14816548Y-8819262D01*
X14729643Y-8919262D02*
X14786786Y-8919262D01*
X14758214Y-8919262D02*
X14745714Y-8819262D01*
X14745714Y-8819262D02*
X14757024Y-8833548D01*
X14757024Y-8833548D02*
X14767738Y-8843071D01*
X14767738Y-8843071D02*
X14777857Y-8847833D01*
X14530405Y-8921262D02*
X14517905Y-8821262D01*
X14517905Y-8821262D02*
X14493500Y-8892690D01*
X14493500Y-8892690D02*
X14451238Y-8821262D01*
X14451238Y-8821262D02*
X14463738Y-8921262D01*
X14410167Y-8868881D02*
X14376834Y-8868881D01*
X14369096Y-8921262D02*
X14416715Y-8921262D01*
X14416715Y-8921262D02*
X14404215Y-8821262D01*
X14404215Y-8821262D02*
X14356596Y-8821262D01*
X14262548Y-8826024D02*
X14271476Y-8821262D01*
X14271476Y-8821262D02*
X14285762Y-8821262D01*
X14285762Y-8821262D02*
X14300643Y-8826024D01*
X14300643Y-8826024D02*
X14311357Y-8835548D01*
X14311357Y-8835548D02*
X14317310Y-8845071D01*
X14317310Y-8845071D02*
X14324453Y-8864119D01*
X14324453Y-8864119D02*
X14326238Y-8878405D01*
X14326238Y-8878405D02*
X14323857Y-8897452D01*
X14323857Y-8897452D02*
X14320286Y-8906976D01*
X14320286Y-8906976D02*
X14311953Y-8916500D01*
X14311953Y-8916500D02*
X14298262Y-8921262D01*
X14298262Y-8921262D02*
X14288738Y-8921262D01*
X14288738Y-8921262D02*
X14273857Y-8916500D01*
X14273857Y-8916500D02*
X14268500Y-8911738D01*
X14268500Y-8911738D02*
X14264334Y-8878405D01*
X14264334Y-8878405D02*
X14283381Y-8878405D01*
X14228619Y-8892690D02*
X14181000Y-8892690D01*
X14241715Y-8921262D02*
X14195881Y-8821262D01*
X14195881Y-8821262D02*
X14175048Y-8921262D01*
X14167310Y-8930786D02*
X14091119Y-8930786D01*
X14067905Y-8921262D02*
X14055405Y-8821262D01*
X14055405Y-8821262D02*
X14017310Y-8821262D01*
X14017310Y-8821262D02*
X14008381Y-8826024D01*
X14008381Y-8826024D02*
X14004215Y-8830786D01*
X14004215Y-8830786D02*
X14000643Y-8840310D01*
X14000643Y-8840310D02*
X14002429Y-8854595D01*
X14002429Y-8854595D02*
X14008381Y-8864119D01*
X14008381Y-8864119D02*
X14013738Y-8868881D01*
X14013738Y-8868881D02*
X14023857Y-8873643D01*
X14023857Y-8873643D02*
X14061953Y-8873643D01*
X13911357Y-8921262D02*
X13938738Y-8873643D01*
X13968500Y-8921262D02*
X13956000Y-8821262D01*
X13956000Y-8821262D02*
X13917905Y-8821262D01*
X13917905Y-8821262D02*
X13908976Y-8826024D01*
X13908976Y-8826024D02*
X13904810Y-8830786D01*
X13904810Y-8830786D02*
X13901238Y-8840310D01*
X13901238Y-8840310D02*
X13903024Y-8854595D01*
X13903024Y-8854595D02*
X13908976Y-8864119D01*
X13908976Y-8864119D02*
X13914334Y-8868881D01*
X13914334Y-8868881D02*
X13924453Y-8873643D01*
X13924453Y-8873643D02*
X13962548Y-8873643D01*
X13837548Y-8821262D02*
X13818500Y-8821262D01*
X13818500Y-8821262D02*
X13809572Y-8826024D01*
X13809572Y-8826024D02*
X13801238Y-8835548D01*
X13801238Y-8835548D02*
X13798857Y-8854595D01*
X13798857Y-8854595D02*
X13803024Y-8887929D01*
X13803024Y-8887929D02*
X13810167Y-8906976D01*
X13810167Y-8906976D02*
X13820881Y-8916500D01*
X13820881Y-8916500D02*
X13831000Y-8921262D01*
X13831000Y-8921262D02*
X13850048Y-8921262D01*
X13850048Y-8921262D02*
X13858976Y-8916500D01*
X13858976Y-8916500D02*
X13867310Y-8906976D01*
X13867310Y-8906976D02*
X13869691Y-8887929D01*
X13869691Y-8887929D02*
X13865524Y-8854595D01*
X13865524Y-8854595D02*
X13858381Y-8835548D01*
X13858381Y-8835548D02*
X13847667Y-8826024D01*
X13847667Y-8826024D02*
X13837548Y-8821262D01*
X13789929Y-8930786D02*
X13713738Y-8930786D01*
X13683976Y-8868881D02*
X13650643Y-8868881D01*
X13642905Y-8921262D02*
X13690524Y-8921262D01*
X13690524Y-8921262D02*
X13678024Y-8821262D01*
X13678024Y-8821262D02*
X13630405Y-8821262D01*
X13600643Y-8921262D02*
X13588143Y-8821262D01*
X13588143Y-8821262D02*
X13563738Y-8892690D01*
X13563738Y-8892690D02*
X13521476Y-8821262D01*
X13521476Y-8821262D02*
X13533976Y-8921262D01*
X13447071Y-8868881D02*
X13433381Y-8873643D01*
X13433381Y-8873643D02*
X13429214Y-8878405D01*
X13429214Y-8878405D02*
X13425643Y-8887929D01*
X13425643Y-8887929D02*
X13427429Y-8902214D01*
X13427429Y-8902214D02*
X13433381Y-8911738D01*
X13433381Y-8911738D02*
X13438738Y-8916500D01*
X13438738Y-8916500D02*
X13448857Y-8921262D01*
X13448857Y-8921262D02*
X13486952Y-8921262D01*
X13486952Y-8921262D02*
X13474452Y-8821262D01*
X13474452Y-8821262D02*
X13441119Y-8821262D01*
X13441119Y-8821262D02*
X13432191Y-8826024D01*
X13432191Y-8826024D02*
X13428024Y-8830786D01*
X13428024Y-8830786D02*
X13424452Y-8840310D01*
X13424452Y-8840310D02*
X13425643Y-8849833D01*
X13425643Y-8849833D02*
X13431595Y-8859357D01*
X13431595Y-8859357D02*
X13436952Y-8864119D01*
X13436952Y-8864119D02*
X13447071Y-8868881D01*
X13447071Y-8868881D02*
X13480405Y-8868881D01*
X13381000Y-8868881D02*
X13347667Y-8868881D01*
X13339929Y-8921262D02*
X13387548Y-8921262D01*
X13387548Y-8921262D02*
X13375048Y-8821262D01*
X13375048Y-8821262D02*
X13327429Y-8821262D01*
X13297667Y-8921262D02*
X13285167Y-8821262D01*
X13285167Y-8821262D02*
X13261357Y-8821262D01*
X13261357Y-8821262D02*
X13247667Y-8826024D01*
X13247667Y-8826024D02*
X13239333Y-8835548D01*
X13239333Y-8835548D02*
X13235762Y-8845071D01*
X13235762Y-8845071D02*
X13233381Y-8864119D01*
X13233381Y-8864119D02*
X13235167Y-8878405D01*
X13235167Y-8878405D02*
X13242309Y-8897452D01*
X13242309Y-8897452D02*
X13248262Y-8906976D01*
X13248262Y-8906976D02*
X13258976Y-8916500D01*
X13258976Y-8916500D02*
X13273857Y-8921262D01*
X13273857Y-8921262D02*
X13297667Y-8921262D01*
X13223262Y-8930786D02*
X13147071Y-8930786D01*
X13065524Y-8911738D02*
X13070881Y-8916500D01*
X13070881Y-8916500D02*
X13085762Y-8921262D01*
X13085762Y-8921262D02*
X13095286Y-8921262D01*
X13095286Y-8921262D02*
X13108976Y-8916500D01*
X13108976Y-8916500D02*
X13117309Y-8906976D01*
X13117309Y-8906976D02*
X13120881Y-8897452D01*
X13120881Y-8897452D02*
X13123262Y-8878405D01*
X13123262Y-8878405D02*
X13121476Y-8864119D01*
X13121476Y-8864119D02*
X13114333Y-8845071D01*
X13114333Y-8845071D02*
X13108381Y-8835548D01*
X13108381Y-8835548D02*
X13097667Y-8826024D01*
X13097667Y-8826024D02*
X13082786Y-8821262D01*
X13082786Y-8821262D02*
X13073262Y-8821262D01*
X13073262Y-8821262D02*
X13059571Y-8826024D01*
X13059571Y-8826024D02*
X13055405Y-8830786D01*
X13024452Y-8921262D02*
X13011952Y-8821262D01*
X13017905Y-8868881D02*
X12960762Y-8868881D01*
X12967309Y-8921262D02*
X12954809Y-8821262D01*
X12917309Y-8821262D02*
X12855405Y-8821262D01*
X12855405Y-8821262D02*
X12893500Y-8859357D01*
X12893500Y-8859357D02*
X12879214Y-8859357D01*
X12879214Y-8859357D02*
X12870286Y-8864119D01*
X12870286Y-8864119D02*
X12866119Y-8868881D01*
X12866119Y-8868881D02*
X12862547Y-8878405D01*
X12862547Y-8878405D02*
X12865524Y-8902214D01*
X12865524Y-8902214D02*
X12871476Y-8911738D01*
X12871476Y-8911738D02*
X12876833Y-8916500D01*
X12876833Y-8916500D02*
X12886952Y-8921262D01*
X12886952Y-8921262D02*
X12915524Y-8921262D01*
X12915524Y-8921262D02*
X12924452Y-8916500D01*
X12924452Y-8916500D02*
X12928619Y-8911738D01*
X12774452Y-8854595D02*
X12782785Y-8921262D01*
X12793500Y-8816500D02*
X12826238Y-8887929D01*
X12826238Y-8887929D02*
X12764333Y-8887929D01*
X12699452Y-8821262D02*
X12689928Y-8821262D01*
X12689928Y-8821262D02*
X12681000Y-8826024D01*
X12681000Y-8826024D02*
X12676833Y-8830786D01*
X12676833Y-8830786D02*
X12673262Y-8840310D01*
X12673262Y-8840310D02*
X12670881Y-8859357D01*
X12670881Y-8859357D02*
X12673857Y-8883167D01*
X12673857Y-8883167D02*
X12681000Y-8902214D01*
X12681000Y-8902214D02*
X12686952Y-8911738D01*
X12686952Y-8911738D02*
X12692309Y-8916500D01*
X12692309Y-8916500D02*
X12702428Y-8921262D01*
X12702428Y-8921262D02*
X12711952Y-8921262D01*
X12711952Y-8921262D02*
X12720881Y-8916500D01*
X12720881Y-8916500D02*
X12725047Y-8911738D01*
X12725047Y-8911738D02*
X12728619Y-8902214D01*
X12728619Y-8902214D02*
X12731000Y-8883167D01*
X12731000Y-8883167D02*
X12728024Y-8859357D01*
X12728024Y-8859357D02*
X12720881Y-8840310D01*
X12720881Y-8840310D02*
X12714928Y-8830786D01*
X12714928Y-8830786D02*
X12709571Y-8826024D01*
X12709571Y-8826024D02*
X12699452Y-8821262D01*
X12572071Y-8826024D02*
X12581000Y-8821262D01*
X12581000Y-8821262D02*
X12595285Y-8821262D01*
X12595285Y-8821262D02*
X12610166Y-8826024D01*
X12610166Y-8826024D02*
X12620881Y-8835548D01*
X12620881Y-8835548D02*
X12626833Y-8845071D01*
X12626833Y-8845071D02*
X12633976Y-8864119D01*
X12633976Y-8864119D02*
X12635762Y-8878405D01*
X12635762Y-8878405D02*
X12633381Y-8897452D01*
X12633381Y-8897452D02*
X12629809Y-8906976D01*
X12629809Y-8906976D02*
X12621476Y-8916500D01*
X12621476Y-8916500D02*
X12607785Y-8921262D01*
X12607785Y-8921262D02*
X12598262Y-8921262D01*
X12598262Y-8921262D02*
X12583381Y-8916500D01*
X12583381Y-8916500D02*
X12578023Y-8911738D01*
X12578023Y-8911738D02*
X12573857Y-8878405D01*
X12573857Y-8878405D02*
X12592904Y-8878405D01*
X12561952Y-8930786D02*
X12485762Y-8930786D01*
X12463738Y-8892690D02*
X12416119Y-8892690D01*
X12476833Y-8921262D02*
X12431000Y-8821262D01*
X12431000Y-8821262D02*
X12410166Y-8921262D01*
X12379214Y-8821262D02*
X12322071Y-8821262D01*
X12363143Y-8921262D02*
X12350643Y-8821262D01*
X12301833Y-8921262D02*
X12289333Y-8821262D01*
X12289333Y-8821262D02*
X12264928Y-8892690D01*
X12264928Y-8892690D02*
X12222666Y-8821262D01*
X12222666Y-8821262D02*
X12235166Y-8921262D01*
X12181595Y-8868881D02*
X12148262Y-8868881D01*
X12140523Y-8921262D02*
X12188143Y-8921262D01*
X12188143Y-8921262D02*
X12175643Y-8821262D01*
X12175643Y-8821262D02*
X12128023Y-8821262D01*
X12033976Y-8826024D02*
X12042904Y-8821262D01*
X12042904Y-8821262D02*
X12057190Y-8821262D01*
X12057190Y-8821262D02*
X12072071Y-8826024D01*
X12072071Y-8826024D02*
X12082785Y-8835548D01*
X12082785Y-8835548D02*
X12088738Y-8845071D01*
X12088738Y-8845071D02*
X12095881Y-8864119D01*
X12095881Y-8864119D02*
X12097666Y-8878405D01*
X12097666Y-8878405D02*
X12095285Y-8897452D01*
X12095285Y-8897452D02*
X12091714Y-8906976D01*
X12091714Y-8906976D02*
X12083381Y-8916500D01*
X12083381Y-8916500D02*
X12069690Y-8921262D01*
X12069690Y-8921262D02*
X12060166Y-8921262D01*
X12060166Y-8921262D02*
X12045285Y-8916500D01*
X12045285Y-8916500D02*
X12039928Y-8911738D01*
X12039928Y-8911738D02*
X12035762Y-8878405D01*
X12035762Y-8878405D02*
X12054809Y-8878405D01*
X12000047Y-8892690D02*
X11952428Y-8892690D01*
X12013142Y-8921262D02*
X11967309Y-8821262D01*
X11967309Y-8821262D02*
X11946476Y-8921262D01*
X11907190Y-8830786D02*
X11901833Y-8826024D01*
X11901833Y-8826024D02*
X11891714Y-8821262D01*
X11891714Y-8821262D02*
X11867904Y-8821262D01*
X11867904Y-8821262D02*
X11858976Y-8826024D01*
X11858976Y-8826024D02*
X11854809Y-8830786D01*
X11854809Y-8830786D02*
X11851238Y-8840310D01*
X11851238Y-8840310D02*
X11852428Y-8849833D01*
X11852428Y-8849833D02*
X11858976Y-8864119D01*
X11858976Y-8864119D02*
X11923262Y-8921262D01*
X11923262Y-8921262D02*
X11861357Y-8921262D01*
X11758976Y-8821262D02*
X11806595Y-8821262D01*
X11806595Y-8821262D02*
X11817309Y-8868881D01*
X11817309Y-8868881D02*
X11811952Y-8864119D01*
X11811952Y-8864119D02*
X11801833Y-8859357D01*
X11801833Y-8859357D02*
X11778023Y-8859357D01*
X11778023Y-8859357D02*
X11769095Y-8864119D01*
X11769095Y-8864119D02*
X11764928Y-8868881D01*
X11764928Y-8868881D02*
X11761357Y-8878405D01*
X11761357Y-8878405D02*
X11764333Y-8902214D01*
X11764333Y-8902214D02*
X11770285Y-8911738D01*
X11770285Y-8911738D02*
X11775642Y-8916500D01*
X11775642Y-8916500D02*
X11785761Y-8921262D01*
X11785761Y-8921262D02*
X11809571Y-8921262D01*
X11809571Y-8921262D02*
X11818500Y-8916500D01*
X11818500Y-8916500D02*
X11822666Y-8911738D01*
X11669095Y-8821262D02*
X11688142Y-8821262D01*
X11688142Y-8821262D02*
X11698261Y-8826024D01*
X11698261Y-8826024D02*
X11703619Y-8830786D01*
X11703619Y-8830786D02*
X11714928Y-8845071D01*
X11714928Y-8845071D02*
X11722071Y-8864119D01*
X11722071Y-8864119D02*
X11726833Y-8902214D01*
X11726833Y-8902214D02*
X11723261Y-8911738D01*
X11723261Y-8911738D02*
X11719095Y-8916500D01*
X11719095Y-8916500D02*
X11710166Y-8921262D01*
X11710166Y-8921262D02*
X11691119Y-8921262D01*
X11691119Y-8921262D02*
X11681000Y-8916500D01*
X11681000Y-8916500D02*
X11675642Y-8911738D01*
X11675642Y-8911738D02*
X11669690Y-8902214D01*
X11669690Y-8902214D02*
X11666714Y-8878405D01*
X11666714Y-8878405D02*
X11670285Y-8868881D01*
X11670285Y-8868881D02*
X11674452Y-8864119D01*
X11674452Y-8864119D02*
X11683380Y-8859357D01*
X11683380Y-8859357D02*
X11702428Y-8859357D01*
X11702428Y-8859357D02*
X11712547Y-8864119D01*
X11712547Y-8864119D02*
X11717904Y-8868881D01*
X11717904Y-8868881D02*
X11723857Y-8878405D01*
X11598261Y-8821262D02*
X11588738Y-8821262D01*
X11588738Y-8821262D02*
X11579809Y-8826024D01*
X11579809Y-8826024D02*
X11575642Y-8830786D01*
X11575642Y-8830786D02*
X11572071Y-8840310D01*
X11572071Y-8840310D02*
X11569690Y-8859357D01*
X11569690Y-8859357D02*
X11572666Y-8883167D01*
X11572666Y-8883167D02*
X11579809Y-8902214D01*
X11579809Y-8902214D02*
X11585761Y-8911738D01*
X11585761Y-8911738D02*
X11591119Y-8916500D01*
X11591119Y-8916500D02*
X11601238Y-8921262D01*
X11601238Y-8921262D02*
X11610761Y-8921262D01*
X11610761Y-8921262D02*
X11619690Y-8916500D01*
X11619690Y-8916500D02*
X11623857Y-8911738D01*
X11623857Y-8911738D02*
X11627428Y-8902214D01*
X11627428Y-8902214D02*
X11629809Y-8883167D01*
X11629809Y-8883167D02*
X11626833Y-8859357D01*
X11626833Y-8859357D02*
X11619690Y-8840310D01*
X11619690Y-8840310D02*
X11613738Y-8830786D01*
X11613738Y-8830786D02*
X11608380Y-8826024D01*
X11608380Y-8826024D02*
X11598261Y-8821262D01*
%TO.C,C3*%
X16504667Y-11597738D02*
X16509428Y-11602500D01*
X16509428Y-11602500D02*
X16523714Y-11607262D01*
X16523714Y-11607262D02*
X16533238Y-11607262D01*
X16533238Y-11607262D02*
X16547524Y-11602500D01*
X16547524Y-11602500D02*
X16557047Y-11592976D01*
X16557047Y-11592976D02*
X16561809Y-11583452D01*
X16561809Y-11583452D02*
X16566571Y-11564405D01*
X16566571Y-11564405D02*
X16566571Y-11550119D01*
X16566571Y-11550119D02*
X16561809Y-11531071D01*
X16561809Y-11531071D02*
X16557047Y-11521548D01*
X16557047Y-11521548D02*
X16547524Y-11512024D01*
X16547524Y-11512024D02*
X16533238Y-11507262D01*
X16533238Y-11507262D02*
X16523714Y-11507262D01*
X16523714Y-11507262D02*
X16509428Y-11512024D01*
X16509428Y-11512024D02*
X16504667Y-11516786D01*
X16471333Y-11507262D02*
X16409428Y-11507262D01*
X16409428Y-11507262D02*
X16442762Y-11545357D01*
X16442762Y-11545357D02*
X16428476Y-11545357D01*
X16428476Y-11545357D02*
X16418952Y-11550119D01*
X16418952Y-11550119D02*
X16414190Y-11554881D01*
X16414190Y-11554881D02*
X16409428Y-11564405D01*
X16409428Y-11564405D02*
X16409428Y-11588214D01*
X16409428Y-11588214D02*
X16414190Y-11597738D01*
X16414190Y-11597738D02*
X16418952Y-11602500D01*
X16418952Y-11602500D02*
X16428476Y-11607262D01*
X16428476Y-11607262D02*
X16457047Y-11607262D01*
X16457047Y-11607262D02*
X16466571Y-11602500D01*
X16466571Y-11602500D02*
X16471333Y-11597738D01*
%TO.C,R7*%
X14827667Y-11986262D02*
X14861000Y-11938643D01*
X14884809Y-11986262D02*
X14884809Y-11886262D01*
X14884809Y-11886262D02*
X14846714Y-11886262D01*
X14846714Y-11886262D02*
X14837190Y-11891024D01*
X14837190Y-11891024D02*
X14832428Y-11895786D01*
X14832428Y-11895786D02*
X14827667Y-11905309D01*
X14827667Y-11905309D02*
X14827667Y-11919595D01*
X14827667Y-11919595D02*
X14832428Y-11929119D01*
X14832428Y-11929119D02*
X14837190Y-11933881D01*
X14837190Y-11933881D02*
X14846714Y-11938643D01*
X14846714Y-11938643D02*
X14884809Y-11938643D01*
X14794333Y-11886262D02*
X14727667Y-11886262D01*
X14727667Y-11886262D02*
X14770524Y-11986262D01*
%TO.C,J7*%
X16027333Y-9380262D02*
X16027333Y-9451690D01*
X16027333Y-9451690D02*
X16032095Y-9465976D01*
X16032095Y-9465976D02*
X16041619Y-9475500D01*
X16041619Y-9475500D02*
X16055905Y-9480262D01*
X16055905Y-9480262D02*
X16065428Y-9480262D01*
X15989238Y-9380262D02*
X15922571Y-9380262D01*
X15922571Y-9380262D02*
X15965428Y-9480262D01*
X15772881Y-8137476D02*
X15772881Y-8170809D01*
X15825262Y-8185095D02*
X15825262Y-8137476D01*
X15825262Y-8137476D02*
X15725262Y-8137476D01*
X15725262Y-8137476D02*
X15725262Y-8185095D01*
X15825262Y-8227952D02*
X15725262Y-8227952D01*
X15725262Y-8227952D02*
X15825262Y-8285095D01*
X15825262Y-8285095D02*
X15725262Y-8285095D01*
X15815738Y-8389857D02*
X15820500Y-8385095D01*
X15820500Y-8385095D02*
X15825262Y-8370809D01*
X15825262Y-8370809D02*
X15825262Y-8361286D01*
X15825262Y-8361286D02*
X15820500Y-8347000D01*
X15820500Y-8347000D02*
X15810976Y-8337476D01*
X15810976Y-8337476D02*
X15801452Y-8332714D01*
X15801452Y-8332714D02*
X15782405Y-8327952D01*
X15782405Y-8327952D02*
X15768119Y-8327952D01*
X15768119Y-8327952D02*
X15749071Y-8332714D01*
X15749071Y-8332714D02*
X15739548Y-8337476D01*
X15739548Y-8337476D02*
X15730024Y-8347000D01*
X15730024Y-8347000D02*
X15725262Y-8361286D01*
X15725262Y-8361286D02*
X15725262Y-8370809D01*
X15725262Y-8370809D02*
X15730024Y-8385095D01*
X15730024Y-8385095D02*
X15734786Y-8389857D01*
X15725262Y-8451762D02*
X15725262Y-8470810D01*
X15725262Y-8470810D02*
X15730024Y-8480333D01*
X15730024Y-8480333D02*
X15739548Y-8489857D01*
X15739548Y-8489857D02*
X15758595Y-8494619D01*
X15758595Y-8494619D02*
X15791928Y-8494619D01*
X15791928Y-8494619D02*
X15810976Y-8489857D01*
X15810976Y-8489857D02*
X15820500Y-8480333D01*
X15820500Y-8480333D02*
X15825262Y-8470810D01*
X15825262Y-8470810D02*
X15825262Y-8451762D01*
X15825262Y-8451762D02*
X15820500Y-8442238D01*
X15820500Y-8442238D02*
X15810976Y-8432714D01*
X15810976Y-8432714D02*
X15791928Y-8427952D01*
X15791928Y-8427952D02*
X15758595Y-8427952D01*
X15758595Y-8427952D02*
X15739548Y-8432714D01*
X15739548Y-8432714D02*
X15730024Y-8442238D01*
X15730024Y-8442238D02*
X15725262Y-8451762D01*
X15825262Y-8537476D02*
X15725262Y-8537476D01*
X15725262Y-8537476D02*
X15725262Y-8561286D01*
X15725262Y-8561286D02*
X15730024Y-8575571D01*
X15730024Y-8575571D02*
X15739548Y-8585095D01*
X15739548Y-8585095D02*
X15749071Y-8589857D01*
X15749071Y-8589857D02*
X15768119Y-8594619D01*
X15768119Y-8594619D02*
X15782405Y-8594619D01*
X15782405Y-8594619D02*
X15801452Y-8589857D01*
X15801452Y-8589857D02*
X15810976Y-8585095D01*
X15810976Y-8585095D02*
X15820500Y-8575571D01*
X15820500Y-8575571D02*
X15825262Y-8561286D01*
X15825262Y-8561286D02*
X15825262Y-8537476D01*
X15772881Y-8637476D02*
X15772881Y-8670810D01*
X15825262Y-8685095D02*
X15825262Y-8637476D01*
X15825262Y-8637476D02*
X15725262Y-8637476D01*
X15725262Y-8637476D02*
X15725262Y-8685095D01*
X15825262Y-8785095D02*
X15777643Y-8751762D01*
X15825262Y-8727952D02*
X15725262Y-8727952D01*
X15725262Y-8727952D02*
X15725262Y-8766048D01*
X15725262Y-8766048D02*
X15730024Y-8775571D01*
X15730024Y-8775571D02*
X15734786Y-8780333D01*
X15734786Y-8780333D02*
X15744309Y-8785095D01*
X15744309Y-8785095D02*
X15758595Y-8785095D01*
X15758595Y-8785095D02*
X15768119Y-8780333D01*
X15768119Y-8780333D02*
X15772881Y-8775571D01*
X15772881Y-8775571D02*
X15777643Y-8766048D01*
X15777643Y-8766048D02*
X15777643Y-8727952D01*
X15834786Y-8804143D02*
X15834786Y-8880333D01*
X15772881Y-8937476D02*
X15777643Y-8951762D01*
X15777643Y-8951762D02*
X15782405Y-8956524D01*
X15782405Y-8956524D02*
X15791928Y-8961286D01*
X15791928Y-8961286D02*
X15806214Y-8961286D01*
X15806214Y-8961286D02*
X15815738Y-8956524D01*
X15815738Y-8956524D02*
X15820500Y-8951762D01*
X15820500Y-8951762D02*
X15825262Y-8942238D01*
X15825262Y-8942238D02*
X15825262Y-8904143D01*
X15825262Y-8904143D02*
X15725262Y-8904143D01*
X15725262Y-8904143D02*
X15725262Y-8937476D01*
X15725262Y-8937476D02*
X15730024Y-8947000D01*
X15730024Y-8947000D02*
X15734786Y-8951762D01*
X15734786Y-8951762D02*
X15744309Y-8956524D01*
X15744309Y-8956524D02*
X15753833Y-8956524D01*
X15753833Y-8956524D02*
X15763357Y-8951762D01*
X15763357Y-8951762D02*
X15768119Y-8947000D01*
X15768119Y-8947000D02*
X15772881Y-8937476D01*
X15772881Y-8937476D02*
X15772881Y-8904143D01*
X15725262Y-9004143D02*
X15806214Y-9004143D01*
X15806214Y-9004143D02*
X15815738Y-9008905D01*
X15815738Y-9008905D02*
X15820500Y-9013667D01*
X15820500Y-9013667D02*
X15825262Y-9023191D01*
X15825262Y-9023191D02*
X15825262Y-9042238D01*
X15825262Y-9042238D02*
X15820500Y-9051762D01*
X15820500Y-9051762D02*
X15815738Y-9056524D01*
X15815738Y-9056524D02*
X15806214Y-9061286D01*
X15806214Y-9061286D02*
X15725262Y-9061286D01*
X15820500Y-9104143D02*
X15825262Y-9118429D01*
X15825262Y-9118429D02*
X15825262Y-9142238D01*
X15825262Y-9142238D02*
X15820500Y-9151762D01*
X15820500Y-9151762D02*
X15815738Y-9156524D01*
X15815738Y-9156524D02*
X15806214Y-9161286D01*
X15806214Y-9161286D02*
X15796690Y-9161286D01*
X15796690Y-9161286D02*
X15787167Y-9156524D01*
X15787167Y-9156524D02*
X15782405Y-9151762D01*
X15782405Y-9151762D02*
X15777643Y-9142238D01*
X15777643Y-9142238D02*
X15772881Y-9123191D01*
X15772881Y-9123191D02*
X15768119Y-9113667D01*
X15768119Y-9113667D02*
X15763357Y-9108905D01*
X15763357Y-9108905D02*
X15753833Y-9104143D01*
X15753833Y-9104143D02*
X15744309Y-9104143D01*
X15744309Y-9104143D02*
X15734786Y-9108905D01*
X15734786Y-9108905D02*
X15730024Y-9113667D01*
X15730024Y-9113667D02*
X15725262Y-9123191D01*
X15725262Y-9123191D02*
X15725262Y-9147000D01*
X15725262Y-9147000D02*
X15730024Y-9161286D01*
%TO.C,SW1*%
X15567667Y-11922500D02*
X15581952Y-11927262D01*
X15581952Y-11927262D02*
X15605762Y-11927262D01*
X15605762Y-11927262D02*
X15615286Y-11922500D01*
X15615286Y-11922500D02*
X15620048Y-11917738D01*
X15620048Y-11917738D02*
X15624809Y-11908214D01*
X15624809Y-11908214D02*
X15624809Y-11898690D01*
X15624809Y-11898690D02*
X15620048Y-11889167D01*
X15620048Y-11889167D02*
X15615286Y-11884405D01*
X15615286Y-11884405D02*
X15605762Y-11879643D01*
X15605762Y-11879643D02*
X15586714Y-11874881D01*
X15586714Y-11874881D02*
X15577190Y-11870119D01*
X15577190Y-11870119D02*
X15572429Y-11865357D01*
X15572429Y-11865357D02*
X15567667Y-11855833D01*
X15567667Y-11855833D02*
X15567667Y-11846309D01*
X15567667Y-11846309D02*
X15572429Y-11836786D01*
X15572429Y-11836786D02*
X15577190Y-11832024D01*
X15577190Y-11832024D02*
X15586714Y-11827262D01*
X15586714Y-11827262D02*
X15610524Y-11827262D01*
X15610524Y-11827262D02*
X15624809Y-11832024D01*
X15658143Y-11827262D02*
X15681952Y-11927262D01*
X15681952Y-11927262D02*
X15701000Y-11855833D01*
X15701000Y-11855833D02*
X15720048Y-11927262D01*
X15720048Y-11927262D02*
X15743857Y-11827262D01*
X15834333Y-11927262D02*
X15777190Y-11927262D01*
X15805762Y-11927262D02*
X15805762Y-11827262D01*
X15805762Y-11827262D02*
X15796238Y-11841548D01*
X15796238Y-11841548D02*
X15786714Y-11851071D01*
X15786714Y-11851071D02*
X15777190Y-11855833D01*
%TO.C,D2*%
X14173809Y-9102262D02*
X14173809Y-9002262D01*
X14173809Y-9002262D02*
X14150000Y-9002262D01*
X14150000Y-9002262D02*
X14135714Y-9007024D01*
X14135714Y-9007024D02*
X14126190Y-9016548D01*
X14126190Y-9016548D02*
X14121428Y-9026071D01*
X14121428Y-9026071D02*
X14116667Y-9045119D01*
X14116667Y-9045119D02*
X14116667Y-9059405D01*
X14116667Y-9059405D02*
X14121428Y-9078452D01*
X14121428Y-9078452D02*
X14126190Y-9087976D01*
X14126190Y-9087976D02*
X14135714Y-9097500D01*
X14135714Y-9097500D02*
X14150000Y-9102262D01*
X14150000Y-9102262D02*
X14173809Y-9102262D01*
X14078571Y-9011786D02*
X14073809Y-9007024D01*
X14073809Y-9007024D02*
X14064286Y-9002262D01*
X14064286Y-9002262D02*
X14040476Y-9002262D01*
X14040476Y-9002262D02*
X14030952Y-9007024D01*
X14030952Y-9007024D02*
X14026190Y-9011786D01*
X14026190Y-9011786D02*
X14021428Y-9021310D01*
X14021428Y-9021310D02*
X14021428Y-9030833D01*
X14021428Y-9030833D02*
X14026190Y-9045119D01*
X14026190Y-9045119D02*
X14083333Y-9102262D01*
X14083333Y-9102262D02*
X14021428Y-9102262D01*
%TO.C,D3*%
X14172809Y-9400262D02*
X14172809Y-9300262D01*
X14172809Y-9300262D02*
X14149000Y-9300262D01*
X14149000Y-9300262D02*
X14134714Y-9305024D01*
X14134714Y-9305024D02*
X14125190Y-9314548D01*
X14125190Y-9314548D02*
X14120428Y-9324071D01*
X14120428Y-9324071D02*
X14115667Y-9343119D01*
X14115667Y-9343119D02*
X14115667Y-9357405D01*
X14115667Y-9357405D02*
X14120428Y-9376452D01*
X14120428Y-9376452D02*
X14125190Y-9385976D01*
X14125190Y-9385976D02*
X14134714Y-9395500D01*
X14134714Y-9395500D02*
X14149000Y-9400262D01*
X14149000Y-9400262D02*
X14172809Y-9400262D01*
X14082333Y-9300262D02*
X14020428Y-9300262D01*
X14020428Y-9300262D02*
X14053762Y-9338357D01*
X14053762Y-9338357D02*
X14039476Y-9338357D01*
X14039476Y-9338357D02*
X14029952Y-9343119D01*
X14029952Y-9343119D02*
X14025190Y-9347881D01*
X14025190Y-9347881D02*
X14020428Y-9357405D01*
X14020428Y-9357405D02*
X14020428Y-9381214D01*
X14020428Y-9381214D02*
X14025190Y-9390738D01*
X14025190Y-9390738D02*
X14029952Y-9395500D01*
X14029952Y-9395500D02*
X14039476Y-9400262D01*
X14039476Y-9400262D02*
X14068047Y-9400262D01*
X14068047Y-9400262D02*
X14077571Y-9395500D01*
X14077571Y-9395500D02*
X14082333Y-9390738D01*
%TO.C,J8*%
X16554333Y-12300262D02*
X16554333Y-12371690D01*
X16554333Y-12371690D02*
X16559095Y-12385976D01*
X16559095Y-12385976D02*
X16568619Y-12395500D01*
X16568619Y-12395500D02*
X16582905Y-12400262D01*
X16582905Y-12400262D02*
X16592428Y-12400262D01*
X16492428Y-12343119D02*
X16501952Y-12338357D01*
X16501952Y-12338357D02*
X16506714Y-12333595D01*
X16506714Y-12333595D02*
X16511476Y-12324071D01*
X16511476Y-12324071D02*
X16511476Y-12319309D01*
X16511476Y-12319309D02*
X16506714Y-12309786D01*
X16506714Y-12309786D02*
X16501952Y-12305024D01*
X16501952Y-12305024D02*
X16492428Y-12300262D01*
X16492428Y-12300262D02*
X16473381Y-12300262D01*
X16473381Y-12300262D02*
X16463857Y-12305024D01*
X16463857Y-12305024D02*
X16459095Y-12309786D01*
X16459095Y-12309786D02*
X16454333Y-12319309D01*
X16454333Y-12319309D02*
X16454333Y-12324071D01*
X16454333Y-12324071D02*
X16459095Y-12333595D01*
X16459095Y-12333595D02*
X16463857Y-12338357D01*
X16463857Y-12338357D02*
X16473381Y-12343119D01*
X16473381Y-12343119D02*
X16492428Y-12343119D01*
X16492428Y-12343119D02*
X16501952Y-12347881D01*
X16501952Y-12347881D02*
X16506714Y-12352643D01*
X16506714Y-12352643D02*
X16511476Y-12362167D01*
X16511476Y-12362167D02*
X16511476Y-12381214D01*
X16511476Y-12381214D02*
X16506714Y-12390738D01*
X16506714Y-12390738D02*
X16501952Y-12395500D01*
X16501952Y-12395500D02*
X16492428Y-12400262D01*
X16492428Y-12400262D02*
X16473381Y-12400262D01*
X16473381Y-12400262D02*
X16463857Y-12395500D01*
X16463857Y-12395500D02*
X16459095Y-12390738D01*
X16459095Y-12390738D02*
X16454333Y-12381214D01*
X16454333Y-12381214D02*
X16454333Y-12362167D01*
X16454333Y-12362167D02*
X16459095Y-12352643D01*
X16459095Y-12352643D02*
X16463857Y-12347881D01*
X16463857Y-12347881D02*
X16473381Y-12343119D01*
%TO.C,R8*%
X14627667Y-11984262D02*
X14661000Y-11936643D01*
X14684809Y-11984262D02*
X14684809Y-11884262D01*
X14684809Y-11884262D02*
X14646714Y-11884262D01*
X14646714Y-11884262D02*
X14637190Y-11889024D01*
X14637190Y-11889024D02*
X14632428Y-11893786D01*
X14632428Y-11893786D02*
X14627667Y-11903309D01*
X14627667Y-11903309D02*
X14627667Y-11917595D01*
X14627667Y-11917595D02*
X14632428Y-11927119D01*
X14632428Y-11927119D02*
X14637190Y-11931881D01*
X14637190Y-11931881D02*
X14646714Y-11936643D01*
X14646714Y-11936643D02*
X14684809Y-11936643D01*
X14570524Y-11927119D02*
X14580047Y-11922357D01*
X14580047Y-11922357D02*
X14584809Y-11917595D01*
X14584809Y-11917595D02*
X14589571Y-11908071D01*
X14589571Y-11908071D02*
X14589571Y-11903309D01*
X14589571Y-11903309D02*
X14584809Y-11893786D01*
X14584809Y-11893786D02*
X14580047Y-11889024D01*
X14580047Y-11889024D02*
X14570524Y-11884262D01*
X14570524Y-11884262D02*
X14551476Y-11884262D01*
X14551476Y-11884262D02*
X14541952Y-11889024D01*
X14541952Y-11889024D02*
X14537190Y-11893786D01*
X14537190Y-11893786D02*
X14532428Y-11903309D01*
X14532428Y-11903309D02*
X14532428Y-11908071D01*
X14532428Y-11908071D02*
X14537190Y-11917595D01*
X14537190Y-11917595D02*
X14541952Y-11922357D01*
X14541952Y-11922357D02*
X14551476Y-11927119D01*
X14551476Y-11927119D02*
X14570524Y-11927119D01*
X14570524Y-11927119D02*
X14580047Y-11931881D01*
X14580047Y-11931881D02*
X14584809Y-11936643D01*
X14584809Y-11936643D02*
X14589571Y-11946167D01*
X14589571Y-11946167D02*
X14589571Y-11965214D01*
X14589571Y-11965214D02*
X14584809Y-11974738D01*
X14584809Y-11974738D02*
X14580047Y-11979500D01*
X14580047Y-11979500D02*
X14570524Y-11984262D01*
X14570524Y-11984262D02*
X14551476Y-11984262D01*
X14551476Y-11984262D02*
X14541952Y-11979500D01*
X14541952Y-11979500D02*
X14537190Y-11974738D01*
X14537190Y-11974738D02*
X14532428Y-11965214D01*
X14532428Y-11965214D02*
X14532428Y-11946167D01*
X14532428Y-11946167D02*
X14537190Y-11936643D01*
X14537190Y-11936643D02*
X14541952Y-11931881D01*
X14541952Y-11931881D02*
X14551476Y-11927119D01*
%TO.C,J9*%
X15767333Y-12297262D02*
X15767333Y-12368690D01*
X15767333Y-12368690D02*
X15772095Y-12382976D01*
X15772095Y-12382976D02*
X15781619Y-12392500D01*
X15781619Y-12392500D02*
X15795905Y-12397262D01*
X15795905Y-12397262D02*
X15805428Y-12397262D01*
X15714952Y-12397262D02*
X15695905Y-12397262D01*
X15695905Y-12397262D02*
X15686381Y-12392500D01*
X15686381Y-12392500D02*
X15681619Y-12387738D01*
X15681619Y-12387738D02*
X15672095Y-12373452D01*
X15672095Y-12373452D02*
X15667333Y-12354405D01*
X15667333Y-12354405D02*
X15667333Y-12316309D01*
X15667333Y-12316309D02*
X15672095Y-12306786D01*
X15672095Y-12306786D02*
X15676857Y-12302024D01*
X15676857Y-12302024D02*
X15686381Y-12297262D01*
X15686381Y-12297262D02*
X15705428Y-12297262D01*
X15705428Y-12297262D02*
X15714952Y-12302024D01*
X15714952Y-12302024D02*
X15719714Y-12306786D01*
X15719714Y-12306786D02*
X15724476Y-12316309D01*
X15724476Y-12316309D02*
X15724476Y-12340119D01*
X15724476Y-12340119D02*
X15719714Y-12349643D01*
X15719714Y-12349643D02*
X15714952Y-12354405D01*
X15714952Y-12354405D02*
X15705428Y-12359167D01*
X15705428Y-12359167D02*
X15686381Y-12359167D01*
X15686381Y-12359167D02*
X15676857Y-12354405D01*
X15676857Y-12354405D02*
X15672095Y-12349643D01*
X15672095Y-12349643D02*
X15667333Y-12340119D01*
%TO.C,D5*%
X15552809Y-9701262D02*
X15552809Y-9601262D01*
X15552809Y-9601262D02*
X15529000Y-9601262D01*
X15529000Y-9601262D02*
X15514714Y-9606024D01*
X15514714Y-9606024D02*
X15505190Y-9615548D01*
X15505190Y-9615548D02*
X15500428Y-9625071D01*
X15500428Y-9625071D02*
X15495667Y-9644119D01*
X15495667Y-9644119D02*
X15495667Y-9658405D01*
X15495667Y-9658405D02*
X15500428Y-9677452D01*
X15500428Y-9677452D02*
X15505190Y-9686976D01*
X15505190Y-9686976D02*
X15514714Y-9696500D01*
X15514714Y-9696500D02*
X15529000Y-9701262D01*
X15529000Y-9701262D02*
X15552809Y-9701262D01*
X15405190Y-9601262D02*
X15452809Y-9601262D01*
X15452809Y-9601262D02*
X15457571Y-9648881D01*
X15457571Y-9648881D02*
X15452809Y-9644119D01*
X15452809Y-9644119D02*
X15443286Y-9639357D01*
X15443286Y-9639357D02*
X15419476Y-9639357D01*
X15419476Y-9639357D02*
X15409952Y-9644119D01*
X15409952Y-9644119D02*
X15405190Y-9648881D01*
X15405190Y-9648881D02*
X15400428Y-9658405D01*
X15400428Y-9658405D02*
X15400428Y-9682214D01*
X15400428Y-9682214D02*
X15405190Y-9691738D01*
X15405190Y-9691738D02*
X15409952Y-9696500D01*
X15409952Y-9696500D02*
X15419476Y-9701262D01*
X15419476Y-9701262D02*
X15443286Y-9701262D01*
X15443286Y-9701262D02*
X15452809Y-9696500D01*
X15452809Y-9696500D02*
X15457571Y-9691738D01*
D14*
%TO.C,C3*%
X16170125Y-11651000D02*
X16027875Y-11651000D01*
X16170125Y-11469000D02*
X16027875Y-11469000D01*
%TO.C,R7*%
X14905000Y-11557044D02*
X14905000Y-11702456D01*
X14723000Y-11557044D02*
X14723000Y-11702456D01*
%TO.C,J7*%
X15863000Y-8013000D02*
X16129000Y-8013000D01*
X15863000Y-9035000D02*
X15863000Y-8013000D01*
X15863000Y-9035000D02*
X16129000Y-9035000D01*
X15863000Y-9162000D02*
X15863000Y-9295000D01*
X15863000Y-9295000D02*
X15996000Y-9295000D01*
X16129000Y-9035000D02*
X16129000Y-8013000D01*
%TO.C,SW1*%
X15854000Y-12012500D02*
X15854000Y-11746500D01*
X16114000Y-12012500D02*
X15854000Y-12012500D01*
X16114000Y-12012500D02*
X16114000Y-11746500D01*
X16374000Y-11879500D02*
X16374000Y-11746500D01*
X16114000Y-11746500D02*
X15854000Y-11746500D01*
X16374000Y-11746500D02*
X16241000Y-11746500D01*
%TO.C,D2*%
X14282500Y-8940500D02*
X14671000Y-8940500D01*
X14282500Y-9167500D02*
X14282500Y-8940500D01*
X14671000Y-9167500D02*
X14282500Y-9167500D01*
%TO.C,D3*%
X14285500Y-9243000D02*
X14674000Y-9243000D01*
X14285500Y-9470000D02*
X14285500Y-9243000D01*
X14674000Y-9470000D02*
X14285500Y-9470000D01*
%TO.C,J8*%
X15840000Y-12488000D02*
X15840000Y-12222000D01*
X16100000Y-12488000D02*
X15840000Y-12488000D01*
X16100000Y-12488000D02*
X16100000Y-12222000D01*
X16360000Y-12355000D02*
X16360000Y-12222000D01*
X16100000Y-12222000D02*
X15840000Y-12222000D01*
X16360000Y-12222000D02*
X16227000Y-12222000D01*
%TO.C,R8*%
X14521000Y-11702706D02*
X14521000Y-11557294D01*
X14703000Y-11702706D02*
X14703000Y-11557294D01*
%TO.C,J9*%
X15601000Y-12213500D02*
X15601000Y-12479500D01*
X15341000Y-12213500D02*
X15601000Y-12213500D01*
X15341000Y-12213500D02*
X15341000Y-12479500D01*
X15081000Y-12346500D02*
X15081000Y-12479500D01*
X15341000Y-12479500D02*
X15601000Y-12479500D01*
X15081000Y-12479500D02*
X15214000Y-12479500D01*
%TO.C,D5*%
X14931500Y-9539500D02*
X15320000Y-9539500D01*
X14931500Y-9766500D02*
X14931500Y-9539500D01*
X15320000Y-9766500D02*
X14931500Y-9766500D01*
%TD*%
D16*
X17448541Y-8236000D02*
G75*
G03*
X17448541Y-8236000I-150541J0D01*
G01*
D17*
X16180000Y-8037000D02*
X16360000Y-8037000D01*
X16360000Y-9277000D01*
X16180000Y-9277000D01*
X16180000Y-8037000D01*
X16832500Y-8047000D02*
G75*
G03*
X16832500Y-8047000I-141532J0D01*
G01*
X10029032Y-8047000D02*
G75*
G03*
X10029032Y-8047000I-141532J0D01*
G01*
D16*
X9557541Y-12227000D02*
G75*
G03*
X9557541Y-12227000I-150541J0D01*
G01*
X9546541Y-8235000D02*
G75*
G03*
X9546541Y-8235000I-150541J0D01*
G01*
X17447541Y-12227000D02*
G75*
G03*
X17447541Y-12227000I-150541J0D01*
G01*
D17*
X10075000Y-11957000D02*
G75*
G03*
X10075000Y-11957000I-141532J0D01*
G01*
X16833000Y-11969500D02*
G75*
G03*
X16833000Y-11969500I-141532J0D01*
G01*
X9056000Y-7769500D02*
X17653000Y-7769500D01*
X17653000Y-12719500D01*
X9056000Y-12719500D01*
X9056000Y-7769500D01*
M02*
