%TF.GenerationSoftware,KiCad,Pcbnew,7.0.1*%
%TF.CreationDate,2024-01-20T13:41:41+00:00*%
%TF.ProjectId,Control_Board,436f6e74-726f-46c5-9f42-6f6172642e6b,rev?*%
%TF.SameCoordinates,Original*%
%TF.FileFunction,Other,User*%
%FSLAX45Y45*%
G04 Gerber Fmt 4.5, Leading zero omitted, Abs format (unit mm)*
G04 Created by KiCad (PCBNEW 7.0.1) date 2024-01-20 13:41:41*
%MOMM*%
%LPD*%
G01*
G04 APERTURE LIST*
%ADD10C,0.100000*%
%ADD11C,0.150000*%
%ADD12C,0.300000*%
%ADD13C,0.400000*%
%ADD14C,0.050000*%
%TA.AperFunction,Profile*%
%ADD15C,0.200000*%
%TD*%
%TA.AperFunction,Profile*%
%ADD16C,0.100000*%
%TD*%
G04 APERTURE END LIST*
D10*
D11*
X17700220Y-16600720D02*
X28500220Y-16600720D01*
X28500220Y-19800720D01*
X17700220Y-19800720D01*
X17700220Y-16600720D01*
D10*
D11*
X1000000Y-1000000D02*
X28700220Y-1000000D01*
X28700220Y-20000720D01*
X1000000Y-20000720D01*
X1000000Y-1000000D01*
D10*
D11*
X1200000Y-1200000D02*
X28500220Y-1200000D01*
X28500220Y-19800720D01*
X1200000Y-19800720D01*
X1200000Y-1200000D01*
D10*
D11*
X6000000Y-1200000D02*
X6000000Y-1000000D01*
D10*
D11*
X11000000Y-1200000D02*
X11000000Y-1000000D01*
D10*
D11*
X16000000Y-1200000D02*
X16000000Y-1000000D01*
D10*
D11*
X21000000Y-1200000D02*
X21000000Y-1000000D01*
D10*
D11*
X26000000Y-1200000D02*
X26000000Y-1000000D01*
D10*
D11*
X3599048Y-1160140D02*
X3524762Y-1160140D01*
X3561905Y-1160140D02*
X3561905Y-1030140D01*
X3561905Y-1030140D02*
X3549524Y-1048712D01*
X3549524Y-1048712D02*
X3537143Y-1061093D01*
X3537143Y-1061093D02*
X3524762Y-1067283D01*
D10*
D11*
X8524762Y-1042521D02*
X8530952Y-1036331D01*
X8530952Y-1036331D02*
X8543333Y-1030140D01*
X8543333Y-1030140D02*
X8574286Y-1030140D01*
X8574286Y-1030140D02*
X8586667Y-1036331D01*
X8586667Y-1036331D02*
X8592857Y-1042521D01*
X8592857Y-1042521D02*
X8599048Y-1054902D01*
X8599048Y-1054902D02*
X8599048Y-1067283D01*
X8599048Y-1067283D02*
X8592857Y-1085855D01*
X8592857Y-1085855D02*
X8518571Y-1160140D01*
X8518571Y-1160140D02*
X8599048Y-1160140D01*
D10*
D11*
X13518571Y-1030140D02*
X13599048Y-1030140D01*
X13599048Y-1030140D02*
X13555714Y-1079664D01*
X13555714Y-1079664D02*
X13574286Y-1079664D01*
X13574286Y-1079664D02*
X13586667Y-1085855D01*
X13586667Y-1085855D02*
X13592857Y-1092045D01*
X13592857Y-1092045D02*
X13599048Y-1104426D01*
X13599048Y-1104426D02*
X13599048Y-1135379D01*
X13599048Y-1135379D02*
X13592857Y-1147760D01*
X13592857Y-1147760D02*
X13586667Y-1153950D01*
X13586667Y-1153950D02*
X13574286Y-1160140D01*
X13574286Y-1160140D02*
X13537143Y-1160140D01*
X13537143Y-1160140D02*
X13524762Y-1153950D01*
X13524762Y-1153950D02*
X13518571Y-1147760D01*
D10*
D11*
X18586667Y-1073474D02*
X18586667Y-1160140D01*
X18555714Y-1023950D02*
X18524762Y-1116807D01*
X18524762Y-1116807D02*
X18605238Y-1116807D01*
D10*
D11*
X23592857Y-1030140D02*
X23530952Y-1030140D01*
X23530952Y-1030140D02*
X23524762Y-1092045D01*
X23524762Y-1092045D02*
X23530952Y-1085855D01*
X23530952Y-1085855D02*
X23543333Y-1079664D01*
X23543333Y-1079664D02*
X23574286Y-1079664D01*
X23574286Y-1079664D02*
X23586667Y-1085855D01*
X23586667Y-1085855D02*
X23592857Y-1092045D01*
X23592857Y-1092045D02*
X23599048Y-1104426D01*
X23599048Y-1104426D02*
X23599048Y-1135379D01*
X23599048Y-1135379D02*
X23592857Y-1147760D01*
X23592857Y-1147760D02*
X23586667Y-1153950D01*
X23586667Y-1153950D02*
X23574286Y-1160140D01*
X23574286Y-1160140D02*
X23543333Y-1160140D01*
X23543333Y-1160140D02*
X23530952Y-1153950D01*
X23530952Y-1153950D02*
X23524762Y-1147760D01*
D10*
D11*
X28586667Y-1030140D02*
X28561905Y-1030140D01*
X28561905Y-1030140D02*
X28549524Y-1036331D01*
X28549524Y-1036331D02*
X28543333Y-1042521D01*
X28543333Y-1042521D02*
X28530952Y-1061093D01*
X28530952Y-1061093D02*
X28524762Y-1085855D01*
X28524762Y-1085855D02*
X28524762Y-1135379D01*
X28524762Y-1135379D02*
X28530952Y-1147760D01*
X28530952Y-1147760D02*
X28537143Y-1153950D01*
X28537143Y-1153950D02*
X28549524Y-1160140D01*
X28549524Y-1160140D02*
X28574286Y-1160140D01*
X28574286Y-1160140D02*
X28586667Y-1153950D01*
X28586667Y-1153950D02*
X28592857Y-1147760D01*
X28592857Y-1147760D02*
X28599048Y-1135379D01*
X28599048Y-1135379D02*
X28599048Y-1104426D01*
X28599048Y-1104426D02*
X28592857Y-1092045D01*
X28592857Y-1092045D02*
X28586667Y-1085855D01*
X28586667Y-1085855D02*
X28574286Y-1079664D01*
X28574286Y-1079664D02*
X28549524Y-1079664D01*
X28549524Y-1079664D02*
X28537143Y-1085855D01*
X28537143Y-1085855D02*
X28530952Y-1092045D01*
X28530952Y-1092045D02*
X28524762Y-1104426D01*
D10*
D11*
X6000000Y-19800720D02*
X6000000Y-20000720D01*
D10*
D11*
X11000000Y-19800720D02*
X11000000Y-20000720D01*
D10*
D11*
X16000000Y-19800720D02*
X16000000Y-20000720D01*
D10*
D11*
X21000000Y-19800720D02*
X21000000Y-20000720D01*
D10*
D11*
X26000000Y-19800720D02*
X26000000Y-20000720D01*
D10*
D11*
X3599048Y-19960860D02*
X3524762Y-19960860D01*
X3561905Y-19960860D02*
X3561905Y-19830860D01*
X3561905Y-19830860D02*
X3549524Y-19849432D01*
X3549524Y-19849432D02*
X3537143Y-19861813D01*
X3537143Y-19861813D02*
X3524762Y-19868003D01*
D10*
D11*
X8524762Y-19843241D02*
X8530952Y-19837051D01*
X8530952Y-19837051D02*
X8543333Y-19830860D01*
X8543333Y-19830860D02*
X8574286Y-19830860D01*
X8574286Y-19830860D02*
X8586667Y-19837051D01*
X8586667Y-19837051D02*
X8592857Y-19843241D01*
X8592857Y-19843241D02*
X8599048Y-19855622D01*
X8599048Y-19855622D02*
X8599048Y-19868003D01*
X8599048Y-19868003D02*
X8592857Y-19886575D01*
X8592857Y-19886575D02*
X8518571Y-19960860D01*
X8518571Y-19960860D02*
X8599048Y-19960860D01*
D10*
D11*
X13518571Y-19830860D02*
X13599048Y-19830860D01*
X13599048Y-19830860D02*
X13555714Y-19880384D01*
X13555714Y-19880384D02*
X13574286Y-19880384D01*
X13574286Y-19880384D02*
X13586667Y-19886575D01*
X13586667Y-19886575D02*
X13592857Y-19892765D01*
X13592857Y-19892765D02*
X13599048Y-19905146D01*
X13599048Y-19905146D02*
X13599048Y-19936099D01*
X13599048Y-19936099D02*
X13592857Y-19948480D01*
X13592857Y-19948480D02*
X13586667Y-19954670D01*
X13586667Y-19954670D02*
X13574286Y-19960860D01*
X13574286Y-19960860D02*
X13537143Y-19960860D01*
X13537143Y-19960860D02*
X13524762Y-19954670D01*
X13524762Y-19954670D02*
X13518571Y-19948480D01*
D10*
D11*
X18586667Y-19874194D02*
X18586667Y-19960860D01*
X18555714Y-19824670D02*
X18524762Y-19917527D01*
X18524762Y-19917527D02*
X18605238Y-19917527D01*
D10*
D11*
X23592857Y-19830860D02*
X23530952Y-19830860D01*
X23530952Y-19830860D02*
X23524762Y-19892765D01*
X23524762Y-19892765D02*
X23530952Y-19886575D01*
X23530952Y-19886575D02*
X23543333Y-19880384D01*
X23543333Y-19880384D02*
X23574286Y-19880384D01*
X23574286Y-19880384D02*
X23586667Y-19886575D01*
X23586667Y-19886575D02*
X23592857Y-19892765D01*
X23592857Y-19892765D02*
X23599048Y-19905146D01*
X23599048Y-19905146D02*
X23599048Y-19936099D01*
X23599048Y-19936099D02*
X23592857Y-19948480D01*
X23592857Y-19948480D02*
X23586667Y-19954670D01*
X23586667Y-19954670D02*
X23574286Y-19960860D01*
X23574286Y-19960860D02*
X23543333Y-19960860D01*
X23543333Y-19960860D02*
X23530952Y-19954670D01*
X23530952Y-19954670D02*
X23524762Y-19948480D01*
D10*
D11*
X28586667Y-19830860D02*
X28561905Y-19830860D01*
X28561905Y-19830860D02*
X28549524Y-19837051D01*
X28549524Y-19837051D02*
X28543333Y-19843241D01*
X28543333Y-19843241D02*
X28530952Y-19861813D01*
X28530952Y-19861813D02*
X28524762Y-19886575D01*
X28524762Y-19886575D02*
X28524762Y-19936099D01*
X28524762Y-19936099D02*
X28530952Y-19948480D01*
X28530952Y-19948480D02*
X28537143Y-19954670D01*
X28537143Y-19954670D02*
X28549524Y-19960860D01*
X28549524Y-19960860D02*
X28574286Y-19960860D01*
X28574286Y-19960860D02*
X28586667Y-19954670D01*
X28586667Y-19954670D02*
X28592857Y-19948480D01*
X28592857Y-19948480D02*
X28599048Y-19936099D01*
X28599048Y-19936099D02*
X28599048Y-19905146D01*
X28599048Y-19905146D02*
X28592857Y-19892765D01*
X28592857Y-19892765D02*
X28586667Y-19886575D01*
X28586667Y-19886575D02*
X28574286Y-19880384D01*
X28574286Y-19880384D02*
X28549524Y-19880384D01*
X28549524Y-19880384D02*
X28537143Y-19886575D01*
X28537143Y-19886575D02*
X28530952Y-19892765D01*
X28530952Y-19892765D02*
X28524762Y-19905146D01*
D10*
D11*
X1000000Y-6000000D02*
X1200000Y-6000000D01*
D10*
D11*
X1000000Y-11000000D02*
X1200000Y-11000000D01*
D10*
D11*
X1000000Y-16000000D02*
X1200000Y-16000000D01*
D10*
D11*
X1069048Y-3522998D02*
X1130952Y-3522998D01*
X1056667Y-3560140D02*
X1100000Y-3430140D01*
X1100000Y-3430140D02*
X1143333Y-3560140D01*
D10*
D11*
X1109286Y-8492045D02*
X1127857Y-8498236D01*
X1127857Y-8498236D02*
X1134048Y-8504426D01*
X1134048Y-8504426D02*
X1140238Y-8516807D01*
X1140238Y-8516807D02*
X1140238Y-8535379D01*
X1140238Y-8535379D02*
X1134048Y-8547760D01*
X1134048Y-8547760D02*
X1127857Y-8553950D01*
X1127857Y-8553950D02*
X1115476Y-8560140D01*
X1115476Y-8560140D02*
X1065952Y-8560140D01*
X1065952Y-8560140D02*
X1065952Y-8430140D01*
X1065952Y-8430140D02*
X1109286Y-8430140D01*
X1109286Y-8430140D02*
X1121667Y-8436331D01*
X1121667Y-8436331D02*
X1127857Y-8442521D01*
X1127857Y-8442521D02*
X1134048Y-8454902D01*
X1134048Y-8454902D02*
X1134048Y-8467283D01*
X1134048Y-8467283D02*
X1127857Y-8479664D01*
X1127857Y-8479664D02*
X1121667Y-8485855D01*
X1121667Y-8485855D02*
X1109286Y-8492045D01*
X1109286Y-8492045D02*
X1065952Y-8492045D01*
D10*
D11*
X1140238Y-13547759D02*
X1134048Y-13553950D01*
X1134048Y-13553950D02*
X1115476Y-13560140D01*
X1115476Y-13560140D02*
X1103095Y-13560140D01*
X1103095Y-13560140D02*
X1084524Y-13553950D01*
X1084524Y-13553950D02*
X1072143Y-13541569D01*
X1072143Y-13541569D02*
X1065952Y-13529188D01*
X1065952Y-13529188D02*
X1059762Y-13504426D01*
X1059762Y-13504426D02*
X1059762Y-13485855D01*
X1059762Y-13485855D02*
X1065952Y-13461093D01*
X1065952Y-13461093D02*
X1072143Y-13448712D01*
X1072143Y-13448712D02*
X1084524Y-13436331D01*
X1084524Y-13436331D02*
X1103095Y-13430140D01*
X1103095Y-13430140D02*
X1115476Y-13430140D01*
X1115476Y-13430140D02*
X1134048Y-13436331D01*
X1134048Y-13436331D02*
X1140238Y-13442521D01*
D10*
D11*
X1065952Y-18560140D02*
X1065952Y-18430140D01*
X1065952Y-18430140D02*
X1096905Y-18430140D01*
X1096905Y-18430140D02*
X1115476Y-18436331D01*
X1115476Y-18436331D02*
X1127857Y-18448712D01*
X1127857Y-18448712D02*
X1134048Y-18461093D01*
X1134048Y-18461093D02*
X1140238Y-18485855D01*
X1140238Y-18485855D02*
X1140238Y-18504426D01*
X1140238Y-18504426D02*
X1134048Y-18529188D01*
X1134048Y-18529188D02*
X1127857Y-18541569D01*
X1127857Y-18541569D02*
X1115476Y-18553950D01*
X1115476Y-18553950D02*
X1096905Y-18560140D01*
X1096905Y-18560140D02*
X1065952Y-18560140D01*
D10*
D11*
X28700220Y-6000000D02*
X28500220Y-6000000D01*
D10*
D11*
X28700220Y-11000000D02*
X28500220Y-11000000D01*
D10*
D11*
X28700220Y-16000000D02*
X28500220Y-16000000D01*
D10*
D11*
X28569268Y-3522998D02*
X28631172Y-3522998D01*
X28556887Y-3560140D02*
X28600220Y-3430140D01*
X28600220Y-3430140D02*
X28643553Y-3560140D01*
D10*
D11*
X28609506Y-8492045D02*
X28628077Y-8498236D01*
X28628077Y-8498236D02*
X28634268Y-8504426D01*
X28634268Y-8504426D02*
X28640458Y-8516807D01*
X28640458Y-8516807D02*
X28640458Y-8535379D01*
X28640458Y-8535379D02*
X28634268Y-8547760D01*
X28634268Y-8547760D02*
X28628077Y-8553950D01*
X28628077Y-8553950D02*
X28615696Y-8560140D01*
X28615696Y-8560140D02*
X28566172Y-8560140D01*
X28566172Y-8560140D02*
X28566172Y-8430140D01*
X28566172Y-8430140D02*
X28609506Y-8430140D01*
X28609506Y-8430140D02*
X28621887Y-8436331D01*
X28621887Y-8436331D02*
X28628077Y-8442521D01*
X28628077Y-8442521D02*
X28634268Y-8454902D01*
X28634268Y-8454902D02*
X28634268Y-8467283D01*
X28634268Y-8467283D02*
X28628077Y-8479664D01*
X28628077Y-8479664D02*
X28621887Y-8485855D01*
X28621887Y-8485855D02*
X28609506Y-8492045D01*
X28609506Y-8492045D02*
X28566172Y-8492045D01*
D10*
D11*
X28640458Y-13547759D02*
X28634268Y-13553950D01*
X28634268Y-13553950D02*
X28615696Y-13560140D01*
X28615696Y-13560140D02*
X28603315Y-13560140D01*
X28603315Y-13560140D02*
X28584744Y-13553950D01*
X28584744Y-13553950D02*
X28572363Y-13541569D01*
X28572363Y-13541569D02*
X28566172Y-13529188D01*
X28566172Y-13529188D02*
X28559982Y-13504426D01*
X28559982Y-13504426D02*
X28559982Y-13485855D01*
X28559982Y-13485855D02*
X28566172Y-13461093D01*
X28566172Y-13461093D02*
X28572363Y-13448712D01*
X28572363Y-13448712D02*
X28584744Y-13436331D01*
X28584744Y-13436331D02*
X28603315Y-13430140D01*
X28603315Y-13430140D02*
X28615696Y-13430140D01*
X28615696Y-13430140D02*
X28634268Y-13436331D01*
X28634268Y-13436331D02*
X28640458Y-13442521D01*
D10*
D11*
X28566172Y-18560140D02*
X28566172Y-18430140D01*
X28566172Y-18430140D02*
X28597125Y-18430140D01*
X28597125Y-18430140D02*
X28615696Y-18436331D01*
X28615696Y-18436331D02*
X28628077Y-18448712D01*
X28628077Y-18448712D02*
X28634268Y-18461093D01*
X28634268Y-18461093D02*
X28640458Y-18485855D01*
X28640458Y-18485855D02*
X28640458Y-18504426D01*
X28640458Y-18504426D02*
X28634268Y-18529188D01*
X28634268Y-18529188D02*
X28628077Y-18541569D01*
X28628077Y-18541569D02*
X28615696Y-18553950D01*
X28615696Y-18553950D02*
X28597125Y-18560140D01*
X28597125Y-18560140D02*
X28566172Y-18560140D01*
D10*
D11*
X20035934Y-19380113D02*
X20035934Y-19230113D01*
X20035934Y-19230113D02*
X20071649Y-19230113D01*
X20071649Y-19230113D02*
X20093077Y-19237256D01*
X20093077Y-19237256D02*
X20107363Y-19251541D01*
X20107363Y-19251541D02*
X20114506Y-19265827D01*
X20114506Y-19265827D02*
X20121649Y-19294399D01*
X20121649Y-19294399D02*
X20121649Y-19315827D01*
X20121649Y-19315827D02*
X20114506Y-19344399D01*
X20114506Y-19344399D02*
X20107363Y-19358684D01*
X20107363Y-19358684D02*
X20093077Y-19372970D01*
X20093077Y-19372970D02*
X20071649Y-19380113D01*
X20071649Y-19380113D02*
X20035934Y-19380113D01*
X20250220Y-19380113D02*
X20250220Y-19301541D01*
X20250220Y-19301541D02*
X20243077Y-19287256D01*
X20243077Y-19287256D02*
X20228791Y-19280113D01*
X20228791Y-19280113D02*
X20200220Y-19280113D01*
X20200220Y-19280113D02*
X20185934Y-19287256D01*
X20250220Y-19372970D02*
X20235934Y-19380113D01*
X20235934Y-19380113D02*
X20200220Y-19380113D01*
X20200220Y-19380113D02*
X20185934Y-19372970D01*
X20185934Y-19372970D02*
X20178791Y-19358684D01*
X20178791Y-19358684D02*
X20178791Y-19344399D01*
X20178791Y-19344399D02*
X20185934Y-19330113D01*
X20185934Y-19330113D02*
X20200220Y-19322970D01*
X20200220Y-19322970D02*
X20235934Y-19322970D01*
X20235934Y-19322970D02*
X20250220Y-19315827D01*
X20300220Y-19280113D02*
X20357363Y-19280113D01*
X20321649Y-19230113D02*
X20321649Y-19358684D01*
X20321649Y-19358684D02*
X20328791Y-19372970D01*
X20328791Y-19372970D02*
X20343077Y-19380113D01*
X20343077Y-19380113D02*
X20357363Y-19380113D01*
X20464506Y-19372970D02*
X20450220Y-19380113D01*
X20450220Y-19380113D02*
X20421649Y-19380113D01*
X20421649Y-19380113D02*
X20407363Y-19372970D01*
X20407363Y-19372970D02*
X20400220Y-19358684D01*
X20400220Y-19358684D02*
X20400220Y-19301541D01*
X20400220Y-19301541D02*
X20407363Y-19287256D01*
X20407363Y-19287256D02*
X20421649Y-19280113D01*
X20421649Y-19280113D02*
X20450220Y-19280113D01*
X20450220Y-19280113D02*
X20464506Y-19287256D01*
X20464506Y-19287256D02*
X20471649Y-19301541D01*
X20471649Y-19301541D02*
X20471649Y-19315827D01*
X20471649Y-19315827D02*
X20400220Y-19330113D01*
X20535934Y-19365827D02*
X20543077Y-19372970D01*
X20543077Y-19372970D02*
X20535934Y-19380113D01*
X20535934Y-19380113D02*
X20528791Y-19372970D01*
X20528791Y-19372970D02*
X20535934Y-19365827D01*
X20535934Y-19365827D02*
X20535934Y-19380113D01*
X20535934Y-19287256D02*
X20543077Y-19294399D01*
X20543077Y-19294399D02*
X20535934Y-19301541D01*
X20535934Y-19301541D02*
X20528791Y-19294399D01*
X20528791Y-19294399D02*
X20535934Y-19287256D01*
X20535934Y-19287256D02*
X20535934Y-19301541D01*
D10*
D11*
X17700220Y-19450720D02*
X28500220Y-19450720D01*
D10*
D11*
X17835934Y-19660113D02*
X17835934Y-19510113D01*
X17921649Y-19660113D02*
X17857363Y-19574399D01*
X17921649Y-19510113D02*
X17835934Y-19595827D01*
X17985934Y-19660113D02*
X17985934Y-19560113D01*
X17985934Y-19510113D02*
X17978791Y-19517256D01*
X17978791Y-19517256D02*
X17985934Y-19524399D01*
X17985934Y-19524399D02*
X17993077Y-19517256D01*
X17993077Y-19517256D02*
X17985934Y-19510113D01*
X17985934Y-19510113D02*
X17985934Y-19524399D01*
X18143077Y-19645827D02*
X18135934Y-19652970D01*
X18135934Y-19652970D02*
X18114506Y-19660113D01*
X18114506Y-19660113D02*
X18100220Y-19660113D01*
X18100220Y-19660113D02*
X18078791Y-19652970D01*
X18078791Y-19652970D02*
X18064506Y-19638684D01*
X18064506Y-19638684D02*
X18057363Y-19624399D01*
X18057363Y-19624399D02*
X18050220Y-19595827D01*
X18050220Y-19595827D02*
X18050220Y-19574399D01*
X18050220Y-19574399D02*
X18057363Y-19545827D01*
X18057363Y-19545827D02*
X18064506Y-19531541D01*
X18064506Y-19531541D02*
X18078791Y-19517256D01*
X18078791Y-19517256D02*
X18100220Y-19510113D01*
X18100220Y-19510113D02*
X18114506Y-19510113D01*
X18114506Y-19510113D02*
X18135934Y-19517256D01*
X18135934Y-19517256D02*
X18143077Y-19524399D01*
X18271649Y-19660113D02*
X18271649Y-19581541D01*
X18271649Y-19581541D02*
X18264506Y-19567256D01*
X18264506Y-19567256D02*
X18250220Y-19560113D01*
X18250220Y-19560113D02*
X18221649Y-19560113D01*
X18221649Y-19560113D02*
X18207363Y-19567256D01*
X18271649Y-19652970D02*
X18257363Y-19660113D01*
X18257363Y-19660113D02*
X18221649Y-19660113D01*
X18221649Y-19660113D02*
X18207363Y-19652970D01*
X18207363Y-19652970D02*
X18200220Y-19638684D01*
X18200220Y-19638684D02*
X18200220Y-19624399D01*
X18200220Y-19624399D02*
X18207363Y-19610113D01*
X18207363Y-19610113D02*
X18221649Y-19602970D01*
X18221649Y-19602970D02*
X18257363Y-19602970D01*
X18257363Y-19602970D02*
X18271649Y-19595827D01*
X18407363Y-19660113D02*
X18407363Y-19510113D01*
X18407363Y-19652970D02*
X18393077Y-19660113D01*
X18393077Y-19660113D02*
X18364506Y-19660113D01*
X18364506Y-19660113D02*
X18350220Y-19652970D01*
X18350220Y-19652970D02*
X18343077Y-19645827D01*
X18343077Y-19645827D02*
X18335934Y-19631541D01*
X18335934Y-19631541D02*
X18335934Y-19588684D01*
X18335934Y-19588684D02*
X18343077Y-19574399D01*
X18343077Y-19574399D02*
X18350220Y-19567256D01*
X18350220Y-19567256D02*
X18364506Y-19560113D01*
X18364506Y-19560113D02*
X18393077Y-19560113D01*
X18393077Y-19560113D02*
X18407363Y-19567256D01*
X18593077Y-19581541D02*
X18643077Y-19581541D01*
X18664506Y-19660113D02*
X18593077Y-19660113D01*
X18593077Y-19660113D02*
X18593077Y-19510113D01*
X18593077Y-19510113D02*
X18664506Y-19510113D01*
X18728791Y-19645827D02*
X18735934Y-19652970D01*
X18735934Y-19652970D02*
X18728791Y-19660113D01*
X18728791Y-19660113D02*
X18721649Y-19652970D01*
X18721649Y-19652970D02*
X18728791Y-19645827D01*
X18728791Y-19645827D02*
X18728791Y-19660113D01*
X18800220Y-19660113D02*
X18800220Y-19510113D01*
X18800220Y-19510113D02*
X18835934Y-19510113D01*
X18835934Y-19510113D02*
X18857363Y-19517256D01*
X18857363Y-19517256D02*
X18871649Y-19531541D01*
X18871649Y-19531541D02*
X18878792Y-19545827D01*
X18878792Y-19545827D02*
X18885934Y-19574399D01*
X18885934Y-19574399D02*
X18885934Y-19595827D01*
X18885934Y-19595827D02*
X18878792Y-19624399D01*
X18878792Y-19624399D02*
X18871649Y-19638684D01*
X18871649Y-19638684D02*
X18857363Y-19652970D01*
X18857363Y-19652970D02*
X18835934Y-19660113D01*
X18835934Y-19660113D02*
X18800220Y-19660113D01*
X18950220Y-19645827D02*
X18957363Y-19652970D01*
X18957363Y-19652970D02*
X18950220Y-19660113D01*
X18950220Y-19660113D02*
X18943077Y-19652970D01*
X18943077Y-19652970D02*
X18950220Y-19645827D01*
X18950220Y-19645827D02*
X18950220Y-19660113D01*
X19014506Y-19617256D02*
X19085934Y-19617256D01*
X19000220Y-19660113D02*
X19050220Y-19510113D01*
X19050220Y-19510113D02*
X19100220Y-19660113D01*
X19150220Y-19645827D02*
X19157363Y-19652970D01*
X19157363Y-19652970D02*
X19150220Y-19660113D01*
X19150220Y-19660113D02*
X19143077Y-19652970D01*
X19143077Y-19652970D02*
X19150220Y-19645827D01*
X19150220Y-19645827D02*
X19150220Y-19660113D01*
X19450220Y-19660113D02*
X19450220Y-19510113D01*
X19464506Y-19602970D02*
X19507363Y-19660113D01*
X19507363Y-19560113D02*
X19450220Y-19617256D01*
X19571649Y-19660113D02*
X19571649Y-19560113D01*
X19571649Y-19510113D02*
X19564506Y-19517256D01*
X19564506Y-19517256D02*
X19571649Y-19524399D01*
X19571649Y-19524399D02*
X19578792Y-19517256D01*
X19578792Y-19517256D02*
X19571649Y-19510113D01*
X19571649Y-19510113D02*
X19571649Y-19524399D01*
X19707363Y-19652970D02*
X19693077Y-19660113D01*
X19693077Y-19660113D02*
X19664506Y-19660113D01*
X19664506Y-19660113D02*
X19650220Y-19652970D01*
X19650220Y-19652970D02*
X19643077Y-19645827D01*
X19643077Y-19645827D02*
X19635934Y-19631541D01*
X19635934Y-19631541D02*
X19635934Y-19588684D01*
X19635934Y-19588684D02*
X19643077Y-19574399D01*
X19643077Y-19574399D02*
X19650220Y-19567256D01*
X19650220Y-19567256D02*
X19664506Y-19560113D01*
X19664506Y-19560113D02*
X19693077Y-19560113D01*
X19693077Y-19560113D02*
X19707363Y-19567256D01*
X19835934Y-19660113D02*
X19835934Y-19581541D01*
X19835934Y-19581541D02*
X19828792Y-19567256D01*
X19828792Y-19567256D02*
X19814506Y-19560113D01*
X19814506Y-19560113D02*
X19785934Y-19560113D01*
X19785934Y-19560113D02*
X19771649Y-19567256D01*
X19835934Y-19652970D02*
X19821649Y-19660113D01*
X19821649Y-19660113D02*
X19785934Y-19660113D01*
X19785934Y-19660113D02*
X19771649Y-19652970D01*
X19771649Y-19652970D02*
X19764506Y-19638684D01*
X19764506Y-19638684D02*
X19764506Y-19624399D01*
X19764506Y-19624399D02*
X19771649Y-19610113D01*
X19771649Y-19610113D02*
X19785934Y-19602970D01*
X19785934Y-19602970D02*
X19821649Y-19602970D01*
X19821649Y-19602970D02*
X19835934Y-19595827D01*
X19971649Y-19660113D02*
X19971649Y-19510113D01*
X19971649Y-19652970D02*
X19957363Y-19660113D01*
X19957363Y-19660113D02*
X19928792Y-19660113D01*
X19928792Y-19660113D02*
X19914506Y-19652970D01*
X19914506Y-19652970D02*
X19907363Y-19645827D01*
X19907363Y-19645827D02*
X19900220Y-19631541D01*
X19900220Y-19631541D02*
X19900220Y-19588684D01*
X19900220Y-19588684D02*
X19907363Y-19574399D01*
X19907363Y-19574399D02*
X19914506Y-19567256D01*
X19914506Y-19567256D02*
X19928792Y-19560113D01*
X19928792Y-19560113D02*
X19957363Y-19560113D01*
X19957363Y-19560113D02*
X19971649Y-19567256D01*
X20143077Y-19510113D02*
X20243077Y-19510113D01*
X20243077Y-19510113D02*
X20178792Y-19660113D01*
X20300220Y-19645827D02*
X20307363Y-19652970D01*
X20307363Y-19652970D02*
X20300220Y-19660113D01*
X20300220Y-19660113D02*
X20293077Y-19652970D01*
X20293077Y-19652970D02*
X20300220Y-19645827D01*
X20300220Y-19645827D02*
X20300220Y-19660113D01*
X20400220Y-19510113D02*
X20414506Y-19510113D01*
X20414506Y-19510113D02*
X20428792Y-19517256D01*
X20428792Y-19517256D02*
X20435934Y-19524399D01*
X20435934Y-19524399D02*
X20443077Y-19538684D01*
X20443077Y-19538684D02*
X20450220Y-19567256D01*
X20450220Y-19567256D02*
X20450220Y-19602970D01*
X20450220Y-19602970D02*
X20443077Y-19631541D01*
X20443077Y-19631541D02*
X20435934Y-19645827D01*
X20435934Y-19645827D02*
X20428792Y-19652970D01*
X20428792Y-19652970D02*
X20414506Y-19660113D01*
X20414506Y-19660113D02*
X20400220Y-19660113D01*
X20400220Y-19660113D02*
X20385934Y-19652970D01*
X20385934Y-19652970D02*
X20378792Y-19645827D01*
X20378792Y-19645827D02*
X20371649Y-19631541D01*
X20371649Y-19631541D02*
X20364506Y-19602970D01*
X20364506Y-19602970D02*
X20364506Y-19567256D01*
X20364506Y-19567256D02*
X20371649Y-19538684D01*
X20371649Y-19538684D02*
X20378792Y-19524399D01*
X20378792Y-19524399D02*
X20385934Y-19517256D01*
X20385934Y-19517256D02*
X20400220Y-19510113D01*
X20514506Y-19645827D02*
X20521649Y-19652970D01*
X20521649Y-19652970D02*
X20514506Y-19660113D01*
X20514506Y-19660113D02*
X20507363Y-19652970D01*
X20507363Y-19652970D02*
X20514506Y-19645827D01*
X20514506Y-19645827D02*
X20514506Y-19660113D01*
X20664506Y-19660113D02*
X20578792Y-19660113D01*
X20621649Y-19660113D02*
X20621649Y-19510113D01*
X20621649Y-19510113D02*
X20607363Y-19531541D01*
X20607363Y-19531541D02*
X20593077Y-19545827D01*
X20593077Y-19545827D02*
X20578792Y-19552970D01*
D10*
D11*
X17700220Y-19150720D02*
X28500220Y-19150720D01*
D10*
D12*
X26421648Y-19380113D02*
X26371648Y-19308684D01*
X26335934Y-19380113D02*
X26335934Y-19230113D01*
X26335934Y-19230113D02*
X26393077Y-19230113D01*
X26393077Y-19230113D02*
X26407363Y-19237256D01*
X26407363Y-19237256D02*
X26414506Y-19244399D01*
X26414506Y-19244399D02*
X26421648Y-19258684D01*
X26421648Y-19258684D02*
X26421648Y-19280113D01*
X26421648Y-19280113D02*
X26414506Y-19294399D01*
X26414506Y-19294399D02*
X26407363Y-19301541D01*
X26407363Y-19301541D02*
X26393077Y-19308684D01*
X26393077Y-19308684D02*
X26335934Y-19308684D01*
X26543077Y-19372970D02*
X26528791Y-19380113D01*
X26528791Y-19380113D02*
X26500220Y-19380113D01*
X26500220Y-19380113D02*
X26485934Y-19372970D01*
X26485934Y-19372970D02*
X26478791Y-19358684D01*
X26478791Y-19358684D02*
X26478791Y-19301541D01*
X26478791Y-19301541D02*
X26485934Y-19287256D01*
X26485934Y-19287256D02*
X26500220Y-19280113D01*
X26500220Y-19280113D02*
X26528791Y-19280113D01*
X26528791Y-19280113D02*
X26543077Y-19287256D01*
X26543077Y-19287256D02*
X26550220Y-19301541D01*
X26550220Y-19301541D02*
X26550220Y-19315827D01*
X26550220Y-19315827D02*
X26478791Y-19330113D01*
X26600220Y-19280113D02*
X26635934Y-19380113D01*
X26635934Y-19380113D02*
X26671648Y-19280113D01*
X26728791Y-19365827D02*
X26735934Y-19372970D01*
X26735934Y-19372970D02*
X26728791Y-19380113D01*
X26728791Y-19380113D02*
X26721648Y-19372970D01*
X26721648Y-19372970D02*
X26728791Y-19365827D01*
X26728791Y-19365827D02*
X26728791Y-19380113D01*
X26728791Y-19287256D02*
X26735934Y-19294399D01*
X26735934Y-19294399D02*
X26728791Y-19301541D01*
X26728791Y-19301541D02*
X26721648Y-19294399D01*
X26721648Y-19294399D02*
X26728791Y-19287256D01*
X26728791Y-19287256D02*
X26728791Y-19301541D01*
D10*
D11*
X17828791Y-19372970D02*
X17850220Y-19380113D01*
X17850220Y-19380113D02*
X17885934Y-19380113D01*
X17885934Y-19380113D02*
X17900220Y-19372970D01*
X17900220Y-19372970D02*
X17907363Y-19365827D01*
X17907363Y-19365827D02*
X17914506Y-19351541D01*
X17914506Y-19351541D02*
X17914506Y-19337256D01*
X17914506Y-19337256D02*
X17907363Y-19322970D01*
X17907363Y-19322970D02*
X17900220Y-19315827D01*
X17900220Y-19315827D02*
X17885934Y-19308684D01*
X17885934Y-19308684D02*
X17857363Y-19301541D01*
X17857363Y-19301541D02*
X17843077Y-19294399D01*
X17843077Y-19294399D02*
X17835934Y-19287256D01*
X17835934Y-19287256D02*
X17828791Y-19272970D01*
X17828791Y-19272970D02*
X17828791Y-19258684D01*
X17828791Y-19258684D02*
X17835934Y-19244399D01*
X17835934Y-19244399D02*
X17843077Y-19237256D01*
X17843077Y-19237256D02*
X17857363Y-19230113D01*
X17857363Y-19230113D02*
X17893077Y-19230113D01*
X17893077Y-19230113D02*
X17914506Y-19237256D01*
X17978791Y-19380113D02*
X17978791Y-19280113D01*
X17978791Y-19230113D02*
X17971649Y-19237256D01*
X17971649Y-19237256D02*
X17978791Y-19244399D01*
X17978791Y-19244399D02*
X17985934Y-19237256D01*
X17985934Y-19237256D02*
X17978791Y-19230113D01*
X17978791Y-19230113D02*
X17978791Y-19244399D01*
X18035934Y-19280113D02*
X18114506Y-19280113D01*
X18114506Y-19280113D02*
X18035934Y-19380113D01*
X18035934Y-19380113D02*
X18114506Y-19380113D01*
X18228791Y-19372970D02*
X18214506Y-19380113D01*
X18214506Y-19380113D02*
X18185934Y-19380113D01*
X18185934Y-19380113D02*
X18171649Y-19372970D01*
X18171649Y-19372970D02*
X18164506Y-19358684D01*
X18164506Y-19358684D02*
X18164506Y-19301541D01*
X18164506Y-19301541D02*
X18171649Y-19287256D01*
X18171649Y-19287256D02*
X18185934Y-19280113D01*
X18185934Y-19280113D02*
X18214506Y-19280113D01*
X18214506Y-19280113D02*
X18228791Y-19287256D01*
X18228791Y-19287256D02*
X18235934Y-19301541D01*
X18235934Y-19301541D02*
X18235934Y-19315827D01*
X18235934Y-19315827D02*
X18164506Y-19330113D01*
X18300220Y-19365827D02*
X18307363Y-19372970D01*
X18307363Y-19372970D02*
X18300220Y-19380113D01*
X18300220Y-19380113D02*
X18293077Y-19372970D01*
X18293077Y-19372970D02*
X18300220Y-19365827D01*
X18300220Y-19365827D02*
X18300220Y-19380113D01*
X18300220Y-19287256D02*
X18307363Y-19294399D01*
X18307363Y-19294399D02*
X18300220Y-19301541D01*
X18300220Y-19301541D02*
X18293077Y-19294399D01*
X18293077Y-19294399D02*
X18300220Y-19287256D01*
X18300220Y-19287256D02*
X18300220Y-19301541D01*
X18478791Y-19337256D02*
X18550220Y-19337256D01*
X18464506Y-19380113D02*
X18514506Y-19230113D01*
X18514506Y-19230113D02*
X18564506Y-19380113D01*
X18678791Y-19280113D02*
X18678791Y-19380113D01*
X18643077Y-19222970D02*
X18607363Y-19330113D01*
X18607363Y-19330113D02*
X18700220Y-19330113D01*
D10*
D11*
X26335934Y-19660113D02*
X26335934Y-19510113D01*
X26471649Y-19660113D02*
X26471649Y-19510113D01*
X26471649Y-19652970D02*
X26457363Y-19660113D01*
X26457363Y-19660113D02*
X26428791Y-19660113D01*
X26428791Y-19660113D02*
X26414506Y-19652970D01*
X26414506Y-19652970D02*
X26407363Y-19645827D01*
X26407363Y-19645827D02*
X26400220Y-19631541D01*
X26400220Y-19631541D02*
X26400220Y-19588684D01*
X26400220Y-19588684D02*
X26407363Y-19574399D01*
X26407363Y-19574399D02*
X26414506Y-19567256D01*
X26414506Y-19567256D02*
X26428791Y-19560113D01*
X26428791Y-19560113D02*
X26457363Y-19560113D01*
X26457363Y-19560113D02*
X26471649Y-19567256D01*
X26543077Y-19645827D02*
X26550220Y-19652970D01*
X26550220Y-19652970D02*
X26543077Y-19660113D01*
X26543077Y-19660113D02*
X26535934Y-19652970D01*
X26535934Y-19652970D02*
X26543077Y-19645827D01*
X26543077Y-19645827D02*
X26543077Y-19660113D01*
X26543077Y-19567256D02*
X26550220Y-19574399D01*
X26550220Y-19574399D02*
X26543077Y-19581541D01*
X26543077Y-19581541D02*
X26535934Y-19574399D01*
X26535934Y-19574399D02*
X26543077Y-19567256D01*
X26543077Y-19567256D02*
X26543077Y-19581541D01*
X26807363Y-19660113D02*
X26721649Y-19660113D01*
X26764506Y-19660113D02*
X26764506Y-19510113D01*
X26764506Y-19510113D02*
X26750220Y-19531541D01*
X26750220Y-19531541D02*
X26735934Y-19545827D01*
X26735934Y-19545827D02*
X26721649Y-19552970D01*
X26978791Y-19502970D02*
X26850220Y-19695827D01*
X27107363Y-19660113D02*
X27021649Y-19660113D01*
X27064506Y-19660113D02*
X27064506Y-19510113D01*
X27064506Y-19510113D02*
X27050220Y-19531541D01*
X27050220Y-19531541D02*
X27035934Y-19545827D01*
X27035934Y-19545827D02*
X27021649Y-19552970D01*
D10*
D11*
X17700220Y-18750720D02*
X28500220Y-18750720D01*
D10*
D13*
X17843077Y-18823244D02*
X17957363Y-18823244D01*
X17875220Y-19023244D02*
X17900220Y-18823244D01*
X17997839Y-19023244D02*
X18014506Y-18889910D01*
X18022839Y-18823244D02*
X18012125Y-18832768D01*
X18012125Y-18832768D02*
X18020458Y-18842291D01*
X18020458Y-18842291D02*
X18031172Y-18832768D01*
X18031172Y-18832768D02*
X18022839Y-18823244D01*
X18022839Y-18823244D02*
X18020458Y-18842291D01*
X18079982Y-18889910D02*
X18156172Y-18889910D01*
X18116887Y-18823244D02*
X18095458Y-18994672D01*
X18095458Y-18994672D02*
X18102601Y-19013720D01*
X18102601Y-19013720D02*
X18120458Y-19023244D01*
X18120458Y-19023244D02*
X18139506Y-19023244D01*
X18233553Y-19023244D02*
X18215696Y-19013720D01*
X18215696Y-19013720D02*
X18208553Y-18994672D01*
X18208553Y-18994672D02*
X18229982Y-18823244D01*
X18385934Y-19013720D02*
X18365696Y-19023244D01*
X18365696Y-19023244D02*
X18327601Y-19023244D01*
X18327601Y-19023244D02*
X18309744Y-19013720D01*
X18309744Y-19013720D02*
X18302601Y-18994672D01*
X18302601Y-18994672D02*
X18312125Y-18918482D01*
X18312125Y-18918482D02*
X18324029Y-18899434D01*
X18324029Y-18899434D02*
X18344268Y-18889910D01*
X18344268Y-18889910D02*
X18382363Y-18889910D01*
X18382363Y-18889910D02*
X18400220Y-18899434D01*
X18400220Y-18899434D02*
X18407363Y-18918482D01*
X18407363Y-18918482D02*
X18404982Y-18937530D01*
X18404982Y-18937530D02*
X18307363Y-18956577D01*
X18481172Y-19004196D02*
X18489506Y-19013720D01*
X18489506Y-19013720D02*
X18478791Y-19023244D01*
X18478791Y-19023244D02*
X18470458Y-19013720D01*
X18470458Y-19013720D02*
X18481172Y-19004196D01*
X18481172Y-19004196D02*
X18478791Y-19023244D01*
X18494268Y-18899434D02*
X18502601Y-18908958D01*
X18502601Y-18908958D02*
X18491887Y-18918482D01*
X18491887Y-18918482D02*
X18483553Y-18908958D01*
X18483553Y-18908958D02*
X18494268Y-18899434D01*
X18494268Y-18899434D02*
X18491887Y-18918482D01*
D10*
D11*
X17885934Y-18561541D02*
X17835934Y-18561541D01*
X17835934Y-18640113D02*
X17835934Y-18490113D01*
X17835934Y-18490113D02*
X17907363Y-18490113D01*
X17964506Y-18640113D02*
X17964506Y-18540113D01*
X17964506Y-18490113D02*
X17957363Y-18497256D01*
X17957363Y-18497256D02*
X17964506Y-18504399D01*
X17964506Y-18504399D02*
X17971649Y-18497256D01*
X17971649Y-18497256D02*
X17964506Y-18490113D01*
X17964506Y-18490113D02*
X17964506Y-18504399D01*
X18057363Y-18640113D02*
X18043077Y-18632970D01*
X18043077Y-18632970D02*
X18035934Y-18618684D01*
X18035934Y-18618684D02*
X18035934Y-18490113D01*
X18171649Y-18632970D02*
X18157363Y-18640113D01*
X18157363Y-18640113D02*
X18128791Y-18640113D01*
X18128791Y-18640113D02*
X18114506Y-18632970D01*
X18114506Y-18632970D02*
X18107363Y-18618684D01*
X18107363Y-18618684D02*
X18107363Y-18561541D01*
X18107363Y-18561541D02*
X18114506Y-18547256D01*
X18114506Y-18547256D02*
X18128791Y-18540113D01*
X18128791Y-18540113D02*
X18157363Y-18540113D01*
X18157363Y-18540113D02*
X18171649Y-18547256D01*
X18171649Y-18547256D02*
X18178791Y-18561541D01*
X18178791Y-18561541D02*
X18178791Y-18575827D01*
X18178791Y-18575827D02*
X18107363Y-18590113D01*
X18243077Y-18625827D02*
X18250220Y-18632970D01*
X18250220Y-18632970D02*
X18243077Y-18640113D01*
X18243077Y-18640113D02*
X18235934Y-18632970D01*
X18235934Y-18632970D02*
X18243077Y-18625827D01*
X18243077Y-18625827D02*
X18243077Y-18640113D01*
X18243077Y-18547256D02*
X18250220Y-18554399D01*
X18250220Y-18554399D02*
X18243077Y-18561541D01*
X18243077Y-18561541D02*
X18235934Y-18554399D01*
X18235934Y-18554399D02*
X18243077Y-18547256D01*
X18243077Y-18547256D02*
X18243077Y-18561541D01*
X18514506Y-18625827D02*
X18507363Y-18632970D01*
X18507363Y-18632970D02*
X18485934Y-18640113D01*
X18485934Y-18640113D02*
X18471649Y-18640113D01*
X18471649Y-18640113D02*
X18450220Y-18632970D01*
X18450220Y-18632970D02*
X18435934Y-18618684D01*
X18435934Y-18618684D02*
X18428791Y-18604399D01*
X18428791Y-18604399D02*
X18421649Y-18575827D01*
X18421649Y-18575827D02*
X18421649Y-18554399D01*
X18421649Y-18554399D02*
X18428791Y-18525827D01*
X18428791Y-18525827D02*
X18435934Y-18511541D01*
X18435934Y-18511541D02*
X18450220Y-18497256D01*
X18450220Y-18497256D02*
X18471649Y-18490113D01*
X18471649Y-18490113D02*
X18485934Y-18490113D01*
X18485934Y-18490113D02*
X18507363Y-18497256D01*
X18507363Y-18497256D02*
X18514506Y-18504399D01*
X18600220Y-18640113D02*
X18585934Y-18632970D01*
X18585934Y-18632970D02*
X18578791Y-18625827D01*
X18578791Y-18625827D02*
X18571649Y-18611541D01*
X18571649Y-18611541D02*
X18571649Y-18568684D01*
X18571649Y-18568684D02*
X18578791Y-18554399D01*
X18578791Y-18554399D02*
X18585934Y-18547256D01*
X18585934Y-18547256D02*
X18600220Y-18540113D01*
X18600220Y-18540113D02*
X18621649Y-18540113D01*
X18621649Y-18540113D02*
X18635934Y-18547256D01*
X18635934Y-18547256D02*
X18643077Y-18554399D01*
X18643077Y-18554399D02*
X18650220Y-18568684D01*
X18650220Y-18568684D02*
X18650220Y-18611541D01*
X18650220Y-18611541D02*
X18643077Y-18625827D01*
X18643077Y-18625827D02*
X18635934Y-18632970D01*
X18635934Y-18632970D02*
X18621649Y-18640113D01*
X18621649Y-18640113D02*
X18600220Y-18640113D01*
X18714506Y-18540113D02*
X18714506Y-18640113D01*
X18714506Y-18554399D02*
X18721649Y-18547256D01*
X18721649Y-18547256D02*
X18735934Y-18540113D01*
X18735934Y-18540113D02*
X18757363Y-18540113D01*
X18757363Y-18540113D02*
X18771649Y-18547256D01*
X18771649Y-18547256D02*
X18778791Y-18561541D01*
X18778791Y-18561541D02*
X18778791Y-18640113D01*
X18828791Y-18540113D02*
X18885934Y-18540113D01*
X18850220Y-18490113D02*
X18850220Y-18618684D01*
X18850220Y-18618684D02*
X18857363Y-18632970D01*
X18857363Y-18632970D02*
X18871649Y-18640113D01*
X18871649Y-18640113D02*
X18885934Y-18640113D01*
X18935934Y-18640113D02*
X18935934Y-18540113D01*
X18935934Y-18568684D02*
X18943077Y-18554399D01*
X18943077Y-18554399D02*
X18950220Y-18547256D01*
X18950220Y-18547256D02*
X18964506Y-18540113D01*
X18964506Y-18540113D02*
X18978791Y-18540113D01*
X19050220Y-18640113D02*
X19035934Y-18632970D01*
X19035934Y-18632970D02*
X19028791Y-18625827D01*
X19028791Y-18625827D02*
X19021649Y-18611541D01*
X19021649Y-18611541D02*
X19021649Y-18568684D01*
X19021649Y-18568684D02*
X19028791Y-18554399D01*
X19028791Y-18554399D02*
X19035934Y-18547256D01*
X19035934Y-18547256D02*
X19050220Y-18540113D01*
X19050220Y-18540113D02*
X19071649Y-18540113D01*
X19071649Y-18540113D02*
X19085934Y-18547256D01*
X19085934Y-18547256D02*
X19093077Y-18554399D01*
X19093077Y-18554399D02*
X19100220Y-18568684D01*
X19100220Y-18568684D02*
X19100220Y-18611541D01*
X19100220Y-18611541D02*
X19093077Y-18625827D01*
X19093077Y-18625827D02*
X19085934Y-18632970D01*
X19085934Y-18632970D02*
X19071649Y-18640113D01*
X19071649Y-18640113D02*
X19050220Y-18640113D01*
X19185934Y-18640113D02*
X19171649Y-18632970D01*
X19171649Y-18632970D02*
X19164506Y-18618684D01*
X19164506Y-18618684D02*
X19164506Y-18490113D01*
X19207363Y-18654399D02*
X19321649Y-18654399D01*
X19407363Y-18561541D02*
X19428791Y-18568684D01*
X19428791Y-18568684D02*
X19435934Y-18575827D01*
X19435934Y-18575827D02*
X19443077Y-18590113D01*
X19443077Y-18590113D02*
X19443077Y-18611541D01*
X19443077Y-18611541D02*
X19435934Y-18625827D01*
X19435934Y-18625827D02*
X19428791Y-18632970D01*
X19428791Y-18632970D02*
X19414506Y-18640113D01*
X19414506Y-18640113D02*
X19357363Y-18640113D01*
X19357363Y-18640113D02*
X19357363Y-18490113D01*
X19357363Y-18490113D02*
X19407363Y-18490113D01*
X19407363Y-18490113D02*
X19421649Y-18497256D01*
X19421649Y-18497256D02*
X19428791Y-18504399D01*
X19428791Y-18504399D02*
X19435934Y-18518684D01*
X19435934Y-18518684D02*
X19435934Y-18532970D01*
X19435934Y-18532970D02*
X19428791Y-18547256D01*
X19428791Y-18547256D02*
X19421649Y-18554399D01*
X19421649Y-18554399D02*
X19407363Y-18561541D01*
X19407363Y-18561541D02*
X19357363Y-18561541D01*
X19528791Y-18640113D02*
X19514506Y-18632970D01*
X19514506Y-18632970D02*
X19507363Y-18625827D01*
X19507363Y-18625827D02*
X19500220Y-18611541D01*
X19500220Y-18611541D02*
X19500220Y-18568684D01*
X19500220Y-18568684D02*
X19507363Y-18554399D01*
X19507363Y-18554399D02*
X19514506Y-18547256D01*
X19514506Y-18547256D02*
X19528791Y-18540113D01*
X19528791Y-18540113D02*
X19550220Y-18540113D01*
X19550220Y-18540113D02*
X19564506Y-18547256D01*
X19564506Y-18547256D02*
X19571649Y-18554399D01*
X19571649Y-18554399D02*
X19578791Y-18568684D01*
X19578791Y-18568684D02*
X19578791Y-18611541D01*
X19578791Y-18611541D02*
X19571649Y-18625827D01*
X19571649Y-18625827D02*
X19564506Y-18632970D01*
X19564506Y-18632970D02*
X19550220Y-18640113D01*
X19550220Y-18640113D02*
X19528791Y-18640113D01*
X19707363Y-18640113D02*
X19707363Y-18561541D01*
X19707363Y-18561541D02*
X19700220Y-18547256D01*
X19700220Y-18547256D02*
X19685934Y-18540113D01*
X19685934Y-18540113D02*
X19657363Y-18540113D01*
X19657363Y-18540113D02*
X19643077Y-18547256D01*
X19707363Y-18632970D02*
X19693077Y-18640113D01*
X19693077Y-18640113D02*
X19657363Y-18640113D01*
X19657363Y-18640113D02*
X19643077Y-18632970D01*
X19643077Y-18632970D02*
X19635934Y-18618684D01*
X19635934Y-18618684D02*
X19635934Y-18604399D01*
X19635934Y-18604399D02*
X19643077Y-18590113D01*
X19643077Y-18590113D02*
X19657363Y-18582970D01*
X19657363Y-18582970D02*
X19693077Y-18582970D01*
X19693077Y-18582970D02*
X19707363Y-18575827D01*
X19778791Y-18640113D02*
X19778791Y-18540113D01*
X19778791Y-18568684D02*
X19785934Y-18554399D01*
X19785934Y-18554399D02*
X19793077Y-18547256D01*
X19793077Y-18547256D02*
X19807363Y-18540113D01*
X19807363Y-18540113D02*
X19821649Y-18540113D01*
X19935934Y-18640113D02*
X19935934Y-18490113D01*
X19935934Y-18632970D02*
X19921648Y-18640113D01*
X19921648Y-18640113D02*
X19893077Y-18640113D01*
X19893077Y-18640113D02*
X19878791Y-18632970D01*
X19878791Y-18632970D02*
X19871648Y-18625827D01*
X19871648Y-18625827D02*
X19864506Y-18611541D01*
X19864506Y-18611541D02*
X19864506Y-18568684D01*
X19864506Y-18568684D02*
X19871648Y-18554399D01*
X19871648Y-18554399D02*
X19878791Y-18547256D01*
X19878791Y-18547256D02*
X19893077Y-18540113D01*
X19893077Y-18540113D02*
X19921648Y-18540113D01*
X19921648Y-18540113D02*
X19935934Y-18547256D01*
X20007363Y-18625827D02*
X20014506Y-18632970D01*
X20014506Y-18632970D02*
X20007363Y-18640113D01*
X20007363Y-18640113D02*
X20000220Y-18632970D01*
X20000220Y-18632970D02*
X20007363Y-18625827D01*
X20007363Y-18625827D02*
X20007363Y-18640113D01*
X20078791Y-18640113D02*
X20078791Y-18490113D01*
X20093077Y-18582970D02*
X20135934Y-18640113D01*
X20135934Y-18540113D02*
X20078791Y-18597256D01*
X20200220Y-18640113D02*
X20200220Y-18540113D01*
X20200220Y-18490113D02*
X20193077Y-18497256D01*
X20193077Y-18497256D02*
X20200220Y-18504399D01*
X20200220Y-18504399D02*
X20207363Y-18497256D01*
X20207363Y-18497256D02*
X20200220Y-18490113D01*
X20200220Y-18490113D02*
X20200220Y-18504399D01*
X20335934Y-18632970D02*
X20321649Y-18640113D01*
X20321649Y-18640113D02*
X20293077Y-18640113D01*
X20293077Y-18640113D02*
X20278791Y-18632970D01*
X20278791Y-18632970D02*
X20271649Y-18625827D01*
X20271649Y-18625827D02*
X20264506Y-18611541D01*
X20264506Y-18611541D02*
X20264506Y-18568684D01*
X20264506Y-18568684D02*
X20271649Y-18554399D01*
X20271649Y-18554399D02*
X20278791Y-18547256D01*
X20278791Y-18547256D02*
X20293077Y-18540113D01*
X20293077Y-18540113D02*
X20321649Y-18540113D01*
X20321649Y-18540113D02*
X20335934Y-18547256D01*
X20464506Y-18640113D02*
X20464506Y-18561541D01*
X20464506Y-18561541D02*
X20457363Y-18547256D01*
X20457363Y-18547256D02*
X20443077Y-18540113D01*
X20443077Y-18540113D02*
X20414506Y-18540113D01*
X20414506Y-18540113D02*
X20400220Y-18547256D01*
X20464506Y-18632970D02*
X20450220Y-18640113D01*
X20450220Y-18640113D02*
X20414506Y-18640113D01*
X20414506Y-18640113D02*
X20400220Y-18632970D01*
X20400220Y-18632970D02*
X20393077Y-18618684D01*
X20393077Y-18618684D02*
X20393077Y-18604399D01*
X20393077Y-18604399D02*
X20400220Y-18590113D01*
X20400220Y-18590113D02*
X20414506Y-18582970D01*
X20414506Y-18582970D02*
X20450220Y-18582970D01*
X20450220Y-18582970D02*
X20464506Y-18575827D01*
X20600220Y-18640113D02*
X20600220Y-18490113D01*
X20600220Y-18632970D02*
X20585934Y-18640113D01*
X20585934Y-18640113D02*
X20557363Y-18640113D01*
X20557363Y-18640113D02*
X20543077Y-18632970D01*
X20543077Y-18632970D02*
X20535934Y-18625827D01*
X20535934Y-18625827D02*
X20528791Y-18611541D01*
X20528791Y-18611541D02*
X20528791Y-18568684D01*
X20528791Y-18568684D02*
X20535934Y-18554399D01*
X20535934Y-18554399D02*
X20543077Y-18547256D01*
X20543077Y-18547256D02*
X20557363Y-18540113D01*
X20557363Y-18540113D02*
X20585934Y-18540113D01*
X20585934Y-18540113D02*
X20600220Y-18547256D01*
X20635934Y-18654399D02*
X20750220Y-18654399D01*
X20785934Y-18540113D02*
X20785934Y-18690113D01*
X20785934Y-18547256D02*
X20800220Y-18540113D01*
X20800220Y-18540113D02*
X20828791Y-18540113D01*
X20828791Y-18540113D02*
X20843077Y-18547256D01*
X20843077Y-18547256D02*
X20850220Y-18554399D01*
X20850220Y-18554399D02*
X20857363Y-18568684D01*
X20857363Y-18568684D02*
X20857363Y-18611541D01*
X20857363Y-18611541D02*
X20850220Y-18625827D01*
X20850220Y-18625827D02*
X20843077Y-18632970D01*
X20843077Y-18632970D02*
X20828791Y-18640113D01*
X20828791Y-18640113D02*
X20800220Y-18640113D01*
X20800220Y-18640113D02*
X20785934Y-18632970D01*
X20985934Y-18632970D02*
X20971649Y-18640113D01*
X20971649Y-18640113D02*
X20943077Y-18640113D01*
X20943077Y-18640113D02*
X20928791Y-18632970D01*
X20928791Y-18632970D02*
X20921649Y-18625827D01*
X20921649Y-18625827D02*
X20914506Y-18611541D01*
X20914506Y-18611541D02*
X20914506Y-18568684D01*
X20914506Y-18568684D02*
X20921649Y-18554399D01*
X20921649Y-18554399D02*
X20928791Y-18547256D01*
X20928791Y-18547256D02*
X20943077Y-18540113D01*
X20943077Y-18540113D02*
X20971649Y-18540113D01*
X20971649Y-18540113D02*
X20985934Y-18547256D01*
X21050220Y-18640113D02*
X21050220Y-18490113D01*
X21050220Y-18547256D02*
X21064506Y-18540113D01*
X21064506Y-18540113D02*
X21093077Y-18540113D01*
X21093077Y-18540113D02*
X21107363Y-18547256D01*
X21107363Y-18547256D02*
X21114506Y-18554399D01*
X21114506Y-18554399D02*
X21121649Y-18568684D01*
X21121649Y-18568684D02*
X21121649Y-18611541D01*
X21121649Y-18611541D02*
X21114506Y-18625827D01*
X21114506Y-18625827D02*
X21107363Y-18632970D01*
X21107363Y-18632970D02*
X21093077Y-18640113D01*
X21093077Y-18640113D02*
X21064506Y-18640113D01*
X21064506Y-18640113D02*
X21050220Y-18632970D01*
D10*
D11*
X17700220Y-18150720D02*
X28500220Y-18150720D01*
D10*
D11*
X17828791Y-18362970D02*
X17850220Y-18370113D01*
X17850220Y-18370113D02*
X17885934Y-18370113D01*
X17885934Y-18370113D02*
X17900220Y-18362970D01*
X17900220Y-18362970D02*
X17907363Y-18355827D01*
X17907363Y-18355827D02*
X17914506Y-18341541D01*
X17914506Y-18341541D02*
X17914506Y-18327256D01*
X17914506Y-18327256D02*
X17907363Y-18312970D01*
X17907363Y-18312970D02*
X17900220Y-18305827D01*
X17900220Y-18305827D02*
X17885934Y-18298684D01*
X17885934Y-18298684D02*
X17857363Y-18291541D01*
X17857363Y-18291541D02*
X17843077Y-18284399D01*
X17843077Y-18284399D02*
X17835934Y-18277256D01*
X17835934Y-18277256D02*
X17828791Y-18262970D01*
X17828791Y-18262970D02*
X17828791Y-18248684D01*
X17828791Y-18248684D02*
X17835934Y-18234399D01*
X17835934Y-18234399D02*
X17843077Y-18227256D01*
X17843077Y-18227256D02*
X17857363Y-18220113D01*
X17857363Y-18220113D02*
X17893077Y-18220113D01*
X17893077Y-18220113D02*
X17914506Y-18227256D01*
X17978791Y-18370113D02*
X17978791Y-18220113D01*
X18043077Y-18370113D02*
X18043077Y-18291541D01*
X18043077Y-18291541D02*
X18035934Y-18277256D01*
X18035934Y-18277256D02*
X18021649Y-18270113D01*
X18021649Y-18270113D02*
X18000220Y-18270113D01*
X18000220Y-18270113D02*
X17985934Y-18277256D01*
X17985934Y-18277256D02*
X17978791Y-18284399D01*
X18171649Y-18362970D02*
X18157363Y-18370113D01*
X18157363Y-18370113D02*
X18128791Y-18370113D01*
X18128791Y-18370113D02*
X18114506Y-18362970D01*
X18114506Y-18362970D02*
X18107363Y-18348684D01*
X18107363Y-18348684D02*
X18107363Y-18291541D01*
X18107363Y-18291541D02*
X18114506Y-18277256D01*
X18114506Y-18277256D02*
X18128791Y-18270113D01*
X18128791Y-18270113D02*
X18157363Y-18270113D01*
X18157363Y-18270113D02*
X18171649Y-18277256D01*
X18171649Y-18277256D02*
X18178791Y-18291541D01*
X18178791Y-18291541D02*
X18178791Y-18305827D01*
X18178791Y-18305827D02*
X18107363Y-18320113D01*
X18300220Y-18362970D02*
X18285934Y-18370113D01*
X18285934Y-18370113D02*
X18257363Y-18370113D01*
X18257363Y-18370113D02*
X18243077Y-18362970D01*
X18243077Y-18362970D02*
X18235934Y-18348684D01*
X18235934Y-18348684D02*
X18235934Y-18291541D01*
X18235934Y-18291541D02*
X18243077Y-18277256D01*
X18243077Y-18277256D02*
X18257363Y-18270113D01*
X18257363Y-18270113D02*
X18285934Y-18270113D01*
X18285934Y-18270113D02*
X18300220Y-18277256D01*
X18300220Y-18277256D02*
X18307363Y-18291541D01*
X18307363Y-18291541D02*
X18307363Y-18305827D01*
X18307363Y-18305827D02*
X18235934Y-18320113D01*
X18350220Y-18270113D02*
X18407363Y-18270113D01*
X18371648Y-18220113D02*
X18371648Y-18348684D01*
X18371648Y-18348684D02*
X18378791Y-18362970D01*
X18378791Y-18362970D02*
X18393077Y-18370113D01*
X18393077Y-18370113D02*
X18407363Y-18370113D01*
X18457363Y-18355827D02*
X18464506Y-18362970D01*
X18464506Y-18362970D02*
X18457363Y-18370113D01*
X18457363Y-18370113D02*
X18450220Y-18362970D01*
X18450220Y-18362970D02*
X18457363Y-18355827D01*
X18457363Y-18355827D02*
X18457363Y-18370113D01*
X18457363Y-18277256D02*
X18464506Y-18284399D01*
X18464506Y-18284399D02*
X18457363Y-18291541D01*
X18457363Y-18291541D02*
X18450220Y-18284399D01*
X18450220Y-18284399D02*
X18457363Y-18277256D01*
X18457363Y-18277256D02*
X18457363Y-18291541D01*
D10*
D12*
D10*
D11*
D10*
D11*
D10*
D11*
D10*
D11*
D10*
D11*
X19700220Y-19150720D02*
X19700220Y-19450720D01*
D10*
D11*
X26100220Y-19150720D02*
X26100220Y-19800720D01*
D14*
%TO.C,C3*%
X16347000Y-11675000D02*
X16347000Y-11445000D01*
X16347000Y-11445000D02*
X15851000Y-11445000D01*
X15851000Y-11675000D02*
X16347000Y-11675000D01*
X15851000Y-11445000D02*
X15851000Y-11675000D01*
%TO.C,R7*%
X14926000Y-11401750D02*
X14702000Y-11401750D01*
X14702000Y-11401750D02*
X14702000Y-11857750D01*
X14926000Y-11857750D02*
X14926000Y-11401750D01*
X14702000Y-11857750D02*
X14926000Y-11857750D01*
%TO.C,J7*%
X15816000Y-7967000D02*
X16176000Y-7967000D01*
X15816000Y-9342000D02*
X15816000Y-7967000D01*
X16176000Y-7967000D02*
X16176000Y-9342000D01*
X16176000Y-9342000D02*
X15816000Y-9342000D01*
%TO.C,SW1*%
X15811000Y-12059500D02*
X16421000Y-12059500D01*
X16421000Y-12059500D02*
X16421000Y-11704500D01*
X15811000Y-11704500D02*
X15811000Y-12059500D01*
X16421000Y-11704500D02*
X15811000Y-11704500D01*
%TO.C,D2*%
X14283000Y-8942000D02*
X14283000Y-9166000D01*
X14283000Y-9166000D02*
X14739000Y-9166000D01*
X14739000Y-8942000D02*
X14283000Y-8942000D01*
X14739000Y-9166000D02*
X14739000Y-8942000D01*
%TO.C,D3*%
X14286000Y-9244500D02*
X14286000Y-9468500D01*
X14286000Y-9468500D02*
X14742000Y-9468500D01*
X14742000Y-9244500D02*
X14286000Y-9244500D01*
X14742000Y-9468500D02*
X14742000Y-9244500D01*
%TO.C,J8*%
X15797000Y-12535000D02*
X16407000Y-12535000D01*
X16407000Y-12535000D02*
X16407000Y-12180000D01*
X15797000Y-12180000D02*
X15797000Y-12535000D01*
X16407000Y-12180000D02*
X15797000Y-12180000D01*
%TO.C,R8*%
X14500000Y-11858000D02*
X14724000Y-11858000D01*
X14724000Y-11858000D02*
X14724000Y-11402000D01*
X14500000Y-11402000D02*
X14500000Y-11858000D01*
X14724000Y-11402000D02*
X14500000Y-11402000D01*
%TO.C,J9*%
X15644000Y-12166500D02*
X15034000Y-12166500D01*
X15034000Y-12166500D02*
X15034000Y-12521500D01*
X15644000Y-12521500D02*
X15644000Y-12166500D01*
X15034000Y-12521500D02*
X15644000Y-12521500D01*
%TO.C,D5*%
X14932000Y-9541000D02*
X14932000Y-9765000D01*
X14932000Y-9765000D02*
X15388000Y-9765000D01*
X15388000Y-9541000D02*
X14932000Y-9541000D01*
X15388000Y-9765000D02*
X15388000Y-9541000D01*
%TD*%
D15*
X17448541Y-8236000D02*
G75*
G03*
X17448541Y-8236000I-150541J0D01*
G01*
D16*
X16180000Y-8037000D02*
X16360000Y-8037000D01*
X16360000Y-9277000D01*
X16180000Y-9277000D01*
X16180000Y-8037000D01*
X16832500Y-8047000D02*
G75*
G03*
X16832500Y-8047000I-141532J0D01*
G01*
X10029032Y-8047000D02*
G75*
G03*
X10029032Y-8047000I-141532J0D01*
G01*
D15*
X9557541Y-12227000D02*
G75*
G03*
X9557541Y-12227000I-150541J0D01*
G01*
X9546541Y-8235000D02*
G75*
G03*
X9546541Y-8235000I-150541J0D01*
G01*
X17447541Y-12227000D02*
G75*
G03*
X17447541Y-12227000I-150541J0D01*
G01*
D16*
X10075000Y-11957000D02*
G75*
G03*
X10075000Y-11957000I-141532J0D01*
G01*
X16833000Y-11969500D02*
G75*
G03*
X16833000Y-11969500I-141532J0D01*
G01*
X9056000Y-7769500D02*
X17653000Y-7769500D01*
X17653000Y-12719500D01*
X9056000Y-12719500D01*
X9056000Y-7769500D01*
M02*
